<svg width="741" height="610" fill="none" xmlns="http://www.w3.org/2000/svg"><path d="M0 210.973C0 94.801 94.177.624 210.349.624h28.4v238.749H0v-28.4z" fill="#ED6373"/><path d="M29.844 299.06c0-19.672 15.947-35.62 35.62-35.62h35.619v71.24h-35.62c-19.672 0-35.62-15.947-35.62-35.62z" fill="#F3B63F"/><circle cx="282.552" cy="73.308" r="24.549" fill="#3E54D8"/><g filter="url(#filter0_d)"><rect x="129.964" y="118.073" width="541.036" height="379.303" rx="9.627" fill="#fff"/></g><path d="M129.964 127.7a9.627 9.627 0 019.627-9.627h521.782A9.627 9.627 0 01671 127.7v25.03H129.964V127.7z" fill="#050238"/><circle cx="150.662" cy="135.883" r="3.369" fill="#fff"/><circle opacity=".3" cx="163.177" cy="135.883" r="3.369" fill="#fff"/><circle opacity=".3" cx="176.655" cy="135.883" r="3.369" fill="#fff"/><path d="M179.128 237.014h-4.135l-.891 1.948h-.816l3.393-7.29h.774l3.393 7.29h-.827l-.891-1.948zm-.286-.625l-1.781-3.915-1.782 3.915h3.563zm5.272.136h-1.273v2.437h-.753v-5.478h.753v2.405h1.283l1.962-2.405h.817l-2.195 2.655 2.354 2.823h-.891l-2.057-2.437zm9.947 1.791v2.02h-.71v-1.374h-5.101v-5.478h.753v4.832h3.404v-4.832h.753v4.832h.901zm1.438-4.832h.753v4.353l3.722-4.353h.668v5.478h-.753v-4.353l-3.711 4.353h-.679v-5.478zm7.301 0h.753v4.353l3.722-4.353h.668v5.478h-.753v-4.353l-3.712 4.353h-.678v-5.478zm-24.638 70.061a4.148 4.148 0 01-2.01-.491 3.702 3.702 0 01-1.404-1.367 3.808 3.808 0 01-.5-1.942c0-.719.167-1.366.5-1.942a3.618 3.618 0 011.404-1.356 4.079 4.079 0 012.01-.502c.738 0 1.401.164 1.989.491a3.604 3.604 0 011.404 1.367c.341.576.511 1.223.511 1.942 0 .719-.17 1.37-.511 1.953a3.632 3.632 0 01-1.404 1.356c-.588.327-1.251.491-1.989.491zm0-.705a3.24 3.24 0 001.596-.395 2.94 2.94 0 001.117-1.11 3.178 3.178 0 00.404-1.59c0-.583-.135-1.11-.404-1.58a2.858 2.858 0 00-1.117-1.11 3.172 3.172 0 00-1.596-.405c-.588 0-1.124.135-1.606.405a2.924 2.924 0 00-1.127 1.11c-.27.47-.404.997-.404 1.58 0 .583.134 1.114.404 1.59.276.47.652.84 1.127 1.11a3.3 3.3 0 001.606.395zm8.314-4.835c.517 0 .978.118 1.383.352.411.228.73.552.957.972.227.412.34.886.34 1.419 0 .548-.12 1.036-.361 1.462-.234.42-.564.748-.99.982-.425.235-.914.353-1.468.353-.928 0-1.648-.328-2.159-.982-.51-.655-.766-1.559-.766-2.711 0-1.203.227-2.124.681-2.765.461-.64 1.177-1.074 2.149-1.302l2.51-.576.128.694-2.362.544c-.801.178-1.39.495-1.765.95-.376.448-.582 1.113-.617 1.996a2.51 2.51 0 01.946-1.014 2.606 2.606 0 011.394-.374zm-.117 4.91c.39 0 .737-.089 1.042-.267.312-.185.553-.441.723-.768.178-.328.266-.698.266-1.11 0-.413-.085-.776-.255-1.089a1.78 1.78 0 00-.723-.726 2.05 2.05 0 00-1.053-.267 2.11 2.11 0 00-1.064.267 1.869 1.869 0 00-.723.726c-.17.313-.255.676-.255 1.089 0 .412.085.782.255 1.11.177.327.422.583.734.768.312.178.663.267 1.053.267zm12.138-5.048v5.613h-7.722v-5.613h.755v4.952h2.744v-4.952h.755v4.952h2.713v-4.952h.755zm.861 4.952v1.889h-.712v-1.228h-.947v-.661h1.659zm1.295-4.952h.755v4.461l3.734-4.461h.67v5.613h-.755v-4.461l-3.723 4.461h-.681v-5.613zm7.323 0h.755v4.461l3.734-4.461h.67v5.613h-.755v-4.461l-3.723 4.461h-.681v-5.613zm2.542-.812c-.482 0-.865-.121-1.149-.362-.283-.242-.429-.584-.436-1.025h.543a.887.887 0 00.298.672c.191.164.439.246.744.246s.553-.082.745-.246a.875.875 0 00.308-.672h.543c-.007.441-.156.783-.447 1.025-.284.241-.667.362-1.149.362zm13.021 5.764v2.017h-.712v-1.356h-5.01v1.356h-.713v-2.017h.319c.376-.022.631-.299.766-.833.135-.533.227-1.28.277-2.241l.074-1.878h4.127v4.952h.872zm-4.382-3.031c-.035.797-.103 1.455-.202 1.974-.099.512-.277.865-.532 1.057h3.489v-4.28h-2.691l-.064 1.249zm8.162 3.746a2.933 2.933 0 01-1.457-.363 2.716 2.716 0 01-1.021-1.025 2.914 2.914 0 01-.372-1.472c0-.548.124-1.039.372-1.473a2.639 2.639 0 011.021-1.014 2.933 2.933 0 011.457-.363 2.93 2.93 0 011.457.363c.433.242.77.58 1.011 1.014.248.434.372.925.372 1.473 0 .547-.124 1.038-.372 1.472a2.641 2.641 0 01-1.011 1.025 2.93 2.93 0 01-1.457.363zm0-.673c.397 0 .752-.088 1.064-.266a1.92 1.92 0 00.744-.779c.178-.335.266-.716.266-1.142 0-.427-.088-.808-.266-1.142a1.846 1.846 0 00-.744-.769 2.047 2.047 0 00-1.064-.277c-.397 0-.755.092-1.074.277-.312.178-.56.434-.745.769a2.403 2.403 0 00-.266 1.142c0 .426.089.807.266 1.142.185.334.433.594.745.779.319.178.677.266 1.074.266zm7.756.619l-1.776-2.348-1.787 2.348h-.851l2.212-2.881-2.106-2.732h.851l1.681 2.198 1.681-2.198h.829l-2.106 2.732 2.234 2.881h-.862zm4.21.054a2.933 2.933 0 01-1.457-.363 2.723 2.723 0 01-1.021-1.025 2.914 2.914 0 01-.372-1.472c0-.548.124-1.039.372-1.473a2.646 2.646 0 011.021-1.014 2.933 2.933 0 011.457-.363c.539 0 1.025.121 1.458.363.432.242.769.58 1.01 1.014.248.434.372.925.372 1.473 0 .547-.124 1.038-.372 1.472a2.646 2.646 0 01-1.01 1.025 2.937 2.937 0 01-1.458.363zm0-.673c.397 0 .752-.088 1.064-.266.319-.185.567-.445.745-.779.177-.335.265-.716.265-1.142 0-.427-.088-.808-.265-1.142a1.855 1.855 0 00-.745-.769 2.047 2.047 0 00-1.064-.277c-.397 0-.755.092-1.074.277-.312.178-.56.434-.745.769a2.402 2.402 0 00-.265 1.142c0 .426.088.807.265 1.142.185.334.433.594.745.779.319.178.677.266 1.074.266zm9.88-.042v2.017h-.713v-1.356h-5.01v1.356h-.712v-2.017h.319c.375-.022.631-.299.765-.833.135-.533.227-1.28.277-2.241l.074-1.878h4.127v4.952h.873zm-4.383-3.031c-.035.797-.102 1.455-.202 1.974-.099.512-.276.865-.532 1.057h3.489v-4.28h-2.691l-.064 1.249zm5.908-.801a.554.554 0 01-.405-.171.586.586 0 01-.159-.416.55.55 0 01.159-.405.554.554 0 01.405-.171c.156 0 .29.057.404.171.113.106.17.242.17.405a.567.567 0 01-.17.416.551.551 0 01-.404.171zm0 4.547a.554.554 0 01-.405-.171.588.588 0 01-.159-.416c0-.164.053-.299.159-.406a.553.553 0 01.405-.17.55.55 0 01.404.17c.113.107.17.242.17.406a.568.568 0 01-.17.416.551.551 0 01-.404.171z" fill="#373943"/><path d="M264.968 301.031c0 .588-.215 1.09-.645 1.505-.422.407-1.038.654-1.846.741v1.222h-.881v-1.211a5.91 5.91 0 01-1.503-.294c-.472-.16-.848-.364-1.127-.611l.483-1.102c.265.219.587.404.966.557.379.145.773.236 1.181.272v-2.181a8.583 8.583 0 01-1.278-.403 2.295 2.295 0 01-.848-.655c-.229-.291-.343-.672-.343-1.145 0-.589.211-1.091.633-1.505.422-.414 1.034-.662 1.836-.742v-1.232h.881v1.211c.4.021.791.091 1.17.207a3.81 3.81 0 011.009.458l-.44 1.101a4.425 4.425 0 00-1.739-.589v2.203c.515.124.941.259 1.277.404.344.145.63.364.859.654.236.284.355.662.355 1.135zm-4.456-3.37c0 .24.093.432.279.578.186.145.454.269.805.37v-1.941c-.365.058-.637.175-.816.349a.864.864 0 00-.268.644zm1.965 4.427c.379-.058.658-.17.837-.338a.801.801 0 00.279-.621.697.697 0 00-.29-.589c-.193-.153-.469-.28-.826-.382v1.93zm8.782-.098v1.2h-5.541v-.949l2.985-2.879c.337-.327.562-.611.677-.851a1.65 1.65 0 00.182-.73c0-.357-.118-.629-.354-.818-.236-.189-.584-.284-1.042-.284-.766 0-1.353.265-1.761.796l-.977-.763c.294-.4.687-.709 1.181-.927a4.03 4.03 0 011.675-.338c.816 0 1.468.196 1.954.589.487.392.731.927.731 1.603 0 .414-.086.803-.258 1.167-.172.363-.501.778-.988 1.243l-2.008 1.941h3.544zm3.339-6.543c1.031 0 1.829.327 2.394.981.573.655.859 1.593.859 2.814 0 .858-.153 1.592-.461 2.203a3.267 3.267 0 01-1.299 1.385c-.552.313-1.192.469-1.922.469-.387 0-.752-.04-1.096-.12a3.034 3.034 0 01-.88-.371l.515-1.069c.373.248.849.371 1.428.371.723 0 1.289-.225 1.697-.676.408-.451.612-1.101.612-1.952v-.011a2.133 2.133 0 01-.848.6 3.24 3.24 0 01-1.16.196c-.494 0-.938-.094-1.331-.283a2.246 2.246 0 01-.924-.829 2.284 2.284 0 01-.333-1.233c0-.494.122-.927.365-1.297.244-.379.573-.669.988-.873a3.137 3.137 0 011.396-.305zm.107 3.708c.451 0 .816-.124 1.096-.371.286-.247.429-.56.429-.938 0-.371-.139-.676-.419-.916-.272-.247-.651-.371-1.138-.371-.436 0-.791.12-1.063.36-.272.233-.408.545-.408.938 0 .4.136.716.408.949.272.232.637.349 1.095.349zm8.965.022c.394.181.695.429.902.741.215.306.322.665.322 1.08 0 .465-.128.872-.386 1.221-.251.349-.609.618-1.074.807-.465.182-1.006.273-1.621.273-.616 0-1.156-.091-1.621-.273-.459-.189-.813-.458-1.063-.807a2.036 2.036 0 01-.376-1.221c0-.415.104-.774.311-1.08.208-.312.505-.56.891-.741a1.87 1.87 0 01-.698-.655 1.885 1.885 0 01-.236-.949c0-.429.115-.803.344-1.123.236-.32.565-.567.988-.742.422-.174.909-.261 1.46-.261.558 0 1.049.087 1.471.261.422.175.751.422.988.742.236.32.354.694.354 1.123 0 .357-.082.669-.247.938a1.925 1.925 0 01-.709.666zm-1.857-2.618c-.437 0-.784.095-1.042.284-.25.189-.375.454-.375.796 0 .327.125.589.375.785.258.189.605.284 1.042.284.444 0 .794-.095 1.052-.284a.937.937 0 00.387-.785c0-.342-.133-.607-.398-.796-.257-.189-.604-.284-1.041-.284zm0 5.628c.515 0 .923-.109 1.224-.328.301-.218.451-.519.451-.905 0-.378-.15-.676-.451-.894-.301-.218-.709-.327-1.224-.327-.516 0-.92.109-1.213.327a1.053 1.053 0 00-.441.894c0 .386.147.687.441.905.293.219.697.328 1.213.328zm8.862-3.01c.393.181.694.429.902.741.214.306.322.665.322 1.08 0 .465-.129.872-.387 1.221-.25.349-.608.618-1.074.807-.465.182-1.005.273-1.621.273-.615 0-1.156-.091-1.621-.273-.458-.189-.813-.458-1.063-.807a2.036 2.036 0 01-.376-1.221c0-.415.104-.774.311-1.08.208-.312.505-.56.892-.741a1.855 1.855 0 01-.698-.655 1.875 1.875 0 01-.237-.949c0-.429.115-.803.344-1.123.236-.32.566-.567.988-.742.422-.174.909-.261 1.46-.261.558 0 1.049.087 1.471.261.422.175.752.422.988.742s.354.694.354 1.123c0 .357-.082.669-.247.938a1.922 1.922 0 01-.708.666zm-1.858-2.618c-.437 0-.784.095-1.041.284-.251.189-.376.454-.376.796 0 .327.125.589.376.785.257.189.604.284 1.041.284.444 0 .795-.095 1.052-.284a.937.937 0 00.387-.785c0-.342-.133-.607-.397-.796-.258-.189-.605-.284-1.042-.284zm0 5.628c.516 0 .924-.109 1.224-.328.301-.218.451-.519.451-.905 0-.378-.15-.676-.451-.894-.3-.218-.708-.327-1.224-.327-.515 0-.92.109-1.213.327-.294.218-.44.516-.44.894 0 .386.146.687.44.905.293.219.698.328 1.213.328zm4.94-.731c.251 0 .458.084.623.251.165.167.247.385.247.654 0 .116-.018.24-.054.371a4.457 4.457 0 01-.193.567l-.547 1.538h-.87l.429-1.669a.829.829 0 01-.376-.305.979.979 0 01-.128-.502c0-.269.082-.487.247-.654a.837.837 0 01.622-.251zm4.783 1.843a2.908 2.908 0 01-1.611-.458c-.472-.313-.844-.763-1.116-1.352-.272-.597-.408-1.302-.408-2.116 0-.814.136-1.516.408-2.105.272-.596.644-1.047 1.116-1.352a2.853 2.853 0 011.611-.469c.601 0 1.138.156 1.61.469.48.305.856.756 1.128 1.352.272.589.408 1.291.408 2.105 0 .814-.136 1.519-.408 2.116-.272.589-.648 1.039-1.128 1.352a2.902 2.902 0 01-1.61.458zm0-1.232c.537 0 .959-.226 1.267-.677.315-.45.472-1.123.472-2.017 0-.894-.157-1.567-.472-2.018-.308-.451-.73-.676-1.267-.676-.53 0-.952.225-1.267.676-.308.451-.462 1.124-.462 2.018 0 .894.154 1.567.462 2.017.315.451.737.677 1.267.677zm6.635-6.511v7.634h-1.396v-6.445h-1.589v-1.189h2.985z" fill="#3E54D8"/><path d="M315.131 304.836a7.399 7.399 0 01-.963-2.17 10.247 10.247 0 01-.329-2.644c0-.939.11-1.82.329-2.643.225-.83.547-1.553.963-2.17h1.26a9.097 9.097 0 00-.953 2.294 10.228 10.228 0 00-.296 2.519c0 .899.098 1.742.296 2.531.205.781.522 1.542.953 2.283h-1.26zm4.621-9.195v7.2h-1.377v-6.079h-1.566v-1.121h2.943zm4.032 0v7.2h-1.376v-6.079h-1.567v-1.121h2.943zm2.307 5.564c.247 0 .452.079.614.237a.822.822 0 01.243.617c0 .11-.017.226-.053.35a4.087 4.087 0 01-.19.534l-.54 1.451h-.858l.424-1.574a.813.813 0 01-.371-.288.888.888 0 01-.127-.473.82.82 0 01.244-.617.844.844 0 01.614-.237zm7.219.504v1.132h-5.463v-.895l2.944-2.715c.331-.309.554-.576.667-.803.12-.233.18-.463.18-.689 0-.336-.117-.593-.35-.771-.233-.179-.575-.268-1.027-.268-.755 0-1.334.251-1.736.751l-.964-.72c.29-.377.678-.668 1.165-.874a4.132 4.132 0 011.652-.319c.804 0 1.447.185 1.927.556.48.37.72.874.72 1.511 0 .391-.085.758-.255 1.101-.169.343-.494.734-.974 1.172l-1.979 1.831h3.493zm3.95-3.096c.685.083 1.207.309 1.567.679.36.37.54.833.54 1.389 0 .418-.11.799-.328 1.141-.219.343-.551.617-.996.823-.437.199-.974.298-1.609.298a5.459 5.459 0 01-1.535-.216 4.007 4.007 0 01-1.249-.617l.592-1.038c.269.219.593.394.975.524.388.124.787.185 1.196.185.487 0 .868-.096 1.143-.288a.932.932 0 00.424-.802.896.896 0 00-.402-.782c-.262-.192-.664-.288-1.207-.288h-.678v-.915l1.683-1.944h-3.366v-1.121h5.05v.895l-1.8 2.077zm4.555.905c-.529 0-.956-.181-1.281-.545-.324-.363-.487-.84-.487-1.429 0-.59.163-1.067.487-1.43.325-.363.752-.545 1.281-.545.53 0 .957.182 1.281.545.332.357.498.833.498 1.43 0 .596-.166 1.076-.498 1.44-.324.356-.751.534-1.281.534zm4.447-3.877h1.038l-5.061 7.2h-1.038l5.061-7.2zm-4.447 3.158c.29 0 .512-.11.667-.33.163-.219.244-.528.244-.925 0-.398-.081-.707-.244-.926-.155-.219-.377-.329-.667-.329a.796.796 0 00-.667.339c-.162.22-.243.525-.243.916s.081.699.243.925c.17.22.392.33.667.33zm4.86 4.114c-.529 0-.956-.182-1.281-.545-.325-.364-.487-.84-.487-1.43s.162-1.066.487-1.43c.325-.363.752-.545 1.281-.545.529 0 .956.182 1.281.545.332.364.498.84.498 1.43s-.166 1.066-.498 1.43c-.325.363-.752.545-1.281.545zm0-.72c.282 0 .505-.11.667-.329.162-.227.244-.535.244-.926s-.082-.696-.244-.916a.777.777 0 00-.667-.339.786.786 0 00-.667.329c-.162.22-.244.528-.244.926s.082.706.244.926a.786.786 0 00.667.329zm2.158 2.643c.43-.741.748-1.505.953-2.294.204-.788.307-1.628.307-2.52 0-.891-.103-1.731-.307-2.519a9.134 9.134 0 00-.953-2.294h1.26c.416.61.734 1.33.953 2.16.226.823.339 1.707.339 2.653 0 .947-.113 1.831-.339 2.654a7.25 7.25 0 01-.953 2.16h-1.26z" fill="#199F27"/><path d="M181.244 323.622v2.394h-.733v-1.701h-6.483l-.01 1.701h-.732l.01-2.394h.372c.488-.028.827-.422 1.018-1.18.191-.765.308-1.848.35-3.249l.085-2.458h5.008v6.887h1.115zm-5.507-4.353c-.036 1.155-.124 2.108-.266 2.859-.134.744-.364 1.242-.689 1.494h4.573v-6.194H175.8l-.063 1.841zm6.928-.65h.753v2.524h3.512v-2.524h.754v5.696h-.754v-2.512h-3.512v2.512h-.753v-5.696zm12.041 3.087h-4.669c.043.592.265 1.072.669 1.44.403.361.912.541 1.528.541.346 0 .665-.061.955-.184.29-.13.541-.317.753-.563l.424.498a2.363 2.363 0 01-.933.693 3.047 3.047 0 01-1.221.239c-.573 0-1.082-.123-1.528-.369a2.717 2.717 0 01-1.029-1.039 3.006 3.006 0 01-.371-1.495c0-.555.117-1.054.35-1.494.24-.44.566-.783.976-1.029a2.714 2.714 0 011.401-.368c.516 0 .979.123 1.39.368.41.246.732.589.965 1.029.234.433.35.931.35 1.494l-.01.239zm-2.695-2.469c-.538 0-.991.177-1.358.53-.361.347-.566.802-.616 1.365h3.958c-.05-.563-.258-1.018-.626-1.365-.361-.353-.814-.53-1.358-.53zm7.928 2.133c.757.18 1.135.646 1.135 1.397 0 .498-.18.881-.541 1.148-.361.267-.898.4-1.613.4h-2.536v-5.696h2.462c.636 0 1.135.127 1.496.379.361.253.541.614.541 1.083 0 .311-.085.578-.255.802a1.457 1.457 0 01-.689.487zm-2.823-.217h1.677c.431 0 .76-.083.987-.249.233-.166.35-.408.35-.725 0-.318-.117-.556-.35-.715-.227-.159-.556-.238-.987-.238h-1.677v1.927zm1.772 2.556c.481 0 .842-.079 1.083-.238.24-.159.36-.408.36-.747 0-.34-.109-.589-.329-.748-.219-.166-.566-.249-1.039-.249h-1.847v1.982h1.772zm3.952-5.09h.753v2.524h3.512v-2.524h.754v5.696h-.754v-2.512h-3.512v2.512h-.753v-5.696zm9.462 5.751a2.88 2.88 0 01-1.453-.369 2.734 2.734 0 01-1.019-1.039 2.995 2.995 0 01-.371-1.495c0-.555.123-1.054.371-1.494.248-.44.587-.783 1.019-1.029a2.89 2.89 0 011.453-.368c.538 0 1.022.123 1.454.368.431.246.767.589 1.008 1.029.248.44.371.939.371 1.494 0 .556-.123 1.054-.371 1.495-.241.44-.577.787-1.008 1.039a2.884 2.884 0 01-1.454.369zm0-.683c.396 0 .75-.09 1.061-.27.319-.188.566-.452.743-.791.177-.339.265-.725.265-1.159 0-.433-.088-.819-.265-1.158a1.86 1.86 0 00-.743-.78 2.01 2.01 0 00-1.061-.281c-.396 0-.753.093-1.071.281-.312.181-.559.44-.743.78a2.465 2.465 0 00-.265 1.158c0 .434.088.82.265 1.159.184.339.431.603.743.791.318.18.675.27 1.071.27zm4.443-5.068h.754v4.527l3.724-4.527h.669v5.696h-.754v-4.526l-3.713 4.526h-.68v-5.696zm2.536-.823c-.481 0-.863-.122-1.146-.368-.282-.245-.428-.592-.435-1.039h.542a.91.91 0 00.297.682c.191.166.438.249.742.249.305 0 .552-.083.743-.249a.895.895 0 00.308-.682h.541c-.007.447-.156.794-.446 1.039-.283.246-.665.368-1.146.368zm12.99 5.848v2.047h-.711v-1.376h-4.998v1.376h-.71v-2.047h.318c.375-.022.629-.303.764-.845.134-.541.226-1.299.276-2.274l.074-1.906h4.117v5.025h.87zm-4.372-3.075c-.035.808-.102 1.476-.201 2.003-.099.52-.276.877-.531 1.072h3.481v-4.342h-2.685l-.064 1.267zm8.143 3.801a2.884 2.884 0 01-1.454-.369 2.74 2.74 0 01-1.019-1.039 3.006 3.006 0 01-.371-1.495c0-.555.124-1.054.371-1.494.248-.44.588-.783 1.019-1.029a2.894 2.894 0 011.454-.368 2.89 2.89 0 011.453.368c.432.246.768.589 1.008 1.029.248.44.372.939.372 1.494 0 .556-.124 1.054-.372 1.495a2.65 2.65 0 01-1.008 1.039 2.88 2.88 0 01-1.453.369zm0-.683c.396 0 .75-.09 1.061-.27.318-.188.566-.452.743-.791.176-.339.265-.725.265-1.159 0-.433-.089-.819-.265-1.158a1.866 1.866 0 00-.743-.78 2.01 2.01 0 00-1.061-.281c-.396 0-.754.093-1.072.281-.311.181-.559.44-.743.78a2.465 2.465 0 00-.265 1.158c0 .434.088.82.265 1.159.184.339.432.603.743.791.318.18.676.27 1.072.27zm7.737.628l-1.772-2.382-1.783 2.382h-.849l2.207-2.923-2.1-2.773h.848l1.677 2.231 1.676-2.231h.828l-2.101 2.773 2.228 2.923h-.859zm4.2.055a2.884 2.884 0 01-1.454-.369 2.74 2.74 0 01-1.019-1.039 3.006 3.006 0 01-.371-1.495c0-.555.124-1.054.371-1.494.248-.44.588-.783 1.019-1.029a2.894 2.894 0 011.454-.368 2.89 2.89 0 011.453.368c.432.246.768.589 1.008 1.029.248.44.372.939.372 1.494 0 .556-.124 1.054-.372 1.495a2.65 2.65 0 01-1.008 1.039 2.88 2.88 0 01-1.453.369zm0-.683c.396 0 .75-.09 1.061-.27.318-.188.566-.452.743-.791.176-.339.265-.725.265-1.159 0-.433-.089-.819-.265-1.158a1.866 1.866 0 00-.743-.78 2.01 2.01 0 00-1.061-.281c-.396 0-.754.093-1.072.281-.311.181-.559.44-.743.78a2.465 2.465 0 00-.265 1.158c0 .434.088.82.265 1.159.184.339.432.603.743.791.318.18.676.27 1.072.27zm9.855-.043v2.047h-.711v-1.376h-4.997v1.376h-.711v-2.047h.318c.375-.022.629-.303.764-.845.134-.541.226-1.299.276-2.274l.074-1.906h4.117v5.025h.87zm-4.372-3.075c-.035.808-.102 1.476-.201 2.003-.099.52-.276.877-.531 1.072h3.481v-4.342h-2.685l-.064 1.267zm5.893-.813a.544.544 0 01-.403-.173.6.6 0 01-.159-.422.566.566 0 01.562-.585.55.55 0 01.404.173.547.547 0 01.169.412.58.58 0 01-.169.422.546.546 0 01-.404.173zm0 4.614a.545.545 0 01-.403-.174.6.6 0 01-.159-.422c0-.166.053-.303.159-.411a.545.545 0 01.403-.174c.156 0 .29.058.404.174a.544.544 0 01.169.411.58.58 0 01-.169.422.547.547 0 01-.404.174zm45.944-84.997c-.753 0-1.433-.165-2.042-.497a3.717 3.717 0 01-1.422-1.374 3.888 3.888 0 01-.511-1.979c0-.729.17-1.385.511-1.969a3.67 3.67 0 011.433-1.385c.609-.331 1.289-.497 2.042-.497.565 0 1.086.094 1.564.281.478.188.884.462 1.217.822l-.511.509c-.594-.599-1.343-.898-2.248-.898-.601 0-1.148.137-1.64.411-.492.274-.88.649-1.162 1.125a3.14 3.14 0 00-.413 1.601c0 .591.138 1.125.413 1.601.282.475.67.85 1.162 1.125a3.314 3.314 0 001.64.411c.912 0 1.662-.303 2.248-.909l.511.508a3.325 3.325 0 01-1.228.833 4.235 4.235 0 01-1.564.281zm8.388-5.754v5.69h-.772v-2.369c-.658.288-1.306.432-1.944.432-.687 0-1.223-.155-1.607-.465-.384-.317-.576-.789-.576-1.417v-1.871h.771v1.828c0 .425.138.75.413.973.275.217.655.325 1.141.325.535 0 1.136-.141 1.802-.422v-2.704h.772zm7.186 3.083h-4.779c.043.591.271 1.071.684 1.438.413.361.934.541 1.564.541.355 0 .681-.061.977-.184.297-.13.554-.317.772-.562l.434.497a2.438 2.438 0 01-.956.693 3.196 3.196 0 01-1.249.238c-.586 0-1.108-.123-1.564-.368a2.745 2.745 0 01-1.053-1.039 2.926 2.926 0 01-.38-1.492c0-.556.119-1.053.358-1.493.246-.44.579-.782.999-1.028a2.829 2.829 0 011.434-.367c.528 0 1.003.122 1.423.367.42.246.749.588.988 1.028.239.433.358.93.358 1.493l-.01.238zm-2.759-2.467c-.55 0-1.014.177-1.39.53-.37.347-.58.801-.63 1.363h4.051c-.051-.562-.264-1.016-.641-1.363-.369-.353-.833-.53-1.39-.53zm8.24.065h-2.161v5.009h-.771V234.3h-2.161v-.681h5.093v.681z" fill="#373943"/><path d="M184.967 265.184c0 1.071-.384 1.983-1.151 2.737-.754.74-1.853 1.189-3.298 1.348v2.221h-1.572v-2.201a10.412 10.412 0 01-2.684-.536c-.844-.29-1.515-.661-2.014-1.11l.863-2.003c.473.397 1.048.734 1.726 1.012.677.264 1.38.429 2.109.495v-3.966c-.908-.224-1.668-.469-2.282-.733a4.103 4.103 0 01-1.515-1.19c-.409-.529-.613-1.223-.613-2.082 0-1.071.377-1.983 1.131-2.736.754-.754 1.847-1.203 3.279-1.349v-2.24h1.572v2.201a8.565 8.565 0 012.09.376 6.772 6.772 0 011.803.833l-.786 2.003a7.794 7.794 0 00-3.107-1.071v4.006c.921.224 1.681.469 2.282.733a3.822 3.822 0 011.534 1.19c.422.516.633 1.203.633 2.062zm-7.958-6.127c0 .436.167.787.499 1.051.332.264.812.489 1.438.674v-3.529c-.652.105-1.138.317-1.457.634-.32.317-.48.707-.48 1.17zm3.509 8.051c.678-.106 1.176-.311 1.496-.615.332-.304.498-.681.498-1.13 0-.45-.172-.807-.517-1.071-.345-.278-.838-.509-1.477-.694v3.51zm20.983-.179v2.181h-9.894v-1.725l5.33-5.235c.601-.594 1.004-1.11 1.208-1.546.217-.45.326-.893.326-1.329 0-.648-.211-1.143-.633-1.487-.421-.344-1.041-.516-1.86-.516-1.367 0-2.416.483-3.144 1.448l-1.745-1.388c.524-.727 1.227-1.289 2.109-1.686.895-.409 1.892-.614 2.991-.614 1.458 0 2.621.357 3.49 1.071.869.713 1.304 1.685 1.304 2.914 0 .754-.153 1.461-.46 2.122-.307.661-.895 1.415-1.764 2.261l-3.586 3.529h6.328zm5.964-11.897c1.84 0 3.266.595 4.276 1.784 1.022 1.19 1.534 2.895 1.534 5.116 0 1.56-.275 2.895-.825 4.006-.55 1.097-1.323 1.936-2.32 2.518-.984.568-2.128.853-3.432.853a8.477 8.477 0 01-1.956-.218 5.385 5.385 0 01-1.572-.675l.92-1.943c.665.45 1.515.674 2.55.674 1.291 0 2.301-.41 3.03-1.229.728-.82 1.093-2.003 1.093-3.549v-.02a3.81 3.81 0 01-1.515 1.09c-.614.238-1.304.357-2.071.357-.882 0-1.675-.172-2.378-.515a4.034 4.034 0 01-1.649-1.507c-.396-.648-.594-1.395-.594-2.241 0-.899.217-1.686.652-2.36a4.342 4.342 0 011.764-1.586c.741-.37 1.572-.555 2.493-.555zm.191 6.742c.806 0 1.458-.225 1.956-.675.512-.449.767-1.017.767-1.705 0-.674-.249-1.229-.748-1.665-.485-.45-1.163-.675-2.032-.675-.78 0-1.413.218-1.898.655-.486.423-.729.991-.729 1.705 0 .727.243 1.302.729 1.725.485.423 1.137.635 1.955.635zm17.13-6.742c1.84 0 3.266.595 4.276 1.784 1.022 1.19 1.534 2.895 1.534 5.116 0 1.56-.275 2.895-.825 4.006-.55 1.097-1.323 1.936-2.32 2.518-.984.568-2.128.853-3.432.853a8.477 8.477 0 01-1.956-.218 5.403 5.403 0 01-1.573-.675l.921-1.943c.665.45 1.515.674 2.55.674 1.291 0 2.301-.41 3.03-1.229.728-.82 1.093-2.003 1.093-3.549v-.02a3.817 3.817 0 01-1.515 1.09c-.614.238-1.304.357-2.071.357-.882 0-1.675-.172-2.378-.515a4.034 4.034 0 01-1.649-1.507c-.396-.648-.594-1.395-.594-2.241 0-.899.217-1.686.652-2.36a4.336 4.336 0 011.764-1.586c.741-.37 1.572-.555 2.493-.555zm.191 6.742c.806 0 1.458-.225 1.956-.675.512-.449.767-1.017.767-1.705 0-.674-.249-1.229-.748-1.665-.485-.45-1.163-.675-2.032-.675-.78 0-1.413.218-1.898.655-.486.423-.729.991-.729 1.705 0 .727.243 1.302.729 1.725.485.423 1.137.635 1.955.635zm16.01.039c.703.331 1.24.78 1.611 1.349.384.555.575 1.209.575 1.963 0 .846-.23 1.586-.69 2.221-.447.634-1.087 1.123-1.917 1.467-.831.33-1.796.496-2.896.496-1.099 0-2.064-.166-2.895-.496-.818-.344-1.451-.833-1.899-1.467-.447-.635-.671-1.375-.671-2.221 0-.754.186-1.408.556-1.963.371-.569.902-1.018 1.592-1.349a3.334 3.334 0 01-1.246-1.189c-.282-.503-.422-1.078-.422-1.726 0-.78.204-1.46.613-2.042.422-.582 1.01-1.031 1.764-1.348.755-.318 1.624-.476 2.608-.476.997 0 1.873.158 2.627.476.754.317 1.342.766 1.764 1.348.422.582.633 1.262.633 2.042 0 .648-.147 1.217-.441 1.706-.294.489-.716.892-1.266 1.209zm-3.317-4.759c-.78 0-1.4.172-1.86.516-.447.344-.671.826-.671 1.447 0 .595.224 1.071.671 1.428.46.344 1.08.516 1.86.516.793 0 1.419-.172 1.879-.516.461-.357.691-.833.691-1.428 0-.621-.237-1.103-.71-1.447-.46-.344-1.08-.516-1.86-.516zm0 10.232c.921 0 1.649-.198 2.186-.595.537-.396.805-.945.805-1.646 0-.687-.268-1.229-.805-1.626-.537-.396-1.265-.594-2.186-.594-.92 0-1.642.198-2.167.594-.524.397-.786.939-.786 1.626 0 .701.262 1.25.786 1.646.525.397 1.247.595 2.167.595zm11.646-12.254c1.841 0 3.266.595 4.276 1.784 1.022 1.19 1.534 2.895 1.534 5.116 0 1.56-.275 2.895-.825 4.006-.549 1.097-1.323 1.936-2.32 2.518-.984.568-2.128.853-3.432.853a8.49 8.49 0 01-1.956-.218 5.385 5.385 0 01-1.572-.675l.92-1.943c.665.45 1.515.674 2.55.674 1.291 0 2.301-.41 3.03-1.229.729-.82 1.093-2.003 1.093-3.549v-.02a3.803 3.803 0 01-1.515 1.09c-.613.238-1.304.357-2.071.357-.882 0-1.674-.172-2.377-.515a4.022 4.022 0 01-1.649-1.507c-.397-.648-.595-1.395-.595-2.241 0-.899.217-1.686.652-2.36a4.342 4.342 0 011.764-1.586c.742-.37 1.572-.555 2.493-.555zm.192 6.742c.805 0 1.457-.225 1.955-.675.512-.449.767-1.017.767-1.705 0-.674-.249-1.229-.747-1.665-.486-.45-1.164-.675-2.033-.675-.78 0-1.412.218-1.898.655-.486.423-.729.991-.729 1.705 0 .727.243 1.302.729 1.725.486.423 1.137.635 1.956.635zm8.594 4.184c.448 0 .819.152 1.113.456.294.304.441.7.441 1.189 0 .212-.032.437-.096.675-.051.224-.167.568-.345 1.031l-.978 2.796h-1.554l.767-3.034a1.478 1.478 0 01-.671-.556 1.786 1.786 0 01-.23-.912c0-.489.147-.885.441-1.189.294-.304.665-.456 1.112-.456zm9.068-4.997c1.24.158 2.186.595 2.838 1.308.652.714.978 1.607.978 2.677a4.2 4.2 0 01-.594 2.201c-.397.661-.997 1.19-1.803 1.587-.792.383-1.764.575-2.914.575a9.32 9.32 0 01-2.781-.417c-.882-.291-1.636-.687-2.262-1.19l1.073-2.002c.486.423 1.074.76 1.765 1.011a6.71 6.71 0 002.166.357c.882 0 1.573-.185 2.071-.555.511-.384.767-.899.767-1.547 0-.648-.243-1.15-.729-1.507-.472-.37-1.201-.555-2.185-.555h-1.228v-1.765l3.049-3.748h-6.097v-2.161h9.146v1.725l-3.26 4.006zm10.087-5.731v13.88h-2.493v-11.719h-2.838v-2.161h5.331z" fill="#3E54D8"/><path d="M312.986 265.184c0 1.071-.383 1.983-1.149 2.737-.753.74-1.85 1.189-3.292 1.348v2.221h-1.569v-2.201a10.382 10.382 0 01-2.679-.536c-.843-.29-1.512-.661-2.01-1.11l.861-2.003c.472.397 1.046.734 1.723 1.012a7.663 7.663 0 002.105.495v-3.966c-.906-.224-1.665-.469-2.278-.733a4.11 4.11 0 01-1.512-1.19c-.408-.529-.612-1.223-.612-2.082 0-1.071.376-1.983 1.129-2.736.753-.754 1.844-1.203 3.273-1.349v-2.24h1.569v2.201a8.55 8.55 0 012.087.376 6.759 6.759 0 011.799.833l-.785 2.003a7.768 7.768 0 00-3.101-1.071v4.006c.919.224 1.678.469 2.278.733a3.82 3.82 0 011.531 1.19c.421.516.632 1.203.632 2.062zm-7.943-6.127c0 .436.166.787.498 1.051.331.264.81.489 1.435.674v-3.529c-.651.105-1.136.317-1.455.634a1.585 1.585 0 00-.478 1.17zm3.502 8.051c.677-.106 1.174-.311 1.493-.615.332-.304.498-.681.498-1.13 0-.45-.172-.807-.517-1.071-.344-.278-.836-.509-1.474-.694v3.51zm15.872-11.878v13.88h-2.488v-11.719h-2.833v-2.161h5.321zm13.535 14.079c-1.071 0-2.028-.278-2.87-.833-.843-.569-1.506-1.388-1.991-2.459-.485-1.084-.727-2.366-.727-3.847 0-1.48.242-2.756.727-3.827.485-1.084 1.148-1.903 1.991-2.459.842-.568 1.799-.852 2.87-.852 1.072 0 2.029.284 2.871.852.855.556 1.525 1.375 2.01 2.459.485 1.071.727 2.347.727 3.827 0 1.481-.242 2.763-.727 3.847-.485 1.071-1.155 1.89-2.01 2.459-.842.555-1.799.833-2.871.833zm0-2.241c.957 0 1.71-.41 2.259-1.229.561-.82.842-2.043.842-3.669s-.281-2.849-.842-3.668c-.549-.82-1.302-1.23-2.259-1.23-.944 0-1.697.41-2.258 1.23-.549.819-.823 2.042-.823 3.668 0 1.626.274 2.849.823 3.669.561.819 1.314 1.229 2.258 1.229zm11.481-6.464c1.888 0 3.285.383 4.191 1.15.906.753 1.359 1.784 1.359 3.093 0 .833-.198 1.586-.593 2.261-.396.674-.989 1.209-1.78 1.606-.791.396-1.767.595-2.928.595a9.282 9.282 0 01-2.775-.417c-.894-.291-1.646-.687-2.259-1.19l1.053-2.002c.497.423 1.091.76 1.78 1.011a6.686 6.686 0 002.162.357c.881 0 1.57-.185 2.067-.555.511-.384.766-.906.766-1.567 0-.714-.274-1.249-.823-1.606-.536-.37-1.461-.555-2.775-.555h-3.235l.689-7.555h7.867v2.161h-5.761l-.287 3.213h1.282zm12.574 8.705c-1.072 0-2.029-.278-2.871-.833-.842-.569-1.506-1.388-1.99-2.459-.485-1.084-.728-2.366-.728-3.847 0-1.48.243-2.756.728-3.827.484-1.084 1.148-1.903 1.99-2.459.842-.568 1.799-.852 2.871-.852s2.029.284 2.871.852c.855.556 1.524 1.375 2.009 2.459.485 1.071.728 2.347.728 3.827 0 1.481-.243 2.763-.728 3.847-.485 1.071-1.154 1.89-2.009 2.459-.842.555-1.799.833-2.871.833zm0-2.241c.957 0 1.71-.41 2.258-1.229.562-.82.842-2.043.842-3.669s-.28-2.849-.842-3.668c-.548-.82-1.301-1.23-2.258-1.23-.944 0-1.697.41-2.258 1.23-.549.819-.823 2.042-.823 3.668 0 1.626.274 2.849.823 3.669.561.819 1.314 1.229 2.258 1.229zm8.577-1.11c.446 0 .816.152 1.11.456.293.304.44.7.44 1.189 0 .212-.032.437-.096.675-.051.224-.166.568-.344 1.031l-.976 2.796h-1.551l.766-3.034a1.47 1.47 0 01-.67-.556 1.786 1.786 0 01-.23-.912c0-.489.147-.885.441-1.189.293-.304.663-.456 1.11-.456zm8.525 3.351c-1.072 0-2.029-.278-2.871-.833-.842-.569-1.506-1.388-1.991-2.459-.485-1.084-.727-2.366-.727-3.847 0-1.48.242-2.756.727-3.827.485-1.084 1.149-1.903 1.991-2.459.842-.568 1.799-.852 2.871-.852 1.071 0 2.028.284 2.87.852.855.556 1.525 1.375 2.01 2.459.485 1.071.727 2.347.727 3.827 0 1.481-.242 2.763-.727 3.847-.485 1.071-1.155 1.89-2.01 2.459-.842.555-1.799.833-2.87.833zm0-2.241c.957 0 1.709-.41 2.258-1.229.561-.82.842-2.043.842-3.669s-.281-2.849-.842-3.668c-.549-.82-1.301-1.23-2.258-1.23-.945 0-1.697.41-2.259 1.23-.548.819-.823 2.042-.823 3.668 0 1.626.275 2.849.823 3.669.562.819 1.314 1.229 2.259 1.229zm12.877 2.241c-1.072 0-2.028-.278-2.871-.833-.842-.569-1.505-1.388-1.99-2.459-.485-1.084-.727-2.366-.727-3.847 0-1.48.242-2.756.727-3.827.485-1.084 1.148-1.903 1.99-2.459.843-.568 1.799-.852 2.871-.852s2.029.284 2.871.852c.855.556 1.525 1.375 2.01 2.459.485 1.071.727 2.347.727 3.827 0 1.481-.242 2.763-.727 3.847-.485 1.071-1.155 1.89-2.01 2.459-.842.555-1.799.833-2.871.833zm0-2.241c.957 0 1.71-.41 2.259-1.229.561-.82.842-2.043.842-3.669s-.281-2.849-.842-3.668c-.549-.82-1.302-1.23-2.259-1.23-.944 0-1.697.41-2.258 1.23-.549.819-.823 2.042-.823 3.668 0 1.626.274 2.849.823 3.669.561.819 1.314 1.229 2.258 1.229z" fill="#98AACB"/><path d="M531.069 259.59c-1.093 0-2.06.496-2.548 1.254l.521.263c.362-.613 1.144-1.021 2.027-1.021 1.388 0 2.321.831 2.439 1.903h-3.221v.482h3.221c-.118 1.072-1.051 1.903-2.439 1.903-.883 0-1.665-.408-2.027-1.021l-.521.255c.479.759 1.446 1.262 2.548 1.262 1.808 0 3.044-1.181 3.044-2.64s-1.236-2.64-3.044-2.64zm8.681 3.369c0-1.013-.866-1.801-2.203-1.903v-1.379h-.555v1.379c-1.338.102-2.204.89-2.204 1.903 0 1.014.866 1.802 2.204 1.904v1.378h.555v-1.378c1.337-.102 2.203-.89 2.203-1.904zm-4.407 0c0-.744.614-1.342 1.649-1.429v2.859c-1.035-.088-1.649-.686-1.649-1.43zm2.204 1.43v-2.859c1.034.087 1.648.685 1.648 1.429s-.614 1.342-1.648 1.43zm7.837-1.43c0-1.013-.866-1.801-2.203-1.903v-1.379h-.555v1.379c-1.337.102-2.204.89-2.204 1.903 0 1.014.867 1.802 2.204 1.904v1.378h.555v-1.378c1.337-.102 2.203-.89 2.203-1.904zm-4.407 0c0-.744.614-1.342 1.649-1.429v2.859c-1.035-.088-1.649-.686-1.649-1.43zm2.204 1.43v-2.859c1.034.087 1.648.685 1.648 1.429s-.614 1.342-1.648 1.43zm5.07-3.341c-1.303 0-2.195.839-2.195 1.911 0 1.102.909 1.911 2.237 1.911.85 0 1.497-.343 1.851-.839l-.488-.248c-.227.35-.69.62-1.354.62-.892 0-1.556-.459-1.674-1.203h3.692a1.91 1.91 0 00.017-.226c0-.999-.799-1.926-2.086-1.926zm0 .467c.724 0 1.396.416 1.514 1.218h-3.137c.11-.715.74-1.218 1.623-1.218zm6.367 3.268l-2.254-1.897 2.169-1.75h-.756l-2.002 1.612v-1.612h-.555v3.647h.555v-1.758l2.103 1.758h.74zm3.785-3.647h-3.532v.467h1.489v3.18h.555v-3.18h1.488v-.467zm3.738 0l-2.506 2.808v-2.808h-.555v3.647h.471l2.506-2.808v2.808h.555v-3.647h-.471zm4.319 1.772a.844.844 0 00.488-.795c0-.554-.446-.977-1.287-.977h-1.875v3.647h2.043c.892 0 1.321-.46 1.321-1.021 0-.394-.236-.708-.69-.854zm-.799-1.305c.479 0 .732.204.732.539 0 .365-.244.569-.732.569h-1.32v-1.108h1.32zm.168 2.713h-1.488v-1.138h1.488c.496 0 .766.219.766.554 0 .365-.261.584-.766.584zm5.139-3.18v1.59h-2.422v-1.59h-.555v3.647h.555v-1.59h2.422v1.59h.555v-3.647h-.555zm3.688 3.734c1.228 0 2.212-.831 2.212-1.911 0-1.079-.984-1.911-2.212-1.911-1.228 0-2.212.832-2.212 1.911 0 1.08.984 1.911 2.212 1.911zm0-.467c-.933 0-1.657-.634-1.657-1.444 0-.809.724-1.444 1.657-1.444.934 0 1.657.635 1.657 1.444 0 .81-.723 1.444-1.657 1.444zm5.1.467c.825 0 1.539-.372 1.884-.948l-.462-.233c-.269.423-.782.714-1.422.714-.933 0-1.656-.634-1.656-1.444 0-.809.723-1.444 1.656-1.444.631 0 1.161.285 1.388.715l.454-.226c-.303-.576-1.009-.956-1.842-.956-1.27 0-2.211.832-2.211 1.911 0 1.08.941 1.911 2.211 1.911zm5.627-3.734h-3.533v.467h1.489v3.18h.555v-3.18h1.489v-.467zm2.383 1.386h-1.152v-1.386h-.555v3.647h1.707c.766 0 1.405-.46 1.405-1.131s-.639-1.13-1.405-1.13zm0 1.794h-1.152v-1.328h1.152c.454 0 .85.248.85.664 0 .416-.396.664-.85.664zm-42.639 5.572h-3.533v3.646h.555v-3.179h2.423v3.179h.555v-3.646zm3.133 3.734c1.228 0 2.212-.832 2.212-1.911 0-1.079-.984-1.911-2.212-1.911-1.228 0-2.212.832-2.212 1.911 0 1.079.984 1.911 2.212 1.911zm0-.467c-.934 0-1.657-.634-1.657-1.444 0-.809.723-1.444 1.657-1.444.933 0 1.657.635 1.657 1.444 0 .81-.724 1.444-1.657 1.444zm5.395-3.355c-.749 0-1.346.314-1.699.803v-.715h-.555v5.105h.555v-2.173c.353.488.95.802 1.699.802 1.185 0 2.169-.832 2.169-1.911 0-1.079-.984-1.911-2.169-1.911zm-.043 3.355c-.933 0-1.656-.634-1.656-1.444 0-.809.723-1.444 1.656-1.444.934 0 1.657.635 1.657 1.444 0 .81-.723 1.444-1.657 1.444zm5.999-3.267h-3.533v.467h1.489v3.179h.555v-3.179h1.489v-.467zm5.221 1.823c0-1.014-.866-1.801-2.203-1.903v-1.379h-.555v1.379c-1.337.102-2.204.889-2.204 1.903s.867 1.801 2.204 1.904v1.378h.555v-1.378c1.337-.103 2.203-.89 2.203-1.904zm-4.407 0c0-.744.614-1.342 1.649-1.429v2.859c-1.035-.088-1.649-.686-1.649-1.43zm2.204 1.43v-2.859c1.034.087 1.648.685 1.648 1.429s-.614 1.342-1.648 1.43zm5.07-3.341c-1.303 0-2.195.839-2.195 1.911 0 1.101.909 1.911 2.238 1.911.849 0 1.497-.343 1.85-.839l-.488-.248c-.227.35-.69.62-1.354.62-.892 0-1.556-.459-1.674-1.203h3.692a1.91 1.91 0 00.017-.226c0-1-.799-1.926-2.086-1.926zm0 .467c.724 0 1.397.416 1.514 1.218h-3.137c.11-.715.74-1.218 1.623-1.218zm6.253-.379h-3.011v2.093c0 .926-.345 1.152-.942 1.101v.452c.841.051 1.497-.255 1.497-1.553v-1.626h1.901v3.179h.555v-3.646zm4.203 0h-1.707c-.765 0-1.404.459-1.404 1.13 0 .598.504 1.014 1.16 1.101l-1.329 1.415h.707l1.295-1.4h.723v1.4h.555v-3.646zm-1.707 1.794c-.454 0-.849-.248-.849-.664 0-.415.395-.663.849-.663h1.152v1.327h-1.152zm-48.89-39.232v2.298h5.833l-4.487 9.889h2.849l4.623-10.15v-2.037h-8.818zm10.844 9.785h-2.731l-.781 4.84h2.049l1.463-4.84zm6.425-5.345h-1.405l.176-2.194h5.248v-2.246h-7.745l-.547 6.773h4.136c1.327 0 2.107.679 2.107 1.654 0 .992-.78 1.654-2.185 1.654-1.365 0-2.126-.523-2.458-1.463l-2.302 1.202c.78 1.775 2.634 2.611 4.76 2.611 2.575 0 4.877-1.393 4.877-4.004 0-2.612-2.165-3.987-4.662-3.987zm11.858 9.488l7.804-15.669h-1.112l-7.804 15.669h1.112zm17.138-13.928l-3.59 1.132.663 2.054 2.576-.644v9.645h2.692V232.45h-2.341zm9.885 12.431c3.492 0 5.463-2.577 5.463-6.337 0-3.761-1.971-6.338-5.463-6.338-3.472 0-5.462 2.577-5.462 6.338 0 3.76 1.99 6.337 5.462 6.337zm0-2.35c-1.834 0-2.77-1.411-2.77-3.987 0-2.577.936-4.005 2.77-4.005s2.79 1.428 2.79 4.005c0 2.576-.956 3.987-2.79 3.987z" opacity=".9" fill="#24252E"/><path d="M625.753 252.369c0 36.952-29.955 66.908-66.907 66.908s-66.908-29.956-66.908-66.908 29.956-66.907 66.908-66.907 66.907 29.955 66.907 66.907zm-121.728 0c0 30.277 24.544 54.821 54.821 54.821 30.276 0 54.82-24.544 54.82-54.821 0-30.276-24.544-54.82-54.82-54.82-30.277 0-54.821 24.544-54.821 54.82z" fill="#EAF1FE"/><path d="M625.753 252.369a66.91 66.91 0 01-44.938 63.198 66.908 66.908 0 11-6.547-128.303l-2.836 11.971a54.606 54.606 0 00-67.12 55.917 54.603 54.603 0 0099.035 28.861 54.605 54.605 0 0010.104-31.644h12.302z" fill="#3E54D8"/><path d="M180.577 376.571h-4.006l-.789 1.854h-1.534l3.605-8.011h1.465l3.616 8.011h-1.556l-.801-1.854zm-.492-1.167l-1.511-3.502-1.499 3.502h3.01zm10.768-4.99l-3.491 8.011h-1.465l-3.501-8.011h1.613l2.667 6.18 2.689-6.18h1.488zm6.226 3.914h1.408v3.193a4.47 4.47 0 01-1.442.755 5.517 5.517 0 01-1.694.264c-.816 0-1.552-.176-2.209-.527a3.99 3.99 0 01-1.545-1.476c-.373-.626-.56-1.331-.56-2.117s.187-1.492.56-2.117a3.913 3.913 0 011.545-1.465c.664-.359 1.408-.538 2.232-.538.671 0 1.282.11 1.831.332a3.596 3.596 0 011.385.972l-.939.916a3.01 3.01 0 00-2.208-.916c-.565 0-1.068.119-1.511.355a2.644 2.644 0 00-1.03.996c-.244.427-.366.915-.366 1.465 0 .534.122 1.014.366 1.442.252.427.595.763 1.03 1.007.443.244.942.366 1.499.366.626 0 1.175-.137 1.648-.412v-2.495zm7.112 4.212c-.816 0-1.552-.176-2.208-.527a3.99 3.99 0 01-1.545-1.476 4.084 4.084 0 01-.561-2.117c0-.778.187-1.48.561-2.106a3.892 3.892 0 011.545-1.476c.656-.359 1.392-.538 2.208-.538.817 0 1.553.179 2.209.538a3.913 3.913 0 011.545 1.465c.374.625.561 1.331.561 2.117s-.187 1.491-.561 2.117a3.99 3.99 0 01-1.545 1.476c-.656.351-1.392.527-2.209.527zm0-1.305c.534 0 1.015-.118 1.442-.355.428-.244.763-.58 1.007-1.007.245-.435.367-.919.367-1.453s-.122-1.015-.367-1.442a2.547 2.547 0 00-1.007-1.007 2.856 2.856 0 00-1.442-.367c-.534 0-1.014.123-1.442.367a2.553 2.553 0 00-1.007 1.007 2.855 2.855 0 00-.366 1.442c0 .534.122 1.018.366 1.453.244.427.58.763 1.007 1.007.428.237.908.355 1.442.355zm98.451.481v2.163h-.767v-1.454h-5.39v1.454h-.767v-2.163h.343c.405-.023.679-.321.824-.893.145-.572.245-1.373.298-2.403l.08-2.014h4.44v5.31h.939zm-4.715-3.25c-.038.854-.111 1.56-.218 2.117-.106.549-.297.927-.572 1.133h3.754v-4.589h-2.896l-.068 1.339zm11.563 1.201h-5.036c.046.626.286 1.133.721 1.522.435.382.984.572 1.648.572.374 0 .717-.064 1.03-.194.313-.137.584-.336.813-.595l.458.526a2.565 2.565 0 01-1.008.733 3.338 3.338 0 01-1.316.251c-.618 0-1.167-.129-1.648-.389a2.898 2.898 0 01-1.11-1.098 3.119 3.119 0 01-.4-1.58c0-.587.126-1.114.377-1.579.26-.465.611-.828 1.053-1.087.45-.26.954-.389 1.511-.389a2.9 2.9 0 011.499.389c.443.259.79.622 1.042 1.087.251.458.377.984.377 1.579l-.011.252zm-2.907-2.609c-.58 0-1.068.187-1.465.561-.389.366-.61.847-.664 1.442h4.269c-.053-.595-.278-1.076-.675-1.442-.389-.374-.878-.561-1.465-.561zm7.818-.698a3.05 3.05 0 011.534.389c.458.252.816.61 1.076 1.076.259.465.389.995.389 1.59 0 .603-.13 1.137-.389 1.603a2.79 2.79 0 01-1.076 1.087c-.45.252-.962.377-1.534.377-.488 0-.931-.099-1.327-.297a2.568 2.568 0 01-.962-.893v3.353h-.812v-8.239h.778v1.19a2.52 2.52 0 01.961-.916c.405-.213.859-.32 1.362-.32zm-.057 5.401c.42 0 .801-.095 1.144-.286.344-.198.611-.476.802-.835.198-.359.297-.767.297-1.225 0-.457-.099-.862-.297-1.213a2.062 2.062 0 00-.802-.835 2.247 2.247 0 00-1.144-.298c-.427 0-.813.1-1.156.298a2.16 2.16 0 00-.801.835 2.499 2.499 0 00-.286 1.213c0 .458.095.866.286 1.225.198.359.465.637.801.835.343.191.729.286 1.156.286zm9.865-2.014h-1.305v2.678h-.812v-2.678h-1.305l-1.842 2.678h-.973l2.163-3.101-1.992-2.918h.882l1.762 2.643h1.305v-2.643h.812v2.643h1.305l1.774-2.643h.881l-1.991 2.929 2.163 3.09h-.973l-1.854-2.678zm6.139-3.387c.786 0 1.388.198 1.808.595.42.389.629.969.629 1.739v3.731h-.778v-.938a1.854 1.854 0 01-.812.732c-.351.176-.771.263-1.259.263-.672 0-1.206-.16-1.602-.48-.397-.321-.596-.744-.596-1.27 0-.512.184-.924.55-1.236.374-.313.965-.47 1.774-.47h1.911v-.366c0-.519-.145-.912-.435-1.179-.29-.274-.713-.412-1.27-.412-.382 0-.748.065-1.099.195a2.696 2.696 0 00-.904.515l-.366-.607a3.188 3.188 0 011.098-.595 4.18 4.18 0 011.351-.217zm-.286 5.482c.457 0 .85-.103 1.178-.309.328-.214.573-.519.733-.916v-.984h-1.888c-1.03 0-1.545.358-1.545 1.076 0 .351.133.629.4.835.267.198.641.298 1.122.298zm9.121-4.715h-2.278v5.298h-.812v-5.298h-2.278v-.721h5.368v.721zm3.761 1.407c.755.008 1.328.176 1.717.504.396.328.595.801.595 1.419 0 .641-.214 1.133-.641 1.476-.42.343-1.03.511-1.831.504l-2.426-.012v-6.019h.812v2.105l1.774.023zm-.206 3.285c.557.007.977-.103 1.259-.332.29-.237.435-.58.435-1.03 0-.443-.141-.771-.424-.984-.282-.214-.705-.325-1.27-.332l-1.568-.023v2.678l1.568.023zm44.969-1.499h-1.602v2.105h-.824v-2.105h-4.52v-.596l4.246-5.31h.915l-4.097 5.173h3.479v-1.854h.801v1.854h1.602v.733zm5.841-5.906v.584l-3.353 7.427h-.893l3.296-7.278h-4.12v1.499h-.813v-2.232h5.883zm2.979 3.285c1.16 0 2.003.21 2.529.629.534.412.801.992.801 1.74 0 .465-.11.881-.332 1.247-.213.366-.538.656-.972.87-.435.206-.969.309-1.603.309a4.882 4.882 0 01-1.636-.275c-.511-.19-.923-.442-1.236-.755l.4-.652c.267.274.618.499 1.053.675.435.168.904.252 1.408.252.664 0 1.175-.149 1.533-.447.367-.297.55-.694.55-1.19 0-.549-.206-.965-.618-1.247-.405-.283-1.091-.424-2.06-.424h-1.705l.412-4.017h4.383v.733h-3.662l-.275 2.552h1.03zm4.994 4.783a.594.594 0 01-.435-.183.628.628 0 01-.171-.446c0-.175.057-.32.171-.435a.594.594 0 01.435-.183c.168 0 .313.061.435.183.122.115.183.26.183.435a.606.606 0 01-.183.446.594.594 0 01-.435.183zm4.302-8.136c1.061 0 1.873.351 2.438 1.052.565.695.847 1.679.847 2.953 0 .893-.153 1.648-.458 2.266-.305.618-.732 1.087-1.282 1.408-.549.313-1.19.469-1.922.469-.794 0-1.427-.145-1.9-.435l.332-.664c.381.252.9.378 1.556.378.885 0 1.58-.279 2.083-.835.504-.565.755-1.381.755-2.45 0-.198-.011-.415-.034-.652a2.192 2.192 0 01-.95 1.019c-.435.236-.934.354-1.499.354-.526 0-.996-.099-1.408-.297a2.308 2.308 0 01-.95-.836 2.351 2.351 0 01-.343-1.27c0-.488.118-.919.355-1.293.236-.374.561-.66.973-.858a3.15 3.15 0 011.407-.309zm.092 4.165c.404 0 .759-.076 1.064-.229.313-.152.557-.362.733-.629.175-.267.263-.565.263-.893a1.53 1.53 0 00-.252-.847c-.16-.259-.4-.469-.721-.629-.32-.16-.702-.24-1.144-.24-.58 0-1.053.16-1.419.48-.359.313-.538.733-.538 1.259 0 .527.179.946.538 1.259.366.313.858.469 1.476.469zm6.493-.812c1.16 0 2.003.21 2.529.629.534.412.801.992.801 1.74 0 .465-.11.881-.331 1.247-.214.366-.538.656-.973.87-.435.206-.969.309-1.602.309a4.884 4.884 0 01-1.637-.275c-.511-.19-.923-.442-1.236-.755l.401-.652c.267.274.618.499 1.052.675.435.168.905.252 1.408.252.664 0 1.175-.149 1.534-.447.366-.297.549-.694.549-1.19 0-.549-.206-.965-.618-1.247-.404-.283-1.091-.424-2.06-.424h-1.705l.412-4.017h4.383v.733h-3.662l-.275 2.552h1.03zm55.41 2.621h-1.603v2.105h-.824v-2.105h-4.52v-.596l4.246-5.31h.915l-4.097 5.173h3.479v-1.854h.801v1.854h1.603v.733zm5.84-5.906v.584l-3.353 7.427h-.893l3.296-7.278h-4.12v1.499h-.812v-2.232h5.882zm2.979 3.285c1.16 0 2.003.21 2.529.629.534.412.801.992.801 1.74 0 .465-.11.881-.332 1.247-.213.366-.537.656-.972.87-.435.206-.969.309-1.603.309a4.882 4.882 0 01-1.636-.275c-.511-.19-.923-.442-1.236-.755l.401-.652c.267.274.618.499 1.052.675.435.168.905.252 1.408.252.664 0 1.175-.149 1.534-.447.366-.297.549-.694.549-1.19 0-.549-.206-.965-.618-1.247-.404-.283-1.091-.424-2.06-.424h-1.705l.412-4.017h4.383v.733h-3.662l-.275 2.552h1.03zm4.994 4.783a.594.594 0 01-.434-.183.625.625 0 01-.172-.446.59.59 0 01.172-.435.594.594 0 01.434-.183c.168 0 .313.061.435.183.122.115.183.26.183.435a.606.606 0 01-.183.446.594.594 0 01-.435.183zm4.303-8.136c1.06 0 1.873.351 2.437 1.052.565.695.847 1.679.847 2.953 0 .893-.153 1.648-.458 2.266-.305.618-.732 1.087-1.282 1.408-.549.313-1.19.469-1.922.469-.794 0-1.427-.145-1.9-.435l.332-.664c.381.252.9.378 1.556.378.885 0 1.58-.279 2.083-.835.504-.565.756-1.381.756-2.45 0-.198-.012-.415-.035-.652a2.192 2.192 0 01-.95 1.019c-.434.236-.934.354-1.499.354-.526 0-.995-.099-1.407-.297a2.302 2.302 0 01-.95-.836 2.343 2.343 0 01-.344-1.27c0-.488.119-.919.355-1.293a2.31 2.31 0 01.973-.858 3.15 3.15 0 011.408-.309zm.091 4.165c.404 0 .759-.076 1.064-.229.313-.152.557-.362.733-.629.175-.267.263-.565.263-.893a1.53 1.53 0 00-.252-.847c-.16-.259-.4-.469-.721-.629-.32-.16-.702-.24-1.144-.24-.58 0-1.053.16-1.419.48-.359.313-.538.733-.538 1.259 0 .527.179.946.538 1.259.366.313.858.469 1.476.469zm6.493-.812c1.16 0 2.003.21 2.529.629.535.412.802.992.802 1.74 0 .465-.111.881-.332 1.247-.214.366-.538.656-.973.87-.435.206-.969.309-1.602.309a4.888 4.888 0 01-1.637-.275c-.511-.19-.923-.442-1.236-.755l.401-.652c.267.274.618.499 1.053.675.435.168.904.252 1.407.252.664 0 1.175-.149 1.534-.447.366-.297.549-.694.549-1.19 0-.549-.206-.965-.618-1.247-.404-.283-1.091-.424-2.06-.424h-1.705l.412-4.017h4.383v.733h-3.662l-.275 2.552h1.03zm47.204 3.994v.732h-5.619v-.583l3.33-3.262c.42-.412.702-.767.847-1.064.153-.306.229-.611.229-.916 0-.473-.164-.839-.492-1.099-.32-.267-.782-.4-1.385-.4-.938 0-1.667.297-2.186.893l-.583-.504a3.089 3.089 0 011.19-.847 4.352 4.352 0 011.648-.297c.816 0 1.461.194 1.934.583.481.382.721.908.721 1.58 0 .412-.092.808-.275 1.19-.183.381-.53.82-1.041 1.316l-2.724 2.678h4.406zm51.573.847a3.135 3.135 0 01-1.717-.481c-.503-.328-.9-.801-1.19-1.419-.29-.626-.435-1.366-.435-2.22 0-.855.145-1.591.435-2.209.29-.626.687-1.099 1.19-1.419a3.077 3.077 0 011.717-.492c.641 0 1.213.164 1.716.492.512.32.912.793 1.202 1.419.29.618.435 1.354.435 2.209 0 .854-.145 1.594-.435 2.22-.29.618-.69 1.091-1.202 1.419a3.129 3.129 0 01-1.716.481zm0-1.293c.572 0 1.022-.237 1.35-.71.336-.473.504-1.179.504-2.117 0-.939-.168-1.644-.504-2.117-.328-.473-.778-.71-1.35-.71-.565 0-1.015.237-1.351.71-.328.473-.492 1.178-.492 2.117 0 .938.164 1.644.492 2.117.336.473.786.71 1.351.71zm5.117 1.258a.922.922 0 01-.664-.263.932.932 0 01-.275-.687c0-.282.088-.511.264-.686a.936.936 0 01.675-.263.9.9 0 01.664.263c.183.175.274.404.274.686a.932.932 0 01-.274.687.923.923 0 01-.664.263zm5.109.035a3.135 3.135 0 01-1.717-.481c-.503-.328-.9-.801-1.19-1.419-.29-.626-.435-1.366-.435-2.22 0-.855.145-1.591.435-2.209.29-.626.687-1.099 1.19-1.419a3.077 3.077 0 011.717-.492c.641 0 1.213.164 1.717.492.511.32.911.793 1.201 1.419.29.618.435 1.354.435 2.209 0 .854-.145 1.594-.435 2.22-.29.618-.69 1.091-1.201 1.419a3.135 3.135 0 01-1.717.481zm0-1.293c.572 0 1.022-.237 1.35-.71.336-.473.504-1.179.504-2.117 0-.939-.168-1.644-.504-2.117-.328-.473-.778-.71-1.35-.71-.565 0-1.015.237-1.351.71-.328.473-.492 1.178-.492 2.117 0 .938.164 1.644.492 2.117.336.473.786.71 1.351.71zm7.7 1.293a3.129 3.129 0 01-1.716-.481c-.504-.328-.901-.801-1.191-1.419-.29-.626-.435-1.366-.435-2.22 0-.855.145-1.591.435-2.209.29-.626.687-1.099 1.191-1.419a3.072 3.072 0 011.716-.492c.641 0 1.213.164 1.717.492.511.32.912.793 1.201 1.419.29.618.435 1.354.435 2.209 0 .854-.145 1.594-.435 2.22-.289.618-.69 1.091-1.201 1.419a3.135 3.135 0 01-1.717.481zm0-1.293c.572 0 1.023-.237 1.351-.71.335-.473.503-1.179.503-2.117 0-.939-.168-1.644-.503-2.117-.328-.473-.779-.71-1.351-.71-.564 0-1.015.237-1.35.71-.328.473-.492 1.178-.492 2.117 0 .938.164 1.644.492 2.117.335.473.786.71 1.35.71zm6.144-2.518c-.572 0-1.034-.202-1.385-.607-.351-.404-.526-.934-.526-1.591 0-.656.175-1.186.526-1.59.351-.405.813-.607 1.385-.607.572 0 1.034.202 1.385.607.358.396.538.927.538 1.59 0 .664-.18 1.198-.538 1.603-.351.396-.813.595-1.385.595zm4.807-4.315h1.121l-5.47 8.011h-1.122l5.471-8.011zm-4.807 3.514c.313 0 .553-.122.721-.367.176-.244.263-.587.263-1.03 0-.442-.087-.785-.263-1.03-.168-.244-.408-.366-.721-.366a.852.852 0 00-.721.378c-.175.244-.263.584-.263 1.018 0 .435.088.779.263 1.03a.858.858 0 00.721.367zm5.253 4.577c-.572 0-1.034-.202-1.385-.606-.351-.405-.526-.935-.526-1.591 0-.656.175-1.186.526-1.591.351-.404.813-.606 1.385-.606.572 0 1.034.202 1.385.606.358.405.538.935.538 1.591 0 .656-.18 1.186-.538 1.591-.351.404-.813.606-1.385.606zm0-.801a.84.84 0 00.721-.366c.175-.252.263-.595.263-1.03 0-.435-.088-.774-.263-1.018a.832.832 0 00-.721-.378.841.841 0 00-.721.366c-.175.244-.263.588-.263 1.03 0 .443.088.786.263 1.03a.841.841 0 00.721.366z" fill="#373943"/><path d="M178.117 387.391c.316.068.558.206.728.412.174.201.261.462.261.782 0 .412-.154.731-.46.955-.303.22-.751.329-1.346.329h-2.211v-4.806h2.073c.536 0 .95.107 1.243.323.298.215.447.519.447.913 0 .265-.067.492-.2.68a1.16 1.16 0 01-.535.412zm-2.52-1.909v1.744h1.531c.389 0 .689-.073.9-.22.21-.151.315-.368.315-.652 0-.284-.105-.499-.315-.646-.211-.151-.511-.226-.9-.226h-1.531zm1.696 3.969c.43 0 .755-.074.975-.22.22-.147.33-.376.33-.687 0-.6-.435-.899-1.305-.899h-1.696v1.806h1.696zm3.336-2.486c.115-.243.284-.426.509-.549.228-.124.51-.186.844-.186v.474l-.117-.007c-.38 0-.677.117-.892.35-.215.234-.323.561-.323.982v1.84h-.488v-3.611h.467v.707zm3.679 2.939c-.348 0-.662-.078-.941-.234a1.752 1.752 0 01-.659-.659 1.86 1.86 0 01-.241-.947c0-.353.08-.669.241-.948a1.7 1.7 0 01.659-.652c.279-.156.593-.234.941-.234s.661.078.94.234c.28.155.497.373.653.652.16.279.24.595.24.948 0 .352-.08.668-.24.947a1.702 1.702 0 01-.653.659 1.892 1.892 0 01-.94.234zm0-.433c.256 0 .485-.057.686-.172.206-.119.366-.286.481-.501.114-.215.172-.46.172-.734 0-.275-.058-.52-.172-.735a1.202 1.202 0 00-.481-.495 1.321 1.321 0 00-.686-.178 1.36 1.36 0 00-.694.178 1.26 1.26 0 00-.481.495c-.114.215-.171.46-.171.735 0 .274.057.519.171.734.119.215.28.382.481.501.206.115.437.172.694.172zm4.072-3.241c.471 0 .833.119 1.085.357.251.234.377.582.377 1.044v2.238h-.467v-.563c-.11.188-.272.335-.487.44a1.68 1.68 0 01-.756.158c-.402 0-.723-.096-.961-.289a.93.93 0 01-.357-.762c0-.307.11-.554.33-.741.224-.188.579-.282 1.064-.282h1.147v-.22c0-.311-.087-.547-.261-.707-.174-.165-.428-.247-.762-.247-.229 0-.449.039-.66.117a1.61 1.61 0 00-.542.309l-.22-.364c.183-.156.403-.275.659-.357a2.51 2.51 0 01.811-.131zm-.172 3.289c.275 0 .51-.062.707-.185.197-.128.344-.311.44-.549v-.591h-1.133c-.618 0-.927.215-.927.645 0 .211.08.378.24.502.16.119.385.178.673.178zm6.268-4.745v5.095h-.467v-.714a1.478 1.478 0 01-.584.556 1.672 1.672 0 01-.81.193c-.339 0-.646-.078-.92-.234a1.667 1.667 0 01-.646-.652 1.931 1.931 0 01-.233-.954c0-.358.078-.676.233-.955.156-.279.371-.494.646-.645.274-.156.581-.234.92-.234.293 0 .556.062.79.186.238.119.432.295.583.528v-2.17h.488zm-1.82 4.697c.252 0 .479-.057.68-.172.206-.119.366-.286.481-.501a1.49 1.49 0 00.178-.734c0-.275-.059-.52-.178-.735a1.202 1.202 0 00-.481-.495 1.31 1.31 0 00-.68-.178 1.36 1.36 0 00-.693.178c-.202.115-.362.28-.481.495-.114.215-.172.46-.172.735 0 .274.058.519.172.734.119.215.279.382.481.501.206.115.437.172.693.172zm4.674.433c-.357 0-.677-.078-.961-.234a1.7 1.7 0 01-.659-.652 1.91 1.91 0 01-.24-.954c0-.353.08-.669.24-.948a1.7 1.7 0 01.659-.652c.284-.156.604-.234.961-.234.312 0 .589.062.831.186.248.119.442.295.584.528l-.364.247a1.116 1.116 0 00-.453-.398 1.324 1.324 0 00-.598-.137c-.26 0-.496.059-.707.178a1.24 1.24 0 00-.487.495c-.115.215-.172.46-.172.735 0 .279.057.526.172.741.119.211.281.375.487.494.211.115.447.172.707.172.216 0 .415-.043.598-.13.183-.087.334-.22.453-.399l.364.248a1.398 1.398 0 01-.584.535 1.89 1.89 0 01-.831.179zm3.789 0c-.348 0-.662-.078-.941-.234a1.752 1.752 0 01-.659-.659 1.87 1.87 0 01-.241-.947c0-.353.081-.669.241-.948a1.7 1.7 0 01.659-.652c.279-.156.593-.234.941-.234s.661.078.94.234c.28.155.497.373.653.652.16.279.24.595.24.948 0 .352-.08.668-.24.947a1.702 1.702 0 01-.653.659 1.892 1.892 0 01-.94.234zm0-.433c.256 0 .485-.057.686-.172.206-.119.367-.286.481-.501.114-.215.172-.46.172-.734 0-.275-.058-.52-.172-.735a1.196 1.196 0 00-.481-.495 1.321 1.321 0 00-.686-.178 1.36 1.36 0 00-.694.178c-.201.115-.361.28-.481.495-.114.215-.171.46-.171.735 0 .274.057.519.171.734.12.215.28.382.481.501.206.115.437.172.694.172zm7.333-3.241c.453 0 .808.131 1.064.392.261.26.392.645.392 1.153v2.094h-.488v-2.046c0-.375-.092-.661-.275-.858-.178-.197-.432-.295-.762-.295-.375 0-.67.116-.886.35-.215.229-.322.547-.322.954v1.895h-.488v-2.046c0-.375-.091-.661-.275-.858-.178-.197-.434-.295-.769-.295-.37 0-.666.116-.885.35-.216.229-.323.547-.323.954v1.895h-.488v-3.611h.467v.659a1.3 1.3 0 01.536-.508c.229-.119.492-.179.79-.179.302 0 .563.064.782.192.225.129.392.319.502.57.132-.238.322-.423.57-.556.251-.137.537-.206.858-.206zm4.678-1.167h.508v4.806h-.508v-4.806zm3.809 1.167c.453 0 .813.133 1.078.398.27.261.405.644.405 1.147v2.094h-.487v-2.046c0-.375-.094-.661-.282-.858-.187-.197-.455-.295-.803-.295-.389 0-.698.116-.927.35-.224.229-.337.547-.337.954v1.895h-.487v-3.611h.467v.666a1.34 1.34 0 01.549-.508c.238-.124.513-.186.824-.186zm4.317 3.674c-.357 0-.677-.078-.961-.234a1.7 1.7 0 01-.659-.652 1.9 1.9 0 01-.241-.954c0-.353.08-.669.241-.948a1.7 1.7 0 01.659-.652c.284-.156.604-.234.961-.234a1.8 1.8 0 01.831.186c.247.119.442.295.584.528l-.364.247a1.116 1.116 0 00-.453-.398 1.327 1.327 0 00-.598-.137c-.261 0-.496.059-.707.178-.206.115-.369.28-.488.495-.114.215-.171.46-.171.735 0 .279.057.526.171.741.119.211.282.375.488.494.211.115.446.172.707.172.215 0 .415-.043.598-.13.183-.087.334-.22.453-.399l.364.248a1.404 1.404 0 01-.584.535 1.89 1.89 0 01-.831.179zm2.555 0a.357.357 0 01-.261-.11.376.376 0 01-.103-.268c0-.105.034-.192.103-.261a.357.357 0 01.261-.11c.1 0 .187.037.261.11a.343.343 0 01.109.261.365.365 0 01-.109.268.36.36 0 01-.261.11z" opacity=".4" fill="#373943"/><path stroke="#EAF1FE" stroke-width=".481" d="M174.248 398.328h448.617"/><path d="M180.218 411.192c.443.145.794.389 1.053.733.26.335.389.755.389 1.259 0 .694-.267 1.232-.801 1.613-.534.374-1.312.561-2.335.561h-3.982v-8.011h3.754c.946 0 1.674.187 2.185.561.512.366.767.873.767 1.522 0 .397-.091.748-.274 1.053a1.885 1.885 0 01-.756.709zm-4.188-2.678v2.209h2.105c.519 0 .916-.091 1.191-.275.282-.19.423-.465.423-.824 0-.366-.141-.64-.423-.824-.275-.19-.672-.286-1.191-.286h-2.105zm2.403 5.677c1.152 0 1.728-.386 1.728-1.156 0-.771-.576-1.156-1.728-1.156h-2.403v2.312h2.403zm9.75 1.167l-2.174-3.044-2.152 3.044h-1.693l2.975-4.086-2.815-3.925h1.682l2.049 2.85 2.025-2.85h1.614l-2.804 3.868 3.01 4.143h-1.717zm5.916-8.011c.694 0 1.297.114 1.808.343.519.229.916.557 1.19.985.275.427.412.934.412 1.522 0 .579-.137 1.087-.412 1.522-.274.427-.671.755-1.19.984-.511.229-1.114.343-1.808.343h-1.808v2.312h-1.488v-8.011h3.296zm-.069 4.44c.649 0 1.141-.137 1.477-.412.335-.274.503-.667.503-1.178 0-.512-.168-.904-.503-1.179-.336-.275-.828-.412-1.477-.412h-1.739v3.181h1.739zm107.773 2.861v2.163h-.767v-1.453h-5.39v1.453h-.767v-2.163h.343c.404-.022.679-.32.824-.892.145-.572.244-1.374.298-2.404l.08-2.014h4.44v5.31h.939zm-4.715-3.25c-.039.855-.111 1.561-.218 2.117-.107.55-.297.927-.572 1.133h3.754v-4.589h-2.896l-.068 1.339zm11.562 1.202h-5.035c.046.626.286 1.133.721 1.522.435.381.984.572 1.648.572.374 0 .717-.065 1.03-.194.313-.138.584-.336.813-.595l.457.526a2.56 2.56 0 01-1.007.732 3.341 3.341 0 01-1.316.252c-.618 0-1.167-.129-1.648-.389a2.894 2.894 0 01-1.11-1.099 3.113 3.113 0 01-.401-1.579c0-.587.126-1.114.378-1.579.26-.466.61-.828 1.053-1.087.45-.26.954-.389 1.511-.389.557 0 1.056.129 1.499.389.442.259.79.621 1.041 1.087.252.458.378.984.378 1.579l-.012.252zm-2.906-2.609c-.58 0-1.068.187-1.465.56-.389.367-.611.847-.664 1.442h4.269c-.054-.595-.279-1.075-.675-1.442-.39-.373-.878-.56-1.465-.56zm7.818-.698a3.05 3.05 0 011.534.389c.457.251.816.61 1.075 1.075.26.466.389.996.389 1.591 0 .603-.129 1.137-.389 1.602a2.784 2.784 0 01-1.075 1.088 3.1 3.1 0 01-1.534.377c-.488 0-.931-.099-1.328-.297a2.566 2.566 0 01-.961-.893v3.353h-.812v-8.24h.778v1.191c.244-.397.564-.702.961-.916.404-.214.858-.32 1.362-.32zm-.057 5.401c.419 0 .801-.095 1.144-.286.344-.198.611-.477.801-.835.199-.359.298-.767.298-1.225 0-.458-.099-.862-.298-1.213a2.047 2.047 0 00-.801-.835 2.24 2.24 0 00-1.144-.298c-.427 0-.813.099-1.156.298a2.154 2.154 0 00-.801.835 2.496 2.496 0 00-.286 1.213c0 .458.095.866.286 1.225.198.358.465.637.801.835.343.191.729.286 1.156.286zm9.865-2.014h-1.305v2.678h-.813v-2.678h-1.304l-1.843 2.678h-.972l2.163-3.101-1.992-2.919h.881l1.763 2.644h1.304v-2.644h.813v2.644h1.305l1.774-2.644h.881l-1.992 2.93 2.163 3.09h-.972l-1.854-2.678zm6.138-3.387c.786 0 1.389.198 1.809.595.419.389.629.969.629 1.739v3.731h-.778v-.938a1.857 1.857 0 01-.813.732c-.351.175-.77.263-1.259.263-.671 0-1.205-.16-1.602-.48-.396-.321-.595-.744-.595-1.271 0-.511.183-.923.549-1.236.374-.313.966-.469 1.774-.469h1.912v-.366c0-.519-.145-.912-.435-1.179-.29-.275-.714-.412-1.271-.412-.381 0-.747.065-1.098.195a2.67 2.67 0 00-.904.515l-.367-.607a3.186 3.186 0 011.099-.595 4.17 4.17 0 011.35-.217zm-.286 5.481c.458 0 .851-.103 1.179-.309.328-.213.572-.518.733-.915v-.984h-1.889c-1.03 0-1.545.358-1.545 1.075 0 .351.134.63.401.836.267.198.641.297 1.121.297zm9.122-4.715h-2.278v5.299h-.812v-5.299h-2.278v-.721h5.368v.721zm3.761 1.408c.755.008 1.327.175 1.716.503.397.329.596.802.596 1.42 0 .64-.214 1.133-.641 1.476-.42.343-1.03.511-1.831.503l-2.427-.011v-6.02h.813v2.106l1.774.023zm-.206 3.284c.557.008.976-.103 1.259-.331.29-.237.435-.58.435-1.03 0-.443-.142-.771-.424-.985-.282-.213-.706-.324-1.27-.332l-1.568-.022v2.678l1.568.022zm40.38-7.404v8.011h-.824v-7.279h-1.888v-.732h2.712zm5.108 8.08a2.911 2.911 0 01-1.66-.492c-.48-.329-.858-.798-1.133-1.408-.267-.618-.4-1.343-.4-2.175 0-.831.133-1.552.4-2.162.275-.618.653-1.092 1.133-1.42a2.911 2.911 0 011.66-.492c.618 0 1.167.164 1.648.492.488.328.87.802 1.144 1.42.275.61.412 1.331.412 2.162 0 .832-.137 1.557-.412 2.175-.274.61-.656 1.079-1.144 1.408a2.855 2.855 0 01-1.648.492zm0-.756a2 2 0 001.224-.389c.359-.259.638-.637.836-1.133.198-.496.297-1.095.297-1.797 0-.701-.099-1.3-.297-1.796-.198-.496-.477-.874-.836-1.133a2 2 0 00-1.224-.389c-.466 0-.878.129-1.236.389-.351.259-.626.637-.824 1.133-.198.496-.298 1.095-.298 1.796 0 .702.1 1.301.298 1.797.198.496.473.874.824 1.133.358.26.77.389 1.236.389zm11.194-1.419h-1.603v2.106h-.824v-2.106h-4.52v-.595l4.246-5.31h.915l-4.097 5.173h3.479v-1.854h.801v1.854h1.603v.732zm1.598 2.163a.594.594 0 01-.435-.183.63.63 0 01-.172-.446.59.59 0 01.172-.435.594.594 0 01.435-.183c.168 0 .313.061.435.183a.57.57 0 01.183.435.607.607 0 01-.183.446.594.594 0 01-.435.183zm4.877.012a2.906 2.906 0 01-1.659-.492c-.481-.329-.858-.798-1.133-1.408-.267-.618-.401-1.343-.401-2.175 0-.831.134-1.552.401-2.162.275-.618.652-1.092 1.133-1.42a2.906 2.906 0 011.659-.492c.618 0 1.168.164 1.648.492.489.328.87.802 1.145 1.42.274.61.412 1.331.412 2.162 0 .832-.138 1.557-.412 2.175-.275.61-.656 1.079-1.145 1.408-.48.328-1.03.492-1.648.492zm0-.756a2 2 0 001.225-.389c.358-.259.637-.637.835-1.133.199-.496.298-1.095.298-1.797 0-.701-.099-1.3-.298-1.796-.198-.496-.477-.874-.835-1.133a2 2 0 00-1.225-.389c-.465 0-.877.129-1.236.389-.351.259-.625.637-.824 1.133-.198.496-.297 1.095-.297 1.796 0 .702.099 1.301.297 1.797.199.496.473.874.824 1.133.359.26.771.389 1.236.389zm6.49-4.039c1.16 0 2.003.209 2.53.629.534.412.801.992.801 1.739 0 .466-.111.882-.332 1.248-.214.366-.538.656-.973.87-.435.206-.969.309-1.602.309a4.888 4.888 0 01-1.637-.275c-.511-.191-.923-.443-1.236-.755l.401-.653c.267.275.618.5 1.053.676.435.167.904.251 1.407.251.664 0 1.175-.148 1.534-.446.366-.298.549-.694.549-1.19 0-.55-.206-.965-.618-1.248-.404-.282-1.091-.423-2.06-.423h-1.705l.412-4.017h4.383v.732h-3.662l-.275 2.553h1.03zm50.843-3.285v8.011h-.824v-7.279h-1.888v-.732h2.712zm5.108 8.08a2.906 2.906 0 01-1.659-.492c-.481-.329-.859-.798-1.133-1.408-.267-.618-.401-1.343-.401-2.175 0-.831.134-1.552.401-2.162.274-.618.652-1.092 1.133-1.42a2.906 2.906 0 011.659-.492c.618 0 1.167.164 1.648.492.488.328.87.802 1.144 1.42.275.61.413 1.331.413 2.162 0 .832-.138 1.557-.413 2.175-.274.61-.656 1.079-1.144 1.408a2.855 2.855 0 01-1.648.492zm0-.756c.465 0 .874-.129 1.225-.389.358-.259.637-.637.835-1.133.198-.496.298-1.095.298-1.797 0-.701-.1-1.3-.298-1.796-.198-.496-.477-.874-.835-1.133a2.003 2.003 0 00-1.225-.389c-.465 0-.877.129-1.236.389-.351.259-.626.637-.824 1.133-.198.496-.297 1.095-.297 1.796 0 .702.099 1.301.297 1.797.198.496.473.874.824 1.133.359.26.771.389 1.236.389zm11.194-1.419h-1.602v2.106h-.824v-2.106h-4.521v-.595l4.246-5.31h.916l-4.097 5.173h3.479v-1.854h.801v1.854h1.602v.732zm1.598 2.163a.594.594 0 01-.435-.183.63.63 0 01-.171-.446.59.59 0 01.171-.435.594.594 0 01.435-.183c.168 0 .313.061.435.183a.57.57 0 01.183.435.607.607 0 01-.183.446.594.594 0 01-.435.183zm4.877.012a2.906 2.906 0 01-1.659-.492c-.481-.329-.858-.798-1.133-1.408-.267-.618-.401-1.343-.401-2.175 0-.831.134-1.552.401-2.162.275-.618.652-1.092 1.133-1.42a2.906 2.906 0 011.659-.492c.618 0 1.168.164 1.648.492.489.328.87.802 1.145 1.42.275.61.412 1.331.412 2.162 0 .832-.137 1.557-.412 2.175-.275.61-.656 1.079-1.145 1.408-.48.328-1.03.492-1.648.492zm0-.756a2 2 0 001.225-.389c.359-.259.637-.637.835-1.133.199-.496.298-1.095.298-1.797 0-.701-.099-1.3-.298-1.796-.198-.496-.476-.874-.835-1.133a2 2 0 00-1.225-.389c-.465 0-.877.129-1.236.389-.35.259-.625.637-.823 1.133-.199.496-.298 1.095-.298 1.796 0 .702.099 1.301.298 1.797.198.496.473.874.823 1.133.359.26.771.389 1.236.389zm6.491-4.039c1.159 0 2.002.209 2.529.629.534.412.801.992.801 1.739 0 .466-.111.882-.332 1.248-.214.366-.538.656-.973.87-.435.206-.969.309-1.602.309a4.878 4.878 0 01-1.636-.275c-.512-.191-.924-.443-1.236-.755l.4-.653c.267.275.618.5 1.053.676.435.167.904.251 1.408.251.663 0 1.175-.148 1.533-.446.366-.298.549-.694.549-1.19 0-.55-.206-.965-.617-1.248-.405-.282-1.092-.423-2.06-.423h-1.706l.412-4.017h4.383v.732h-3.662l-.274 2.553h1.03zm39.398-3.285v8.011h-.824v-7.279h-1.888v-.732h2.712zm5.108 8.08a2.906 2.906 0 01-1.659-.492c-.481-.329-.859-.798-1.133-1.408-.268-.618-.401-1.343-.401-2.175 0-.831.133-1.552.401-2.162.274-.618.652-1.092 1.133-1.42a2.906 2.906 0 011.659-.492c.618 0 1.167.164 1.648.492.488.328.87.802 1.144 1.42.275.61.412 1.331.412 2.162 0 .832-.137 1.557-.412 2.175-.274.61-.656 1.079-1.144 1.408a2.855 2.855 0 01-1.648.492zm0-.756c.465 0 .874-.129 1.224-.389.359-.259.638-.637.836-1.133.198-.496.297-1.095.297-1.797 0-.701-.099-1.3-.297-1.796-.198-.496-.477-.874-.836-1.133a1.998 1.998 0 00-1.224-.389c-.465 0-.877.129-1.236.389-.351.259-.626.637-.824 1.133-.198.496-.298 1.095-.298 1.796 0 .702.1 1.301.298 1.797.198.496.473.874.824 1.133.359.26.771.389 1.236.389z" fill="#373943"/><path d="M586.837 411.581h3.147v1.19h-3.147v-1.19zm7.675 3.891c-.641 0-1.213-.16-1.717-.48-.503-.328-.9-.801-1.19-1.419-.29-.626-.435-1.366-.435-2.221 0-.854.145-1.59.435-2.208.29-.626.687-1.099 1.19-1.419a3.07 3.07 0 011.717-.493 3.07 3.07 0 011.717.493c.511.32.911.793 1.201 1.419.29.618.435 1.354.435 2.208 0 .855-.145 1.595-.435 2.221-.29.618-.69 1.091-1.201 1.419-.504.32-1.076.48-1.717.48zm0-1.293c.572 0 1.022-.236 1.35-.709.336-.473.504-1.179.504-2.118 0-.938-.168-1.644-.504-2.117-.328-.473-.778-.709-1.35-.709-.565 0-1.015.236-1.35.709-.329.473-.493 1.179-.493 2.117 0 .939.164 1.645.493 2.118.335.473.785.709 1.35.709zm5.117 1.259a.927.927 0 01-.664-.263.932.932 0 01-.274-.687c0-.282.087-.511.263-.687a.94.94 0 01.675-.263c.267 0 .488.088.664.263a.91.91 0 01.275.687.932.932 0 01-.275.687.927.927 0 01-.664.263zm4.503-8.091v8.011h-1.487v-6.764h-1.694v-1.247h3.181zm7.632 0v.996l-3.113 7.015h-1.591l3.01-6.752h-3.147v1.362h-1.385v-2.621h6.226zm2.761 4.314c-.572 0-1.033-.202-1.384-.606-.351-.405-.527-.935-.527-1.591 0-.656.176-1.186.527-1.591.351-.404.812-.606 1.384-.606.573 0 1.034.202 1.385.606.359.397.538.927.538 1.591 0 .664-.179 1.198-.538 1.602-.351.397-.812.595-1.385.595zm4.807-4.314h1.122l-5.471 8.011h-1.121l5.47-8.011zm-4.807 3.513c.313 0 .554-.122.721-.366.176-.244.264-.587.264-1.03 0-.442-.088-.786-.264-1.03-.167-.244-.408-.366-.721-.366a.852.852 0 00-.721.378c-.175.244-.263.583-.263 1.018 0 .435.088.778.263 1.03a.86.86 0 00.721.366zm5.253 4.578c-.572 0-1.033-.202-1.384-.607-.351-.404-.527-.934-.527-1.59s.176-1.187.527-1.591c.351-.404.812-.607 1.384-.607.573 0 1.034.203 1.385.607.359.404.538.935.538 1.591 0 .656-.179 1.186-.538 1.59-.351.405-.812.607-1.385.607zm0-.801a.84.84 0 00.721-.366c.176-.252.264-.595.264-1.03 0-.435-.088-.775-.264-1.019a.832.832 0 00-.721-.378.842.842 0 00-.721.367c-.175.244-.263.587-.263 1.03 0 .442.088.786.263 1.03a.841.841 0 00.721.366z" fill="#ED6373"/><path d="M175.738 424.543l-.982.996v1.263h-.508v-4.807h.508v2.905l2.823-2.905h.583l-2.08 2.177 2.224 2.63h-.604l-1.964-2.259zm3.392-2.548h.508v4.368h2.692v.439h-3.2v-4.807zm7.071 3.523h-2.678l-.576 1.284h-.529l2.197-4.807h.501l2.198 4.807h-.536l-.577-1.284zm-.185-.412l-1.154-2.582-1.153 2.582h2.307zm1.621-.378h1.799v.426h-1.799v-.426zm3.706-2.293h-1.689v-.44h3.886v.44h-1.689v4.367h-.508v-4.367zm5.675 2.712h-3.021c.027.376.172.68.432.913.261.229.591.344.989.344.225 0 .431-.039.618-.117.188-.082.35-.201.488-.357l.274.316c-.16.192-.361.339-.604.439a2 2 0 01-.789.151c-.371 0-.701-.077-.989-.233a1.735 1.735 0 01-.666-.659 1.864 1.864 0 01-.241-.948c0-.352.076-.668.227-.947.156-.28.366-.497.632-.653.27-.155.572-.233.906-.233.334 0 .634.078.9.233.265.156.473.373.624.653.151.274.227.59.227.947l-.007.151zm-1.744-1.565c-.348 0-.641.112-.879.336-.233.22-.366.508-.398.865h2.561c-.032-.357-.167-.645-.405-.865a1.22 1.22 0 00-.879-.336zm4.584-.419c.453 0 .812.133 1.078.398.27.261.405.643.405 1.147v2.094h-.488v-2.046c0-.376-.094-.662-.281-.859-.188-.196-.456-.295-.804-.295-.389 0-.698.117-.927.35-.224.229-.336.547-.336.955v1.895h-.488v-3.612h.467v.666c.133-.219.316-.389.55-.508.238-.123.512-.185.824-.185zm4.317 3.673c-.357 0-.678-.077-.962-.233a1.706 1.706 0 01-.659-.652 1.91 1.91 0 01-.24-.955c0-.352.08-.668.24-.947.16-.28.38-.497.659-.653.284-.155.605-.233.962-.233.311 0 .588.062.831.185.247.119.441.295.583.529l-.364.247a1.116 1.116 0 00-.453-.398 1.31 1.31 0 00-.597-.138c-.261 0-.497.06-.708.179a1.232 1.232 0 00-.487.494c-.115.216-.172.46-.172.735 0 .279.057.527.172.742.119.21.281.375.487.494.211.115.447.172.708.172.215 0 .414-.044.597-.131a1.11 1.11 0 00.453-.398l.364.247a1.404 1.404 0 01-.583.536 1.896 1.896 0 01-.831.178zm3.788 0c-.348 0-.662-.077-.941-.233a1.752 1.752 0 01-.659-.659c-.16-.28-.24-.595-.24-.948 0-.352.08-.668.24-.947.16-.28.38-.497.659-.653.279-.155.593-.233.941-.233s.661.078.941.233c.279.156.496.373.652.653.16.279.24.595.24.947 0 .353-.08.668-.24.948a1.706 1.706 0 01-.652.659c-.28.156-.593.233-.941.233zm0-.432c.256 0 .485-.057.687-.172.206-.119.366-.286.48-.501.115-.215.172-.46.172-.735 0-.275-.057-.519-.172-.735a1.185 1.185 0 00-.48-.494 1.328 1.328 0 00-.687-.179c-.256 0-.488.06-.694.179a1.248 1.248 0 00-.48.494c-.115.216-.172.46-.172.735 0 .275.057.52.172.735a1.3 1.3 0 00.48.501 1.4 1.4 0 00.694.172zm3.296-2.507c.114-.242.283-.425.508-.549.229-.123.51-.185.844-.185v.474l-.116-.007c-.38 0-.678.116-.893.35-.215.233-.323.561-.323.982v1.84h-.487v-3.612h.467v.707zm6.276 2.946a2.64 2.64 0 01-1.291-.316 2.34 2.34 0 01-.899-.872 2.481 2.481 0 01-.323-1.256c0-.463.108-.879.323-1.25.219-.375.522-.668.906-.879.385-.21.815-.316 1.291-.316.357 0 .687.06.989.179.302.119.558.293.769.522l-.323.322c-.375-.38-.849-.57-1.421-.57-.38 0-.726.087-1.037.261a1.939 1.939 0 00-.735.714 2.003 2.003 0 00-.261 1.017c0 .375.087.714.261 1.016.179.302.424.54.735.714.311.174.657.261 1.037.261.577 0 1.05-.192 1.421-.577l.323.323a2.114 2.114 0 01-.776.529 2.676 2.676 0 01-.989.178zm4.06-.007c-.347 0-.661-.077-.94-.233a1.752 1.752 0 01-.659-.659 1.864 1.864 0 01-.241-.948c0-.352.08-.668.241-.947.16-.28.38-.497.659-.653.279-.155.593-.233.94-.233.348 0 .662.078.941.233.279.156.497.373.653.653.16.279.24.595.24.947 0 .353-.08.668-.24.948a1.709 1.709 0 01-.653.659 1.895 1.895 0 01-.941.233zm0-.432c.257 0 .486-.057.687-.172.206-.119.366-.286.481-.501.114-.215.171-.46.171-.735 0-.275-.057-.519-.171-.735a1.193 1.193 0 00-.481-.494 1.323 1.323 0 00-.687-.179c-.256 0-.487.06-.693.179a1.25 1.25 0 00-.481.494c-.114.216-.171.46-.171.735 0 .275.057.52.171.735.119.215.28.382.481.501.206.115.437.172.693.172zm3.296-2.507c.115-.242.284-.425.508-.549.229-.123.511-.185.845-.185v.474l-.117-.007c-.38 0-.677.116-.893.35-.215.233-.322.561-.322.982v1.84h-.488v-3.612h.467v.707zm4.096-.734c.339 0 .646.078.921.233.274.151.489.366.645.646.156.279.233.597.233.954 0 .362-.077.682-.233.961-.156.28-.371.497-.645.653a1.857 1.857 0 01-.921.226c-.293 0-.558-.059-.796-.178a1.534 1.534 0 01-.577-.536v2.012h-.487v-4.944h.467v.714c.146-.238.338-.421.576-.549.243-.128.515-.192.817-.192zm-.034 3.241c.252 0 .481-.057.687-.172.206-.119.366-.286.48-.501.119-.215.179-.46.179-.735 0-.275-.06-.517-.179-.728a1.233 1.233 0 00-.48-.501 1.349 1.349 0 00-.687-.179c-.256 0-.487.06-.693.179a1.296 1.296 0 00-.481.501 1.495 1.495 0 00-.172.728c0 .275.057.52.172.735.119.215.279.382.481.501.206.115.437.172.693.172zm4.304.432c-.348 0-.662-.077-.941-.233a1.752 1.752 0 01-.659-.659 1.864 1.864 0 01-.241-.948c0-.352.08-.668.241-.947.16-.28.38-.497.659-.653.279-.155.593-.233.941-.233s.661.078.94.233c.28.156.497.373.653.653.16.279.24.595.24.947 0 .353-.08.668-.24.948a1.702 1.702 0 01-.653.659 1.891 1.891 0 01-.94.233zm0-.432c.256 0 .485-.057.686-.172.206-.119.366-.286.481-.501.114-.215.172-.46.172-.735 0-.275-.058-.519-.172-.735a1.193 1.193 0 00-.481-.494 1.322 1.322 0 00-.686-.179c-.257 0-.488.06-.694.179a1.25 1.25 0 00-.481.494c-.114.216-.171.46-.171.735 0 .275.057.52.171.735.119.215.28.382.481.501.206.115.437.172.694.172zm3.295-2.507c.115-.242.284-.425.508-.549.229-.123.511-.185.845-.185v.474l-.117-.007c-.38 0-.677.116-.892.35-.216.233-.323.561-.323.982v1.84h-.488v-3.612h.467v.707zm3.492-.734c.472 0 .834.119 1.085.357.252.233.378.581.378 1.044v2.238h-.467v-.563a1.11 1.11 0 01-.487.439 1.667 1.667 0 01-.756.158c-.403 0-.723-.096-.961-.288a.93.93 0 01-.357-.762.93.93 0 01.329-.742c.225-.187.58-.281 1.065-.281h1.147v-.22c0-.311-.087-.547-.261-.707-.174-.165-.428-.248-.763-.248-.229 0-.448.039-.659.117a1.61 1.61 0 00-.542.309l-.22-.364c.183-.155.403-.274.659-.357.257-.087.527-.13.81-.13zm-.171 3.289a1.3 1.3 0 00.707-.186 1.15 1.15 0 00.44-.549v-.59h-1.133c-.618 0-.927.215-.927.645 0 .211.08.378.24.501.16.119.384.179.673.179zm4.86.13a.95.95 0 01-.343.193 1.41 1.41 0 01-.419.061c-.339 0-.6-.091-.783-.274-.183-.183-.274-.442-.274-.776v-2.184h-.646v-.412h.646v-.789h.487v.789h1.099v.412h-1.099v2.156c0 .215.053.38.158.495.11.11.266.165.467.165a.862.862 0 00.536-.186l.171.35zm.888-3.392h.487v3.612h-.487v-3.612zm.247-.789a.348.348 0 01-.254-.103.338.338 0 010-.488.344.344 0 01.254-.103c.101 0 .185.034.254.103a.306.306 0 01.103.233.346.346 0 01-.103.255.348.348 0 01-.254.103zm3.073 4.435c-.348 0-.661-.077-.941-.233a1.752 1.752 0 01-.659-.659c-.16-.28-.24-.595-.24-.948 0-.352.08-.668.24-.947.16-.28.38-.497.659-.653.28-.155.593-.233.941-.233s.662.078.941.233c.279.156.497.373.652.653.16.279.241.595.241.947 0 .353-.081.668-.241.948a1.7 1.7 0 01-.652.659 1.895 1.895 0 01-.941.233zm0-.432c.256 0 .485-.057.687-.172.206-.119.366-.286.48-.501.115-.215.172-.46.172-.735 0-.275-.057-.519-.172-.735a1.185 1.185 0 00-.48-.494 1.328 1.328 0 00-.687-.179c-.256 0-.487.06-.693.179a1.244 1.244 0 00-.481.494c-.114.216-.172.46-.172.735 0 .275.058.52.172.735.119.215.279.382.481.501.206.115.437.172.693.172zm4.669-3.241c.453 0 .813.133 1.078.398.27.261.405.643.405 1.147v2.094h-.487v-2.046c0-.376-.094-.662-.282-.859-.187-.196-.455-.295-.803-.295-.389 0-.698.117-.927.35-.224.229-.337.547-.337.955v1.895h-.487v-3.612h.467v.666c.133-.219.316-.389.549-.508a1.77 1.77 0 01.824-.185z" opacity=".4" fill="#373943"/><path stroke="#EAF1FE" stroke-width=".481" d="M174.248 436.558h448.617"/><path d="M181.66 445.577v8.011h-1.488v-3.433h-4.142v3.433h-1.488v-8.011h1.488v3.308h4.142v-3.308h1.488zm7.388 8.011l-1.636-2.346a2.92 2.92 0 01-.309.012h-1.808v2.334h-1.488v-8.011h3.296c.694 0 1.297.115 1.808.344.519.229.916.557 1.19.984.275.427.412.934.412 1.522 0 .603-.149 1.122-.446 1.556-.29.435-.71.76-1.259.973l1.843 2.632h-1.603zm-.034-5.161c0-.511-.168-.904-.504-1.179-.335-.274-.827-.412-1.476-.412h-1.739v3.193h1.739c.649 0 1.141-.137 1.476-.412.336-.282.504-.679.504-1.19zm3.164-2.85h1.487v6.752h4.189v1.259h-5.676v-8.011zm109.625 7.302v2.163h-.767v-1.454h-5.39v1.454h-.767v-2.163h.343c.404-.023.679-.321.824-.893.145-.572.244-1.373.298-2.403l.08-2.014h4.44v5.31h.939zm-4.715-3.25c-.039.854-.111 1.56-.218 2.117-.107.549-.297.927-.572 1.133h3.754v-4.589h-2.896l-.068 1.339zm11.562 1.201h-5.035c.046.626.286 1.133.721 1.522.435.382.984.573 1.648.573.374 0 .717-.065 1.03-.195a2.3 2.3 0 00.812-.595l.458.526a2.562 2.562 0 01-1.007.733 3.341 3.341 0 01-1.316.252c-.618 0-1.167-.13-1.648-.39a2.898 2.898 0 01-1.11-1.098 3.12 3.12 0 01-.401-1.58c0-.587.126-1.113.378-1.579.259-.465.61-.828 1.053-1.087.45-.259.954-.389 1.511-.389.557 0 1.056.13 1.499.389.442.259.789.622 1.041 1.087.252.458.378.984.378 1.579l-.012.252zm-2.906-2.609c-.58 0-1.069.187-1.465.561-.389.366-.611.847-.664 1.442h4.269c-.054-.595-.279-1.076-.676-1.442-.389-.374-.877-.561-1.464-.561zm7.818-.698c.565 0 1.076.13 1.534.389.457.252.816.61 1.075 1.076.26.465.389.995.389 1.59 0 .603-.129 1.137-.389 1.603a2.781 2.781 0 01-1.075 1.087 3.09 3.09 0 01-1.534.378c-.488 0-.931-.1-1.328-.298a2.566 2.566 0 01-.961-.893v3.354h-.812v-8.24h.778v1.19c.244-.397.564-.702.961-.916.404-.213.858-.32 1.362-.32zm-.057 5.402c.419 0 .801-.096 1.144-.287.344-.198.611-.476.801-.835.199-.359.298-.767.298-1.225 0-.457-.099-.862-.298-1.213a2.053 2.053 0 00-.801-.835 2.25 2.25 0 00-1.144-.298c-.428 0-.813.1-1.156.298a2.16 2.16 0 00-.801.835 2.499 2.499 0 00-.286 1.213c0 .458.095.866.286 1.225.198.359.465.637.801.835.343.191.728.287 1.156.287zm9.865-2.015h-1.305v2.678h-.813v-2.678h-1.304l-1.843 2.678h-.972l2.162-3.101-1.991-2.918h.881l1.763 2.643h1.304v-2.643h.813v2.643h1.305l1.774-2.643h.881l-1.992 2.929 2.163 3.09h-.972l-1.854-2.678zm6.138-3.387c.786 0 1.389.198 1.809.595.419.389.629.969.629 1.74v3.73h-.778v-.938a1.85 1.85 0 01-.813.732c-.351.176-.77.264-1.259.264-.671 0-1.205-.161-1.602-.481-.396-.321-.595-.744-.595-1.27 0-.512.183-.924.549-1.236.374-.313.966-.47 1.774-.47h1.912v-.366c0-.519-.145-.912-.435-1.179-.29-.274-.714-.412-1.271-.412-.381 0-.747.065-1.098.195a2.686 2.686 0 00-.904.515l-.367-.607a3.202 3.202 0 011.099-.595 4.17 4.17 0 011.35-.217zm-.286 5.482c.458 0 .851-.103 1.179-.309a1.92 1.92 0 00.733-.916v-.984h-1.889c-1.03 0-1.545.359-1.545 1.076a1 1 0 00.401.835c.267.199.641.298 1.121.298zm9.122-4.715h-2.278v5.298h-.812v-5.298h-2.278v-.721h5.368v.721zm3.761 1.407c.755.008 1.327.176 1.716.504.397.328.596.801.596 1.419 0 .641-.214 1.133-.641 1.476-.42.344-1.03.511-1.831.504l-2.427-.012v-6.019h.813v2.105l1.774.023zm-.206 3.285c.557.007.976-.103 1.259-.332.29-.237.435-.58.435-1.03 0-.443-.142-.771-.424-.984-.282-.214-.706-.325-1.27-.332l-1.568-.023v2.678l1.568.023zm40.884-3.971c.839.045 1.476.274 1.911.686.442.405.663.935.663 1.591 0 .458-.11.866-.331 1.225-.222.351-.55.629-.985.835-.434.206-.965.309-1.59.309-.58 0-1.13-.092-1.648-.275-.512-.19-.924-.442-1.236-.755l.4-.652c.267.274.622.499 1.065.675a3.96 3.96 0 001.419.252c.656 0 1.163-.141 1.522-.424.358-.29.538-.686.538-1.19 0-.496-.18-.885-.538-1.167-.359-.283-.901-.424-1.625-.424h-.573v-.606l2.221-2.781h-4.097v-.733h5.149v.584l-2.265 2.85zm10.545 2.472h-1.602v2.105h-.824v-2.105h-4.521v-.596l4.246-5.31h.916l-4.097 5.173h3.479v-1.854h.801v1.854h1.602v.733zm5.84-5.906v.584l-3.353 7.427h-.893l3.296-7.278h-4.12v1.499h-.812v-2.232h5.882zm1.1 8.069a.59.59 0 01-.434-.184.625.625 0 01-.172-.446.59.59 0 01.172-.435.594.594 0 01.434-.183c.168 0 .313.061.435.183.122.115.183.26.183.435a.606.606 0 01-.183.446.591.591 0 01-.435.184zm3.913-4.784c1.16 0 2.003.21 2.53.629.534.412.801.992.801 1.74 0 .465-.111.881-.332 1.247-.214.366-.538.656-.973.87-.435.206-.969.309-1.602.309a4.888 4.888 0 01-1.637-.275c-.511-.19-.923-.442-1.236-.755l.401-.652c.267.274.618.499 1.053.675.435.168.904.252 1.407.252.664 0 1.175-.149 1.534-.447.366-.297.549-.694.549-1.19 0-.549-.206-.965-.618-1.247-.404-.283-1.091-.424-2.06-.424h-1.705l.412-4.017h4.383v.733h-3.662l-.275 2.552h1.03zm6.597-3.285v8.011h-.824v-7.278h-1.888v-.733h2.712zm52.115 3.434c.839.045 1.476.274 1.911.686.442.405.664.935.664 1.591 0 .458-.111.866-.332 1.225-.222.351-.55.629-.984.835-.435.206-.966.309-1.591.309-.58 0-1.129-.092-1.648-.275-.511-.19-.923-.442-1.236-.755l.4-.652c.267.274.622.499 1.065.675a3.96 3.96 0 001.419.252c.656 0 1.163-.141 1.522-.424.358-.29.538-.686.538-1.19 0-.496-.18-.885-.538-1.167-.359-.283-.9-.424-1.625-.424h-.572v-.606l2.22-2.781h-4.097v-.733h5.15v.584l-2.266 2.85zm10.545 2.472h-1.602v2.105h-.824v-2.105h-4.521v-.596l4.246-5.31h.916l-4.097 5.173h3.479v-1.854h.801v1.854h1.602v.733zm5.84-5.906v.584l-3.353 7.427h-.892l3.296-7.278h-4.12v1.499h-.813v-2.232h5.882zm1.101 8.069a.591.591 0 01-.435-.184.625.625 0 01-.172-.446.59.59 0 01.172-.435.594.594 0 01.435-.183c.167 0 .312.061.434.183a.57.57 0 01.184.435.603.603 0 01-.184.446.59.59 0 01-.434.184zm3.913-4.784c1.159 0 2.002.21 2.529.629.534.412.801.992.801 1.74 0 .465-.111.881-.332 1.247-.214.366-.538.656-.973.87-.435.206-.969.309-1.602.309a4.888 4.888 0 01-1.637-.275c-.511-.19-.923-.442-1.236-.755l.401-.652c.267.274.618.499 1.053.675.435.168.904.252 1.408.252.663 0 1.175-.149 1.533-.447.366-.297.549-.694.549-1.19 0-.549-.206-.965-.618-1.247-.404-.283-1.091-.424-2.06-.424h-1.705l.412-4.017h4.383v.733h-3.662l-.274 2.552h1.03zm6.596-3.285v8.011h-.824v-7.278h-1.888v-.733h2.712zm42.341 3.285c1.16 0 2.003.21 2.53.629.534.412.801.992.801 1.74 0 .465-.111.881-.332 1.247-.214.366-.538.656-.973.87-.435.206-.969.309-1.602.309a4.888 4.888 0 01-1.637-.275c-.511-.19-.923-.442-1.236-.755l.401-.652c.267.274.618.499 1.053.675.435.168.904.252 1.407.252.664 0 1.175-.149 1.534-.447.366-.297.549-.694.549-1.19 0-.549-.206-.965-.618-1.247-.404-.283-1.091-.424-2.06-.424h-1.705l.412-4.017h4.383v.733h-3.662l-.275 2.552h1.03zm57.226 4.841c-.64 0-1.213-.16-1.716-.481-.504-.328-.901-.801-1.19-1.419-.29-.626-.435-1.366-.435-2.22 0-.855.145-1.591.435-2.209.289-.626.686-1.099 1.19-1.419a3.074 3.074 0 011.716-.492c.641 0 1.214.164 1.717.492.511.32.912.793 1.202 1.419.29.618.435 1.354.435 2.209 0 .854-.145 1.594-.435 2.22-.29.618-.691 1.091-1.202 1.419a3.124 3.124 0 01-1.717.481zm0-1.293c.573 0 1.023-.237 1.351-.71.336-.473.503-1.179.503-2.117 0-.939-.167-1.644-.503-2.117-.328-.473-.778-.71-1.351-.71-.564 0-1.014.237-1.35.71-.328.473-.492 1.178-.492 2.117 0 .938.164 1.644.492 2.117.336.473.786.71 1.35.71zm5.118 1.258a.922.922 0 01-.664-.263.932.932 0 01-.275-.686c0-.283.088-.512.263-.687a.938.938 0 01.676-.263c.267 0 .488.087.663.263a.908.908 0 01.275.687.932.932 0 01-.275.686.92.92 0 01-.663.263zm5.109.035c-.641 0-1.214-.16-1.717-.481-.504-.328-.9-.801-1.19-1.419-.29-.626-.435-1.366-.435-2.22 0-.855.145-1.591.435-2.209.29-.626.686-1.099 1.19-1.419a3.075 3.075 0 011.717-.492c.64 0 1.213.164 1.716.492.511.32.912.793 1.202 1.419.29.618.435 1.354.435 2.209 0 .854-.145 1.594-.435 2.22-.29.618-.691 1.091-1.202 1.419a3.123 3.123 0 01-1.716.481zm0-1.293c.572 0 1.022-.237 1.35-.71.336-.473.504-1.179.504-2.117 0-.939-.168-1.644-.504-2.117-.328-.473-.778-.71-1.35-.71-.565 0-1.015.237-1.351.71-.328.473-.492 1.178-.492 2.117 0 .938.164 1.644.492 2.117.336.473.786.71 1.351.71zm7.7 1.293c-.641 0-1.213-.16-1.717-.481-.503-.328-.9-.801-1.19-1.419-.29-.626-.435-1.366-.435-2.22 0-.855.145-1.591.435-2.209.29-.626.687-1.099 1.19-1.419a3.077 3.077 0 011.717-.492c.641 0 1.213.164 1.717.492.511.32.911.793 1.201 1.419.29.618.435 1.354.435 2.209 0 .854-.145 1.594-.435 2.22-.29.618-.69 1.091-1.201 1.419a3.126 3.126 0 01-1.717.481zm0-1.293c.572 0 1.022-.237 1.35-.71.336-.473.504-1.179.504-2.117 0-.939-.168-1.644-.504-2.117-.328-.473-.778-.71-1.35-.71-.565 0-1.015.237-1.351.71-.328.473-.492 1.178-.492 2.117 0 .938.164 1.644.492 2.117.336.473.786.71 1.351.71zm6.144-2.518c-.572 0-1.034-.202-1.385-.607-.351-.404-.526-.934-.526-1.59 0-.657.175-1.187.526-1.591.351-.405.813-.607 1.385-.607.572 0 1.034.202 1.384.607.359.397.538.927.538 1.591 0 .663-.179 1.197-.538 1.602-.35.396-.812.595-1.384.595zm4.806-4.315h1.122l-5.471 8.011h-1.121l5.47-8.011zm-4.806 3.514c.313 0 .553-.122.721-.366.175-.245.263-.588.263-1.03 0-.443-.088-.786-.263-1.03-.168-.245-.408-.367-.721-.367a.85.85 0 00-.721.378c-.176.244-.263.584-.263 1.019 0 .434.087.778.263 1.03a.859.859 0 00.721.366zm5.253 4.577c-.573 0-1.034-.202-1.385-.606-.351-.404-.527-.935-.527-1.591 0-.656.176-1.186.527-1.591.351-.404.812-.606 1.385-.606.572 0 1.033.202 1.384.606.359.405.538.935.538 1.591 0 .656-.179 1.187-.538 1.591-.351.404-.812.606-1.384.606zm0-.801a.841.841 0 00.721-.366c.175-.252.263-.595.263-1.03 0-.435-.088-.774-.263-1.018a.833.833 0 00-.721-.378.839.839 0 00-.721.366c-.176.244-.264.588-.264 1.03 0 .443.088.786.264 1.03a.839.839 0 00.721.366z" fill="#373943"/><path d="M178.265 460.226v4.807h-.501v-2.218h-3.008v2.218h-.508v-4.807h.508v2.142h3.008v-2.142h.501zm2.942 4.841c-.348 0-.661-.078-.94-.234-.28-.16-.499-.38-.66-.659a1.87 1.87 0 01-.24-.947c0-.353.08-.669.24-.948.161-.279.38-.497.66-.652.279-.156.592-.234.94-.234s.662.078.941.234c.279.155.497.373.652.652.161.279.241.595.241.948 0 .352-.08.668-.241.947a1.7 1.7 0 01-.652.659 1.896 1.896 0 01-.941.234zm0-.433c.257 0 .486-.057.687-.171.206-.119.366-.287.481-.502.114-.215.171-.46.171-.734 0-.275-.057-.52-.171-.735a1.202 1.202 0 00-.481-.495 1.322 1.322 0 00-.687-.178 1.36 1.36 0 00-.693.178c-.202.115-.362.28-.481.495-.114.215-.171.46-.171.735 0 .274.057.519.171.734.119.215.279.383.481.502.206.114.437.171.693.171zm3.296-2.506a1.18 1.18 0 01.508-.549c.229-.124.511-.186.845-.186v.474l-.117-.007c-.38 0-.678.117-.893.35-.215.234-.322.561-.322.982v1.841h-.488v-3.612h.467v.707zm6.74-.735c.453 0 .808.131 1.064.392.261.261.392.645.392 1.153v2.095h-.488v-2.047c0-.375-.091-.661-.275-.858-.178-.197-.432-.295-.762-.295-.375 0-.67.116-.886.35-.215.229-.322.547-.322.954v1.896h-.488v-2.047c0-.375-.091-.661-.274-.858-.179-.197-.435-.295-.77-.295-.37 0-.666.116-.885.35-.215.229-.323.547-.323.954v1.896h-.488v-3.612h.467v.659c.129-.22.307-.389.536-.508.229-.119.492-.179.79-.179.302 0 .563.064.782.192.225.129.392.319.502.57.132-.238.322-.423.57-.556.251-.137.537-.206.858-.206zm5.936 1.985h-3.021c.027.375.171.679.432.913.261.229.591.343.989.343.224 0 .43-.039.618-.116.188-.083.35-.202.488-.358l.274.316c-.16.193-.361.339-.604.44-.238.1-.501.151-.79.151-.37 0-.7-.078-.988-.234a1.735 1.735 0 01-.666-.659 1.86 1.86 0 01-.241-.947c0-.353.076-.669.227-.948.156-.279.366-.497.632-.652.27-.156.572-.234.906-.234.334 0 .634.078.899.234.266.155.474.373.625.652.151.275.227.591.227.948l-.007.151zm-1.744-1.566a1.23 1.23 0 00-.879.337c-.233.219-.366.508-.398.865h2.561c-.032-.357-.167-.646-.405-.865a1.217 1.217 0 00-.879-.337zm2.743-1.874h.488v5.095h-.488v-5.095zm4.253.727v1.889h2.485v.439h-2.485v2.04h-.509v-4.807h3.296v.439h-2.787zm5.089 4.402c-.348 0-.661-.078-.94-.234-.28-.16-.499-.38-.66-.659a1.87 1.87 0 01-.24-.947c0-.353.08-.669.24-.948.161-.279.38-.497.66-.652.279-.156.592-.234.94-.234s.662.078.941.234c.279.155.497.373.652.652.161.279.241.595.241.948 0 .352-.08.668-.241.947a1.7 1.7 0 01-.652.659 1.896 1.896 0 01-.941.234zm0-.433c.257 0 .486-.057.687-.171.206-.119.366-.287.481-.502.114-.215.171-.46.171-.734 0-.275-.057-.52-.171-.735a1.202 1.202 0 00-.481-.495 1.322 1.322 0 00-.687-.178 1.36 1.36 0 00-.693.178c-.202.115-.362.28-.481.495-.114.215-.172.46-.172.735 0 .274.058.519.172.734.119.215.279.383.481.502.206.114.437.171.693.171zm4.305.433c-.348 0-.661-.078-.94-.234-.28-.16-.499-.38-.66-.659a1.87 1.87 0 01-.24-.947c0-.353.08-.669.24-.948.161-.279.38-.497.66-.652.279-.156.592-.234.94-.234s.662.078.941.234c.279.155.497.373.652.652.161.279.241.595.241.948 0 .352-.08.668-.241.947a1.7 1.7 0 01-.652.659 1.896 1.896 0 01-.941.234zm0-.433c.257 0 .486-.057.687-.171.206-.119.366-.287.481-.502.114-.215.171-.46.171-.734 0-.275-.057-.52-.171-.735a1.202 1.202 0 00-.481-.495 1.322 1.322 0 00-.687-.178 1.36 1.36 0 00-.693.178c-.202.115-.362.28-.481.495-.114.215-.171.46-.171.735 0 .274.057.519.171.734.119.215.279.383.481.502.206.114.437.171.693.171zm6.125-4.696v5.095h-.467v-.715a1.48 1.48 0 01-.584.557 1.683 1.683 0 01-.81.192 1.83 1.83 0 01-.92-.234 1.658 1.658 0 01-.645-.652 1.921 1.921 0 01-.234-.954c0-.357.078-.676.234-.955.155-.279.37-.494.645-.645a1.83 1.83 0 01.92-.234c.293 0 .556.062.79.186.238.119.432.295.583.528v-2.169h.488zm-1.82 4.696c.252 0 .479-.057.68-.171.206-.119.366-.287.481-.502a1.49 1.49 0 00.178-.734c0-.275-.059-.52-.178-.735a1.202 1.202 0 00-.481-.495 1.31 1.31 0 00-.68-.178 1.36 1.36 0 00-.693.178c-.202.115-.362.28-.481.495-.114.215-.171.46-.171.735 0 .274.057.519.171.734.119.215.279.383.481.502.206.114.437.171.693.171zm4.146.433a2.86 2.86 0 01-.845-.124 1.855 1.855 0 01-.624-.322l.219-.385c.151.119.341.217.57.295.229.073.467.11.714.11.33 0 .573-.05.728-.151a.498.498 0 00.24-.439.38.38 0 00-.13-.309.81.81 0 00-.33-.172 4.236 4.236 0 00-.528-.117 6.724 6.724 0 01-.708-.165 1.098 1.098 0 01-.46-.295c-.123-.137-.185-.327-.185-.57 0-.302.126-.549.378-.741.251-.193.602-.289 1.05-.289.234 0 .467.032.701.096.233.06.425.14.576.241l-.212.391c-.298-.206-.653-.309-1.065-.309-.311 0-.547.055-.707.165a.505.505 0 00-.233.432c0 .138.043.248.13.33a.898.898 0 00.336.185c.133.037.316.076.55.117.288.055.519.11.693.165.174.055.323.149.447.282.123.132.185.315.185.549a.88.88 0 01-.398.755c-.261.183-.625.275-1.092.275zm6.379.007c-.476 0-.907-.106-1.291-.316a2.356 2.356 0 01-.9-.872 2.484 2.484 0 01-.322-1.257c0-.462.107-.879.322-1.25a2.32 2.32 0 01.907-.878 2.637 2.637 0 011.291-.316c.357 0 .686.059.989.178.302.119.558.293.769.522l-.323.323c-.376-.38-.849-.57-1.422-.57-.379 0-.725.087-1.036.261a1.925 1.925 0 00-.735.714 1.999 1.999 0 00-.261 1.016c0 .376.087.714.261 1.016.178.303.423.541.735.715.311.174.657.261 1.036.261.577 0 1.051-.193 1.422-.577l.323.322a2.11 2.11 0 01-.776.529 2.676 2.676 0 01-.989.179zm4.06-.007c-.348 0-.661-.078-.941-.234a1.752 1.752 0 01-.659-.659 1.87 1.87 0 01-.24-.947c0-.353.08-.669.24-.948a1.7 1.7 0 01.659-.652c.28-.156.593-.234.941-.234s.662.078.941.234c.279.155.497.373.652.652.16.279.241.595.241.948 0 .352-.081.668-.241.947a1.7 1.7 0 01-.652.659 1.896 1.896 0 01-.941.234zm0-.433c.257 0 .485-.057.687-.171.206-.119.366-.287.48-.502.115-.215.172-.46.172-.734 0-.275-.057-.52-.172-.735a1.194 1.194 0 00-.48-.495 1.325 1.325 0 00-.687-.178 1.36 1.36 0 00-.693.178c-.202.115-.362.28-.481.495-.114.215-.172.46-.172.735 0 .274.058.519.172.734.119.215.279.383.481.502.206.114.437.171.693.171zm3.296-2.506a1.18 1.18 0 01.508-.549c.229-.124.51-.186.845-.186v.474l-.117-.007c-.38 0-.678.117-.893.35-.215.234-.323.561-.323.982v1.841h-.487v-3.612h.467v.707zm4.096-.735c.339 0 .646.078.92.234.275.151.49.366.646.645.155.279.233.598.233.955 0 .361-.078.682-.233.961a1.667 1.667 0 01-.646.652c-.27.151-.577.227-.92.227-.293 0-.558-.06-.796-.179a1.53 1.53 0 01-.577-.535v2.012h-.488v-4.944h.467v.714c.147-.238.339-.421.577-.55.243-.128.515-.192.817-.192zm-.034 3.241c.252 0 .48-.057.686-.171.206-.119.367-.287.481-.502.119-.215.179-.46.179-.734 0-.275-.06-.518-.179-.728a1.238 1.238 0 00-.481-.502 1.344 1.344 0 00-.686-.178 1.36 1.36 0 00-.694.178 1.303 1.303 0 00-.48.502c-.115.21-.172.453-.172.728 0 .274.057.519.172.734.119.215.279.383.48.502.206.114.437.171.694.171zm4.303.433c-.348 0-.661-.078-.94-.234-.28-.16-.499-.38-.66-.659a1.87 1.87 0 01-.24-.947c0-.353.08-.669.24-.948.161-.279.38-.497.66-.652.279-.156.592-.234.94-.234s.662.078.941.234c.279.155.497.373.652.652.161.279.241.595.241.948 0 .352-.08.668-.241.947a1.7 1.7 0 01-.652.659 1.896 1.896 0 01-.941.234zm0-.433c.257 0 .486-.057.687-.171.206-.119.366-.287.481-.502.114-.215.171-.46.171-.734 0-.275-.057-.52-.171-.735a1.202 1.202 0 00-.481-.495 1.322 1.322 0 00-.687-.178 1.36 1.36 0 00-.693.178c-.202.115-.362.28-.481.495-.114.215-.172.46-.172.735 0 .274.058.519.172.734.119.215.279.383.481.502.206.114.437.171.693.171zm3.296-2.506a1.18 1.18 0 01.508-.549c.229-.124.51-.186.845-.186v.474l-.117-.007c-.38 0-.678.117-.893.35-.215.234-.322.561-.322.982v1.841h-.488v-3.612h.467v.707zm3.492-.735c.472 0 .833.119 1.085.357.252.234.378.582.378 1.044v2.239h-.467v-.564c-.11.188-.273.335-.488.44-.21.105-.462.158-.755.158-.403 0-.723-.096-.961-.289a.93.93 0 01-.357-.762c0-.306.109-.554.329-.741.224-.188.579-.282 1.064-.282h1.147v-.22c0-.311-.087-.547-.261-.707-.174-.165-.428-.247-.762-.247-.229 0-.449.039-.659.117a1.604 1.604 0 00-.543.309l-.219-.364c.183-.156.403-.275.659-.357a2.5 2.5 0 01.81-.131zm-.172 3.289c.275 0 .511-.061.708-.185.197-.128.343-.311.439-.549v-.591h-1.133c-.618 0-.927.215-.927.646a.6.6 0 00.241.501c.16.119.384.178.672.178zm4.861.131a.973.973 0 01-.343.192 1.416 1.416 0 01-.419.062c-.339 0-.6-.092-.783-.275-.183-.183-.275-.442-.275-.776v-2.183h-.645v-.412h.645v-.79h.488v.79h1.098v.412h-1.098v2.156c0 .215.052.38.158.494.11.11.265.165.467.165a.866.866 0 00.535-.185l.172.35zm.887-3.392h.488v3.612h-.488v-3.612zm.248-.79a.342.342 0 01-.254-.103.336.336 0 01-.103-.247.33.33 0 01.103-.241.345.345 0 01.254-.102c.1 0 .185.034.254.102a.312.312 0 01.103.234.348.348 0 01-.103.254.345.345 0 01-.254.103zm3.073 4.436c-.348 0-.662-.078-.941-.234a1.752 1.752 0 01-.659-.659 1.87 1.87 0 01-.24-.947c0-.353.08-.669.24-.948a1.7 1.7 0 01.659-.652c.279-.156.593-.234.941-.234s.661.078.941.234c.279.155.496.373.652.652.16.279.24.595.24.948 0 .352-.08.668-.24.947a1.706 1.706 0 01-.652.659c-.28.156-.593.234-.941.234zm0-.433c.256 0 .485-.057.686-.171.206-.119.367-.287.481-.502.115-.215.172-.46.172-.734 0-.275-.057-.52-.172-.735a1.196 1.196 0 00-.481-.495 1.321 1.321 0 00-.686-.178 1.36 1.36 0 00-.694.178c-.201.115-.361.28-.48.495-.115.215-.172.46-.172.735 0 .274.057.519.172.734.119.215.279.383.48.502.206.114.437.171.694.171zm4.669-3.241c.453 0 .812.133 1.078.398.27.261.405.644.405 1.147v2.095h-.488v-2.047c0-.375-.093-.661-.281-.858-.188-.197-.456-.295-.803-.295-.39 0-.699.116-.927.35-.225.229-.337.547-.337.954v1.896h-.487v-3.612h.466v.666c.133-.22.316-.389.55-.508.238-.124.512-.186.824-.186z" opacity=".4" fill="#373943"/><path d="M275.577 322.209c0 .589-.216 1.091-.646 1.505-.424.407-1.042.655-1.853.742v1.221h-.884v-1.21a6.001 6.001 0 01-1.508-.295c-.474-.16-.851-.363-1.131-.61l.485-1.102c.266.218.589.404.969.556.381.146.776.237 1.185.273v-2.181a8.47 8.47 0 01-1.281-.404 2.287 2.287 0 01-.851-.654c-.23-.291-.345-.673-.345-1.145 0-.589.212-1.091.635-1.505.424-.415 1.038-.662 1.842-.742v-1.232h.884v1.21c.402.022.793.091 1.174.208.388.116.725.269 1.012.458l-.441 1.101a4.452 4.452 0 00-1.745-.589v2.203a8 8 0 011.282.404c.344.145.632.363.861.654.237.284.356.662.356 1.134zm-4.471-3.37c0 .24.094.433.28.578.187.146.457.269.808.371v-1.941c-.366.058-.639.174-.818.349a.86.86 0 00-.27.643zm1.972 4.428c.38-.058.66-.171.84-.338a.8.8 0 00.28-.622.696.696 0 00-.291-.588c-.194-.153-.47-.28-.829-.382v1.93zm10.176-.632h-1.336v1.734h-1.357v-1.734h-4.137v-.982l3.717-4.919h1.497l-3.501 4.701h2.467v-1.538h1.314v1.538h1.336v1.2zm7.311 0h-1.336v1.734h-1.357v-1.734h-4.137v-.982l3.717-4.919h1.497l-3.501 4.701h2.467v-1.538h1.314v1.538h1.336v1.2zm3.694-2.749c.697.088 1.228.327 1.594.72.367.393.55.883.55 1.472 0 .444-.112.847-.334 1.211-.223.363-.56.654-1.013.872-.445.211-.991.317-1.637.317a5.368 5.368 0 01-1.562-.229 4.035 4.035 0 01-1.271-.655l.603-1.101c.273.232.603.418.991.556.395.131.801.196 1.217.196.496 0 .884-.101 1.164-.305.287-.211.431-.494.431-.851 0-.356-.137-.632-.41-.829-.265-.203-.675-.305-1.228-.305h-.689v-.971l1.713-2.061h-3.426v-1.189h5.138v.949l-1.831 2.203zm3.911 2.749c.251 0 .459.083.625.25.165.168.247.386.247.655 0 .116-.018.24-.054.371a4.511 4.511 0 01-.193.567l-.55 1.537h-.872l.431-1.668a.83.83 0 01-.378-.306.963.963 0 01-.129-.501c0-.269.083-.487.248-.655a.84.84 0 01.625-.25zm4.798 1.843a2.922 2.922 0 01-1.616-.458c-.474-.313-.847-.764-1.12-1.353-.273-.596-.41-1.301-.41-2.115 0-.815.137-1.516.41-2.105.273-.596.646-1.047 1.12-1.353a2.875 2.875 0 011.616-.469c.603 0 1.142.157 1.616.469.481.306.858.757 1.131 1.353.273.589.409 1.29.409 2.105 0 .814-.136 1.519-.409 2.115-.273.589-.65 1.04-1.131 1.353a2.922 2.922 0 01-1.616.458zm0-1.233c.538 0 .962-.225 1.271-.676.316-.451.474-1.123.474-2.017 0-.895-.158-1.567-.474-2.018-.309-.451-.733-.676-1.271-.676-.532 0-.955.225-1.271.676-.309.451-.463 1.123-.463 2.018 0 .894.154 1.566.463 2.017.316.451.739.676 1.271.676zm6.645-6.62c1.034 0 1.835.328 2.402.982.574.654.862 1.592.862 2.814 0 .858-.155 1.592-.464 2.203a3.264 3.264 0 01-1.303 1.385c-.553.312-1.196.469-1.928.469-.388 0-.754-.04-1.099-.12a3.053 3.053 0 01-.883-.371l.517-1.069c.373.247.851.371 1.432.371.726 0 1.293-.225 1.702-.676.41-.451.614-1.102.614-1.952v-.011a2.15 2.15 0 01-.851.6c-.344.13-.732.196-1.163.196a3.06 3.06 0 01-1.336-.284 2.238 2.238 0 01-.926-.829 2.272 2.272 0 01-.334-1.232c0-.494.122-.927.366-1.298.244-.378.575-.669.991-.872a3.146 3.146 0 011.401-.306zm.107 3.708c.453 0 .819-.123 1.099-.37.287-.248.431-.56.431-.938 0-.371-.14-.676-.42-.916-.273-.248-.654-.371-1.142-.371-.438 0-.793.12-1.066.36-.273.232-.41.545-.41.938 0 .4.137.716.41.948.273.233.639.349 1.098.349z" fill="#3E54D8"/><path d="M319.949 326.015c-.418-.686-.74-1.482-.967-2.387a12.332 12.332 0 01-.329-2.907c0-1.034.11-2.003.329-2.908.227-.913.549-1.708.967-2.387h1.264a10.529 10.529 0 00-.956 2.523c-.199.86-.298 1.784-.298 2.772 0 .988.099 1.915.298 2.783.205.86.524 1.697.956 2.511h-1.264zm4.636-10.114v7.92h-1.381v-6.687h-1.572v-1.233h2.953zm2.314 6.121c.247 0 .453.086.616.26.163.173.244.4.244.679 0 .12-.018.249-.053.384a4.777 4.777 0 01-.191.589l-.542 1.595h-.86l.424-1.731a.829.829 0 01-.371-.317 1.041 1.041 0 01-.128-.52c0-.279.082-.506.245-.679a.805.805 0 01.616-.26zm4.08-3.055c1.048 0 1.823.219 2.326.656.503.43.754 1.018.754 1.765 0 .475-.109.905-.329 1.29-.22.385-.549.69-.988.916-.439.227-.981.34-1.625.34a5.012 5.012 0 01-1.54-.238 3.78 3.78 0 01-1.254-.679l.585-1.142c.276.241.605.433.988.577.389.135.789.203 1.2.203.488 0 .871-.105 1.147-.317.283-.218.425-.516.425-.893 0-.408-.152-.713-.457-.917-.297-.211-.811-.317-1.54-.317h-1.795l.382-4.31h4.366v1.233h-3.197l-.16 1.833h.712zm9.21 3.609v1.245h-5.481v-.985l2.953-2.987c.333-.339.556-.633.669-.882.121-.256.181-.509.181-.758 0-.37-.117-.652-.351-.849-.233-.196-.577-.294-1.03-.294-.758 0-1.338.276-1.742.826l-.966-.792a2.85 2.85 0 011.168-.961 3.834 3.834 0 011.657-.351c.807 0 1.452.203 1.933.611.482.407.722.961.722 1.663 0 .43-.085.833-.255 1.21-.169.378-.495.808-.977 1.29l-1.986 2.014h3.505zm2.558-2.41c-.531 0-.96-.2-1.285-.599-.326-.4-.489-.924-.489-1.573 0-.649.163-1.173.489-1.573.325-.399.754-.599 1.285-.599.531 0 .959.2 1.285.599.333.393.499.917.499 1.573 0 .656-.166 1.184-.499 1.584-.326.392-.754.588-1.285.588zm4.461-4.265h1.041l-5.077 7.92h-1.041l5.077-7.92zm-4.461 3.473a.75.75 0 00.669-.362c.163-.241.244-.581.244-1.018 0-.437-.081-.777-.244-1.018a.75.75 0 00-.669-.362c-.276 0-.499.124-.669.373-.163.241-.245.577-.245 1.007 0 .43.082.769.245 1.018.17.242.393.362.669.362zm4.875 4.526c-.531 0-.959-.2-1.285-.6-.326-.4-.488-.924-.488-1.572 0-.649.162-1.173.488-1.573.326-.4.754-.6 1.285-.6.531 0 .96.2 1.286.6.332.4.499.924.499 1.573 0 .648-.167 1.172-.499 1.572-.326.4-.755.6-1.286.6zm0-.792a.768.768 0 00.67-.362c.162-.249.244-.589.244-1.018 0-.43-.082-.766-.244-1.007-.163-.249-.386-.374-.67-.374a.767.767 0 00-.669.362c-.163.242-.244.581-.244 1.019 0 .437.081.776.244 1.018a.767.767 0 00.669.362zm2.165 2.907c.432-.814.751-1.655.956-2.523.206-.867.308-1.791.308-2.771 0-.981-.102-1.905-.308-2.772a10.529 10.529 0 00-.956-2.523h1.264c.418.671.737 1.463.956 2.376.227.905.34 1.878.34 2.919 0 1.04-.113 2.013-.34 2.919-.219.897-.538 1.689-.956 2.375h-1.264z" fill="#199F27"/><path opacity=".9" d="M184.845 194.55h-12.552v16.8h3.312v-13.632h5.928v13.632h3.312v-16.8zm8.696 17.136c3.528 0 6.36-2.76 6.36-6.336 0-3.576-2.832-6.336-6.36-6.336-3.528 0-6.336 2.76-6.336 6.336 0 3.576 2.808 6.336 6.336 6.336zm0-3.024c-1.824 0-3.24-1.368-3.24-3.312 0-1.944 1.416-3.312 3.24-3.312 1.848 0 3.264 1.368 3.264 3.312 0 1.944-1.416 3.312-3.264 3.312zm15.522-9.648c-1.752 0-3.024.648-3.888 1.752v-1.416h-3.096v16.8h3.096v-6.216c.864 1.104 2.136 1.752 3.888 1.752 3.216 0 5.856-2.76 5.856-6.336 0-3.576-2.64-6.336-5.856-6.336zm-.576 9.72c-1.896 0-3.312-1.368-3.312-3.384s1.416-3.384 3.312-3.384c1.92 0 3.336 1.368 3.336 3.384s-1.416 3.384-3.336 3.384zm17.602-9.384h-10.632v2.976h3.792v9.024h3.096v-9.024h3.744v-2.976zm15.441 6c0-3.144-2.208-5.664-5.928-6.192v-4.608h-3.024v4.608c-3.72.528-5.928 3.048-5.928 6.192s2.208 5.664 5.928 6.192v4.608h3.024v-4.608c3.72-.528 5.928-3.048 5.928-6.192zm-11.832 0c0-1.608 1.008-2.832 2.88-3.24v6.48c-1.872-.432-2.88-1.656-2.88-3.24zm5.904 3.216v-6.456c1.872.432 2.856 1.632 2.856 3.24 0 1.584-.984 2.808-2.856 3.216zm10.718-1.944h9.048c.072-.408.12-.816.12-1.272 0-3.528-2.52-6.336-6.072-6.336-3.768 0-6.336 2.76-6.336 6.336 0 3.576 2.544 6.336 6.576 6.336 2.304 0 4.104-.936 5.232-2.568l-2.496-1.44c-.528.696-1.488 1.2-2.688 1.2-1.632 0-2.952-.672-3.384-2.256zm-.048-2.4c.36-1.536 1.488-2.424 3.144-2.424 1.296 0 2.592.696 2.976 2.424h-6.12zm21.204-4.872h-9.504v6.816c0 1.872-.696 2.592-1.968 2.28v2.904c3.24.36 5.064-1.224 5.064-5.016v-4.008h3.312v9.024h3.096v-12zm8.23 3.84h-2.328v-3.84h-3.096v12h5.424c2.736 0 4.536-1.632 4.536-4.08 0-2.448-1.8-4.08-4.536-4.08zm.024 5.424h-2.352v-2.712h2.352c.864 0 1.488.552 1.488 1.368 0 .816-.624 1.344-1.488 1.344z" fill="#24252E"/><defs><filter id="filter0_d" x="60.65" y="91.118" width="679.664" height="517.931" filterUnits="userSpaceOnUse" color-interpolation-filters="sRGB"><feFlood flood-opacity="0" result="BackgroundImageFix"/><feColorMatrix in="SourceAlpha" values="0 0 0 0 0 0 0 0 0 0 0 0 0 0 0 0 0 0 127 0"/><feMorphology radius="16.366" in="SourceAlpha" result="effect1_dropShadow"/><feOffset dy="42.359"/><feGaussianBlur stdDeviation="42.84"/><feColorMatrix values="0 0 0 0 0.243137 0 0 0 0 0.329412 0 0 0 0 0.847059 0 0 0 0.06 0"/><feBlend in2="BackgroundImageFix" result="effect1_dropShadow"/><feBlend in="SourceGraphic" in2="effect1_dropShadow" result="shape"/></filter></defs></svg>