<svg width="1418" height="956" fill="none" xmlns="http://www.w3.org/2000/svg"><path d="M0 218.5C0 97.826 97.826 0 218.5 0H248v248H0v-29.5z" fill="#ED6373"/><path d="M31 310c0-20.435 16.566-37 37-37h37v74H68c-20.434 0-37-16.565-37-37zM1294 0c68.48 0 124 55.517 124 124v124h-248V124c0-68.483 55.52-124 124-124z" fill="#F3B63F"/><circle cx="293.5" cy="75.5" r="25.5" fill="#3E54D8"/><circle cx="1339.5" cy="303.5" r="25.5" fill="#ED6373"/><g filter="url(#filter0_d)"><rect x="124" y="121" width="1170" height="719" rx="36" fill="#fff"/></g><path d="M124 157c0-19.882 16.118-36 36-36h1098c19.88 0 36 16.118 36 36v29H124v-29z" fill="#050238"/><path d="M167.8 736h8.9v-1.36h-6.9l4-3.98c1.42-1.42 2.6-2.92 2.6-4.7 0-2.74-2.14-4.2-4.22-4.2-1.78 0-3.42.86-4.32 2.64l1.18.7c.68-1.38 1.78-1.98 3.14-1.98 1.44 0 2.82.94 2.82 2.84 0 1.3-.98 2.52-2.16 3.7l-5.04 5.08V736zm19.708-9.62c0-2.74-1.98-4.62-4.7-4.62s-4.7 1.88-4.7 4.62 1.98 4.62 4.7 4.62c.38 0 .76-.04 1.12-.12l-3.44 5.12h1.58l4.58-6.82c.54-.76.86-1.7.86-2.8zm-8 0c0-1.96 1.32-3.26 3.3-3.26 1.98 0 3.3 1.3 3.3 3.26 0 1.96-1.32 3.26-3.3 3.26-1.98 0-3.3-1.3-3.3-3.26zm18.085 9.62l-5.36-5.2 5.16-4.8h-1.8l-4.76 4.42V722h-1.32v14h1.32v-4.82l5 4.82h1.76zM172.94 600.82l3.26-4.5V595H168v1.32h6.58l-3.48 4.76.6.92h.38l.02-.02v.02c1.82 0 3.3 1 3.3 2.94s-1.48 2.94-3.3 2.94c-1.6 0-2.88-.68-3.34-2.1l-1.16.68c.68 1.84 2.48 2.78 4.5 2.78 2.46 0 4.7-1.52 4.7-4.3 0-2.46-1.76-3.84-3.86-4.12zm9.868-.18h-2.36l.3-4.32h6.26V595h-7.5l-.5 7h3.8c1.82 0 3.3 1 3.3 2.94s-1.48 2.94-3.3 2.94c-1.6 0-2.92-.76-3.32-2.3l-1.18.68c.62 1.98 2.48 2.98 4.5 2.98 2.46 0 4.7-1.52 4.7-4.3s-2.24-4.3-4.7-4.3zm14.981 8.36l-5.36-5.2 5.16-4.8h-1.8l-4.76 4.42V595h-1.32v14h1.32v-4.82l5 4.82h1.76zM176.1 477.88h-1.8v-4.28h-1.4v4.28h-5.86l5.2-9.88h-1.54l-5.2 9.88v1.32h7.4v2.8h1.4v-2.8h1.8v-1.32zm6.802 4.36c3.42 0 5.3-2.92 5.3-7.24s-1.88-7.24-5.3-7.24-5.3 2.92-5.3 7.24 1.88 7.24 5.3 7.24zm0-1.36c-2.46 0-3.9-2.14-3.9-5.88 0-3.74 1.44-5.88 3.9-5.88s3.9 2.14 3.9 5.88c0 3.74-1.44 5.88-3.9 5.88zm15.777 1.12l-5.36-5.2 5.16-4.8h-1.8l-4.76 4.42V468h-1.32v14h1.32v-4.82l5 4.82h1.76zM172.3 346.64h-2.36l.3-4.32h6.26V341H169l-.5 7h3.8c1.82 0 3.3 1 3.3 2.94s-1.48 2.94-3.3 2.94c-1.6 0-2.92-.76-3.32-2.3l-1.18.68c.62 1.98 2.48 2.98 4.5 2.98 2.46 0 4.7-1.52 4.7-4.3s-2.24-4.3-4.7-4.3zm11.605 8.6c3.42 0 5.3-2.92 5.3-7.24s-1.88-7.24-5.3-7.24-5.3 2.92-5.3 7.24 1.88 7.24 5.3 7.24zm0-1.36c-2.46 0-3.9-2.14-3.9-5.88 0-3.74 1.44-5.88 3.9-5.88s3.9 2.14 3.9 5.88c0 3.74-1.44 5.88-3.9 5.88zm15.778 1.12l-5.36-5.2 5.16-4.8h-1.8l-4.76 4.42V341h-1.32v14h1.32v-4.82l5 4.82h1.76zm74.377 430.26c2.92 0 4.96-1.56 4.96-4.12 0-2.78-2.34-3.5-4.66-4.24-2.04-.64-2.82-1.1-2.82-2.18 0-1.06.86-1.74 2.2-1.74 1.56 0 2.44.84 2.94 1.96l1.94-1.12c-.88-1.86-2.58-3.08-4.88-3.08-2.36 0-4.5 1.46-4.5 4.04 0 2.64 2.12 3.44 4.3 4.1 2.08.64 3.18 1.06 3.18 2.3 0 1.02-.78 1.84-2.6 1.84-1.9 0-2.98-.94-3.48-2.36l-1.98 1.16c.74 2.08 2.64 3.44 5.4 3.44zm18.266-.96l-1.82-1.98c.56-.9.94-1.94 1.16-2.96l-1.96-1.12c-.14.94-.38 1.76-.72 2.44l-3.4-3.68c-.66-.72-1.2-1.34-1.2-2.24 0-1.08.88-1.78 1.98-1.78s1.96.68 2.34 1.8l1.96-1.12c-.76-1.9-2.44-2.92-4.32-2.92-2.36 0-4.26 1.56-4.26 3.96 0 1.02.32 1.78.8 2.44-1.62.88-2.46 2.38-2.46 4.02 0 2.56 2 4.1 4.8 4.1 1.62 0 2.9-.52 3.9-1.32l1.34 1.44 1.86-1.08zm-6.98-1.18c-1.68 0-2.6-.86-2.6-2.14 0-.84.4-1.76 1.48-2.3l3.44 3.7c-.64.48-1.4.74-2.32.74zM299.345 771h-5.16v14h2.3v-4.8h2.86c2.64 0 4.64-2.02 4.64-4.6 0-2.6-2-4.6-4.64-4.6zm0 7.04h-2.86v-4.88h2.86c1.36 0 2.34 1.02 2.34 2.44 0 1.4-.98 2.44-2.34 2.44zm10.737-1.76h-1.76l.24-3.12h5.68V771h-7.8l-.54 7.52h4.08c1.52 0 2.56.84 2.56 2.24 0 1.4-1.04 2.26-2.6 2.26-1.46 0-2.42-.66-2.78-1.9l-1.98 1.14c.74 2.02 2.64 3 4.76 3 2.58 0 4.9-1.56 4.9-4.5 0-2.92-2.22-4.48-4.76-4.48zm11.542 8.98c3.52 0 5.5-2.94 5.5-7.26s-1.98-7.26-5.5-7.26-5.5 2.94-5.5 7.26 1.98 7.26 5.5 7.26zm0-2.24c-2.06 0-3.2-1.8-3.2-5.02 0-3.22 1.14-5.02 3.2-5.02 2.08 0 3.2 1.8 3.2 5.02 0 3.22-1.12 5.02-3.2 5.02zm12.598 2.24c3.52 0 5.5-2.94 5.5-7.26s-1.98-7.26-5.5-7.26-5.5 2.94-5.5 7.26 1.98 7.26 5.5 7.26zm0-2.24c-2.06 0-3.2-1.8-3.2-5.02 0-3.22 1.14-5.02 3.2-5.02 2.08 0 3.2 1.8 3.2 5.02 0 3.22-1.12 5.02-3.2 5.02z" fill="#373943"/><path opacity=".3" d="M263.944 220l-4.768 6.16V220h-1.056v8h.896l4.768-6.16V228h1.056v-8h-.896zm8.889 0h-6.72v1.024h2.832V228h1.056v-6.976h2.832V220zm4.703 8.192c2.336 0 4.208-1.824 4.208-4.192 0-2.368-1.872-4.192-4.208-4.192-2.336 0-4.208 1.824-4.208 4.192 0 2.368 1.872 4.192 4.208 4.192zm0-1.024c-1.776 0-3.152-1.392-3.152-3.168 0-1.776 1.376-3.168 3.152-3.168 1.776 0 3.152 1.392 3.152 3.168 0 1.776-1.376 3.168-3.152 3.168zM288.631 220h-5.12v8h1.056v-6.976h4.064V220zm4.701 8.192c2.336 0 4.208-1.824 4.208-4.192 0-2.368-1.872-4.192-4.208-4.192-2.336 0-4.208 1.824-4.208 4.192 0 2.368 1.872 4.192 4.208 4.192zm0-1.024c-1.776 0-3.152-1.392-3.152-3.168 0-1.776 1.376-3.168 3.152-3.168 1.776 0 3.152 1.392 3.152 3.168 0 1.776-1.376 3.168-3.152 3.168z" fill="#373943"/><path d="M261.152 252.8l-2.944 1.04.448 1.568 2.256-.64V264h1.84v-11.2h-1.6zm7.201 4.224h-1.408l.192-2.496h4.544V252.8h-6.24l-.432 6.016h3.264c1.216 0 2.048.672 2.048 1.792s-.832 1.808-2.08 1.808c-1.168 0-1.936-.528-2.224-1.52l-1.584.912c.592 1.616 2.112 2.4 3.808 2.4 2.064 0 3.92-1.248 3.92-3.6 0-2.336-1.776-3.584-3.808-3.584zm7.414 5.056h-1.92l-.64 4.16h1.44l1.12-4.16zm8.022-5.664c0-2.256-1.632-3.824-3.952-3.824-2.32 0-3.968 1.568-3.968 3.824s1.648 3.824 3.968 3.824h.192l-2.56 3.76h2.112l3.536-5.328c.432-.624.672-1.392.672-2.256zm-6.08 0c0-1.28.912-2.08 2.128-2.08 1.216 0 2.112.8 2.112 2.08s-.896 2.08-2.112 2.08c-1.216 0-2.128-.816-2.128-2.08zm10.534.144h-.208l2.56-3.76h-2.096l-3.552 5.328c-.432.624-.672 1.392-.672 2.256 0 2.256 1.632 3.824 3.968 3.824 2.32 0 3.952-1.568 3.952-3.824s-1.632-3.824-3.952-3.824zm0 5.904c-1.232 0-2.128-.8-2.128-2.08s.896-2.08 2.128-2.08c1.216 0 2.112.8 2.112 2.08 0 1.264-.896 2.08-2.112 2.08zm7.29-4.752c1.504 0 2.608-1.152 2.608-2.56 0-1.44-1.12-2.56-2.608-2.56-1.504 0-2.624 1.136-2.624 2.56 0 1.408 1.12 2.56 2.624 2.56zm-.016-1.408c-.672 0-1.136-.512-1.136-1.152 0-.656.464-1.168 1.136-1.168.688 0 1.152.512 1.152 1.168 0 .624-.464 1.152-1.152 1.152zm-1.664 6.048l.864.512 7.376-8.224-.864-.496-7.376 8.208zm6.8 1.84c1.488 0 2.608-1.152 2.608-2.56 0-1.424-1.12-2.56-2.608-2.56-1.504 0-2.624 1.136-2.624 2.56 0 1.408 1.12 2.56 2.624 2.56zm-.016-1.408c-.672 0-1.136-.512-1.136-1.152 0-.656.464-1.168 1.136-1.168.688 0 1.152.512 1.152 1.168 0 .624-.464 1.152-1.152 1.152z" fill="#199F27"/><path d="M161.848 264.208c2.336 0 3.968-1.248 3.968-3.296 0-2.224-1.872-2.8-3.728-3.392-1.632-.512-2.256-.88-2.256-1.744 0-.848.688-1.392 1.76-1.392 1.248 0 1.952.672 2.352 1.568l1.552-.896c-.704-1.488-2.064-2.464-3.904-2.464-1.888 0-3.6 1.168-3.6 3.232 0 2.112 1.696 2.752 3.44 3.28 1.664.512 2.544.848 2.544 1.84 0 .816-.624 1.472-2.08 1.472-1.52 0-2.384-.752-2.784-1.888l-1.584.928c.592 1.664 2.112 2.752 4.32 2.752zm14.613-.768l-1.456-1.584c.448-.72.752-1.552.928-2.368l-1.568-.896c-.112.752-.304 1.408-.576 1.952l-2.72-2.944c-.528-.576-.96-1.072-.96-1.792 0-.864.704-1.424 1.584-1.424.88 0 1.568.544 1.872 1.44l1.568-.896c-.608-1.52-1.952-2.336-3.456-2.336-1.888 0-3.408 1.248-3.408 3.168 0 .816.256 1.424.64 1.952-1.296.704-1.968 1.904-1.968 3.216 0 2.048 1.6 3.28 3.84 3.28 1.296 0 2.32-.416 3.12-1.056l1.072 1.152 1.488-.864zm-5.584-.944c-1.344 0-2.08-.688-2.08-1.712 0-.672.32-1.408 1.184-1.84l2.752 2.96c-.512.384-1.12.592-1.856.592zm11.199-9.696h-4.128V264h1.84v-3.84h2.288c2.112 0 3.712-1.616 3.712-3.68 0-2.08-1.6-3.68-3.712-3.68zm0 5.632h-2.288v-3.904h2.288c1.088 0 1.872.816 1.872 1.952 0 1.12-.784 1.952-1.872 1.952zm8.59-1.408h-1.408l.192-2.496h4.544V252.8h-6.24l-.432 6.016h3.264c1.216 0 2.048.672 2.048 1.792s-.832 1.808-2.08 1.808c-1.168 0-1.936-.528-2.224-1.52l-1.584.912c.592 1.616 2.112 2.4 3.808 2.4 2.064 0 3.92-1.248 3.92-3.6 0-2.336-1.776-3.584-3.808-3.584zm9.233 7.184c2.816 0 4.4-2.352 4.4-5.808s-1.584-5.808-4.4-5.808c-2.816 0-4.4 2.352-4.4 5.808s1.584 5.808 4.4 5.808zm0-1.792c-1.648 0-2.56-1.44-2.56-4.016s.912-4.016 2.56-4.016c1.664 0 2.56 1.44 2.56 4.016s-.896 4.016-2.56 4.016zm10.079 1.792c2.816 0 4.4-2.352 4.4-5.808s-1.584-5.808-4.4-5.808c-2.816 0-4.4 2.352-4.4 5.808s1.584 5.808 4.4 5.808zm0-1.792c-1.648 0-2.56-1.44-2.56-4.016s.912-4.016 2.56-4.016c1.664 0 2.56 1.44 2.56 4.016s-.896 4.016-2.56 4.016zm-47.73 20.384h-4.128V294h1.84v-3.84h2.288c2.112 0 3.712-1.616 3.712-3.68 0-2.08-1.6-3.68-3.712-3.68zm0 5.632h-2.288v-3.904h2.288c1.088 0 1.872.816 1.872 1.952 0 1.12-.784 1.952-1.872 1.952zm8.411 5.776c2.352 0 4.224-1.84 4.224-4.208 0-2.384-1.872-4.208-4.224-4.208-2.336 0-4.224 1.824-4.224 4.208 0 2.368 1.888 4.208 4.224 4.208zm0-1.68c-1.408 0-2.496-1.072-2.496-2.528s1.088-2.528 2.496-2.528 2.496 1.072 2.496 2.528-1.088 2.528-2.496 2.528zm7.515-5.184V286h-1.728v8h1.728v-4.032c0-1.792 1.328-2.32 2.464-2.24v-1.872c-1.008 0-1.984.4-2.464 1.488zm8.407.32V286h-1.984v-2.24l-1.728.512V286h-1.472v1.664h1.472v3.84c0 2.08 1.056 2.816 3.712 2.496v-1.552c-1.312.064-1.984.08-1.984-.944v-3.84h1.984zm5.338-3.408v-1.664c-2.4-.16-3.616 1.088-3.616 3.248v.16h-1.216v1.664h1.216V294h1.728v-6.336h1.888V286h-1.888v-.16c0-1.232.672-1.696 1.888-1.584zm4.412 9.952c2.352 0 4.224-1.84 4.224-4.208 0-2.384-1.872-4.208-4.224-4.208-2.336 0-4.224 1.824-4.224 4.208 0 2.368 1.888 4.208 4.224 4.208zm0-1.68c-1.408 0-2.496-1.072-2.496-2.528s1.088-2.528 2.496-2.528 2.496 1.072 2.496 2.528-1.088 2.528-2.496 2.528zm5.786 1.472h1.728v-11.68h-1.728V294zm4.599-9.2c.608 0 1.104-.512 1.104-1.104 0-.608-.496-1.104-1.104-1.104-.608 0-1.104.496-1.104 1.104 0 .592.496 1.104 1.104 1.104zm-.864 9.2h1.728v-8h-1.728v8zm7.51.208c2.352 0 4.224-1.84 4.224-4.208 0-2.384-1.872-4.208-4.224-4.208-2.336 0-4.224 1.824-4.224 4.208 0 2.368 1.888 4.208 4.224 4.208zm0-1.68c-1.408 0-2.496-1.072-2.496-2.528s1.088-2.528 2.496-2.528 2.496 1.072 2.496 2.528-1.088 2.528-2.496 2.528z" fill="#373943"/><path d="M258.496 294h7.376v-1.776h-4.64l2.528-2.528c1.072-1.088 1.904-2.256 1.904-3.648 0-2.224-1.744-3.456-3.584-3.456-1.488 0-2.896.736-3.616 2.272l1.552.912c.432-.896 1.152-1.392 2.08-1.392.96 0 1.728.608 1.728 1.728 0 .848-.624 1.664-1.424 2.464l-3.904 3.984V294zm13.161-6.624l2.272-3.008V282.8h-6.88v1.728h4.688l-2.416 3.184.736 1.104h.416c1.264 0 2.08.672 2.08 1.792s-.816 1.808-2.08 1.808c-1.12 0-1.872-.496-2.192-1.44l-1.568.912c.624 1.568 2.112 2.32 3.76 2.32 2.064 0 3.919-1.248 3.919-3.6 0-1.744-1.199-2.864-2.735-3.232zm6.392 4.704h-1.92l-.64 4.16h1.44l1.12-4.16zm9.834-1.808h-1.28v-2.912h-1.856v2.912h-3.504l3.856-7.472h-2l-3.856 7.472v1.712h5.504V294h1.856v-2.016h1.28v-1.712zm7.119-2.096c.768-.496 1.28-1.296 1.28-2.368 0-2.16-1.696-3.216-3.552-3.216-1.872 0-3.552 1.056-3.552 3.216 0 1.072.512 1.872 1.264 2.368-1.024.576-1.648 1.552-1.648 2.72 0 2.08 1.6 3.312 3.936 3.312s3.92-1.232 3.92-3.312c0-1.184-.608-2.144-1.648-2.72zm-2.272-3.84c.928 0 1.712.512 1.712 1.552 0 .992-.784 1.552-1.712 1.552-.944 0-1.712-.56-1.712-1.552 0-1.04.768-1.552 1.712-1.552zm0 8.128c-1.216 0-2.096-.608-2.096-1.744 0-1.152.88-1.744 2.096-1.744 1.2 0 2.08.592 2.08 1.744 0 1.136-.88 1.744-2.08 1.744zm7.585-4.752c1.504 0 2.608-1.152 2.608-2.56 0-1.44-1.12-2.56-2.608-2.56-1.504 0-2.624 1.136-2.624 2.56 0 1.408 1.12 2.56 2.624 2.56zm-.016-1.408c-.672 0-1.136-.512-1.136-1.152 0-.656.464-1.168 1.136-1.168.688 0 1.152.512 1.152 1.168 0 .624-.464 1.152-1.152 1.152zm-1.664 6.048l.864.512 7.376-8.224-.864-.496-7.376 8.208zm6.8 1.84c1.488 0 2.608-1.152 2.608-2.56 0-1.424-1.12-2.56-2.608-2.56-1.504 0-2.624 1.136-2.624 2.56 0 1.408 1.12 2.56 2.624 2.56zm-.016-1.408c-.672 0-1.136-.512-1.136-1.152 0-.656.464-1.168 1.136-1.168.688 0 1.152.512 1.152 1.168 0 .624-.464 1.152-1.152 1.152z" fill="#199F27"/><path opacity=".3" d="M428.784 220v3.488h-4.608V220h-1.056v8h1.056v-3.488h4.608V228h1.056v-8h-1.056zm7.017 8.192c2.336 0 4.208-1.824 4.208-4.192 0-2.368-1.872-4.192-4.208-4.192-2.336 0-4.208 1.824-4.208 4.192 0 2.368 1.872 4.192 4.208 4.192zm0-1.024c-1.776 0-3.152-1.392-3.152-3.168 0-1.776 1.376-3.168 3.152-3.168 1.776 0 3.152 1.392 3.152 3.168 0 1.776-1.376 3.168-3.152 3.168zM447.224 220h-3.248c-1.456 0-2.672 1.008-2.672 2.48 0 1.312.96 2.224 2.208 2.416L440.984 228h1.344l2.464-3.072h1.376V228h1.056v-8zm-3.248 3.936c-.864 0-1.616-.544-1.616-1.456 0-.912.752-1.456 1.616-1.456h2.192v2.912h-2.192zm9.04 4.256c2.256 0 3.92-1.584 3.92-3.744 0-2.176-1.568-3.728-3.696-3.728-.912 0-2.224.352-3.024 1.408.304-1.12.912-1.712 2.4-2.352 1.568-.688 3.232-1.136 3.488-2.736l-.832-.48c-.192 1.36-1.552 1.584-3.216 2.384-2.592 1.248-3.072 2.56-3.072 5.136 0 2.464 1.776 4.112 4.032 4.112zm0-1.056c-1.632 0-2.912-1.152-2.912-2.784 0-1.68 1.6-2.608 2.992-2.608 1.696 0 2.784 1.136 2.784 2.704 0 1.552-1.184 2.688-2.864 2.688zm9.814-7.328c-1.424 0-2.56.688-3.232 1.76V220h-1.056v11.2h1.056v-4.768c.672 1.072 1.808 1.76 3.232 1.76 2.256 0 4.128-1.824 4.128-4.192 0-2.368-1.872-4.192-4.128-4.192zm-.08 7.36c-1.776 0-3.152-1.392-3.152-3.168 0-1.776 1.376-3.168 3.152-3.168 1.776 0 3.152 1.392 3.152 3.168 0 1.776-1.376 3.168-3.152 3.168zm9.212-4.128h-2.192V220h-1.056v8h3.248c1.456 0 2.672-1.008 2.672-2.48s-1.216-2.48-2.672-2.48zm0 3.936h-2.192v-2.912h2.192c.864 0 1.616.544 1.616 1.456 0 .912-.752 1.456-1.616 1.456zm5.871-.336h-1.28l-.64 3.6h.96l.96-3.6zm5.604 1.36h7.12v-1.088h-5.52l3.2-3.184c1.136-1.136 2.08-2.336 2.08-3.76 0-2.192-1.712-3.36-3.376-3.36-1.424 0-2.736.688-3.456 2.112l.944.56c.544-1.104 1.424-1.584 2.512-1.584 1.152 0 2.256.752 2.256 2.272 0 1.04-.784 2.016-1.728 2.96l-4.032 4.064V228zm12.65.192c2.736 0 4.24-2.336 4.24-5.792s-1.504-5.792-4.24-5.792-4.24 2.336-4.24 5.792 1.504 5.792 4.24 5.792zm0-1.088c-1.968 0-3.12-1.712-3.12-4.704s1.152-4.704 3.12-4.704c1.968 0 3.12 1.712 3.12 4.704s-1.152 4.704-3.12 4.704z" fill="#373943"/><path d="M433.152 252.8l-2.944 1.04.448 1.568 2.256-.64V264h1.84v-11.2h-1.6zm7.841 11.408c2.816 0 4.4-2.352 4.4-5.808s-1.584-5.808-4.4-5.808c-2.816 0-4.4 2.352-4.4 5.808s1.584 5.808 4.4 5.808zm0-1.792c-1.648 0-2.56-1.44-2.56-4.016s.912-4.016 2.56-4.016c1.664 0 2.56 1.44 2.56 4.016s-.896 4.016-2.56 4.016zm7.962-.336h-1.92l-.64 4.16h1.44l1.12-4.16zm8.021-5.664c0-2.256-1.632-3.824-3.952-3.824-2.32 0-3.968 1.568-3.968 3.824s1.648 3.824 3.968 3.824h.192l-2.56 3.76h2.112l3.536-5.328c.432-.624.672-1.392.672-2.256zm-6.08 0c0-1.28.912-2.08 2.128-2.08 1.216 0 2.112.8 2.112 2.08s-.896 2.08-2.112 2.08c-1.216 0-2.128-.816-2.128-2.08zm11.519 7.792c2.816 0 4.4-2.352 4.4-5.808s-1.584-5.808-4.4-5.808c-2.816 0-4.4 2.352-4.4 5.808s1.584 5.808 4.4 5.808zm0-1.792c-1.648 0-2.56-1.44-2.56-4.016s.912-4.016 2.56-4.016c1.664 0 2.56 1.44 2.56 4.016s-.896 4.016-2.56 4.016zm8.15-4.704c1.504 0 2.608-1.152 2.608-2.56 0-1.44-1.12-2.56-2.608-2.56-1.504 0-2.624 1.136-2.624 2.56 0 1.408 1.12 2.56 2.624 2.56zm-.016-1.408c-.672 0-1.136-.512-1.136-1.152 0-.656.464-1.168 1.136-1.168.688 0 1.152.512 1.152 1.168 0 .624-.464 1.152-1.152 1.152zm-1.664 6.048l.864.512 7.376-8.224-.864-.496-7.376 8.208zm6.8 1.84c1.488 0 2.608-1.152 2.608-2.56 0-1.424-1.12-2.56-2.608-2.56-1.504 0-2.624 1.136-2.624 2.56 0 1.408 1.12 2.56 2.624 2.56zm-.016-1.408c-.672 0-1.136-.512-1.136-1.152 0-.656.464-1.168 1.136-1.168.688 0 1.152.512 1.152 1.168 0 .624-.464 1.152-1.152 1.152z" fill="#199F27"/><path d="M432.152 282.8l-2.944 1.04.448 1.568 2.256-.64V294h1.84v-11.2h-1.6zm7.169 3.76h-.208l2.56-3.76h-2.096l-3.552 5.328c-.432.624-.672 1.392-.672 2.256 0 2.256 1.632 3.824 3.968 3.824 2.32 0 3.952-1.568 3.952-3.824s-1.632-3.824-3.952-3.824zm0 5.904c-1.232 0-2.128-.8-2.128-2.08s.896-2.08 2.128-2.08c1.216 0 2.112.8 2.112 2.08 0 1.264-.896 2.08-2.112 2.08zm7.446-.384h-1.92l-.64 4.16h1.44l1.12-4.16zm5.382 2.128c2.816 0 4.4-2.352 4.4-5.808s-1.584-5.808-4.4-5.808c-2.816 0-4.4 2.352-4.4 5.808s1.584 5.808 4.4 5.808zm0-1.792c-1.648 0-2.56-1.44-2.56-4.016s.912-4.016 2.56-4.016c1.664 0 2.56 1.44 2.56 4.016s-.896 4.016-2.56 4.016zm10.079 1.792c2.816 0 4.4-2.352 4.4-5.808s-1.584-5.808-4.4-5.808c-2.816 0-4.4 2.352-4.4 5.808s1.584 5.808 4.4 5.808zm0-1.792c-1.648 0-2.56-1.44-2.56-4.016s.912-4.016 2.56-4.016c1.664 0 2.56 1.44 2.56 4.016s-.896 4.016-2.56 4.016zm8.149-4.704c1.504 0 2.608-1.152 2.608-2.56 0-1.44-1.12-2.56-2.608-2.56-1.504 0-2.624 1.136-2.624 2.56 0 1.408 1.12 2.56 2.624 2.56zm-.016-1.408c-.672 0-1.136-.512-1.136-1.152 0-.656.464-1.168 1.136-1.168.688 0 1.152.512 1.152 1.168 0 .624-.464 1.152-1.152 1.152zm-1.664 6.048l.864.512 7.376-8.224-.864-.496-7.376 8.208zm6.8 1.84c1.488 0 2.608-1.152 2.608-2.56 0-1.424-1.12-2.56-2.608-2.56-1.504 0-2.624 1.136-2.624 2.56 0 1.408 1.12 2.56 2.624 2.56zm-.016-1.408c-.672 0-1.136-.512-1.136-1.152 0-.656.464-1.168 1.136-1.168.688 0 1.152.512 1.152 1.168 0 .624-.464 1.152-1.152 1.152z" fill="#ED6373"/><path opacity=".3" d="M661.84 226.976V220h-5.728v3.952c0 1.568-.304 2.352-.816 3.024h-.976v3.168h1.056V228h6.528v2.144h1.056v-3.168h-1.12zm-5.264 0c.384-.768.592-1.712.592-3.024v-2.928h3.616v5.952h-4.208zm11.365-7.168c-2.48 0-4.176 1.84-4.176 4.192 0 2.416 1.728 4.192 4.256 4.192 1.616 0 2.848-.752 3.52-1.84l-.928-.544c-.432.768-1.312 1.36-2.576 1.36-1.696 0-2.96-1.008-3.184-2.64h7.024a5.16 5.16 0 00.032-.496c0-2.192-1.52-4.224-3.968-4.224zm0 1.024c1.376 0 2.656.912 2.88 2.672h-5.968c.208-1.568 1.408-2.672 3.088-2.672zM680.053 228l-4.288-4.16 4.128-3.84h-1.44l-3.808 3.536V220h-1.056v8h1.056v-3.856l4 3.856h1.408zm7.525-8v1.568c-.672-1.072-1.808-1.76-3.232-1.76-2.256 0-4.128 1.824-4.128 4.192 0 2.368 1.872 4.192 4.128 4.192 1.424 0 2.56-.688 3.232-1.76V228h1.056v-8h-1.056zm-3.152 7.168c-1.776 0-3.152-1.392-3.152-3.168 0-1.776 1.376-3.168 3.152-3.168 1.776 0 3.152 1.392 3.152 3.168 0 1.776-1.376 3.168-3.152 3.168zm9.996 1.024c2.256 0 3.92-1.584 3.92-3.744 0-2.176-1.568-3.728-3.696-3.728-.912 0-2.224.352-3.024 1.408.304-1.12.912-1.712 2.4-2.352 1.568-.688 3.232-1.136 3.488-2.736l-.832-.48c-.192 1.36-1.552 1.584-3.216 2.384-2.592 1.248-3.072 2.56-3.072 5.136 0 2.464 1.776 4.112 4.032 4.112zm0-1.056c-1.632 0-2.912-1.152-2.912-2.784 0-1.68 1.6-2.608 2.992-2.608 1.696 0 2.784 1.136 2.784 2.704 0 1.552-1.184 2.688-2.864 2.688zm9.814-7.328c-1.424 0-2.56.688-3.232 1.76V220h-1.056v11.2h1.056v-4.768c.672 1.072 1.808 1.76 3.232 1.76 2.256 0 4.128-1.824 4.128-4.192 0-2.368-1.872-4.192-4.128-4.192zm-.08 7.36c-1.776 0-3.152-1.392-3.152-3.168 0-1.776 1.376-3.168 3.152-3.168 1.776 0 3.152 1.392 3.152 3.168 0 1.776-1.376 3.168-3.152 3.168zm9.212-4.128h-2.192V220h-1.056v8h3.248c1.456 0 2.672-1.008 2.672-2.48s-1.216-2.48-2.672-2.48zm0 3.936h-2.192v-2.912h2.192c.864 0 1.616.544 1.616 1.456 0 .912-.752 1.456-1.616 1.456zm5.871-.336h-1.28l-.64 3.6h.96l.96-3.6zm5.604 1.36h7.12v-1.088h-5.52l3.2-3.184c1.136-1.136 2.08-2.336 2.08-3.76 0-2.192-1.712-3.36-3.376-3.36-1.424 0-2.736.688-3.456 2.112l.944.56c.544-1.104 1.424-1.584 2.512-1.584 1.152 0 2.256.752 2.256 2.272 0 1.04-.784 2.016-1.728 2.96l-4.032 4.064V228zm12.65.192c2.736 0 4.24-2.336 4.24-5.792s-1.504-5.792-4.24-5.792-4.24 2.336-4.24 5.792 1.504 5.792 4.24 5.792zm0-1.088c-1.968 0-3.12-1.712-3.12-4.704s1.152-4.704 3.12-4.704c1.968 0 3.12 1.712 3.12 4.704s-1.152 4.704-3.12 4.704z" fill="#373943"/><path d="M683.344 257.376l2.272-3.008V252.8h-6.88v1.728h4.688l-2.416 3.184.736 1.104h.416c1.264 0 2.08.672 2.08 1.792s-.816 1.808-2.08 1.808c-1.12 0-1.872-.496-2.192-1.44l-1.568.912c.624 1.568 2.112 2.32 3.76 2.32 2.064 0 3.92-1.248 3.92-3.6 0-1.744-1.2-2.864-2.736-3.232zm6.392 4.704h-1.92l-.64 4.16h1.44l1.12-4.16zm1.323 1.92h7.376v-1.776h-4.64l2.528-2.528c1.072-1.088 1.904-2.256 1.904-3.648 0-2.224-1.744-3.456-3.584-3.456-1.488 0-2.896.736-3.616 2.272l1.552.912c.432-.896 1.152-1.392 2.08-1.392.96 0 1.728.608 1.728 1.728 0 .848-.624 1.664-1.424 2.464l-3.904 3.984V264zm12.106-7.44h-.208l2.56-3.76h-2.096l-3.552 5.328c-.432.624-.672 1.392-.672 2.256 0 2.256 1.632 3.824 3.968 3.824 2.32 0 3.952-1.568 3.952-3.824s-1.632-3.824-3.952-3.824zm0 5.904c-1.232 0-2.128-.8-2.128-2.08s.896-2.08 2.128-2.08c1.216 0 2.112.8 2.112 2.08 0 1.264-.896 2.08-2.112 2.08zm7.29-4.752c1.504 0 2.608-1.152 2.608-2.56 0-1.44-1.12-2.56-2.608-2.56-1.504 0-2.624 1.136-2.624 2.56 0 1.408 1.12 2.56 2.624 2.56zm-.016-1.408c-.672 0-1.136-.512-1.136-1.152 0-.656.464-1.168 1.136-1.168.688 0 1.152.512 1.152 1.168 0 .624-.464 1.152-1.152 1.152zm-1.664 6.048l.864.512 7.376-8.224-.864-.496-7.376 8.208zm6.8 1.84c1.488 0 2.608-1.152 2.608-2.56 0-1.424-1.12-2.56-2.608-2.56-1.504 0-2.624 1.136-2.624 2.56 0 1.408 1.12 2.56 2.624 2.56zm-.016-1.408c-.672 0-1.136-.512-1.136-1.152 0-.656.464-1.168 1.136-1.168.688 0 1.152.512 1.152 1.168 0 .624-.464 1.152-1.152 1.152zM681.152 282.8l-2.944 1.04.448 1.568 2.256-.64V294h1.84v-11.2h-1.6zm6.209 9.28h-1.92l-.64 4.16h1.44l1.12-4.16zm5.227-5.056h-1.408l.192-2.496h4.544V282.8h-6.24l-.433 6.016h3.265c1.216 0 2.048.672 2.048 1.792s-.832 1.808-2.08 1.808c-1.168 0-1.937-.528-2.224-1.52l-1.584.912c.592 1.616 2.112 2.4 3.808 2.4 2.064 0 3.92-1.248 3.92-3.6 0-2.336-1.776-3.584-3.808-3.584zm11.086 1.152c.768-.496 1.28-1.296 1.28-2.368 0-2.16-1.696-3.216-3.552-3.216-1.872 0-3.552 1.056-3.552 3.216 0 1.072.512 1.872 1.264 2.368-1.024.576-1.648 1.552-1.648 2.72 0 2.08 1.6 3.312 3.936 3.312s3.92-1.232 3.92-3.312c0-1.184-.608-2.144-1.648-2.72zm-2.272-3.84c.928 0 1.712.512 1.712 1.552 0 .992-.784 1.552-1.712 1.552-.944 0-1.712-.56-1.712-1.552 0-1.04.768-1.552 1.712-1.552zm0 8.128c-1.216 0-2.096-.608-2.096-1.744 0-1.152.88-1.744 2.096-1.744 1.2 0 2.08.592 2.08 1.744 0 1.136-.88 1.744-2.08 1.744zm7.585-4.752c1.504 0 2.608-1.152 2.608-2.56 0-1.44-1.12-2.56-2.608-2.56-1.504 0-2.624 1.136-2.624 2.56 0 1.408 1.12 2.56 2.624 2.56zm-.016-1.408c-.672 0-1.136-.512-1.136-1.152 0-.656.464-1.168 1.136-1.168.688 0 1.152.512 1.152 1.168 0 .624-.464 1.152-1.152 1.152zm-1.664 6.048l.864.512 7.376-8.224-.864-.496-7.376 8.208zm6.8 1.84c1.488 0 2.608-1.152 2.608-2.56 0-1.424-1.12-2.56-2.608-2.56-1.504 0-2.624 1.136-2.624 2.56 0 1.408 1.12 2.56 2.624 2.56zm-.016-1.408c-.672 0-1.136-.512-1.136-1.152 0-.656.464-1.168 1.136-1.168.688 0 1.152.512 1.152 1.168 0 .624-.464 1.152-1.152 1.152z" fill="#199F27"/><path opacity=".3" d="M868.88 220h-3.248c-1.456 0-2.672 1.008-2.672 2.48 0 1.312.96 2.224 2.208 2.416L862.64 228h1.344l2.464-3.072h1.376V228h1.056v-8zm-3.248 3.936c-.864 0-1.616-.544-1.616-1.456 0-.912.752-1.456 1.616-1.456h2.192v2.912h-2.192zM876.784 220v3.488h-4.608V220h-1.056v8h1.056v-3.488h4.608V228h1.056v-8h-1.056zm8.377 3.888c.624-.368.928-.976.928-1.744 0-1.216-.848-2.144-2.448-2.144h-3.568v8h3.888c1.696 0 2.512-1.008 2.512-2.24 0-.864-.448-1.552-1.312-1.872zm-1.52-2.864c.912 0 1.392.448 1.392 1.184 0 .8-.464 1.248-1.392 1.248h-2.512v-2.432h2.512zm.32 5.952h-2.832v-2.496h2.832c.944 0 1.456.48 1.456 1.216 0 .8-.496 1.28-1.456 1.28zM894.953 220v1.568c-.672-1.072-1.808-1.76-3.232-1.76-2.256 0-4.128 1.824-4.128 4.192 0 2.368 1.872 4.192 4.128 4.192 1.424 0 2.56-.688 3.232-1.76V228h1.056v-8h-1.056zm-3.152 7.168c-1.776 0-3.152-1.392-3.152-3.168 0-1.776 1.376-3.168 3.152-3.168 1.776 0 3.152 1.392 3.152 3.168 0 1.776-1.376 3.168-3.152 3.168zm10.732-7.36c-1.424 0-2.56.688-3.232 1.76V220h-1.056v11.2h1.056v-4.768c.672 1.072 1.808 1.76 3.232 1.76 2.256 0 4.128-1.824 4.128-4.192 0-2.368-1.872-4.192-4.128-4.192zm-.08 7.36c-1.776 0-3.152-1.392-3.152-3.168 0-1.776 1.376-3.168 3.152-3.168 1.776 0 3.152 1.392 3.152 3.168 0 1.776-1.376 3.168-3.152 3.168zm9.212-4.128h-2.192V220h-1.056v8h3.248c1.456 0 2.672-1.008 2.672-2.48s-1.216-2.48-2.672-2.48zm0 3.936h-2.192v-2.912h2.192c.864 0 1.616.544 1.616 1.456 0 .912-.752 1.456-1.616 1.456zm5.871-.336h-1.28l-.64 3.6h.96l.96-3.6zm5.604 1.36h7.12v-1.088h-5.52l3.2-3.184c1.136-1.136 2.08-2.336 2.08-3.76 0-2.192-1.712-3.36-3.376-3.36-1.424 0-2.736.688-3.456 2.112l.944.56c.544-1.104 1.424-1.584 2.512-1.584 1.152 0 2.256.752 2.256 2.272 0 1.04-.784 2.016-1.728 2.96l-4.032 4.064V228zm10.966-11.2l-2.96 1.024.288.96 2.512-.752V228h1.12v-11.2h-.96z" fill="#373943"/><path d="M876.12 259.968h5.92v-1.664h-5.92v1.664zm10.188-7.168l-2.944 1.04.448 1.568 2.256-.64V264h1.84v-11.2h-1.6zm6.209 9.28h-1.92l-.64 4.16h1.44l1.12-4.16zm5.382 2.128c2.816 0 4.4-2.352 4.4-5.808s-1.584-5.808-4.4-5.808c-2.816 0-4.4 2.352-4.4 5.808s1.584 5.808 4.4 5.808zm0-1.792c-1.648 0-2.56-1.44-2.56-4.016s.912-4.016 2.56-4.016c1.664 0 2.56 1.44 2.56 4.016s-.896 4.016-2.56 4.016zm10.079 1.792c2.816 0 4.4-2.352 4.4-5.808s-1.584-5.808-4.4-5.808c-2.816 0-4.4 2.352-4.4 5.808s1.584 5.808 4.4 5.808zm0-1.792c-1.648 0-2.56-1.44-2.56-4.016s.912-4.016 2.56-4.016c1.664 0 2.56 1.44 2.56 4.016s-.896 4.016-2.56 4.016zm8.149-4.704c1.504 0 2.608-1.152 2.608-2.56 0-1.44-1.12-2.56-2.608-2.56-1.504 0-2.624 1.136-2.624 2.56 0 1.408 1.12 2.56 2.624 2.56zm-.016-1.408c-.672 0-1.136-.512-1.136-1.152 0-.656.464-1.168 1.136-1.168.688 0 1.152.512 1.152 1.168 0 .624-.464 1.152-1.152 1.152zm-1.664 6.048l.864.512 7.376-8.224-.864-.496-7.376 8.208zm6.8 1.84c1.488 0 2.608-1.152 2.608-2.56 0-1.424-1.12-2.56-2.608-2.56-1.504 0-2.624 1.136-2.624 2.56 0 1.408 1.12 2.56 2.624 2.56zm-.016-1.408c-.672 0-1.136-.512-1.136-1.152 0-.656.464-1.168 1.136-1.168.688 0 1.152.512 1.152 1.168 0 .624-.464 1.152-1.152 1.152z" fill="#ED6373"/><path d="M885.04 294.208c2.816 0 4.4-2.352 4.4-5.808s-1.584-5.808-4.4-5.808c-2.816 0-4.4 2.352-4.4 5.808s1.584 5.808 4.4 5.808zm0-1.792c-1.648 0-2.56-1.44-2.56-4.016s.912-4.016 2.56-4.016c1.664 0 2.56 1.44 2.56 4.016s-.896 4.016-2.56 4.016zm7.962-.336h-1.92l-.64 4.16h1.44l1.12-4.16zm6.17-4.704l2.272-3.008V282.8h-6.88v1.728h4.688l-2.416 3.184.736 1.104h.416c1.264 0 2.08.672 2.08 1.792s-.816 1.808-2.08 1.808c-1.12 0-1.872-.496-2.192-1.44l-1.568.912c.624 1.568 2.112 2.32 3.76 2.32 2.064 0 3.92-1.248 3.92-3.6 0-1.744-1.2-2.864-2.736-3.232zm8.337 6.832c2.816 0 4.4-2.352 4.4-5.808s-1.584-5.808-4.4-5.808c-2.816 0-4.4 2.352-4.4 5.808s1.584 5.808 4.4 5.808zm0-1.792c-1.648 0-2.56-1.44-2.56-4.016s.912-4.016 2.56-4.016c1.664 0 2.56 1.44 2.56 4.016s-.896 4.016-2.56 4.016zm8.149-4.704c1.504 0 2.608-1.152 2.608-2.56 0-1.44-1.12-2.56-2.608-2.56-1.504 0-2.624 1.136-2.624 2.56 0 1.408 1.12 2.56 2.624 2.56zm-.016-1.408c-.672 0-1.136-.512-1.136-1.152 0-.656.464-1.168 1.136-1.168.688 0 1.152.512 1.152 1.168 0 .624-.464 1.152-1.152 1.152zm-1.664 6.048l.864.512 7.376-8.224-.864-.496-7.376 8.208zm6.8 1.84c1.488 0 2.608-1.152 2.608-2.56 0-1.424-1.12-2.56-2.608-2.56-1.504 0-2.624 1.136-2.624 2.56 0 1.408 1.12 2.56 2.624 2.56zm-.016-1.408c-.672 0-1.136-.512-1.136-1.152 0-.656.464-1.168 1.136-1.168.688 0 1.152.512 1.152 1.168 0 .624-.464 1.152-1.152 1.152z" fill="#199F27"/><path opacity=".3" d="M1109.08 223c0-2.224-1.65-3.952-4.19-4.176V215.8h-1.06v3.024c-2.54.224-4.19 1.952-4.19 4.176s1.65 3.952 4.19 4.176v3.024h1.06v-3.024c2.54-.224 4.19-1.952 4.19-4.176zm-8.38 0c0-1.632 1.16-2.944 3.13-3.136v6.272c-1.97-.192-3.13-1.504-3.13-3.136zm4.19 3.136v-6.272c1.97.192 3.13 1.504 3.13 3.136 0 1.632-1.16 2.944-3.13 3.136zm9.64-7.328c-2.48 0-4.17 1.84-4.17 4.192 0 2.416 1.73 4.192 4.25 4.192 1.62 0 2.85-.752 3.52-1.84l-.92-.544c-.44.768-1.32 1.36-2.58 1.36-1.7 0-2.96-1.008-3.18-2.64h7.02c.02-.16.03-.336.03-.496 0-2.192-1.52-4.224-3.97-4.224zm0 1.024c1.38 0 2.66.912 2.88 2.672h-5.96c.2-1.568 1.4-2.672 3.08-2.672zm10.74 3.056c.62-.368.93-.976.93-1.744 0-1.216-.85-2.144-2.45-2.144h-3.57v8h3.89c1.7 0 2.51-1.008 2.51-2.24 0-.864-.45-1.552-1.31-1.872zm-1.52-2.864c.91 0 1.39.448 1.39 1.184 0 .8-.46 1.248-1.39 1.248h-2.51v-2.432h2.51zm.32 5.952h-2.83v-2.496h2.83c.94 0 1.46.48 1.46 1.216 0 .8-.5 1.28-1.46 1.28zm8.4-7.168c-1.42 0-2.56.688-3.23 1.76V219h-1.06v11.2h1.06v-4.768c.67 1.072 1.81 1.76 3.23 1.76 2.26 0 4.13-1.824 4.13-4.192 0-2.368-1.87-4.192-4.13-4.192zm-.08 7.36c-1.78 0-3.15-1.392-3.15-3.168 0-1.776 1.37-3.168 3.15-3.168 1.78 0 3.15 1.392 3.15 3.168 0 1.776-1.37 3.168-3.15 3.168zm12.84-7.168v1.568c-.67-1.072-1.8-1.76-3.23-1.76-2.25 0-4.13 1.824-4.13 4.192 0 2.368 1.88 4.192 4.13 4.192 1.43 0 2.56-.688 3.23-1.76V227h1.06v-8h-1.06zm-3.15 7.168c-1.77 0-3.15-1.392-3.15-3.168 0-1.776 1.38-3.168 3.15-3.168 1.78 0 3.15 1.392 3.15 3.168 0 1.776-1.37 3.168-3.15 3.168zm13.01-7.168h-5.73v4.592c0 2.032-.66 2.528-1.79 2.416V227c1.6.112 2.84-.56 2.84-3.408v-3.568h3.62V227h1.06v-8zm5.48 3.04h-2.19V219h-1.06v8h3.25c1.46 0 2.67-1.008 2.67-2.48s-1.21-2.48-2.67-2.48zm0 3.936h-2.19v-2.912h2.19c.87 0 1.62.544 1.62 1.456 0 .912-.75 1.456-1.62 1.456zm5.87-.336h-1.28l-.64 3.6h.96l.96-3.6zm5.61 1.36h7.12v-1.088h-5.52l3.2-3.184c1.13-1.136 2.08-2.336 2.08-3.76 0-2.192-1.72-3.36-3.38-3.36-1.42 0-2.74.688-3.46 2.112l.95.56c.54-1.104 1.42-1.584 2.51-1.584 1.15 0 2.26.752 2.26 2.272 0 1.04-.79 2.016-1.73 2.96l-4.03 4.064V227zm10.96-11.2l-2.96 1.024.29.96 2.51-.752V227h1.12v-11.2h-.96z" fill="#373943"/><path d="M1118.5 263h7.37v-1.776h-4.64l2.53-2.528c1.07-1.088 1.9-2.256 1.9-3.648 0-2.224-1.74-3.456-3.58-3.456-1.49 0-2.9.736-3.62 2.272l1.56.912c.43-.896 1.15-1.392 2.08-1.392.96 0 1.72.608 1.72 1.728 0 .848-.62 1.664-1.42 2.464l-3.9 3.984V263zm11.38-1.92h-1.92l-.64 4.16h1.44l1.12-4.16zm7.59-3.904c.77-.496 1.28-1.296 1.28-2.368 0-2.16-1.69-3.216-3.55-3.216-1.87 0-3.55 1.056-3.55 3.216 0 1.072.51 1.872 1.26 2.368-1.02.576-1.65 1.552-1.65 2.72 0 2.08 1.6 3.312 3.94 3.312s3.92-1.232 3.92-3.312c0-1.184-.61-2.144-1.65-2.72zm-2.27-3.84c.93 0 1.71.512 1.71 1.552 0 .992-.78 1.552-1.71 1.552-.94 0-1.71-.56-1.71-1.552 0-1.04.77-1.552 1.71-1.552zm0 8.128c-1.22 0-2.1-.608-2.1-1.744 0-1.152.88-1.744 2.1-1.744 1.2 0 2.08.592 2.08 1.744 0 1.136-.88 1.744-2.08 1.744zm9.51 1.744c2.82 0 4.4-2.352 4.4-5.808s-1.58-5.808-4.4-5.808c-2.81 0-4.4 2.352-4.4 5.808s1.59 5.808 4.4 5.808zm0-1.792c-1.65 0-2.56-1.44-2.56-4.016s.91-4.016 2.56-4.016c1.67 0 2.56 1.44 2.56 4.016s-.89 4.016-2.56 4.016zm8.15-4.704c1.51 0 2.61-1.152 2.61-2.56 0-1.44-1.12-2.56-2.61-2.56-1.5 0-2.62 1.136-2.62 2.56 0 1.408 1.12 2.56 2.62 2.56zm-.01-1.408c-.68 0-1.14-.512-1.14-1.152 0-.656.46-1.168 1.14-1.168.68 0 1.15.512 1.15 1.168 0 .624-.47 1.152-1.15 1.152zm-1.67 6.048l.87.512 7.37-8.224-.86-.496-7.38 8.208zm6.8 1.84c1.49 0 2.61-1.152 2.61-2.56 0-1.424-1.12-2.56-2.61-2.56-1.5 0-2.62 1.136-2.62 2.56 0 1.408 1.12 2.56 2.62 2.56zm-.01-1.408c-.68 0-1.14-.512-1.14-1.152 0-.656.46-1.168 1.14-1.168.68 0 1.15.512 1.15 1.168 0 .624-.47 1.152-1.15 1.152zm-35.57 24.24h-1.41l.19-2.496h4.55V281.8h-6.24l-.43 6.016h3.26c1.22 0 2.05.672 2.05 1.792s-.83 1.808-2.08 1.808c-1.17 0-1.94-.528-2.23-1.52l-1.58.912c.59 1.616 2.11 2.4 3.81 2.4 2.06 0 3.92-1.248 3.92-3.6 0-2.336-1.78-3.584-3.81-3.584zm7.41 5.056h-1.92l-.64 4.16h1.44l1.12-4.16zm5.2-5.52h-.21l2.56-3.76h-2.1l-3.55 5.328c-.43.624-.67 1.392-.67 2.256 0 2.256 1.63 3.824 3.97 3.824 2.32 0 3.95-1.568 3.95-3.824s-1.63-3.824-3.95-3.824zm0 5.904c-1.23 0-2.13-.8-2.13-2.08s.9-2.08 2.13-2.08c1.21 0 2.11.8 2.11 2.08 0 1.264-.9 2.08-2.11 2.08zm9.39 1.744c2.82 0 4.4-2.352 4.4-5.808s-1.58-5.808-4.4-5.808c-2.82 0-4.4 2.352-4.4 5.808s1.58 5.808 4.4 5.808zm0-1.792c-1.65 0-2.56-1.44-2.56-4.016s.91-4.016 2.56-4.016c1.66 0 2.56 1.44 2.56 4.016s-.9 4.016-2.56 4.016zm8.15-4.704c1.5 0 2.61-1.152 2.61-2.56 0-1.44-1.12-2.56-2.61-2.56-1.5 0-2.62 1.136-2.62 2.56 0 1.408 1.12 2.56 2.62 2.56zm-.02-1.408c-.67 0-1.13-.512-1.13-1.152 0-.656.46-1.168 1.13-1.168.69 0 1.16.512 1.16 1.168 0 .624-.47 1.152-1.16 1.152zm-1.66 6.048l.86.512 7.38-8.224-.86-.496-7.38 8.208zm6.8 1.84c1.49 0 2.61-1.152 2.61-2.56 0-1.424-1.12-2.56-2.61-2.56-1.5 0-2.62 1.136-2.62 2.56 0 1.408 1.12 2.56 2.62 2.56zm-.02-1.408c-.67 0-1.13-.512-1.13-1.152 0-.656.46-1.168 1.13-1.168.69 0 1.16.512 1.16 1.168 0 .624-.47 1.152-1.16 1.152z" fill="#199F27"/><path d="M478.56 771h-5.16v14h2.3v-4.8h2.86c2.64 0 4.64-2.02 4.64-4.6 0-2.6-2-4.6-4.64-4.6zm0 7.04h-2.86v-4.88h2.86c1.36 0 2.34 1.02 2.34 2.44 0 1.4-.98 2.44-2.34 2.44zm10.514 7.22c2.94 0 5.28-2.3 5.28-5.26 0-2.98-2.34-5.26-5.28-5.26-2.92 0-5.28 2.28-5.28 5.26 0 2.96 2.36 5.26 5.28 5.26zm0-2.1c-1.76 0-3.12-1.34-3.12-3.16s1.36-3.16 3.12-3.16 3.12 1.34 3.12 3.16-1.36 3.16-3.12 3.16zm9.393-6.48V775h-2.16v10h2.16v-5.04c0-2.24 1.66-2.9 3.08-2.8v-2.34c-1.26 0-2.48.5-3.08 1.86zm10.51.4V775h-2.48v-2.8l-2.16.64V775h-1.84v2.08h1.84v4.8c0 2.6 1.32 3.52 4.64 3.12v-1.94c-1.64.08-2.48.1-2.48-1.18v-4.8h2.48zm6.671-4.26v-2.08c-3-.2-4.52 1.36-4.52 4.06v.2h-1.52v2.08h1.52V785h2.16v-7.92h2.36V775h-2.36v-.2c0-1.54.84-2.12 2.36-1.98zm5.516 12.44c2.94 0 5.28-2.3 5.28-5.26 0-2.98-2.34-5.26-5.28-5.26-2.92 0-5.28 2.28-5.28 5.26 0 2.96 2.36 5.26 5.28 5.26zm0-2.1c-1.76 0-3.12-1.34-3.12-3.16s1.36-3.16 3.12-3.16 3.12 1.34 3.12 3.16-1.36 3.16-3.12 3.16zm7.233 1.84h2.16v-14.6h-2.16V785zm5.748-11.5c.76 0 1.38-.64 1.38-1.38 0-.76-.62-1.38-1.38-1.38-.76 0-1.38.62-1.38 1.38 0 .74.62 1.38 1.38 1.38zm-1.08 11.5h2.16v-10h-2.16v10zm9.388.26c2.94 0 5.28-2.3 5.28-5.26 0-2.98-2.34-5.26-5.28-5.26-2.92 0-5.28 2.28-5.28 5.26 0 2.96 2.36 5.26 5.28 5.26zm0-2.1c-1.76 0-3.12-1.34-3.12-3.16s1.36-3.16 3.12-3.16 3.12 1.34 3.12 3.16-1.36 3.16-3.12 3.16z" fill="#373943"/><circle cx="166.5" cy="153.5" r="6.5" fill="#fff"/><circle opacity=".3" cx="190.5" cy="153.5" r="6.5" fill="#fff"/><circle opacity=".3" cx="215.5" cy="153.5" r="6.5" fill="#fff"/><path stroke="#EAF1FE" d="M216 729.5h1018m-950.5.5V323m171 407V323m189 407V323m183 407V323m178 407V323m181 407V323M216 601.5h1018m-1018-127h1018m-1016-127h1018"/><circle cx="245" cy="778" r="9" fill="#ED6373"/><circle cx="449" cy="778" r="9" fill="#3E54D8"/><path d="M245 728l130.565-52.731 122.061 14.268 125.563-156.333 125.562-47.769h128.064l239.115-81.268L1247 393" stroke="#3E54D8" stroke-width="3"/><path d="M247 728l126.5-45.833 122-2.478L623 547.764l124.5-55.124 130 6.813 126-18.581 117.5-1.858L1247 453" stroke="#ED6373" stroke-width="3"/><circle cx="1121" cy="479" r="10" fill="#ED6373"/><circle cx="1121" cy="403" r="10" fill="#3E54D8"/><g filter="url(#filter1_bd)"><rect x="762" y="432" width="338" height="151" rx="23" fill="#fff" fill-opacity=".78"/><rect x="762.5" y="432.5" width="337" height="150" rx="22.5" stroke="#EAF1FE"/></g><path d="M829.06 551.26c2.92 0 4.96-1.56 4.96-4.12 0-2.78-2.34-3.5-4.66-4.24-2.04-.64-2.82-1.1-2.82-2.18 0-1.06.86-1.74 2.2-1.74 1.56 0 2.44.84 2.94 1.96l1.94-1.12c-.88-1.86-2.58-3.08-4.88-3.08-2.36 0-4.5 1.46-4.5 4.04 0 2.64 2.12 3.44 4.3 4.1 2.08.64 3.18 1.06 3.18 2.3 0 1.02-.78 1.84-2.6 1.84-1.9 0-2.98-.94-3.48-2.36l-1.98 1.16c.74 2.08 2.64 3.44 5.4 3.44zm18.266-.96l-1.82-1.98c.56-.9.94-1.94 1.16-2.96l-1.96-1.12c-.14.94-.38 1.76-.72 2.44l-3.4-3.68c-.66-.72-1.2-1.34-1.2-2.24 0-1.08.88-1.78 1.98-1.78s1.96.68 2.34 1.8l1.96-1.12c-.76-1.9-2.44-2.92-4.32-2.92-2.36 0-4.26 1.56-4.26 3.96 0 1.02.32 1.78.8 2.44-1.62.88-2.46 2.38-2.46 4.02 0 2.56 2 4.1 4.8 4.1 1.62 0 2.9-.52 3.9-1.32l1.34 1.44 1.86-1.08zm-6.98-1.18c-1.68 0-2.6-.86-2.6-2.14 0-.84.4-1.76 1.48-2.3l3.44 3.7c-.64.48-1.4.74-2.32.74zM854.345 537h-5.16v14h2.3v-4.8h2.86c2.64 0 4.64-2.02 4.64-4.6 0-2.6-2-4.6-4.64-4.6zm0 7.04h-2.86v-4.88h2.86c1.36 0 2.34 1.02 2.34 2.44 0 1.4-.98 2.44-2.34 2.44zm10.737-1.76h-1.76l.24-3.12h5.68V537h-7.8l-.54 7.52h4.08c1.52 0 2.56.84 2.56 2.24 0 1.4-1.04 2.26-2.6 2.26-1.46 0-2.42-.66-2.78-1.9l-1.98 1.14c.74 2.02 2.64 3 4.76 3 2.58 0 4.9-1.56 4.9-4.5 0-2.92-2.22-4.48-4.76-4.48zm11.542 8.98c3.52 0 5.5-2.94 5.5-7.26s-1.98-7.26-5.5-7.26-5.5 2.94-5.5 7.26 1.98 7.26 5.5 7.26zm0-2.24c-2.06 0-3.2-1.8-3.2-5.02 0-3.22 1.14-5.02 3.2-5.02 2.08 0 3.2 1.8 3.2 5.02 0 3.22-1.12 5.02-3.2 5.02zm12.598 2.24c3.52 0 5.5-2.94 5.5-7.26s-1.98-7.26-5.5-7.26-5.5 2.94-5.5 7.26 1.98 7.26 5.5 7.26zm0-2.24c-2.06 0-3.2-1.8-3.2-5.02 0-3.22 1.14-5.02 3.2-5.02 2.08 0 3.2 1.8 3.2 5.02 0 3.22-1.12 5.02-3.2 5.02zm84.963-3.22h-1.4v-3h-3.24v3h-2.92l4.46-8.8h-3.44l-4.46 8.8v2.96h6.36V551h3.24v-2.24h1.4v-2.96zm6.732-4.38l3.04-4.42h-3.68l-4.28 6.5c-.52.78-.82 1.76-.82 2.84 0 2.9 2.1 4.94 5.2 4.94 3.08 0 5.2-2.04 5.2-4.94 0-2.72-1.88-4.7-4.66-4.92zm-.54 6.86c-1.08 0-2-.7-2-1.94s.92-1.94 2-1.94c1.06 0 2 .72 2 1.94s-.94 1.94-2 1.94zm10.101-.38h-3.2l-.8 5.9h2.4l1.6-5.9zm1.101-10.9v3.08h5.64l-4.4 10.92h3.4l4.561-11.32V537h-9.201zm15.511 14.28c3.62 0 5.7-2.96 5.7-7.28s-2.08-7.28-5.7-7.28-5.7 2.96-5.7 7.28 2.08 7.28 5.7 7.28zm0-3.12c-1.68 0-2.5-1.46-2.5-4.16s.82-4.16 2.5-4.16c1.68 0 2.5 1.46 2.5 4.16s-.82 4.16-2.5 4.16zm11.81-6.24h-1.14l.14-1.92h5.1v-3h-8.1l-.58 8.04h4.38c1.22 0 1.8.7 1.8 1.56 0 .86-.58 1.56-1.9 1.56-1.32 0-1.92-.56-2.24-1.48l-2.76 1.6c.86 2.06 2.78 3 5 3 2.7 0 5.1-1.6 5.1-4.68 0-3.08-2.2-4.68-4.8-4.68zm16.79 9.36c3.08 0 5.4-1.8 5.4-4.8V537h-3.2v9.2c0 1.06-.5 1.96-2.2 1.96-1.7 0-2.2-.9-2.2-1.96V537h-3.2v9.48c0 3 2.32 4.8 5.4 4.8zm12.61 0c3.04 0 5.2-1.6 5.2-4.3 0-2.96-2.38-3.7-4.5-4.34-2.18-.66-2.52-1.1-2.52-1.74 0-.56.5-1.06 1.5-1.06 1.28 0 1.94.62 2.42 1.62l2.7-1.58c-1.02-2.06-2.82-3.16-5.12-3.16-2.42 0-4.7 1.56-4.7 4.26 0 2.68 2.04 3.68 4.12 4.26 2.1.58 2.9.92 2.9 1.78 0 .54-.38 1.14-1.9 1.14-1.58 0-2.44-.78-2.94-1.94l-2.76 1.6c.78 2.06 2.66 3.46 5.6 3.46zm12.3-14.28h-5.6v14h5.6c3.86 0 6.8-3.04 6.8-7s-2.94-7-6.8-7zm0 10.92h-2.4v-7.84h2.4c2.2 0 3.72 1.52 3.72 3.92s-1.52 3.92-3.72 3.92zM829.56 501h-5.16v14h2.3v-4.8h2.86c2.64 0 4.64-2.02 4.64-4.6 0-2.6-2-4.6-4.64-4.6zm0 7.04h-2.86v-4.88h2.86c1.36 0 2.34 1.02 2.34 2.44 0 1.4-.98 2.44-2.34 2.44zm10.514 7.22c2.94 0 5.28-2.3 5.28-5.26 0-2.98-2.34-5.26-5.28-5.26-2.92 0-5.28 2.28-5.28 5.26 0 2.96 2.36 5.26 5.28 5.26zm0-2.1c-1.76 0-3.12-1.34-3.12-3.16s1.36-3.16 3.12-3.16 3.12 1.34 3.12 3.16-1.36 3.16-3.12 3.16zm9.393-6.48V505h-2.16v10h2.16v-5.04c0-2.24 1.66-2.9 3.08-2.8v-2.34c-1.26 0-2.48.5-3.08 1.86zm10.51.4V505h-2.48v-2.8l-2.16.64V505h-1.84v2.08h1.84v4.8c0 2.6 1.32 3.52 4.64 3.12v-1.94c-1.64.08-2.48.1-2.48-1.18v-4.8h2.48zm6.671-4.26v-2.08c-3-.2-4.52 1.36-4.52 4.06v.2h-1.52v2.08h1.52V515h2.16v-7.92h2.36V505h-2.36v-.2c0-1.54.84-2.12 2.36-1.98zm5.516 12.44c2.94 0 5.28-2.3 5.28-5.26 0-2.98-2.34-5.26-5.28-5.26-2.92 0-5.28 2.28-5.28 5.26 0 2.96 2.36 5.26 5.28 5.26zm0-2.1c-1.76 0-3.12-1.34-3.12-3.16s1.36-3.16 3.12-3.16 3.12 1.34 3.12 3.16-1.36 3.16-3.12 3.16zm7.233 1.84h2.16v-14.6h-2.16V515zm5.748-11.5c.76 0 1.38-.64 1.38-1.38 0-.76-.62-1.38-1.38-1.38-.76 0-1.38.62-1.38 1.38 0 .74.62 1.38 1.38 1.38zm-1.08 11.5h2.16v-10h-2.16v10zm9.388.26c2.94 0 5.28-2.3 5.28-5.26 0-2.98-2.34-5.26-5.28-5.26-2.92 0-5.28 2.28-5.28 5.26 0 2.96 2.36 5.26 5.28 5.26zm0-2.1c-1.76 0-3.12-1.34-3.12-3.16s1.36-3.16 3.12-3.16 3.12 1.34 3.12 3.16-1.36 3.16-3.12 3.16zm82.181-7.24h-1.14l.14-1.92h5.1v-3h-8.1l-.58 8.04h4.38c1.22 0 1.8.7 1.8 1.56 0 .86-.58 1.56-1.9 1.56-1.32 0-1.92-.56-2.24-1.48l-2.76 1.6c.86 2.06 2.78 3 5 3 2.7 0 5.1-1.6 5.1-4.68 0-3.08-2.2-4.68-4.8-4.68zm8.765-4.92l-3.66 1.32.78 2.74 2.48-.68V515h3.2v-14h-2.8zm9.106 10.9h-3.2l-.8 5.9h2.4l1.6-5.9zm10.295-6.24c0-2.9-2.1-4.94-5.2-4.94-3.08 0-5.2 2.04-5.2 4.94 0 2.72 1.88 4.7 4.66 4.92l-3.04 4.42h3.68l4.28-6.5c.52-.78.82-1.76.82-2.84zm-7.2 0c0-1.22.94-1.94 2-1.94 1.08 0 2 .7 2 1.94s-.92 1.94-2 1.94c-1.06 0-2-.72-2-1.94zm7.6-4.66v3.08h5.64l-4.4 10.92h3.4l4.56-11.32V501h-9.2zm14.7 4.92h-1.14l.14-1.92h5.1v-3h-8.1l-.58 8.04h4.38c1.22 0 1.8.7 1.8 1.56 0 .86-.58 1.56-1.9 1.56-1.32 0-1.92-.56-2.24-1.48l-2.76 1.6c.86 2.06 2.78 3 5 3 2.7 0 5.1-1.6 5.1-4.68 0-3.08-2.2-4.68-4.8-4.68zm16.79 9.36c3.08 0 5.4-1.8 5.4-4.8V501h-3.2v9.2c0 1.06-.5 1.96-2.2 1.96-1.7 0-2.2-.9-2.2-1.96V501h-3.2v9.48c0 3 2.32 4.8 5.4 4.8zm12.61 0c3.04 0 5.2-1.6 5.2-4.3 0-2.96-2.38-3.7-4.5-4.34-2.18-.66-2.52-1.1-2.52-1.74 0-.56.5-1.06 1.5-1.06 1.28 0 1.94.62 2.42 1.62l2.7-1.58c-1.02-2.06-2.82-3.16-5.12-3.16-2.42 0-4.7 1.56-4.7 4.26 0 2.68 2.04 3.68 4.12 4.26 2.1.58 2.9.92 2.9 1.78 0 .54-.38 1.14-1.9 1.14-1.58 0-2.44-.78-2.94-1.94l-2.76 1.6c.78 2.06 2.66 3.46 5.6 3.46zm12.3-14.28h-5.6v14h5.6c3.86 0 6.8-3.04 6.8-7s-2.94-7-6.8-7zm0 10.92h-2.4v-7.84h2.4c2.2 0 3.72 1.52 3.72 3.92s-1.52 3.92-3.72 3.92zM805.915 460h-3.2l-3.8 6.22-3.8-6.22h-3.2v14h3.2v-8.14l3.62 5.94h.36l3.62-5.94V474h3.2v-14zm9.566 4v.94c-.66-.76-1.64-1.22-2.98-1.22-2.62 0-4.78 2.3-4.78 5.28 0 2.98 2.16 5.28 4.78 5.28 1.34 0 2.32-.46 2.98-1.22v.94h3v-10h-3zm-2.38 7.44c-1.38 0-2.38-.94-2.38-2.44s1-2.44 2.38-2.44 2.38.94 2.38 2.44-1 2.44-2.38 2.44zm10.581-5.66V464h-3v10h3v-4.52c0-1.98 1.76-2.48 3-2.28v-3.4c-1.26 0-2.6.64-3 1.98zm8.742 8.22h9.52v-3.08h-4.7l2.32-2.34c1.28-1.28 2.18-2.72 2.18-4.4 0-2.82-2.24-4.46-4.74-4.46-1.94 0-3.82.98-4.72 3.06l2.7 1.58c.38-.88 1.08-1.52 2.06-1.52.94 0 1.5.6 1.5 1.48 0 .82-.6 1.64-1.42 2.48l-4.7 4.88V474zm16.329.28c3.62 0 5.7-2.96 5.7-7.28s-2.08-7.28-5.7-7.28-5.7 2.96-5.7 7.28 2.08 7.28 5.7 7.28zm0-3.12c-1.68 0-2.5-1.46-2.5-4.16s.82-4.16 2.5-4.16c1.68 0 2.5 1.46 2.5 4.16s-.82 4.16-2.5 4.16zM855.1 474h9.52v-3.08h-4.7l2.32-2.34c1.28-1.28 2.18-2.72 2.18-4.4 0-2.82-2.24-4.46-4.74-4.46-1.94 0-3.82.98-4.72 3.06l2.7 1.58c.38-.88 1.08-1.52 2.06-1.52.94 0 1.5.6 1.5 1.48 0 .82-.6 1.64-1.42 2.48l-4.7 4.88V474zm13.694-14l-3.66 1.32.78 2.74 2.48-.68V474h3.2v-14h-2.8z" fill="#373943"/><circle cx="800" cy="544" r="9" fill="#ED6373"/><circle cx="800" cy="508" r="9" fill="#3E54D8"/><defs><filter id="filter0_d" x="52" y="93" width="1314" height="863" filterUnits="userSpaceOnUse" color-interpolation-filters="sRGB"><feFlood flood-opacity="0" result="BackgroundImageFix"/><feColorMatrix in="SourceAlpha" values="0 0 0 0 0 0 0 0 0 0 0 0 0 0 0 0 0 0 127 0"/><feMorphology radius="17" in="SourceAlpha" result="effect1_dropShadow"/><feOffset dy="44"/><feGaussianBlur stdDeviation="44.5"/><feColorMatrix values="0 0 0 0 0.243137 0 0 0 0 0.329412 0 0 0 0 0.847059 0 0 0 0.06 0"/><feBlend in2="BackgroundImageFix" result="effect1_dropShadow"/><feBlend in="SourceGraphic" in2="effect1_dropShadow" result="shape"/></filter><filter id="filter1_bd" x="748" y="424" width="366" height="185" filterUnits="userSpaceOnUse" color-interpolation-filters="sRGB"><feFlood flood-opacity="0" result="BackgroundImageFix"/><feGaussianBlur in="BackgroundImage" stdDeviation="4"/><feComposite in2="SourceAlpha" operator="in" result="effect1_backgroundBlur"/><feColorMatrix in="SourceAlpha" values="0 0 0 0 0 0 0 0 0 0 0 0 0 0 0 0 0 0 127 0"/><feMorphology radius="9" in="SourceAlpha" result="effect2_dropShadow"/><feOffset dy="12"/><feGaussianBlur stdDeviation="11.5"/><feColorMatrix values="0 0 0 0 0.596875 0 0 0 0 0.66651 0 0 0 0 0.795833 0 0 0 0.3 0"/><feBlend in2="effect1_backgroundBlur" result="effect2_dropShadow"/><feBlend in="SourceGraphic" in2="effect2_dropShadow" result="shape"/></filter></defs></svg>