<svg width="457" height="750" fill="none" xmlns="http://www.w3.org/2000/svg"><path d="M374.5 387c45.563 0 82.5 36.937 82.5 82.5S420.063 552 374.5 552 292 515.063 292 469.5V387h82.5z" fill="#ED6373"/><path d="M93.5 0C145.139 0 187 41.861 187 93.5V187H0V93.5C0 41.861 41.861 0 93.5 0z" fill="#F3B63F"/><circle cx="404" cy="229" r="21" fill="#3E54D8"/><path d="M20 346.5c0-12.426 10.073-22.5 22.5-22.5H65v45H42.5C30.073 369 20 358.926 20 346.5z" fill="#199F27"/><g filter="url(#filter0_d)"><rect x="91" y="55" width="267" height="566" rx="20" fill="#fff"/><rect x="87" y="51" width="275" height="574" rx="24" stroke="#fff" stroke-width="8"/></g><g clip-path="url(#clip0)"><path d="M91.5 90c0-6.351 5.149-11.5 11.5-11.5h243c6.351 0 11.5 5.149 11.5 11.5v508c0 11.322-9.178 20.5-20.5 20.5H112c-11.322 0-20.5-9.178-20.5-20.5V90z" fill="#EAF1FE"/><path opacity=".9" d="M118.888 181.32l-.023-9.546-4.694 7.86h-1.64l-4.694-7.678v9.364h-3.463v-15.949h3.053l5.97 9.911 5.878-9.911h3.053l.023 15.949h-3.463zm12.893.182c-1.291 0-2.453-.265-3.486-.797a6.11 6.11 0 01-2.392-2.256c-.578-.957-.866-2.043-.866-3.258 0-1.215.288-2.301.866-3.258a5.95 5.95 0 012.392-2.233c1.033-.547 2.195-.82 3.486-.82 1.291 0 2.445.273 3.463.82a5.95 5.95 0 012.392 2.233c.578.957.866 2.043.866 3.258 0 1.215-.288 2.301-.866 3.258a6.11 6.11 0 01-2.392 2.256c-1.018.532-2.172.797-3.463.797zm0-2.916c.911 0 1.656-.304 2.233-.911.592-.623.888-1.451.888-2.484s-.296-1.853-.888-2.46c-.577-.623-1.322-.935-2.233-.935s-1.663.312-2.256.935c-.592.607-.888 1.427-.888 2.46s.296 1.861.888 2.484c.593.607 1.345.911 2.256.911zm9.166-9.524h3.531v7.291l5.97-7.291h3.258v12.258h-3.532v-7.291l-5.946 7.291h-3.281v-12.258zm6.152-1.321c-2.674 0-4.018-1.177-4.033-3.532h2.324c.015.532.159.95.433 1.253.288.289.706.433 1.253.433.547 0 .964-.144 1.253-.433.304-.303.456-.721.456-1.253h2.369c-.015 2.355-1.367 3.532-4.055 3.532zm28.666 1.321v12.258h-3.555v-9.341h-5.103v9.341h-3.532v-12.258h12.19zm9.149 12.44c-1.291 0-2.453-.265-3.486-.797a6.11 6.11 0 01-2.392-2.256c-.578-.957-.866-2.043-.866-3.258 0-1.215.288-2.301.866-3.258a5.95 5.95 0 012.392-2.233c1.033-.547 2.195-.82 3.486-.82 1.291 0 2.445.273 3.463.82a5.95 5.95 0 012.392 2.233c.578.957.866 2.043.866 3.258 0 1.215-.288 2.301-.866 3.258a6.11 6.11 0 01-2.392 2.256c-1.018.532-2.172.797-3.463.797zm0-2.916c.911 0 1.656-.304 2.233-.911.592-.623.888-1.451.888-2.484s-.296-1.853-.888-2.46c-.577-.623-1.322-.935-2.233-.935s-1.663.312-2.256.935c-.592.607-.888 1.427-.888 2.46s.296 1.861.888 2.484c.593.607 1.345.911 2.256.911zm16.388-9.706c1.14 0 2.172.266 3.099.797a5.536 5.536 0 012.21 2.21c.532.942.797 2.043.797 3.304 0 1.261-.265 2.37-.797 3.327a5.731 5.731 0 01-2.21 2.21c-.927.516-1.959.774-3.099.774-1.564 0-2.794-.493-3.691-1.481v5.719h-3.554v-16.678h3.395v1.413c.881-1.063 2.164-1.595 3.85-1.595zm-.615 9.706c.912 0 1.656-.304 2.233-.911.592-.623.889-1.451.889-2.484s-.297-1.853-.889-2.46c-.577-.623-1.321-.935-2.233-.935-.911 0-1.663.312-2.255.935-.578.607-.866 1.427-.866 2.46s.288 1.861.866 2.484c.592.607 1.344.911 2.255.911zm19.066-6.607h-4.147v9.341h-3.531v-9.341h-4.147v-2.917h11.825v2.917zm18.311 3.167c0 1.898-.638 3.402-1.914 4.511-1.26 1.093-3.068 1.724-5.422 1.891v4.192h-3.258v-4.192c-2.355-.167-4.17-.79-5.446-1.868-1.26-1.094-1.891-2.605-1.891-4.534 0-1.899.623-3.372 1.869-4.42 1.26-1.049 3.083-1.656 5.468-1.823v-4.489h3.258v4.489c2.354.167 4.162.782 5.422 1.845 1.276 1.064 1.914 2.529 1.914 4.398zm-14.49 0c0 1.093.311 1.936.934 2.529.623.592 1.61.964 2.962 1.116v-7.131c-1.352.136-2.339.493-2.962 1.071-.623.562-.934 1.367-.934 2.415zm7.154 3.645c1.352-.152 2.339-.524 2.962-1.116.638-.593.957-1.436.957-2.529 0-1.048-.319-1.853-.957-2.415-.623-.578-1.61-.935-2.962-1.071v7.131zm21.659-3.554c0 .045-.023.364-.068.957h-9.273a2.892 2.892 0 001.184 1.8c.623.44 1.398.66 2.324.66.638 0 1.2-.091 1.686-.273a4.233 4.233 0 001.39-.911l1.891 2.05c-1.154 1.322-2.84 1.982-5.058 1.982-1.382 0-2.605-.265-3.668-.797-1.063-.547-1.883-1.299-2.461-2.256-.577-.957-.865-2.043-.865-3.258 0-1.2.281-2.278.843-3.235a5.985 5.985 0 012.346-2.256c1.003-.547 2.119-.82 3.35-.82 1.2 0 2.286.258 3.258.775a5.557 5.557 0 012.278 2.232c.562.957.843 2.074.843 3.35zm-6.357-3.668c-.805 0-1.481.227-2.027.683-.547.456-.881 1.078-1.003 1.868h6.038c-.122-.774-.456-1.39-1.003-1.845-.546-.471-1.215-.706-2.005-.706zm20.727-2.507v12.258h-3.554v-9.341h-3.874l-.114 2.164c-.06 1.61-.212 2.947-.455 4.01-.243 1.063-.638 1.899-1.185 2.506-.547.608-1.306.912-2.278.912-.517 0-1.132-.091-1.846-.274l.182-2.916c.243.03.418.046.524.046.532 0 .927-.19 1.185-.57.274-.395.456-.889.547-1.481.091-.608.159-1.405.205-2.392l.182-4.922h10.481zm10.048 3.919c1.595.015 2.818.38 3.668 1.094.851.698 1.276 1.693 1.276 2.984 0 1.352-.478 2.408-1.435 3.167-.942.745-2.271 1.117-3.987 1.117l-6.152-.023v-12.258h3.531v3.919h3.099zm-.797 5.833c.683.015 1.207-.129 1.572-.433.364-.304.546-.76.546-1.367 0-.592-.182-1.025-.546-1.299-.35-.273-.874-.418-1.572-.433l-2.302-.022v3.554h2.302z" fill="#24252E"/><path d="M108.382 214.762h-2.392v6.11h-.977v-6.11h-2.382v-.868h5.751v.868zm5.282 3.498c0 .074-.007.17-.02.29h-4.286c.06.465.262.84.608 1.126.352.279.787.419 1.306.419.631 0 1.139-.213 1.525-.638l.528.618a2.313 2.313 0 01-.897.638 3.072 3.072 0 01-1.186.219c-.559 0-1.054-.113-1.486-.339a2.519 2.519 0 01-1.006-.967 2.783 2.783 0 01-.349-1.395c0-.512.113-.974.339-1.386.232-.412.548-.731.947-.957.405-.233.86-.349 1.365-.349s.954.116 1.346.349c.399.226.708.545.927.957.226.412.339.884.339 1.415zm-2.612-1.913c-.458 0-.844.139-1.156.418-.306.279-.485.645-.538 1.097h3.389a1.669 1.669 0 00-.548-1.087c-.306-.286-.688-.428-1.147-.428zm6.15 2.292h-1.097v2.233h-.957v-5.283h.957v2.233h1.117l1.714-2.233h1.027l-2.004 2.542 2.144 2.741h-1.127l-1.774-2.233zm8.317-3.05l-2.562 5.811c-.226.539-.492.917-.797 1.137-.299.219-.661.329-1.087.329-.259 0-.511-.044-.757-.13a1.49 1.49 0 01-.598-.359l.408-.717c.273.259.588.388.947.388a.876.876 0 00.578-.189c.16-.12.303-.329.429-.628l.169-.369-2.332-5.273h.997l1.844 4.226 1.824-4.226h.937zm8.506 0v5.283h-7.526v-5.283h.957v4.446h2.332v-4.446h.957v4.446h2.323v-4.446h.957zm.787 4.446v1.963h-.897v-1.126h-.887v-.837h1.784zm1.071-4.446h.957v3.848l3.239-3.848h.867v5.283h-.957v-3.848l-3.229 3.848h-.877v-5.283zm6.921 0h.957v3.848l3.239-3.848h.868v5.283h-.957v-3.848l-3.23 3.848h-.877v-5.283zm2.472-.688c-.492 0-.874-.116-1.146-.349-.273-.239-.413-.581-.419-1.026h.648a.819.819 0 00.249.598c.166.146.385.219.658.219.272 0 .492-.073.658-.219a.808.808 0 00.259-.598h.668c-.007.445-.15.787-.429 1.026-.279.233-.661.349-1.146.349zm9.428 6.031c-.538 0-1.02-.116-1.445-.349a2.586 2.586 0 01-.987-.957 2.73 2.73 0 01-.359-1.395c0-.519.12-.981.359-1.386.24-.412.568-.731.987-.957a2.957 2.957 0 011.445-.349c.479 0 .904.097 1.276.289.379.193.672.472.878.838l-.728.468a1.625 1.625 0 00-.618-.568 1.766 1.766 0 00-.818-.189c-.345 0-.657.076-.936.229a1.661 1.661 0 00-.648.658c-.153.279-.23.601-.23.967 0 .372.077.701.23.986.159.279.375.495.648.648.279.153.591.23.936.23.3 0 .572-.064.818-.19s.452-.315.618-.568l.728.459a2.122 2.122 0 01-.878.847 2.73 2.73 0 01-1.276.289zm7.609-5.343v5.283h-.957v-2.133a4.012 4.012 0 01-1.705.399c-.657 0-1.166-.153-1.525-.459-.358-.306-.538-.764-.538-1.375v-1.715h.957v1.655c0 .365.113.641.339.827.233.186.555.279.967.279.465 0 .967-.116 1.505-.349v-2.412h.957zm6.632 2.671c0 .074-.006.17-.02.29h-4.286c.06.465.263.84.608 1.126.352.279.788.419 1.306.419.631 0 1.14-.213 1.525-.638l.528.618a2.313 2.313 0 01-.897.638 3.068 3.068 0 01-1.186.219c-.558 0-1.053-.113-1.485-.339a2.521 2.521 0 01-1.007-.967 2.794 2.794 0 01-.349-1.395c0-.512.113-.974.339-1.386.233-.412.548-.731.947-.957a2.694 2.694 0 011.366-.349c.505 0 .953.116 1.345.349.399.226.708.545.927.957.226.412.339.884.339 1.415zm-2.611-1.913c-.459 0-.844.139-1.157.418-.305.279-.485.645-.538 1.097h3.389a1.669 1.669 0 00-.548-1.087c-.306-.286-.688-.428-1.146-.428zm-.937-1.695a.498.498 0 01-.509-.508.5.5 0 01.15-.369c.1-.1.219-.15.359-.15a.49.49 0 01.359.15c.099.1.149.222.149.369a.5.5 0 01-.149.368c-.1.094-.22.14-.359.14zm1.854 0a.498.498 0 01-.509-.508.5.5 0 01.15-.369c.1-.1.219-.15.359-.15a.49.49 0 01.359.15c.099.1.149.222.149.369a.5.5 0 01-.149.368c-.1.094-.22.14-.359.14zm6.892 1.774h-1.933v4.446h-.957v-4.446h-1.934v-.837h4.824v.837z" fill="#373943"/><path d="M124.82 255.646c0 1.946-.712 3.619-2.136 5.02-1.424 1.376-3.477 2.231-6.159 2.563v3.987h-3.56v-3.88a19.375 19.375 0 01-5.019-.926c-1.591-.522-2.872-1.163-3.845-1.922l1.958-4.344c.902.665 1.958 1.223 3.168 1.674a14.51 14.51 0 003.738.854v-5.945c-1.685-.404-3.109-.855-4.272-1.353a7.596 7.596 0 01-2.919-2.172c-.783-.973-1.175-2.254-1.175-3.844 0-1.97.712-3.655 2.136-5.056 1.448-1.424 3.525-2.29 6.23-2.598v-3.952h3.56v3.88c2.919.238 5.328.962 7.227 2.172l-1.78 4.379c-1.78-1.021-3.596-1.638-5.447-1.851v6.052c1.661.379 3.062.818 4.201 1.317a7.16 7.16 0 012.919 2.171c.783.95 1.175 2.208 1.175 3.774zm-14.489-10.573c0 .593.225 1.08.676 1.459.451.38 1.104.701 1.958.962v-5.056c-.902.214-1.566.558-1.993 1.033a2.248 2.248 0 00-.641 1.602zm6.194 13.457c.855-.19 1.495-.499 1.923-.926.427-.427.64-.937.64-1.531a1.82 1.82 0 00-.676-1.459c-.427-.38-1.056-.712-1.887-.997v4.913zm30.363-20.506v24.92h-5.767v-20.292h-4.984v-4.628h10.751zm22.948 20.221v4.699h-18.832v-3.738l9.612-9.078c1.02-.973 1.709-1.804 2.065-2.492.356-.712.534-1.412.534-2.1 0-.997-.345-1.757-1.033-2.279-.664-.546-1.649-.819-2.955-.819-1.091 0-2.076.214-2.954.641-.879.404-1.614 1.021-2.208 1.851l-4.2-2.705c.973-1.448 2.314-2.575 4.022-3.382 1.709-.831 3.667-1.246 5.874-1.246 1.852 0 3.465.308 4.842.925 1.4.594 2.48 1.448 3.24 2.564.783 1.091 1.174 2.385 1.174 3.88a8.68 8.68 0 01-.854 3.809c-.57 1.187-1.673 2.54-3.311 4.059l-5.731 5.411h10.715zm14.021-10.075c2.183.356 3.857 1.175 5.02 2.456 1.163 1.258 1.744 2.825 1.744 4.7 0 1.447-.38 2.788-1.139 4.022-.76 1.211-1.923 2.184-3.489 2.92-1.543.735-3.441 1.103-5.696 1.103a20.29 20.29 0 01-5.198-.676c-1.685-.475-3.121-1.139-4.307-1.994l2.243-4.414c.949.712 2.041 1.27 3.275 1.673 1.258.38 2.539.57 3.845.57 1.447 0 2.587-.273 3.417-.819.831-.57 1.246-1.365 1.246-2.385 0-2.041-1.554-3.062-4.663-3.062h-2.635v-3.809l5.127-5.803h-10.609v-4.628h17.444v3.738l-5.625 6.408zm28.053-.783c3.512 0 6.099.7 7.761 2.1 1.685 1.401 2.527 3.275 2.527 5.625 0 1.519-.38 2.907-1.139 4.165-.759 1.234-1.922 2.231-3.489 2.991-1.542.735-3.453 1.103-5.731 1.103-1.757 0-3.489-.225-5.198-.676-1.685-.475-3.121-1.139-4.308-1.994l2.279-4.414c.949.712 2.041 1.27 3.275 1.673 1.234.38 2.504.57 3.809.57 1.448 0 2.587-.285 3.418-.855.83-.569 1.246-1.364 1.246-2.385 0-1.068-.439-1.875-1.317-2.421-.855-.546-2.35-.819-4.486-.819h-6.372l1.281-14.026h15.201v4.628h-10.395l-.391 4.735h2.029zm23.308 15.984c-2.065 0-3.904-.51-5.518-1.531-1.614-1.02-2.884-2.492-3.809-4.414-.902-1.946-1.353-4.26-1.353-6.942 0-2.682.451-4.984 1.353-6.906.925-1.946 2.195-3.43 3.809-4.45 1.614-1.021 3.453-1.531 5.518-1.531s3.904.51 5.518 1.531c1.614 1.02 2.872 2.504 3.774 4.45.925 1.922 1.388 4.224 1.388 6.906 0 2.682-.463 4.996-1.388 6.942-.902 1.922-2.16 3.394-3.774 4.414-1.614 1.021-3.453 1.531-5.518 1.531zm0-4.877c1.519 0 2.706-.653 3.56-1.958.878-1.305 1.317-3.323 1.317-6.052 0-2.729-.439-4.747-1.317-6.052-.854-1.305-2.041-1.958-3.56-1.958-1.495 0-2.682.653-3.56 1.958-.854 1.305-1.282 3.323-1.282 6.052 0 2.729.428 4.747 1.282 6.052.878 1.305 2.065 1.958 3.56 1.958zm22.026-11.107c3.513 0 6.1.7 7.761 2.1 1.685 1.401 2.528 3.275 2.528 5.625 0 1.519-.38 2.907-1.14 4.165-.759 1.234-1.922 2.231-3.488 2.991-1.543.735-3.454 1.103-5.732 1.103a20.29 20.29 0 01-5.198-.676c-1.685-.475-3.121-1.139-4.307-1.994l2.278-4.414c.949.712 2.041 1.27 3.275 1.673 1.234.38 2.504.57 3.81.57 1.447 0 2.586-.285 3.417-.855.831-.569 1.246-1.364 1.246-2.385 0-1.068-.439-1.875-1.317-2.421-.854-.546-2.35-.819-4.486-.819h-6.372l1.282-14.026h15.201v4.628h-10.395l-.392 4.735h2.029z" fill="#24252E"/><path d="M106.947 301.408c-.704 0-1.339-.153-1.904-.459a3.496 3.496 0 01-1.335-1.286 3.539 3.539 0 01-.479-1.824c0-.671.16-1.279.479-1.824.325-.545.771-.97 1.335-1.276.565-.312 1.2-.468 1.904-.468a3.85 3.85 0 011.894.468 3.357 3.357 0 011.326 1.276c.319.538.478 1.147.478 1.824 0 .678-.159 1.29-.478 1.834a3.44 3.44 0 01-1.326 1.276 3.911 3.911 0 01-1.894.459zm0-.887a2.72 2.72 0 001.376-.349c.412-.233.734-.552.967-.957.239-.412.359-.871.359-1.376 0-.505-.12-.96-.359-1.365a2.503 2.503 0 00-.967-.967 2.71 2.71 0 00-1.376-.349c-.511 0-.977.116-1.395.349a2.57 2.57 0 00-.977.967c-.233.405-.349.86-.349 1.365s.116.964.349 1.376c.239.405.565.724.977.957.418.232.884.349 1.395.349zm7.842-4.296c.491 0 .93.109 1.316.328.385.22.684.525.897.918.219.385.329.827.329 1.325 0 .512-.117.967-.349 1.366a2.346 2.346 0 01-.967.917c-.412.219-.884.329-1.416.329-.897 0-1.591-.306-2.083-.917-.485-.618-.728-1.485-.728-2.602 0-1.083.223-1.93.668-2.542.445-.618 1.127-1.026 2.044-1.226l2.412-.538.139.877-2.222.479c-.692.152-1.207.412-1.545.777-.339.366-.532.891-.579 1.575.226-.339.519-.601.878-.787.358-.186.76-.279 1.206-.279zm-.17 4.385c.339 0 .638-.076.897-.229.266-.153.472-.362.618-.628.147-.272.22-.581.22-.927 0-.525-.16-.947-.479-1.266-.319-.319-.737-.478-1.256-.478-.518 0-.94.159-1.266.478-.319.319-.478.741-.478 1.266 0 .346.073.655.219.927.153.266.362.475.628.628.266.153.565.229.897.229zm11.604-4.565v5.283h-7.526v-5.283h.957v4.446h2.333v-4.446h.957v4.446h2.322v-4.446h.957zm.788 4.446v1.964h-.898v-1.127h-.887v-.837h1.785zm1.07-4.446h.957v3.848l3.24-3.848h.867v5.283h-.957v-3.848l-3.23 3.848h-.877v-5.283zm6.921 0h.957v3.848l3.24-3.848h.867v5.283h-.957v-3.848l-3.229 3.848h-.878v-5.283zm2.472-.688c-.491 0-.873-.116-1.146-.349-.272-.239-.412-.581-.419-1.026h.648c.007.246.09.445.25.598.166.146.385.219.657.219.273 0 .492-.073.658-.219a.809.809 0 00.26-.598h.667c-.006.445-.149.787-.428 1.026-.279.233-.661.349-1.147.349zm12.499 5.134v2.063h-.897v-1.226h-4.416v1.226h-.907v-2.063h.279c.339-.02.572-.259.698-.718.126-.458.213-1.106.259-1.944l.08-1.784h4.097v4.446h.807zm-4.107-2.592a11.07 11.07 0 01-.169 1.655c-.08.432-.229.744-.449.937h2.961v-3.609h-2.293l-.05 1.017zm7.617 3.489c-.525 0-.997-.116-1.416-.349a2.586 2.586 0 01-.987-.957 2.794 2.794 0 01-.349-1.395c0-.519.117-.981.349-1.386.24-.412.568-.731.987-.957a2.874 2.874 0 011.416-.349c.525 0 .993.117 1.405.349.419.226.744.545.977.957.239.405.359.867.359 1.386 0 .518-.12.983-.359 1.395a2.511 2.511 0 01-.977.957c-.412.233-.88.349-1.405.349zm0-.837c.338 0 .641-.077.907-.23.272-.159.485-.378.638-.658.152-.285.229-.611.229-.976 0-.366-.077-.688-.229-.967a1.606 1.606 0 00-.638-.658 1.788 1.788 0 00-.907-.229c-.339 0-.645.076-.917.229a1.684 1.684 0 00-.638.658c-.153.279-.23.601-.23.967 0 .365.077.691.23.976.159.28.372.499.638.658.272.153.578.23.917.23zm7.247.777l-1.525-2.023-1.545 2.023h-1.067l2.083-2.701-1.983-2.582h1.066l1.456 1.904 1.445-1.904h1.047l-1.994 2.582 2.103 2.701h-1.086zm4.181.06c-.525 0-.997-.116-1.416-.349a2.593 2.593 0 01-.987-.957 2.793 2.793 0 01-.348-1.395c0-.519.116-.981.348-1.386.24-.412.569-.731.987-.957a2.874 2.874 0 011.416-.349c.525 0 .993.117 1.405.349.419.226.744.545.977.957.239.405.359.867.359 1.386 0 .518-.12.983-.359 1.395a2.511 2.511 0 01-.977.957c-.412.233-.88.349-1.405.349zm0-.837c.339 0 .641-.077.907-.23.272-.159.485-.378.638-.658.153-.285.229-.611.229-.976 0-.366-.076-.688-.229-.967a1.606 1.606 0 00-.638-.658 1.785 1.785 0 00-.907-.229c-.339 0-.645.076-.917.229a1.684 1.684 0 00-.638.658c-.153.279-.23.601-.23.967 0 .365.077.691.23.976.159.28.372.499.638.658.272.153.578.23.917.23zm9.457-.06v2.063h-.898v-1.226h-4.415v1.226h-.907v-2.063h.279c.339-.02.571-.259.697-.718.127-.458.213-1.106.26-1.944l.079-1.784h4.097v4.446h.808zm-4.107-2.592a11.053 11.053 0 01-.17 1.655c-.079.432-.229.744-.448.937h2.96v-3.609h-2.292l-.05 1.017z" fill="#373943"/><path d="M111.585 322.462h-2.973v2.905h-2.204v-2.905h-2.957v-2.085h2.957v-2.905h2.204v2.905h2.973v2.085zm7.528-2.563c.764 0 1.458.153 2.085.461a3.616 3.616 0 011.487 1.316c.364.558.547 1.207.547 1.948 0 .797-.2 1.498-.599 2.102a3.954 3.954 0 01-1.64 1.401c-.684.319-1.447.478-2.29.478-1.674 0-2.985-.512-3.93-1.538-.946-1.025-1.418-2.489-1.418-4.391 0-1.356.256-2.518.769-3.486.512-.969 1.224-1.703 2.136-2.205.922-.501 1.988-.752 3.195-.752.638 0 1.247.075 1.828.223.593.136 1.094.336 1.504.598l-1.025 2.033c-.592-.399-1.339-.598-2.239-.598-1.013 0-1.817.296-2.409.889-.592.592-.911 1.452-.957 2.58.706-.706 1.692-1.059 2.956-1.059zm-.564 5.639c.593 0 1.071-.16 1.436-.479.376-.319.564-.752.564-1.299 0-.546-.188-.979-.564-1.298-.365-.331-.855-.496-1.47-.496-.604 0-1.099.171-1.486.513-.388.33-.581.757-.581 1.281 0 .524.188.952.563 1.282.376.33.889.496 1.538.496zm10.3-10.099V327.4h-2.769v-9.74h-2.392v-2.221h5.161zm11.018 4.494c1.686 0 2.928.336 3.725 1.008.809.672 1.214 1.572 1.214 2.7a3.8 3.8 0 01-.547 1.999c-.365.592-.923 1.071-1.675 1.435-.74.354-1.657.53-2.751.53a9.757 9.757 0 01-2.495-.324c-.809-.228-1.498-.547-2.068-.957l1.094-2.119c.456.341.98.609 1.572.803a6.196 6.196 0 001.829.273c.694 0 1.241-.136 1.64-.41.399-.273.598-.655.598-1.145 0-.512-.211-.9-.632-1.162-.41-.262-1.128-.393-2.153-.393h-3.059l.615-6.732h7.297v2.221h-4.99l-.188 2.273h.974zm10.079 0c1.686 0 2.928.336 3.726 1.008.808.672 1.213 1.572 1.213 2.7a3.8 3.8 0 01-.547 1.999c-.365.592-.923 1.071-1.675 1.435-.74.354-1.657.53-2.751.53a9.763 9.763 0 01-2.495-.324c-.809-.228-1.498-.547-2.067-.957l1.093-2.119c.456.341.98.609 1.572.803a6.196 6.196 0 001.829.273c.695 0 1.242-.136 1.64-.41.399-.273.598-.655.598-1.145 0-.512-.21-.9-.632-1.162-.41-.262-1.128-.393-2.153-.393h-3.059l.615-6.732h7.297v2.221h-4.99l-.188 2.273h.974zm11.566.376c1.048.171 1.851.564 2.41 1.179.558.603.837 1.355.837 2.255 0 .695-.182 1.339-.547 1.931-.364.581-.923 1.048-1.674 1.401-.741.354-1.652.53-2.735.53a9.75 9.75 0 01-2.494-.324c-.809-.228-1.498-.547-2.068-.957l1.076-2.119c.456.341.98.609 1.573.803a6.356 6.356 0 001.845.273c.695 0 1.242-.131 1.641-.393.398-.273.598-.655.598-1.145 0-.979-.747-1.469-2.239-1.469h-1.264v-1.829l2.46-2.785h-5.092v-2.221h8.373v1.794l-2.7 3.076zm6.114 3.913c.479 0 .872.154 1.179.461.308.296.462.689.462 1.179 0 .228-.029.456-.086.684-.057.228-.182.569-.376 1.025l-.974 2.461h-1.691l.751-2.717a1.47 1.47 0 01-.683-.547 1.703 1.703 0 01-.239-.906c0-.49.154-.883.461-1.179.319-.307.718-.461 1.196-.461zm11.987.923v2.255h-9.039v-1.794l4.613-4.358c.49-.467.821-.865.992-1.196.17-.341.256-.678.256-1.008 0-.478-.165-.843-.496-1.094-.319-.262-.791-.393-1.418-.393-.524 0-.997.103-1.418.308-.422.194-.775.49-1.06.889l-2.016-1.299c.467-.695 1.111-1.236 1.931-1.623.82-.399 1.76-.599 2.819-.599.889 0 1.664.149 2.324.445.672.285 1.191.695 1.555 1.23.376.524.564 1.145.564 1.863a4.16 4.16 0 01-.41 1.828c-.273.57-.803 1.219-1.589 1.948l-2.751 2.598h5.143zm5.346-9.912c1.675 0 2.985.513 3.93 1.538.946 1.014 1.419 2.478 1.419 4.392 0 1.356-.257 2.518-.769 3.486-.502.968-1.214 1.703-2.136 2.204-.923.502-1.988.752-3.196.752a7.94 7.94 0 01-1.828-.205c-.581-.148-1.077-.353-1.487-.615l1.025-2.033c.581.398 1.328.598 2.239.598 1.014 0 1.817-.297 2.409-.889.593-.604.912-1.47.957-2.597-.717.717-1.708 1.076-2.973 1.076a4.677 4.677 0 01-2.085-.461 3.668 3.668 0 01-1.486-1.299c-.365-.569-.547-1.225-.547-1.965 0-.797.199-1.498.598-2.102a3.855 3.855 0 011.623-1.384c.695-.33 1.464-.496 2.307-.496zm.205 5.64c.604 0 1.094-.166 1.47-.496.387-.342.581-.775.581-1.299 0-.524-.188-.951-.564-1.281-.365-.331-.872-.496-1.521-.496-.592 0-1.077.16-1.452.479-.365.319-.547.751-.547 1.298s.182.986.547 1.316c.375.319.871.479 1.486.479zm14.028 9.842c-.683-1.036-1.213-2.238-1.589-3.605-.365-1.367-.547-2.831-.547-4.392 0-1.561.182-3.025.547-4.392.376-1.378.906-2.58 1.589-3.605h2.546a15.45 15.45 0 00-1.572 3.862 16.733 16.733 0 00-.495 4.135c0 1.458.165 2.842.495 4.152.33 1.299.854 2.581 1.572 3.845h-2.546zm11.918-8.253h-2.974v2.905h-2.204v-2.905h-2.956v-2.085h2.956v-2.905h2.204v2.905h2.974v2.085zm5.949-7.023V327.4h-2.768v-9.74h-2.393v-2.221h5.161zm11.442 0v1.794l-4.443 10.167h-3.007l4.289-9.706h-3.965v1.948h-2.46v-4.203h9.586zm1.987 8.783c.479 0 .872.154 1.179.461.308.296.462.689.462 1.179 0 .228-.029.456-.086.684-.057.228-.182.569-.376 1.025l-.974 2.461h-1.692l.752-2.717a1.466 1.466 0 01-.683-.547 1.703 1.703 0 01-.239-.906c0-.49.153-.883.461-1.179.319-.307.718-.461 1.196-.461zm11.235-3.11c.593.296 1.043.683 1.35 1.162.319.478.479 1.031.479 1.657 0 .741-.211 1.39-.633 1.948-.421.547-1.014.974-1.777 1.282-.763.296-1.646.444-2.648.444-1.003 0-1.886-.148-2.649-.444-.752-.308-1.339-.735-1.76-1.282-.41-.558-.615-1.207-.615-1.948 0-.626.153-1.179.461-1.657.319-.479.769-.866 1.35-1.162a2.942 2.942 0 01-1.025-1.026 2.844 2.844 0 01-.359-1.435c0-.695.194-1.299.581-1.811.387-.513.928-.906 1.623-1.179.695-.285 1.493-.428 2.393-.428.911 0 1.714.143 2.409.428.706.273 1.253.666 1.64 1.179.388.512.581 1.116.581 1.811 0 .536-.119 1.014-.358 1.435-.24.411-.587.752-1.043 1.026zm-3.229-3.845c-.559 0-1.009.137-1.35.41-.331.262-.496.627-.496 1.094 0 .455.165.814.496 1.076.33.262.78.393 1.35.393.569 0 1.025-.131 1.367-.393.341-.262.512-.621.512-1.076 0-.467-.171-.832-.512-1.094-.342-.273-.798-.41-1.367-.41zm0 8.305c.694 0 1.241-.154 1.64-.462.41-.319.615-.74.615-1.264s-.205-.94-.615-1.248c-.399-.307-.946-.461-1.64-.461-.684 0-1.225.154-1.624.461-.399.308-.598.724-.598 1.248 0 .535.199.957.598 1.264.399.308.94.462 1.624.462zm11.913-5.263c1.048.171 1.851.564 2.409 1.179.558.603.837 1.355.837 2.255 0 .695-.182 1.339-.547 1.931-.364.581-.922 1.048-1.674 1.401-.741.354-1.652.53-2.734.53a9.757 9.757 0 01-2.495-.324c-.809-.228-1.498-.547-2.068-.957l1.077-2.119c.455.341.979.609 1.572.803a6.362 6.362 0 001.845.273c.695 0 1.242-.131 1.641-.393.399-.273.598-.655.598-1.145 0-.979-.746-1.469-2.239-1.469h-1.264v-1.829l2.461-2.785h-5.093v-2.221h8.373v1.794l-2.699 3.076zm7.126 1.589c-.877 0-1.595-.296-2.153-.889-.547-.604-.821-1.407-.821-2.409 0-1.003.274-1.8.821-2.392.558-.604 1.276-.906 2.153-.906s1.589.302 2.136.906c.547.592.82 1.389.82 2.392 0 1.002-.273 1.805-.82 2.409-.547.593-1.259.889-2.136.889zm7.125-6.459h2.034l-8.168 11.961h-2.034l8.168-11.961zm-7.125 5.058c.387 0 .689-.16.905-.479.228-.319.342-.792.342-1.418 0-.627-.114-1.1-.342-1.418a1.033 1.033 0 00-.905-.479c-.376 0-.678.165-.906.496-.228.319-.342.786-.342 1.401s.114 1.088.342 1.418c.228.319.53.479.906.479zm8.117 7.04c-.57 0-1.083-.131-1.538-.393a2.8 2.8 0 01-1.043-1.162c-.25-.501-.376-1.082-.376-1.743s.126-1.242.376-1.743a2.683 2.683 0 011.043-1.145c.455-.273.968-.41 1.538-.41.877 0 1.589.302 2.136.906.558.592.837 1.389.837 2.392 0 1.002-.279 1.805-.837 2.409-.547.593-1.259.889-2.136.889zm0-1.401c.387 0 .689-.16.905-.479.228-.33.342-.803.342-1.418 0-.615-.114-1.082-.342-1.401a1.023 1.023 0 00-.905-.496c-.376 0-.678.16-.906.479-.228.319-.342.791-.342 1.418 0 .626.114 1.099.342 1.418.228.319.53.479.906.479zm3.271 4.579a15.586 15.586 0 001.572-3.845c.341-1.31.512-2.694.512-4.152a16.22 16.22 0 00-.512-4.135 15.525 15.525 0 00-1.572-3.862h2.546c.695 1.014 1.224 2.21 1.589 3.588.376 1.367.564 2.837.564 4.409 0 1.572-.182 3.042-.547 4.409-.365 1.355-.9 2.552-1.606 3.588h-2.546z" fill="#199F27"/><path d="M110.231 356.709v2.392h-.927v-1.525h-5.742l-.01 1.525h-.927l.01-2.392h.339c.439-.027.748-.372.927-1.037.18-.671.289-1.615.329-2.831l.07-2.242h4.904v6.11h1.027zm-5.124-3.778c-.033.984-.113 1.798-.239 2.442-.12.645-.316 1.09-.588 1.336h3.937v-5.243h-3.06l-.05 1.465zm6.327-.638h.957v2.243h3.01v-2.243h.957v5.283h-.957v-2.213h-3.01v2.213h-.957v-5.283zm11.56 2.672c0 .073-.007.169-.02.289h-4.287c.06.465.263.84.608 1.126.353.279.788.419 1.306.419.632 0 1.14-.213 1.525-.638l.529.618c-.24.279-.539.491-.897.638a3.077 3.077 0 01-1.187.219c-.558 0-1.053-.113-1.485-.339a2.528 2.528 0 01-1.007-.967 2.794 2.794 0 01-.349-1.395c0-.512.113-.974.339-1.386.233-.412.549-.731.947-.957a2.704 2.704 0 011.366-.349c.505 0 .954.117 1.346.349.398.226.707.545.927.957.226.412.339.884.339 1.416zm-2.612-1.914c-.459 0-.844.139-1.156.418-.306.279-.485.645-.539 1.097h3.39c-.054-.445-.236-.808-.549-1.087-.305-.285-.688-.428-1.146-.428zm7.695 1.784c.684.173 1.026.601 1.026 1.286 0 .465-.176.824-.528 1.076-.346.253-.864.379-1.555.379h-2.542v-5.283h2.452c.625 0 1.113.12 1.466.359.352.233.528.565.528.997 0 .279-.077.521-.229.727a1.38 1.38 0 01-.618.459zm-2.662-.269h1.435c.366 0 .642-.067.828-.2.193-.132.289-.325.289-.578 0-.505-.372-.757-1.117-.757h-1.435v1.535zm1.535 2.273c.399 0 .698-.064.897-.19.2-.126.299-.322.299-.588 0-.272-.093-.475-.279-.608-.179-.133-.465-.199-.857-.199h-1.595v1.585h1.535zm3.651-4.546h.957v2.243h3.01v-2.243h.957v5.283h-.957v-2.213h-3.01v2.213h-.957v-5.283zm9.048 5.343c-.525 0-.997-.116-1.416-.349a2.579 2.579 0 01-.987-.957 2.794 2.794 0 01-.349-1.395c0-.519.117-.981.349-1.386.24-.412.569-.731.987-.957a2.874 2.874 0 011.416-.349c.525 0 .993.117 1.405.349.419.226.744.545.977.957.239.405.359.867.359 1.386 0 .518-.12.983-.359 1.395a2.498 2.498 0 01-.977.957c-.412.233-.88.349-1.405.349zm0-.837c.339 0 .641-.077.907-.23.272-.159.485-.378.638-.657a2.04 2.04 0 00.229-.977c0-.366-.076-.688-.229-.967a1.606 1.606 0 00-.638-.658 1.785 1.785 0 00-.907-.229c-.339 0-.645.076-.917.229a1.684 1.684 0 00-.638.658c-.153.279-.23.601-.23.967 0 .365.077.691.23.977.159.279.372.498.638.657.272.153.578.23.917.23zm4.123-4.506h.957v3.848l3.239-3.848h.867v5.283h-.957v-3.847l-3.229 3.847h-.877v-5.283zm2.472-.688c-.492 0-.874-.116-1.147-.349-.272-.239-.412-.581-.418-1.026h.648a.819.819 0 00.249.598c.166.146.385.219.658.219.272 0 .491-.073.658-.219a.808.808 0 00.259-.598h.668c-.007.445-.15.787-.429 1.026-.279.233-.661.349-1.146.349zm12.498 5.134v2.063h-.897v-1.226h-4.415v1.226h-.908v-2.063h.28c.338-.02.571-.259.697-.718.127-.458.213-1.106.259-1.944l.08-1.784h4.097v4.446h.807zm-4.106-2.592a11.053 11.053 0 01-.17 1.655c-.08.432-.229.744-.448.937h2.96v-3.609h-2.292l-.05 1.017zm7.616 3.489c-.525 0-.997-.116-1.416-.349a2.569 2.569 0 01-.986-.957 2.783 2.783 0 01-.349-1.395c0-.519.116-.981.349-1.386.239-.412.568-.731.986-.957a2.874 2.874 0 011.416-.349c.525 0 .993.117 1.405.349.419.226.745.545.977.957.239.405.359.867.359 1.386 0 .518-.12.983-.359 1.395a2.491 2.491 0 01-.977.957c-.412.233-.88.349-1.405.349zm0-.837c.339 0 .641-.077.907-.23.272-.159.485-.378.638-.657a2.04 2.04 0 00.229-.977c0-.366-.076-.688-.229-.967a1.606 1.606 0 00-.638-.658 1.785 1.785 0 00-.907-.229c-.339 0-.645.076-.917.229a1.684 1.684 0 00-.638.658 1.978 1.978 0 00-.229.967c0 .365.076.691.229.977.159.279.372.498.638.657.272.153.578.23.917.23zm7.247.777l-1.525-2.023-1.545 2.023h-1.067l2.084-2.701-1.984-2.582h1.067l1.455 1.904 1.445-1.904h1.047l-1.994 2.582 2.104 2.701h-1.087zm4.181.06c-.525 0-.997-.116-1.415-.349a2.565 2.565 0 01-.987-.957 2.783 2.783 0 01-.349-1.395c0-.519.116-.981.349-1.386.239-.412.568-.731.987-.957.418-.232.89-.349 1.415-.349s.993.117 1.405.349c.419.226.745.545.977.957.24.405.359.867.359 1.386 0 .518-.119.983-.359 1.395a2.491 2.491 0 01-.977.957c-.412.233-.88.349-1.405.349zm0-.837c.339 0 .641-.077.907-.23a1.68 1.68 0 00.638-.657 2.04 2.04 0 00.229-.977c0-.366-.076-.688-.229-.967a1.6 1.6 0 00-.638-.658 1.785 1.785 0 00-.907-.229c-.339 0-.645.076-.917.229a1.684 1.684 0 00-.638.658 1.978 1.978 0 00-.229.967c0 .365.076.691.229.977.159.279.372.498.638.657.272.153.578.23.917.23zm9.457-.06v2.063h-.897v-1.226h-4.416v1.226h-.907v-2.063h.279c.339-.02.571-.259.698-.718.126-.458.212-1.106.259-1.944l.08-1.784h4.096v4.446h.808zm-4.107-2.592a11.204 11.204 0 01-.169 1.655c-.08.432-.23.744-.449.937h2.96v-3.609h-2.292l-.05 1.017z" fill="#373943"/><path d="M111.585 378.71h-2.973v2.905h-2.204v-2.905h-2.957v-2.085h2.957v-2.905h2.204v2.905h2.973v2.085zm5.95-7.023v11.961h-2.769v-9.74h-2.392v-2.221h5.161zm11.531 0v11.961h-2.769v-9.74h-2.392v-2.221h5.161zm11.442 0v1.794l-4.443 10.167h-3.008l4.289-9.706h-3.964v1.948h-2.461v-4.203h9.587zm6.013 0v11.961h-2.769v-9.74h-2.392v-2.221h5.161zm3.667 8.783c.478 0 .871.154 1.179.461.307.296.461.689.461 1.179 0 .228-.028.456-.085.684-.057.228-.182.569-.376 1.025l-.974 2.461h-1.692l.752-2.717a1.46 1.46 0 01-.683-.547 1.703 1.703 0 01-.24-.906c0-.49.154-.883.462-1.179.319-.307.717-.461 1.196-.461zm8.638-3.913c1.048.171 1.851.564 2.409 1.179.558.604.837 1.355.837 2.255 0 .695-.182 1.339-.547 1.931-.364.581-.922 1.048-1.674 1.402-.741.353-1.652.529-2.734.529a9.757 9.757 0 01-2.495-.324c-.809-.228-1.498-.547-2.068-.957l1.077-2.119c.455.341.98.609 1.572.803a6.362 6.362 0 001.845.273c.695 0 1.242-.131 1.641-.393.399-.273.598-.655.598-1.145 0-.979-.746-1.469-2.239-1.469h-1.264v-1.829l2.461-2.785h-5.093v-2.221h8.373v1.794l-2.699 3.076zm12.71.803c.592.296 1.042.683 1.349 1.162.319.478.479 1.031.479 1.657 0 .741-.211 1.39-.632 1.948-.422.547-1.014.974-1.777 1.282-.764.296-1.647.444-2.649.444-1.003 0-1.885-.148-2.649-.444-.752-.308-1.338-.735-1.76-1.282-.41-.558-.615-1.207-.615-1.948 0-.626.154-1.179.461-1.657.319-.479.769-.866 1.35-1.162a2.948 2.948 0 01-1.025-1.025 2.86 2.86 0 01-.359-1.436c0-.695.194-1.299.581-1.811.388-.513.929-.906 1.624-1.179.695-.285 1.492-.427 2.392-.427.911 0 1.714.142 2.409.427.707.273 1.253.666 1.641 1.179.387.512.581 1.116.581 1.811a2.86 2.86 0 01-.359 1.436 2.91 2.91 0 01-1.042 1.025zm-3.23-3.845c-.558 0-1.008.137-1.35.41-.33.262-.496.627-.496 1.094 0 .455.166.814.496 1.076.33.262.78.393 1.35.393.57 0 1.025-.131 1.367-.393.342-.262.513-.621.513-1.076 0-.467-.171-.832-.513-1.094-.342-.273-.797-.41-1.367-.41zm0 8.305c.695 0 1.242-.154 1.64-.462.41-.319.616-.74.616-1.264s-.206-.94-.616-1.248c-.398-.307-.945-.461-1.64-.461-.684 0-1.225.154-1.623.461-.399.308-.599.724-.599 1.248 0 .535.2.957.599 1.264.398.308.939.462 1.623.462zm13.882 5.143c-.684-1.036-1.214-2.238-1.59-3.605-.364-1.367-.546-2.831-.546-4.392 0-1.561.182-3.024.546-4.392.376-1.378.906-2.58 1.59-3.605h2.546a15.45 15.45 0 00-1.572 3.862 16.685 16.685 0 00-.496 4.135c0 1.458.165 2.842.496 4.152.33 1.299.854 2.581 1.572 3.845h-2.546zm11.917-8.253h-2.973v2.905h-2.205v-2.905h-2.956v-2.085h2.956v-2.905h2.205v2.905h2.973v2.085zm10.373 2.683v2.255h-9.04v-1.794l4.614-4.357c.49-.468.82-.866.991-1.197.171-.341.256-.677.256-1.008 0-.478-.165-.843-.495-1.093-.319-.262-.792-.393-1.419-.393a3.2 3.2 0 00-1.418.307c-.421.194-.775.49-1.059.889l-2.017-1.299c.467-.695 1.111-1.236 1.931-1.623.82-.399 1.76-.598 2.82-.598.888 0 1.663.148 2.324.444.672.285 1.19.695 1.555 1.23.376.524.564 1.145.564 1.863a4.16 4.16 0 01-.411 1.828c-.273.57-.803 1.219-1.589 1.948l-2.751 2.598h5.144zm2.898-.923c.478 0 .871.154 1.179.461.308.296.461.689.461 1.179 0 .228-.028.456-.085.684-.057.228-.182.569-.376 1.025l-.974 2.461h-1.692l.752-2.717a1.46 1.46 0 01-.683-.547 1.703 1.703 0 01-.24-.906c0-.49.154-.883.462-1.179.319-.307.717-.461 1.196-.461zm11.98-8.783v1.794l-4.443 10.167h-3.007l4.289-9.706h-3.965v1.948h-2.46v-4.203h9.586zm6.703 4.87c1.049.171 1.852.564 2.41 1.179.558.604.837 1.355.837 2.255 0 .695-.182 1.339-.547 1.931-.364.581-.922 1.048-1.674 1.402-.741.353-1.652.529-2.734.529a9.757 9.757 0 01-2.495-.324c-.809-.228-1.498-.547-2.068-.957l1.077-2.119c.455.341.979.609 1.572.803a6.362 6.362 0 001.845.273c.695 0 1.242-.131 1.641-.393.398-.273.598-.655.598-1.145 0-.979-.746-1.469-2.239-1.469h-1.264v-1.829l2.46-2.785h-5.092v-2.221h8.373v1.794l-2.7 3.076zm7.127 1.589c-.877 0-1.595-.296-2.153-.889-.547-.603-.821-1.407-.821-2.409 0-1.003.274-1.8.821-2.392.558-.604 1.276-.906 2.153-.906s1.589.302 2.136.906c.547.592.82 1.389.82 2.392 0 1.002-.273 1.806-.82 2.409-.547.593-1.259.889-2.136.889zm7.125-6.459h2.034l-8.168 11.961h-2.034l8.168-11.961zm-7.125 5.058c.387 0 .689-.16.905-.479.228-.319.342-.792.342-1.418 0-.627-.114-1.099-.342-1.418a1.033 1.033 0 00-.905-.479c-.376 0-.678.165-.906.496-.228.319-.342.786-.342 1.401s.114 1.088.342 1.418c.228.319.53.479.906.479zm8.117 7.04c-.57 0-1.083-.131-1.538-.393a2.8 2.8 0 01-1.043-1.162c-.25-.501-.376-1.082-.376-1.743s.126-1.242.376-1.743a2.683 2.683 0 011.043-1.145c.455-.273.968-.41 1.538-.41.877 0 1.589.302 2.136.906.558.592.837 1.389.837 2.392 0 1.002-.279 1.806-.837 2.409-.547.593-1.259.889-2.136.889zm0-1.401c.387 0 .689-.16.905-.479.228-.33.342-.803.342-1.418 0-.615-.114-1.082-.342-1.401a1.023 1.023 0 00-.905-.496c-.376 0-.678.16-.906.479-.228.319-.342.791-.342 1.418 0 .626.114 1.099.342 1.418.228.319.53.479.906.479zm3.271 4.579a15.586 15.586 0 001.572-3.845c.341-1.31.512-2.694.512-4.152a16.22 16.22 0 00-.512-4.135 15.525 15.525 0 00-1.572-3.862h2.546c.695 1.014 1.224 2.21 1.589 3.588.376 1.367.564 2.837.564 4.409 0 1.572-.183 3.042-.547 4.409-.365 1.355-.9 2.552-1.606 3.588h-2.546z" fill="#199F27"/><g filter="url(#filter1_d)"><rect x="102.392" y="414.216" width="244.216" height="46.992" rx="5.696" fill="#3E54D8"/><path d="M149.728 446.256a8.544 8.544 0 008.544-8.544 8.544 8.544 0 00-8.544-8.544 8.544 8.544 0 00-8.544 8.544 8.544 8.544 0 008.544 8.544z" stroke="#fff" stroke-width="1.424" stroke-miterlimit="10"/><path d="M146.168 437.712h7.12m-3.56-3.56v7.12" stroke="#fff" stroke-width="1.424" stroke-linecap="round" stroke-linejoin="round"/><path opacity=".9" d="M179.814 441.302v3.32h-1.538v-1.91h-6.882v1.91h-1.551l.013-3.32h.385c.564-.025.957-.44 1.179-1.243.231-.811.371-1.969.423-3.473l.102-2.845h6.575v7.561h1.294zm-6.51-4.562c-.043 1.162-.137 2.132-.282 2.909-.145.769-.376 1.32-.692 1.653h4.549v-6.151h-3.511l-.064 1.589zm10.825 6.062c-.692 0-1.316-.15-1.871-.449a3.324 3.324 0 01-1.308-1.243 3.607 3.607 0 01-.461-1.82c0-.675.154-1.277.461-1.807a3.33 3.33 0 011.308-1.243c.555-.299 1.179-.448 1.871-.448.7 0 1.328.149 1.884.448.555.299.986.714 1.294 1.243.316.53.474 1.132.474 1.807s-.158 1.282-.474 1.82c-.308.53-.739.944-1.294 1.243-.556.299-1.184.449-1.884.449zm0-1.371c.589 0 1.076-.197 1.461-.59.384-.393.576-.91.576-1.551 0-.641-.192-1.157-.576-1.55-.385-.393-.872-.59-1.461-.59-.59 0-1.077.197-1.461.59-.376.393-.564.909-.564 1.55s.188 1.158.564 1.551c.384.393.871.59 1.461.59zm8.939-5.229c.649 0 1.221.141 1.717.423.496.273.88.657 1.153 1.153.282.496.423 1.064.423 1.705 0 .657-.153 1.243-.461 1.755a3.153 3.153 0 01-1.294 1.179c-.556.282-1.188.423-1.897.423-1.188 0-2.106-.393-2.756-1.179-.649-.786-.974-1.918-.974-3.396 0-1.376.295-2.465.885-3.268.589-.803 1.491-1.333 2.704-1.589l3.178-.68.231 1.436-2.884.589c-.828.171-1.448.462-1.858.872-.41.41-.649.987-.718 1.73.308-.367.68-.649 1.115-.846a3.33 3.33 0 011.436-.307zm-.321 5.344c.59 0 1.064-.188 1.423-.564.367-.384.551-.871.551-1.461 0-.59-.184-1.064-.551-1.423-.359-.358-.833-.538-1.423-.538-.598 0-1.081.18-1.448.538-.367.359-.551.833-.551 1.423 0 .598.184 1.085.551 1.461.376.376.859.564 1.448.564zm7.628-5.754c1.008 0 1.777.243 2.307.73.538.478.807 1.205.807 2.179v4.011h-1.512v-.833c-.197.299-.479.53-.846.692-.359.154-.795.231-1.307.231-.513 0-.962-.086-1.346-.256a2.19 2.19 0 01-.897-.731 1.914 1.914 0 01-.308-1.064c0-.615.227-1.106.68-1.474.461-.375 1.183-.563 2.165-.563h1.769v-.103c0-.478-.145-.846-.436-1.102-.282-.256-.705-.385-1.268-.385-.385 0-.765.06-1.141.18a2.79 2.79 0 00-.936.5l-.628-1.167a3.916 3.916 0 011.295-.628 5.768 5.768 0 011.602-.217zm-.218 5.844c.401 0 .756-.09 1.064-.27.316-.187.538-.452.666-.794v-.795h-1.653c-.923 0-1.384.304-1.384.91 0 .291.115.521.346.692.23.171.551.257.961.257zm10.274-2.487c.846.257 1.269.803 1.269 1.641 0 .615-.231 1.089-.692 1.422-.461.334-1.145.5-2.051.5h-3.486v-6.844h3.345c.838 0 1.491.154 1.961.462.47.307.705.743.705 1.307 0 .35-.094.654-.282.91a1.775 1.775 0 01-.769.602zm-3.434-.423h1.678c.829 0 1.244-.286 1.244-.858 0-.556-.415-.833-1.244-.833h-1.678v1.691zm1.832 2.82c.88 0 1.32-.286 1.32-.859 0-.299-.102-.521-.307-.666-.205-.154-.526-.231-.962-.231h-1.883v1.756h1.832zm4.577-5.678h1.602v4.512l3.781-4.512h1.461v6.844h-1.602v-4.511l-3.768 4.511h-1.474v-6.844zm14.42 1.359h-2.396v5.485h-1.602v-5.485h-2.41v-1.359h6.408v1.359zm4.597.897c.871 0 1.538.197 1.999.59.47.393.705.948.705 1.666 0 .752-.256 1.333-.769 1.743-.512.41-1.234.611-2.166.602l-3.204-.013v-6.844h1.602v2.243l1.833.013zm-.372 3.422c.47.008.829-.09 1.077-.295s.372-.504.372-.897c0-.384-.12-.666-.359-.846-.24-.179-.603-.273-1.09-.282l-1.461-.013v2.32l1.461.013zm11.14 1.256c-.709 0-1.345-.15-1.909-.449a3.303 3.303 0 01-1.32-1.243 3.527 3.527 0 01-.474-1.82c0-.675.158-1.277.474-1.807a3.335 3.335 0 011.307-1.243c.564-.299 1.205-.448 1.922-.448.675 0 1.265.136 1.769.41.513.273.897.666 1.153 1.179l-1.23.717a1.88 1.88 0 00-.743-.704 1.932 1.932 0 00-.961-.244c-.598 0-1.094.197-1.487.59-.393.384-.59.901-.59 1.55 0 .65.193 1.171.577 1.564.393.384.893.577 1.5.577.35 0 .67-.077.961-.231.299-.162.547-.402.743-.718l1.23.718c-.264.513-.653.91-1.166 1.192-.504.273-1.089.41-1.756.41zm9.692-5.575h-2.397v5.485h-1.602v-5.485h-2.409v-1.359h6.408v1.359zm4.955-1.435c.667 0 1.26.145 1.782.435.529.291.944.701 1.243 1.231.299.529.448 1.14.448 1.832 0 .692-.149 1.308-.448 1.846a3.13 3.13 0 01-1.243 1.23c-.522.291-1.115.436-1.782.436-.923 0-1.653-.308-2.191-.923v3.319h-1.602v-9.33h1.525v.898a2.48 2.48 0 01.974-.731 3.362 3.362 0 011.294-.243zm-.179 5.639c.589 0 1.072-.197 1.448-.59.384-.393.577-.91.577-1.551 0-.641-.193-1.157-.577-1.55-.376-.393-.859-.59-1.448-.59-.385 0-.731.09-1.038.269a1.86 1.86 0 00-.731.743 2.3 2.3 0 00-.269 1.128c0 .427.09.803.269 1.128.18.325.423.577.731.756.307.171.653.257 1.038.257zm7.709-5.639c1.009 0 1.778.243 2.307.73.539.478.808 1.205.808 2.179v4.011h-1.513v-.833c-.196.299-.478.53-.845.692-.359.154-.795.231-1.308.231-.512 0-.961-.086-1.345-.256a2.184 2.184 0 01-.897-.731 1.906 1.906 0 01-.308-1.064c0-.615.226-1.106.679-1.474.462-.375 1.184-.563 2.166-.563h1.769v-.103c0-.478-.146-.846-.436-1.102-.282-.256-.705-.385-1.269-.385-.384 0-.765.06-1.14.18a2.77 2.77 0 00-.936.5l-.628-1.167c.359-.273.79-.482 1.294-.628a5.778 5.778 0 011.602-.217zm-.217 5.844c.401 0 .756-.09 1.063-.27.316-.187.539-.452.667-.794v-.795h-1.654c-.922 0-1.384.304-1.384.91 0 .291.116.521.346.692.231.171.551.257.962.257zm10.735-4.409h-2.396v5.485h-1.602v-5.485h-2.41v-1.359h6.408v1.359zm7.27 2.102c0 .111-.009.269-.026.474h-5.37c.094.504.338.906.731 1.205.401.29.897.435 1.487.435.751 0 1.371-.247 1.858-.743l.859.987a2.902 2.902 0 01-1.167.833c-.47.188-.999.282-1.589.282-.752 0-1.414-.15-1.986-.449a3.281 3.281 0 01-1.333-1.243c-.308-.538-.462-1.145-.462-1.82 0-.666.15-1.264.449-1.794a3.26 3.26 0 011.269-1.256c.538-.299 1.145-.448 1.82-.448.666 0 1.26.149 1.781.448.53.291.94.705 1.23 1.243.299.53.449 1.145.449 1.846zm-3.46-2.256c-.513 0-.949.154-1.308.461-.35.3-.564.701-.64 1.205h3.883c-.069-.495-.278-.897-.628-1.205-.35-.307-.786-.461-1.307-.461zm10.467.154h-3.653v5.485h-1.602v-6.844h5.255v1.359zm1.166-1.359h1.602v4.512l3.78-4.512h1.461v6.844h-1.602v-4.511l-3.768 4.511h-1.473v-6.844zm15.253-.076c.683 0 1.294.149 1.832.448.539.291.961.705 1.269 1.243.308.53.461 1.132.461 1.807s-.153 1.282-.461 1.82c-.308.53-.73.944-1.269 1.243-.538.299-1.149.449-1.832.449a3.836 3.836 0 01-1.641-.346 3.349 3.349 0 01-1.23-1 3.397 3.397 0 01-.628-1.486h-1.154v2.742h-1.602v-6.844h1.602v2.653h1.179a3.239 3.239 0 01.641-1.422 3.194 3.194 0 011.218-.961 3.72 3.72 0 011.615-.346zm0 5.651a2 2 0 001.012-.256 1.88 1.88 0 00.705-.756c.171-.333.256-.714.256-1.141 0-.649-.188-1.166-.564-1.55-.367-.393-.837-.59-1.409-.59-.573 0-1.043.197-1.41.59-.368.384-.551.901-.551 1.55 0 .65.183 1.171.551 1.564.376.393.846.589 1.41.589z" fill="#fff"/></g><g filter="url(#filter2_d)"><rect x="102.392" y="472.6" width="185.832" height="46.992" rx="5.696" fill="#fff"/><path d="M144.044 498.944a2.848 2.848 0 100-5.696 2.848 2.848 0 000 5.696zm9.968 6.408a2.848 2.848 0 100-5.696 2.848 2.848 0 000 5.696zm0-12.816a2.848 2.848 0 100-5.696 2.848 2.848 0 000 5.696zm-2.396-1.308l-5.177 3.328m0 3.08l5.177 3.328" stroke="#8C9BEA" stroke-width="1.424" stroke-linecap="round" stroke-linejoin="round"/><path opacity=".9" d="M178.878 492.293v8.971h-1.641v-7.561h-4.652v7.561h-1.64v-8.971h7.933zm5.4 9.061c-.692 0-1.316-.15-1.871-.449a3.328 3.328 0 01-1.307-1.243c-.308-.538-.461-1.145-.461-1.82s.153-1.277.461-1.807a3.335 3.335 0 011.307-1.243c.555-.299 1.179-.448 1.871-.448.701 0 1.329.149 1.884.448.556.299.987.714 1.295 1.243.316.53.474 1.132.474 1.807s-.158 1.282-.474 1.82c-.308.53-.739.944-1.295 1.243-.555.299-1.183.449-1.884.449zm0-1.371c.59 0 1.077-.197 1.461-.59.385-.393.577-.91.577-1.551 0-.641-.192-1.157-.577-1.55-.384-.393-.871-.59-1.461-.59-.589 0-1.076.197-1.461.59-.376.393-.564.909-.564 1.55s.188 1.158.564 1.551c.385.393.872.59 1.461.59zm12.465-.077v2.883h-1.499v-1.525h-5.28v1.525h-1.487v-2.883h.321c.435-.017.73-.295.884-.833.162-.547.269-1.316.32-2.307l.09-2.346h5.639v5.486h1.012zm-5.28-3.025c-.034.786-.098 1.427-.192 1.922-.094.496-.265.863-.513 1.103h3.371v-4.127h-2.627l-.039 1.102zm13.119 1c0 .111-.008.269-.025.474h-5.37c.094.504.337.906.73 1.205.402.29.897.435 1.487.435.752 0 1.371-.247 1.858-.743l.859.987a2.899 2.899 0 01-1.166.833c-.47.188-1 .282-1.59.282-.751 0-1.414-.15-1.986-.449a3.281 3.281 0 01-1.333-1.243c-.308-.538-.461-1.145-.461-1.82 0-.666.149-1.264.448-1.794a3.266 3.266 0 011.269-1.256c.538-.299 1.145-.448 1.82-.448.666 0 1.26.149 1.781.448.53.291.94.705 1.231 1.243.299.53.448 1.145.448 1.846zm-3.46-2.256c-.513 0-.948.154-1.307.461-.351.3-.564.701-.641 1.205h3.883c-.068-.495-.278-.897-.628-1.205-.35-.307-.786-.461-1.307-.461zm11.328-1.205v6.844h-1.602v-5.485h-2.563l-.065 1.358c-.042.906-.128 1.666-.256 2.282-.119.606-.329 1.089-.628 1.448-.29.35-.692.525-1.205.525-.239 0-.534-.047-.884-.141l.077-1.345c.12.025.222.038.308.038.324 0 .568-.128.73-.384.162-.265.265-.577.308-.936.051-.367.094-.889.128-1.563l.115-2.641h5.537zm2.157 0h1.602v4.512l3.781-4.512h1.461v6.844h-1.602v-4.511l-3.768 4.511h-1.474v-6.844zm14.42 1.359h-2.396v5.485h-1.602v-5.485h-2.41v-1.359h6.408v1.359zm4.597.897c.871 0 1.538.197 1.999.59.47.393.705.948.705 1.666 0 .752-.256 1.333-.769 1.743-.513.41-1.235.611-2.166.602l-3.204-.013v-6.844h1.602v2.243l1.833.013zm-.372 3.422c.47.008.829-.09 1.077-.295s.371-.504.371-.897c0-.384-.119-.666-.358-.846-.24-.179-.603-.273-1.09-.282l-1.461-.013v2.32l1.461.013zm7.598 1.256c-.709 0-1.345-.15-1.909-.449a3.303 3.303 0 01-1.32-1.243 3.527 3.527 0 01-.474-1.82c0-.675.158-1.277.474-1.807a3.335 3.335 0 011.307-1.243c.564-.299 1.205-.448 1.922-.448.675 0 1.265.136 1.769.41.513.273.897.666 1.153 1.179l-1.23.717a1.88 1.88 0 00-.743-.704 1.932 1.932 0 00-.961-.244c-.599 0-1.094.197-1.487.59-.393.384-.59.901-.59 1.55 0 .65.193 1.171.577 1.564.393.384.893.577 1.5.577.35 0 .67-.077.961-.231.299-.162.547-.402.743-.718l1.23.718c-.264.513-.653.91-1.166 1.192-.504.273-1.089.41-1.756.41zm9.925-6.934v6.844h-1.435v-2.063h-1.807l-1.397 2.063h-1.718l1.615-2.281c-.495-.171-.875-.432-1.14-.782-.257-.359-.385-.799-.385-1.32 0-.786.278-1.393.833-1.82.556-.427 1.32-.641 2.294-.641h3.14zm-3.088 1.346c-1.034 0-1.551.389-1.551 1.166 0 .769.5 1.154 1.499 1.154h1.705v-2.32h-1.653z" fill="#373943"/><rect x="103.104" y="473.312" width="184.408" height="45.568" rx="4.984" stroke="#D3E3FF" stroke-width="1.424"/></g><g filter="url(#filter3_d)"><rect x="299.616" y="472.6" width="46.992" height="46.992" rx="5.696" fill="#fff"/><path d="M317.416 491.824v-3.56h11.392v3.56m0 6.408h-11.392v6.052h11.392v-6.052z" stroke="#8C9BEA" stroke-width="1.424" stroke-linecap="round" stroke-linejoin="round"/><path d="M317.416 500.368h-3.204v-7.12c0-.786.691-1.424 1.543-1.424h14.714c.852 0 1.543.638 1.543 1.424v7.12h-3.204" stroke="#8C9BEA" stroke-width="1.424" stroke-linecap="round" stroke-linejoin="round"/><path d="M328.452 496.096a1.068 1.068 0 100-2.136 1.068 1.068 0 000 2.136z" fill="#8C9BEA"/><rect x="300.328" y="473.312" width="45.568" height="45.568" rx="4.984" stroke="#D3E3FF" stroke-width="1.424"/></g><g filter="url(#filter4_d)"><g clip-path="url(#clip1)"><path d="M102 555.816c0-7.078 5.738-12.816 12.816-12.816h219.368c7.078 0 12.816 5.738 12.816 12.816v58.368c0 7.078-5.738 12.816-12.816 12.816H114.816c-7.078 0-12.816-5.738-12.816-12.816v-58.368z" fill="#fff"/><path opacity=".9" d="M129.2 586.104c-.914 0-1.739-.196-2.473-.589a4.47 4.47 0 01-1.73-1.654c-.419-.709-.628-1.499-.628-2.371 0-.871.209-1.657.628-2.358a4.349 4.349 0 011.73-1.653c.734-.402 1.559-.602 2.473-.602.914 0 1.739.2 2.474.602.734.393 1.311.94 1.73 1.641.418.7.628 1.49.628 2.37 0 .881-.21 1.671-.628 2.371a4.483 4.483 0 01-1.73 1.654c-.735.393-1.56.589-2.474.589zm0-1.461c.598 0 1.137-.132 1.615-.397a2.98 2.98 0 001.128-1.128 3.27 3.27 0 00.41-1.628c0-.598-.137-1.136-.41-1.614a2.872 2.872 0 00-1.128-1.128 3.19 3.19 0 00-1.615-.41c-.598 0-1.136.136-1.615.41a2.863 2.863 0 00-1.127 1.128 3.187 3.187 0 00-.411 1.614c0 .599.137 1.141.411 1.628a2.97 2.97 0 001.127 1.128 3.278 3.278 0 001.615.397zm10.198-5.177c.65 0 1.222.141 1.718.422.495.274.88.658 1.153 1.154.282.495.423 1.064.423 1.704 0 .658-.154 1.244-.461 1.756-.308.504-.74.897-1.295 1.179-.555.282-1.188.423-1.897.423-1.187 0-2.106-.393-2.755-1.179s-.974-1.918-.974-3.396c0-1.376.295-2.465.884-3.268.59-.803 1.491-1.333 2.704-1.589l3.179-.68.23 1.436-2.883.589c-.829.171-1.448.462-1.859.872-.41.41-.649.987-.717 1.73a3.1 3.1 0 011.115-.846 3.329 3.329 0 011.435-.307zm-.32 5.344c.589 0 1.064-.188 1.422-.564.368-.385.551-.872.551-1.461 0-.59-.183-1.064-.551-1.423-.358-.359-.833-.538-1.422-.538-.598 0-1.081.179-1.448.538-.368.359-.552.833-.552 1.423 0 .598.184 1.085.552 1.461.376.376.858.564 1.448.564zm15.251-5.678v6.844h-10.086v-6.844h1.602v5.486h2.652v-5.486h1.602v5.486h2.628v-5.486h1.602zm.987 5.486v2.768h-1.5v-1.41h-1.141v-1.358h2.641zm1.167-5.486h1.602v4.512l3.781-4.512h1.461v6.844h-1.602v-4.511l-3.768 4.511h-1.474v-6.844zm8.999 0h1.602v4.512l3.78-4.512h1.461v6.844h-1.602v-4.511l-3.768 4.511h-1.473v-6.844zm3.319-.807c-.692 0-1.222-.158-1.589-.474-.359-.325-.543-.795-.551-1.41h1.063c.009.308.103.551.282.73.188.18.449.27.782.27.325 0 .581-.09.769-.27.197-.179.299-.422.308-.73h1.089c-.009.615-.197 1.085-.564 1.41-.367.316-.897.474-1.589.474zm16.526 6.293v2.883h-1.499v-1.525h-5.28v1.525h-1.487v-2.883h.32c.436-.018.731-.295.885-.833.162-.547.269-1.316.32-2.307l.09-2.346h5.639v5.486h1.012zm-5.28-3.025c-.034.786-.098 1.427-.192 1.922-.094.496-.265.863-.513 1.103h3.371v-4.127h-2.627l-.039 1.102zm9.761 4.473c-.692 0-1.315-.15-1.871-.449a3.328 3.328 0 01-1.307-1.243c-.308-.538-.461-1.145-.461-1.82s.153-1.277.461-1.807c.316-.53.752-.944 1.307-1.243a3.885 3.885 0 011.871-.449c.701 0 1.329.15 1.884.449.556.299.987.713 1.295 1.243.316.53.474 1.132.474 1.807s-.158 1.282-.474 1.82c-.308.53-.739.944-1.295 1.243-.555.299-1.183.449-1.884.449zm0-1.372c.59 0 1.077-.196 1.461-.589.385-.393.577-.91.577-1.551 0-.641-.192-1.158-.577-1.551-.384-.393-.871-.589-1.461-.589-.589 0-1.076.196-1.461.589-.376.393-.564.91-.564 1.551 0 .641.188 1.158.564 1.551.385.393.872.589 1.461.589zm9.291 1.282l-1.756-2.371-1.769 2.371h-1.768l2.665-3.473-2.55-3.371h1.781l1.679 2.243 1.679-2.243h1.73l-2.563 3.345 2.679 3.499h-1.807zm5.778.09c-.692 0-1.316-.15-1.871-.449a3.328 3.328 0 01-1.307-1.243c-.308-.538-.462-1.145-.462-1.82s.154-1.277.462-1.807c.316-.53.752-.944 1.307-1.243.555-.299 1.179-.449 1.871-.449.701 0 1.329.15 1.884.449.555.299.987.713 1.295 1.243.316.53.474 1.132.474 1.807s-.158 1.282-.474 1.82c-.308.53-.74.944-1.295 1.243-.555.299-1.183.449-1.884.449zm0-1.372c.59 0 1.077-.196 1.461-.589.385-.393.577-.91.577-1.551 0-.641-.192-1.158-.577-1.551-.384-.393-.871-.589-1.461-.589-.589 0-1.076.196-1.461.589-.376.393-.564.91-.564 1.551 0 .641.188 1.158.564 1.551.385.393.872.589 1.461.589zm12.465-.076v2.883h-1.499v-1.525h-5.28v1.525h-1.487v-2.883h.32c.436-.018.731-.295.885-.833.162-.547.269-1.316.32-2.307l.09-2.346h5.639v5.486h1.012zm-5.28-3.025c-.034.786-.098 1.427-.192 1.922-.094.496-.265.863-.513 1.103h3.371v-4.127h-2.627l-.039 1.102z" fill="#3E54D8"/><g clip-path="url(#clip2)"><path d="M321.431 582.473a.337.337 0 00.257.115.336.336 0 00.256-.115l2.803-3.471a.236.236 0 00.02-.276.297.297 0 00-.114-.105.358.358 0 00-.162-.038h-5.607a.351.351 0 00-.161.039.28.28 0 00-.114.104.236.236 0 00-.036.14.25.25 0 00.055.136l2.803 3.471z" fill="#3E54D8"/></g><rect x="114.496" y="560.872" width="220.008" height="39.872" rx="4.984" stroke="#3E54D8" stroke-width="1.424"/></g><path d="M102.356 555.816c0-6.881 5.578-12.46 12.46-12.46h219.368c6.881 0 12.46 5.579 12.46 12.46v58.368c0 6.881-5.579 12.46-12.46 12.46H114.816c-6.882 0-12.46-5.579-12.46-12.46v-58.368z" stroke="#D3E3FF" stroke-width=".712"/></g><g filter="url(#filter5_d)"><path fill="#fff" d="M91 81h267v49.84H91z"/></g><path fill="#EAF1FE" d="M91 81h267v49.84H91z"/><path opacity=".86" fill="url(#paint0_linear)" d="M91 78h267v53H91z"/><g clip-path="url(#clip3)"><path d="M343.842 98.02a9.952 9.952 0 00-7.205-3.067 9.952 9.952 0 00-6.897 17.14c.005.005.007.013.013.018.058.056.12.103.179.156.16.143.32.29.489.427.09.072.184.143.277.208.159.119.318.238.485.348.113.071.23.142.346.213.154.093.307.186.465.271.135.071.272.132.409.197.149.071.297.142.45.206.153.064.307.114.462.169.155.056.289.107.437.153.168.05.341.089.511.131.143.035.281.075.428.104.196.039.395.064.595.091.123.017.243.041.368.053.326.032.654.05.986.05.332 0 .661-.018.987-.05.124-.012.244-.036.367-.053.2-.027.399-.052.596-.091.142-.029.284-.072.427-.104.17-.042.343-.081.511-.131.148-.046.292-.101.437-.153.146-.051.311-.106.462-.169.152-.063.301-.136.45-.206.137-.065.274-.126.409-.197.158-.085.311-.178.465-.271.116-.071.233-.136.346-.213.167-.11.326-.229.486-.348.092-.071.186-.135.276-.208.169-.135.329-.279.489-.427.059-.053.121-.1.179-.156.006-.005.008-.013.014-.019 3.969-3.802 4.104-10.103.301-14.072zm-1.6 13.327a8.22 8.22 0 01-.639.507 8.467 8.467 0 01-.689.446l-.381.214a10.078 10.078 0 01-.718.329 6.72 6.72 0 01-.392.142c-.12.042-.24.084-.362.121-.143.042-.291.077-.439.113-.115.027-.229.058-.346.08-.168.033-.34.056-.513.079-.099.013-.196.031-.295.041-.273.026-.55.042-.83.042-.28 0-.557-.016-.83-.042-.099-.01-.196-.028-.295-.041a8.594 8.594 0 01-.514-.079c-.116-.022-.23-.053-.345-.08-.148-.036-.294-.071-.439-.113a9.034 9.034 0 01-.362-.121 8.274 8.274 0 01-.392-.142c-.128-.05-.249-.106-.371-.162a6.493 6.493 0 01-.728-.381 8.04 8.04 0 01-.93-.626 9.482 9.482 0 01-.399-.327c-.031-.024-.059-.053-.09-.08a5.71 5.71 0 013.881-5.335 4.225 4.225 0 003.626 0 5.708 5.708 0 013.881 5.335c-.03.027-.058.054-.089.08zm-8.087-10.687a2.847 2.847 0 113.877 3.877c-.003 0-.008 0-.012.004-.189.105-.388.19-.595.252-.037.011-.071.025-.11.034a2.293 2.293 0 01-.219.044 2.93 2.93 0 01-.418.042h-.081a2.93 2.93 0 01-.418-.042 2.496 2.496 0 01-.219-.044c-.038-.009-.072-.023-.111-.034a3.02 3.02 0 01-.595-.252l-.012-.004a2.848 2.848 0 01-1.087-3.877zm9.439 9.195a7.156 7.156 0 00-3.811-4.906 4.27 4.27 0 10-6.292 0 7.156 7.156 0 00-3.811 4.906 8.537 8.537 0 012.02-11.903 8.537 8.537 0 0113.478 6.966c0 1.77-.554 3.497-1.584 4.937z" fill="#3E54D8"/></g><rect x="102.748" y="91.036" width="27.768" height="27.768" rx="5.34" fill="#fff"/><path stroke="#3E54D8" stroke-width="1.424" stroke-linecap="round" d="M108.088 107.768h11.392m-11.392-5.696h17.088"/><rect x="102.748" y="91.036" width="27.768" height="27.768" rx="5.34" stroke="#E6EEFF" stroke-width=".712"/><path stroke="#fff" stroke-opacity=".3" stroke-width=".712" d="M91 130.484h267"/><g opacity=".9"><path d="M167.618 100.508c.741.235 1.322.631 1.742 1.187.421.544.631 1.217.631 2.02 0 1.137-.445 2.015-1.335 2.633-.877.605-2.163.908-3.856.908h-6.71V94.28h6.34c1.581 0 2.792.303 3.633.908.853.606 1.279 1.428 1.279 2.466 0 .63-.155 1.192-.463 1.687a3.115 3.115 0 01-1.261 1.167zm-6.544-3.966V99.6h2.985c.741 0 1.304-.13 1.687-.39.383-.259.574-.642.574-1.148 0-.507-.191-.884-.574-1.131-.383-.26-.946-.39-1.687-.39h-2.985zm3.504 8.453c.791 0 1.384-.13 1.779-.39.408-.259.612-.661.612-1.205 0-1.075-.797-1.612-2.391-1.612h-3.504v3.207h3.504zm17.252-2.688c0 .037-.019.296-.056.778h-7.545c.136.618.458 1.106.964 1.465.507.358 1.137.537 1.891.537.519 0 .976-.074 1.372-.222a3.445 3.445 0 001.131-.742l1.538 1.669c-.939 1.075-2.311 1.612-4.115 1.612-1.125 0-2.12-.216-2.985-.648-.865-.445-1.532-1.057-2.002-1.836-.469-.778-.704-1.662-.704-2.65 0-.977.229-1.854.686-2.633a4.864 4.864 0 011.909-1.835c.816-.445 1.724-.667 2.725-.667.976 0 1.86.21 2.651.63a4.525 4.525 0 011.854 1.817c.457.778.686 1.687.686 2.725zm-5.172-2.985c-.655 0-1.205.185-1.65.556-.445.371-.717.878-.816 1.52h4.913c-.099-.63-.371-1.131-.816-1.501-.445-.383-.989-.575-1.631-.575zm10.848-2.187c1.545 0 2.731.37 3.559 1.112.828.73 1.242 1.835 1.242 3.318v5.691h-2.706v-1.242c-.544.927-1.557 1.39-3.04 1.39-.767 0-1.434-.129-2.002-.389-.557-.259-.983-.618-1.28-1.075a2.801 2.801 0 01-.444-1.557c0-.927.346-1.656 1.038-2.188.704-.531 1.785-.797 3.244-.797h2.298c0-.63-.191-1.112-.574-1.446-.383-.346-.958-.519-1.724-.519-.532 0-1.057.087-1.576.26-.507.16-.939.383-1.298.667l-1.038-2.02c.544-.383 1.193-.68 1.947-.89a8.86 8.86 0 012.354-.315zm-.222 8.323c.494 0 .933-.111 1.316-.334.383-.235.655-.574.815-1.019v-1.02h-1.983c-1.187 0-1.78.389-1.78 1.168 0 .371.142.667.427.89.296.21.698.315 1.205.315zm14.073 1.316a3.08 3.08 0 01-1.057.482c-.408.099-.84.148-1.297.148-1.187 0-2.107-.302-2.762-.908-.643-.605-.964-1.495-.964-2.669V99.73h-1.539v-2.225h1.539v-2.428h2.892v2.428h2.484v2.225h-2.484v4.06c0 .42.105.747.315.982.222.223.531.334.927.334.457 0 .846-.124 1.167-.371l.779 2.039z" fill="#3E54D8"/><path d="M214.993 107.256l-.019-7.786-3.819 6.414h-1.353l-3.8-6.247v7.619h-2.818V94.28h2.484l4.857 8.064 4.783-8.064h2.465l.037 12.976h-2.817zm9.715-10.121c1.544 0 2.731.37 3.559 1.112.828.73 1.242 1.835 1.242 3.318v5.691h-2.707v-1.242c-.543.927-1.557 1.39-3.04 1.39-.766 0-1.433-.129-2.002-.389-.556-.259-.982-.618-1.279-1.075a2.794 2.794 0 01-.445-1.557c0-.927.346-1.656 1.038-2.188.705-.531 1.786-.797 3.244-.797h2.299c0-.63-.192-1.112-.575-1.446-.383-.346-.957-.519-1.724-.519-.531 0-1.056.087-1.575.26-.507.16-.94.383-1.298.667l-1.038-2.02c.544-.383 1.192-.68 1.946-.89a8.868 8.868 0 012.355-.315zm-.223 8.323c.494 0 .933-.111 1.316-.334.383-.235.655-.574.816-1.019v-1.02h-1.984c-1.186 0-1.779.389-1.779 1.168 0 .371.142.667.426.89.297.21.698.315 1.205.315zm10.403-6.859c.346-.482.81-.846 1.39-1.094.594-.247 1.273-.37 2.04-.37v2.67a10.416 10.416 0 00-.649-.038c-.828 0-1.477.235-1.947.704-.469.458-.704 1.15-.704 2.077v4.708h-2.892v-9.973h2.762v1.316zm9.431 4.746l-1.39 1.371v2.54h-2.892V93.501h2.892v7.786l4.226-4.004h3.448l-4.152 4.227 4.523 5.746h-3.503l-3.152-3.911zm17.29-1.038c0 .037-.018.296-.055.778h-7.545c.136.618.457 1.106.964 1.465.507.358 1.137.537 1.891.537.519 0 .976-.074 1.372-.222a3.452 3.452 0 001.13-.742l1.539 1.669c-.939 1.075-2.311 1.612-4.115 1.612-1.125 0-2.12-.216-2.985-.648-.865-.445-1.532-1.057-2.002-1.836-.47-.778-.704-1.662-.704-2.65 0-.977.228-1.854.686-2.633a4.864 4.864 0 011.909-1.835c.816-.445 1.724-.667 2.725-.667.976 0 1.86.21 2.651.63a4.525 4.525 0 011.854 1.817c.457.778.685 1.687.685 2.725zm-5.172-2.985c-.655 0-1.204.185-1.649.556-.445.371-.717.878-.816 1.52h4.912c-.098-.63-.37-1.131-.815-1.501-.445-.383-.989-.575-1.632-.575zm13.53 7.452c-.284.21-.636.371-1.056.482a5.492 5.492 0 01-1.298.148c-1.186 0-2.107-.302-2.762-.908-.643-.605-.964-1.495-.964-2.669V99.73h-1.539v-2.225h1.539v-2.428h2.892v2.428h2.484v2.225h-2.484v4.06c0 .42.105.747.315.982.222.223.531.334.927.334.457 0 .846-.124 1.168-.371l.778 2.039z" fill="#ED6373"/></g><path d="M161.236 114.484v3.604h-.376v-3.275h-2.281v3.275h-.376v-3.604h3.033zm3.24.896v2.708h-.366v-2.384h-1.297l-.036.67c-.028.563-.093.995-.196 1.297-.103.302-.287.453-.551.453-.072 0-.16-.013-.263-.041l.026-.314a.701.701 0 00.129.021.346.346 0 00.319-.196c.072-.13.12-.292.144-.484.024-.192.045-.446.062-.762l.046-.968h1.983zm1.868-.021c.354 0 .625.09.814.268.189.175.283.436.283.783v1.678h-.35v-.422a.83.83 0 01-.366.33 1.251 1.251 0 01-.566.118c-.302 0-.542-.072-.721-.216a.698.698 0 01-.268-.572c0-.23.083-.415.247-.556.169-.141.435-.211.799-.211h.859v-.165c0-.233-.065-.41-.195-.53-.131-.124-.321-.185-.572-.185-.171 0-.336.029-.494.087a1.203 1.203 0 00-.407.232l-.165-.273a1.43 1.43 0 01.495-.268c.192-.065.394-.098.607-.098zm-.128 2.467a.983.983 0 00.53-.139.858.858 0 00.329-.412v-.443h-.849c-.464 0-.695.161-.695.484 0 .158.06.283.18.376.12.089.288.134.505.134zm4.001-2.122h-1.025v2.384h-.366v-2.384h-1.024v-.324h2.415v.324zm3.569 1.025c0 .422-.139.753-.417.994-.278.24-.671.371-1.179.391v.973h-.355v-.968c-.505-.02-.896-.151-1.174-.391-.275-.244-.412-.577-.412-.999 0-.419.137-.747.412-.984.278-.236.669-.365 1.174-.386v-1.091h.355v1.091c.508.024.901.155 1.179.392.278.236.417.563.417.978zm-3.177 0c0 .323.103.575.309.757.21.182.515.285.917.309v-2.111c-.399.02-.702.122-.912.303-.209.179-.314.426-.314.742zm1.581 1.066c.402-.021.707-.122.917-.304.212-.182.319-.436.319-.762 0-.319-.107-.568-.319-.747-.21-.178-.515-.278-.917-.298v2.111zm3.384.319c-.261 0-.496-.058-.706-.175a1.316 1.316 0 01-.494-.494c-.12-.21-.18-.447-.18-.711 0-.264.06-.501.18-.71.12-.21.285-.373.494-.49.21-.116.445-.175.706-.175.261 0 .496.059.705.175.21.117.373.28.49.49.12.209.18.446.18.71 0 .264-.06.501-.18.711-.117.209-.28.374-.49.494a1.418 1.418 0 01-.705.175zm0-.324c.192 0 .364-.043.515-.129a.932.932 0 00.36-.376c.086-.161.129-.345.129-.551 0-.206-.043-.39-.129-.551a.9.9 0 00-.36-.371.996.996 0 00-.515-.133c-.192 0-.366.044-.52.133a.948.948 0 00-.361.371 1.163 1.163 0 00-.128.551c0 .206.043.39.128.551.09.161.21.287.361.376.154.086.328.129.52.129zm3.449-2.431c.254 0 .484.059.69.175.206.114.367.275.484.484.116.21.175.448.175.716 0 .271-.059.512-.175.721a1.257 1.257 0 01-.484.489c-.203.113-.433.17-.69.17-.22 0-.419-.045-.598-.134a1.143 1.143 0 01-.432-.401v1.508h-.366v-3.707h.35v.535a1.14 1.14 0 01.433-.412c.182-.096.386-.144.613-.144zm-.026 2.431c.189 0 .36-.043.515-.129a.932.932 0 00.36-.376c.089-.161.134-.345.134-.551 0-.206-.045-.388-.134-.546a.938.938 0 00-.36-.376 1.014 1.014 0 00-.515-.133c-.192 0-.366.044-.52.133a.99.99 0 00-.361.376c-.086.158-.128.34-.128.546 0 .206.042.39.128.551.09.161.21.287.361.376.154.086.328.129.52.129zm5.085-2.41v2.708h-.335v-2.142l-1.097 1.813h-.164l-1.097-1.818v2.147h-.335v-2.708h.371l1.148 1.951 1.169-1.951h.34zm1.869-.021c.354 0 .625.09.814.268.189.175.283.436.283.783v1.678h-.35v-.422a.83.83 0 01-.366.33 1.248 1.248 0 01-.566.118c-.302 0-.542-.072-.721-.216a.7.7 0 01-.268-.572c0-.23.083-.415.248-.556.168-.141.434-.211.798-.211h.86v-.165c0-.233-.066-.41-.196-.53-.131-.124-.321-.185-.572-.185-.171 0-.336.029-.494.087a1.212 1.212 0 00-.407.232l-.165-.273c.138-.117.303-.206.495-.268.192-.065.395-.098.607-.098zm-.128 2.467a.983.983 0 00.53-.139.866.866 0 00.33-.412v-.443h-.85c-.463 0-.695.161-.695.484 0 .158.06.283.18.376.12.089.288.134.505.134zm1.884-1.293h1.349v.32h-1.349v-.32zm4.505-1.153v2.708h-.365v-2.384h-1.7v2.384h-.365v-2.708h2.43zm2.054 2.734c-.261 0-.496-.058-.706-.175a1.316 1.316 0 01-.494-.494c-.12-.21-.18-.447-.18-.711 0-.264.06-.501.18-.71.12-.21.285-.373.494-.49.21-.116.445-.175.706-.175.261 0 .496.059.705.175.21.117.373.28.489.49.121.209.181.446.181.71 0 .264-.06.501-.181.711a1.269 1.269 0 01-.489.494 1.418 1.418 0 01-.705.175zm0-.324c.192 0 .364-.043.515-.129a.932.932 0 00.36-.376c.086-.161.129-.345.129-.551 0-.206-.043-.39-.129-.551a.9.9 0 00-.36-.371.996.996 0 00-.515-.133c-.192 0-.366.044-.52.133a.948.948 0 00-.361.371 1.152 1.152 0 00-.128.551c0 .206.042.39.128.551.09.161.21.287.361.376.154.086.328.129.52.129zm5.081-2.41v2.708h-.335v-2.142l-1.097 1.813h-.164l-1.097-1.818v2.147h-.335v-2.708h.371l1.148 1.951 1.169-1.951h.34zm2.055 2.734c-.261 0-.496-.058-.706-.175a1.316 1.316 0 01-.494-.494c-.12-.21-.18-.447-.18-.711 0-.264.06-.501.18-.71.12-.21.285-.373.494-.49.21-.116.445-.175.706-.175.26 0 .496.059.705.175.209.117.373.28.489.49.12.209.18.446.18.71 0 .264-.06.501-.18.711-.116.209-.28.374-.489.494a1.42 1.42 0 01-.705.175zm0-.324c.192 0 .363-.043.515-.129a.932.932 0 00.36-.376c.086-.161.129-.345.129-.551 0-.206-.043-.39-.129-.551a.9.9 0 00-.36-.371.998.998 0 00-.515-.133c-.193 0-.366.044-.52.133a.935.935 0 00-.361.371 1.152 1.152 0 00-.129.551c0 .206.043.39.129.551a.968.968 0 00.361.376c.154.086.327.129.52.129zm5.791-2.41v2.708h-3.738v-2.708h.365v2.389h1.329v-2.389h.366v2.389h1.313v-2.389h.365zm.417 2.389v.912h-.345v-.593h-.458v-.319h.803zm.524-2.389h.366v1.2h1.704v-1.2h.366v2.708h-.366v-1.194H208.5v1.194h-.366v-2.708zm3.372 0h.365v2.152l1.808-2.152h.324v2.708h-.365v-2.152l-1.803 2.152h-.329v-2.708zm4.425 1.503h-.617v1.205h-.366v-2.708h.366v1.189h.623l.952-1.189h.397l-1.066 1.313 1.143 1.395h-.433l-.999-1.205zm3.151-1.503h.365v1.2h1.705v-1.2h.365v2.708h-.365v-1.194h-1.705v1.194h-.365v-2.708zm4.303-.021c.354 0 .625.09.814.268.189.175.283.436.283.783v1.678h-.35v-.422a.834.834 0 01-.365.33 1.255 1.255 0 01-.567.118c-.302 0-.542-.072-.721-.216a.7.7 0 01-.268-.572c0-.23.083-.415.248-.556.168-.141.434-.211.798-.211h.86v-.165c0-.233-.066-.41-.196-.53-.13-.124-.321-.185-.572-.185-.171 0-.336.029-.494.087a1.212 1.212 0 00-.407.232l-.164-.273c.137-.117.302-.206.494-.268.192-.065.395-.098.607-.098zm-.128 2.467a.98.98 0 00.53-.139.86.86 0 00.33-.412v-.443h-.85c-.463 0-.695.161-.695.484 0 .158.06.283.18.376.12.089.288.134.505.134zm7.285-1.545c0 .477-.17.853-.51 1.128-.337.271-.809.415-1.416.432v.371h-.356v-.371c-.607-.02-1.081-.166-1.421-.437-.336-.272-.504-.646-.504-1.123s.168-.851.504-1.123c.34-.271.814-.417 1.421-.437v-.361h.356v.361c.604.02 1.076.168 1.416.443.34.271.51.643.51 1.117zm-1.926 1.256c.498-.02.882-.139 1.153-.355.271-.216.407-.517.407-.901 0-.385-.137-.685-.412-.901-.271-.216-.654-.333-1.148-.35v2.507zm-1.916-1.256c0 .384.136.685.407.901.275.213.659.331 1.153.355v-2.507c-.501.02-.887.139-1.158.355-.268.213-.402.511-.402.896zm5.634 1.833c-.261 0-.497-.058-.706-.175a1.316 1.316 0 01-.494-.494 1.408 1.408 0 01-.181-.711c0-.264.061-.501.181-.71.12-.21.285-.373.494-.49.209-.116.445-.175.706-.175.26 0 .496.059.705.175.209.117.372.28.489.49.12.209.18.446.18.71 0 .264-.06.501-.18.711-.117.209-.28.374-.489.494a1.42 1.42 0 01-.705.175zm0-.324c.192 0 .363-.043.514-.129a.928.928 0 00.361-.376c.086-.161.129-.345.129-.551 0-.206-.043-.39-.129-.551a.897.897 0 00-.361-.371.992.992 0 00-.514-.133c-.193 0-.366.044-.521.133a.939.939 0 00-.36.371 1.152 1.152 0 00-.129.551c0 .206.043.39.129.551a.973.973 0 00.36.376c.155.086.328.129.521.129zm2.053-2.41h.365v1.2h1.705v-1.2h.365v2.708h-.365v-1.194h-1.705v1.194h-.365v-2.708zm6.013 2.389v.973h-.345v-.654h-2.425v.654h-.345v-.973h.154c.182-.01.306-.144.371-.402.065-.257.11-.617.134-1.081l.036-.906h1.998v2.389h.422zm-2.121-1.462c-.018.384-.05.702-.098.952-.048.248-.134.417-.258.51h1.689v-2.065h-1.303l-.03.603zm3.848 1.807c-.261 0-.496-.058-.705-.175a1.312 1.312 0 01-.495-.494c-.12-.21-.18-.447-.18-.711 0-.264.06-.501.18-.71.12-.21.285-.373.495-.49.209-.116.444-.175.705-.175.261 0 .496.059.705.175.21.117.373.28.49.49.12.209.18.446.18.71 0 .264-.06.501-.18.711-.117.209-.28.374-.49.494a1.418 1.418 0 01-.705.175zm0-.324c.192 0 .364-.043.515-.129a.925.925 0 00.36-.376c.086-.161.129-.345.129-.551 0-.206-.043-.39-.129-.551a.895.895 0 00-.36-.371.996.996 0 00-.515-.133c-.192 0-.366.044-.52.133a.948.948 0 00-.361.371 1.163 1.163 0 00-.128.551c0 .206.043.39.128.551.09.161.21.287.361.376.154.086.328.129.52.129zm3.778-1.102c.368.086.551.307.551.664 0 .237-.087.419-.262.546-.175.127-.436.19-.783.19h-1.231v-2.708h1.195c.309 0 .551.06.726.18.175.12.263.292.263.515a.605.605 0 01-.124.381.715.715 0 01-.335.232zm-1.369-.103h.813c.21 0 .369-.04.479-.119a.395.395 0 00.17-.345.383.383 0 00-.17-.34c-.11-.075-.269-.113-.479-.113h-.813v.917zm.859 1.215c.234 0 .409-.038.526-.113.116-.076.175-.194.175-.356 0-.161-.053-.279-.16-.355-.106-.079-.274-.118-.504-.118h-.896v.942h.859zm2.932.314a1.42 1.42 0 01-.705-.175 1.316 1.316 0 01-.494-.494 1.408 1.408 0 01-.181-.711c0-.264.061-.501.181-.71.12-.21.285-.373.494-.49.209-.116.445-.175.705-.175.261 0 .497.059.706.175.209.117.372.28.489.49.12.209.18.446.18.71 0 .264-.06.501-.18.711-.117.209-.28.374-.489.494a1.422 1.422 0 01-.706.175zm0-.324c.193 0 .364-.043.515-.129a.928.928 0 00.361-.376c.086-.161.129-.345.129-.551 0-.206-.043-.39-.129-.551a.897.897 0 00-.361-.371.993.993 0 00-.515-.133c-.192 0-.365.044-.52.133a.939.939 0 00-.36.371 1.152 1.152 0 00-.129.551c0 .206.043.39.129.551a.973.973 0 00.36.376c.155.086.328.129.52.129zm5.081-2.41v2.708h-.334v-2.142l-1.097 1.813h-.165l-1.097-1.818v2.147h-.334v-2.708h.37l1.149 1.951 1.169-1.951h.339zm3.578-.021c.254 0 .484.059.69.175.206.114.367.275.484.484.117.21.175.448.175.716 0 .271-.058.512-.175.721a1.257 1.257 0 01-.484.489c-.203.113-.433.17-.69.17-.22 0-.419-.045-.597-.134a1.146 1.146 0 01-.433-.401v1.508h-.365v-3.707h.35v.535c.11-.178.254-.315.432-.412.182-.096.386-.144.613-.144zm-.026 2.431c.189 0 .361-.043.515-.129a.928.928 0 00.361-.376c.089-.161.134-.345.134-.551 0-.206-.045-.388-.134-.546a.934.934 0 00-.361-.376 1.011 1.011 0 00-.515-.133c-.192 0-.365.044-.52.133a.98.98 0 00-.36.376c-.086.158-.129.34-.129.546 0 .206.043.39.129.551a.973.973 0 00.36.376c.155.086.328.129.52.129zm3.196-1.452c.339.003.599.079.777.226.179.148.268.361.268.639 0 .288-.096.509-.288.664-.193.154-.467.23-.824.227l-1.071-.006v-2.708h.365v.947l.773.011zm1.498-.958h.366v2.708h-.366v-2.708zm-1.586 2.435c.251.004.439-.046.566-.149.131-.106.196-.261.196-.463 0-.199-.063-.347-.19-.443-.127-.096-.318-.146-.572-.149l-.685-.011v1.205l.685.01zm2.89-2.435h.365v1.2h1.705v-1.2h.365v2.708h-.365v-1.194h-1.705v1.194h-.365v-2.708zm4.355 1.503h-.618v1.205h-.366v-2.708h.366v1.189h.623l.953-1.189h.396l-1.066 1.313 1.143 1.395h-.432l-.999-1.205zm4.179-.036h-2.266c.02.282.129.51.324.685.196.172.443.258.742.258a1.039 1.039 0 00.829-.356l.206.237c-.12.144-.271.254-.453.33a1.518 1.518 0 01-.593.113 1.53 1.53 0 01-.741-.175 1.301 1.301 0 01-.499-.494 1.398 1.398 0 01-.181-.711c0-.264.057-.501.17-.71.117-.21.275-.373.474-.49.202-.116.429-.175.68-.175.25 0 .475.059.674.175.199.117.356.28.469.49.113.205.17.442.17.71l-.005.113zm-1.308-1.174a.92.92 0 00-.659.253.97.97 0 00-.299.648h1.921a.966.966 0 00-.304-.648.91.91 0 00-.659-.253z" fill="#373943"/><circle cx="306.736" cy="93.528" r="2.136" fill="#199F27"/><path d="M301.144 104.475a5.6 5.6 0 015.634-5.607c3.083.023 5.549 2.586 5.549 5.678v.552c0 2.789.584 4.408 1.098 5.292a.622.622 0 01-.536.938h-12.307a.624.624 0 01-.536-.938c.515-.884 1.098-2.503 1.098-5.292v-.623z" stroke="#8C9BEA" stroke-width="1.246" stroke-linecap="round" stroke-linejoin="round"/><path d="M304.244 111.328v.623a2.488 2.488 0 002.492 2.492 2.488 2.488 0 002.492-2.492v-.623" stroke="#8C9BEA" stroke-width="1.246" stroke-linecap="round" stroke-linejoin="round"/></g><path d="M91.5 90c0-6.351 5.149-11.5 11.5-11.5h243c6.351 0 11.5 5.149 11.5 11.5v508c0 11.322-9.178 20.5-20.5 20.5H112c-11.322 0-20.5-9.178-20.5-20.5V90z" stroke="#E6EEFF"/><path d="M91 78c0-12.728 0-19.092 3.954-23.046C98.908 51 105.272 51 118 51h220c9.428 0 14.142 0 17.071 2.929C358 56.858 358 61.572 358 71v7H91z" fill="#fff"/><rect x="206" y="62" width="25" height="5" rx="2.5" fill="#EAF1FE"/><rect x="239" y="62" width="5" height="5" rx="2.5" fill="#EAF1FE"/><defs><filter id="filter0_d" x="6" y="14" width="437" height="736" filterUnits="userSpaceOnUse" color-interpolation-filters="sRGB"><feFlood flood-opacity="0" result="BackgroundImageFix"/><feColorMatrix in="SourceAlpha" values="0 0 0 0 0 0 0 0 0 0 0 0 0 0 0 0 0 0 127 0"/><feMorphology radius="12" in="SourceAlpha" result="effect1_dropShadow"/><feOffset dy="44"/><feGaussianBlur stdDeviation="44.5"/><feColorMatrix values="0 0 0 0 0.243137 0 0 0 0 0.329412 0 0 0 0 0.847059 0 0 0 0.23 0"/><feBlend in2="BackgroundImageFix" result="effect1_dropShadow"/><feBlend in="SourceGraphic" in2="effect1_dropShadow" result="shape"/></filter><filter id="filter1_d" x="95.984" y="414.216" width="257.032" height="66.216" filterUnits="userSpaceOnUse" color-interpolation-filters="sRGB"><feFlood flood-opacity="0" result="BackgroundImageFix"/><feColorMatrix in="SourceAlpha" values="0 0 0 0 0 0 0 0 0 0 0 0 0 0 0 0 0 0 127 0"/><feMorphology radius="9.256" in="SourceAlpha" result="effect1_dropShadow"/><feOffset dy="12.816"/><feGaussianBlur stdDeviation="7.832"/><feColorMatrix values="0 0 0 0 0.243137 0 0 0 0 0.329412 0 0 0 0 0.847059 0 0 0 0.51 0"/><feBlend in2="BackgroundImageFix" result="effect1_dropShadow"/><feBlend in="SourceGraphic" in2="effect1_dropShadow" result="shape"/></filter><filter id="filter2_d" x="100.256" y="472.6" width="190.104" height="61.944" filterUnits="userSpaceOnUse" color-interpolation-filters="sRGB"><feFlood flood-opacity="0" result="BackgroundImageFix"/><feColorMatrix in="SourceAlpha" values="0 0 0 0 0 0 0 0 0 0 0 0 0 0 0 0 0 0 127 0"/><feMorphology radius="9.256" in="SourceAlpha" result="effect1_dropShadow"/><feOffset dy="12.816"/><feGaussianBlur stdDeviation="5.696"/><feColorMatrix values="0 0 0 0 0.243137 0 0 0 0 0.329412 0 0 0 0 0.847059 0 0 0 0.1 0"/><feBlend in2="BackgroundImageFix" result="effect1_dropShadow"/><feBlend in="SourceGraphic" in2="effect1_dropShadow" result="shape"/></filter><filter id="filter3_d" x="295.344" y="472.6" width="55.536" height="64.08" filterUnits="userSpaceOnUse" color-interpolation-filters="sRGB"><feFlood flood-opacity="0" result="BackgroundImageFix"/><feColorMatrix in="SourceAlpha" values="0 0 0 0 0 0 0 0 0 0 0 0 0 0 0 0 0 0 127 0"/><feMorphology radius="7.12" in="SourceAlpha" result="effect1_dropShadow"/><feOffset dy="12.816"/><feGaussianBlur stdDeviation="5.696"/><feColorMatrix values="0 0 0 0 0.243137 0 0 0 0 0.329412 0 0 0 0 0.847059 0 0 0 0.1 0"/><feBlend in2="BackgroundImageFix" result="effect1_dropShadow"/><feBlend in="SourceGraphic" in2="effect1_dropShadow" result="shape"/></filter><filter id="filter4_d" x="99.864" y="543" width="249.272" height="98.952" filterUnits="userSpaceOnUse" color-interpolation-filters="sRGB"><feFlood flood-opacity="0" result="BackgroundImageFix"/><feColorMatrix in="SourceAlpha" values="0 0 0 0 0 0 0 0 0 0 0 0 0 0 0 0 0 0 127 0"/><feMorphology radius="9.256" in="SourceAlpha" result="effect1_dropShadow"/><feOffset dy="12.816"/><feGaussianBlur stdDeviation="5.696"/><feColorMatrix values="0 0 0 0 0.243137 0 0 0 0 0.329412 0 0 0 0 0.847059 0 0 0 0.1 0"/><feBlend in2="BackgroundImageFix" result="effect1_dropShadow"/><feBlend in="SourceGraphic" in2="effect1_dropShadow" result="shape"/></filter><filter id="filter5_d" x="86.016" y="81" width="276.968" height="61.944" filterUnits="userSpaceOnUse" color-interpolation-filters="sRGB"><feFlood flood-opacity="0" result="BackgroundImageFix"/><feColorMatrix in="SourceAlpha" values="0 0 0 0 0 0 0 0 0 0 0 0 0 0 0 0 0 0 127 0"/><feMorphology radius="9.256" in="SourceAlpha" result="effect1_dropShadow"/><feOffset dy="7.12"/><feGaussianBlur stdDeviation="7.12"/><feColorMatrix values="0 0 0 0 0.243137 0 0 0 0 0.329412 0 0 0 0 0.847059 0 0 0 0.21 0"/><feBlend in2="BackgroundImageFix" result="effect1_dropShadow"/><feBlend in="SourceGraphic" in2="effect1_dropShadow" result="shape"/></filter><clipPath id="clip0"/><clipPath id="clip1"><path d="M102 555.816c0-7.078 5.738-12.816 12.816-12.816h219.368c7.078 0 12.816 5.738 12.816 12.816v58.368c0 7.078-5.738 12.816-12.816 12.816H114.816c-7.078 0-12.816-5.738-12.816-12.816v-58.368z" fill="#fff"/></clipPath><clipPath id="clip2"><path fill="#fff" transform="translate(318.128 577.248)" d="M0 0h7.12v7.12H0z"/></clipPath><clipPath id="clip3"><path fill="#fff" transform="translate(326.672 94.952)" d="M0 0h19.936v19.936H0z"/></clipPath><linearGradient id="paint0_linear" x1="224.5" y1="40.439" x2="224.5" y2="131" gradientUnits="userSpaceOnUse"><stop stop-color="#fff"/><stop offset="1" stop-color="#fff" stop-opacity="0"/></linearGradient></defs></svg>