<svg width="384" height="374" fill="none" xmlns="http://www.w3.org/2000/svg"><g filter="url(#filter0_d)"><rect x="72" y="28" width="240" height="230" rx="36" fill="#fff"/></g><path d="M146.315 53.341c.856 0 1.596.143 2.222.428.634.285 1.122.69 1.462 1.214.341.524.511 1.145.511 1.863 0 .708-.17 1.33-.511 1.863-.34.524-.828.929-1.462 1.214-.626.276-1.366.414-2.222.414h-1.946V63h-2.235v-9.659h4.181zm-.124 5.175c.671 0 1.182-.143 1.531-.428.35-.295.525-.709.525-1.242 0-.543-.175-.957-.525-1.242-.349-.294-.86-.441-1.531-.441h-1.822v3.353h1.822zm12.831.8a23 23 0 01-.042.58h-5.615c.101.46.34.823.717 1.09.377.266.846.4 1.407.4.387 0 .727-.056 1.022-.166.303-.12.584-.304.841-.552l1.146 1.242c-.7.8-1.721 1.2-3.064 1.2-.837 0-1.577-.16-2.221-.483a3.64 3.64 0 01-1.491-1.366c-.349-.58-.524-1.237-.524-1.973 0-.726.17-1.38.511-1.96a3.617 3.617 0 011.421-1.365 4.164 4.164 0 012.028-.497c.727 0 1.385.156 1.973.47a3.365 3.365 0 011.38 1.351c.341.58.511 1.256.511 2.029zm-3.85-2.222c-.487 0-.897.138-1.228.414-.331.276-.533.653-.607 1.132h3.657c-.074-.47-.276-.842-.608-1.118-.331-.285-.736-.428-1.214-.428zm11.447.249h-3.808V63h-2.139v-7.424h5.947v1.767zm1.141-1.767h2.139v4.416l3.615-4.416h1.973V63h-2.139v-4.416L169.747 63h-1.987v-7.424zm13.329 7.534c-.792 0-1.504-.16-2.139-.483a3.778 3.778 0 01-1.477-1.366c-.349-.58-.524-1.237-.524-1.973s.175-1.393.524-1.973c.359-.58.851-1.03 1.477-1.352.635-.331 1.347-.497 2.139-.497.781 0 1.462.166 2.042.497a2.866 2.866 0 011.283 1.393l-1.67.897c-.386-.68-.943-1.02-1.669-1.02-.561 0-1.026.183-1.394.551-.368.368-.552.87-.552 1.504 0 .635.184 1.136.552 1.504.368.368.833.552 1.394.552.736 0 1.292-.34 1.669-1.02l1.67.91a2.96 2.96 0 01-1.283 1.38c-.58.33-1.261.496-2.042.496zm10.843-5.767h-2.511V63h-2.139v-5.657h-2.511v-1.767h7.161v1.767zm5.522-1.877c.689 0 1.315.161 1.876.483a3.35 3.35 0 011.339 1.338c.322.57.483 1.238.483 2.001 0 .764-.161 1.435-.483 2.015a3.47 3.47 0 01-1.339 1.338 3.788 3.788 0 01-1.876.47c-.948 0-1.693-.3-2.236-.897v3.463h-2.152v-10.1h2.056v.855c.533-.644 1.31-.966 2.332-.966zm-.373 5.878c.552 0 1.003-.184 1.352-.552.359-.377.538-.878.538-1.504 0-.625-.179-1.122-.538-1.49-.349-.377-.8-.566-1.352-.566s-1.007.189-1.366.566c-.35.368-.524.865-.524 1.49 0 .626.174 1.127.524 1.504.359.368.814.552 1.366.552zm8.342-5.878c1.15 0 2.033.276 2.649.828.616.543.925 1.366.925 2.47V63h-2.015v-.925c-.405.69-1.159 1.035-2.263 1.035-.57 0-1.067-.096-1.49-.29a2.219 2.219 0 01-.952-.8 2.081 2.081 0 01-.331-1.159c0-.69.257-1.232.772-1.628.525-.395 1.33-.593 2.415-.593h1.711c0-.47-.143-.828-.428-1.077-.285-.257-.713-.386-1.283-.386-.395 0-.786.064-1.173.193-.377.12-.699.285-.966.497l-.772-1.504a4.66 4.66 0 011.448-.662 6.604 6.604 0 011.753-.235zm-.166 6.195c.368 0 .695-.082.98-.248.285-.175.487-.428.607-.759v-.759h-1.476c-.883 0-1.325.29-1.325.87a.8.8 0 00.317.662c.221.156.52.234.897.234zm13.971-.427v3.394h-2V63h-6.361v-7.424h2.138v5.658H216v-5.658h2.152v5.658h1.076zm1.354-5.658h2.139v4.416l3.615-4.416h1.973V63h-2.139v-4.416L222.569 63h-1.987v-7.424zm16.392 0V63h-1.918v-2.125h-1.587L232.062 63h-2.291l1.698-2.428c-.516-.203-.911-.493-1.187-.87-.267-.386-.4-.85-.4-1.393 0-.874.312-1.546.938-2.015.635-.478 1.504-.718 2.608-.718h3.546zm-3.505 1.753c-.46 0-.809.083-1.048.248-.23.166-.345.433-.345.8 0 .368.11.64.331.815.23.165.575.248 1.035.248h1.614v-2.111h-1.587z" fill="#3E54D8"/><g filter="url(#filter1_d)"><rect x="105.539" y="181.078" width="172.921" height="20.023" rx="2.427" fill="#3E54D8"/><path d="M164.207 190.759c.229.073.408.191.535.355a.87.87 0 01.197.568c0 .229-.075.43-.224.601-.15.167-.35.297-.601.388a2.345 2.345 0 01-.814.136c-.255 0-.511-.035-.77-.104a2.636 2.636 0 01-.71-.322l.23-.519c.167.113.353.201.557.262.204.059.406.088.606.088.288 0 .526-.057.715-.169.193-.113.29-.268.29-.465a.424.424 0 00-.208-.382c-.138-.087-.329-.131-.573-.131h-.89v-.557h.835c.211 0 .377-.044.497-.131a.416.416 0 00.18-.355.461.461 0 00-.245-.415c-.161-.098-.366-.147-.617-.147-.172 0-.348.025-.53.076a1.959 1.959 0 00-.513.213l-.224-.573a2.5 2.5 0 01.622-.235c.222-.055.443-.082.661-.082.284 0 .544.044.781.131.24.087.431.213.573.377.142.16.213.349.213.568a.83.83 0 01-.153.497.974.974 0 01-.42.327zm2.547-.955c.429 0 .757.103.983.311.229.204.344.513.344.928v1.709h-.645v-.355a.802.802 0 01-.36.295 1.405 1.405 0 01-.557.099c-.219 0-.41-.037-.573-.11a.93.93 0 01-.383-.311.819.819 0 01-.131-.453c0-.262.097-.471.29-.628.196-.16.504-.24.923-.24h.753v-.044c0-.204-.062-.36-.186-.47-.12-.109-.3-.163-.54-.163a1.59 1.59 0 00-.486.076c-.157.051-.29.122-.399.213l-.267-.497c.153-.116.336-.206.551-.267a2.45 2.45 0 01.683-.093zm-.093 2.49a.877.877 0 00.453-.115.65.65 0 00.284-.338v-.339h-.704c-.394 0-.59.129-.59.388a.35.35 0 00.147.295c.099.072.235.109.41.109zm3.881-2.49c.284 0 .537.062.759.185.225.124.402.299.529.525.128.225.192.486.192.78 0 .295-.064.557-.192.787a1.34 1.34 0 01-.529.524 1.53 1.53 0 01-.759.186c-.393 0-.705-.131-.934-.394v1.415h-.683v-3.976h.65v.383c.113-.139.251-.242.415-.312.168-.069.351-.103.552-.103zm-.077 2.402a.814.814 0 00.617-.251c.164-.167.246-.388.246-.661s-.082-.493-.246-.66a.814.814 0 00-.617-.251.864.864 0 00-.442.114.791.791 0 00-.311.317.969.969 0 00-.115.48c0 .182.038.343.115.481.076.138.18.246.311.322a.891.891 0 00.442.109zm4.966-.895c0 .047-.003.114-.011.202h-2.288c.04.215.144.386.312.513.171.124.382.186.633.186.32 0 .584-.106.792-.317l.366.421a1.248 1.248 0 01-.497.355c-.201.08-.426.12-.677.12-.321 0-.603-.064-.847-.191a1.405 1.405 0 01-.568-.53 1.535 1.535 0 01-.196-.776c0-.284.063-.538.191-.764.131-.229.311-.408.54-.535.23-.128.488-.191.776-.191.284 0 .537.063.759.191.226.124.4.3.524.529.127.226.191.488.191.787zm-1.474-.961a.826.826 0 00-.557.196.814.814 0 00-.273.514h1.654a.804.804 0 00-.267-.514.813.813 0 00-.557-.196zm4.46.065h-1.557v2.337h-.682v-2.916h2.239v.579zm.496-.579h.683v1.923l1.611-1.923h.622v2.916h-.682v-1.922l-1.606 1.922h-.628v-2.916zm5.162 2.955c-.303 0-.574-.064-.814-.191a1.408 1.408 0 01-.562-.53 1.5 1.5 0 01-.203-.776c0-.287.068-.544.203-.77.134-.225.32-.402.556-.529a1.72 1.72 0 01.82-.191c.287 0 .538.058.753.174.219.117.382.284.492.503l-.525.306a.805.805 0 00-.316-.301.83.83 0 00-.41-.103.855.855 0 00-.633.251c-.168.164-.251.384-.251.66 0 .277.081.499.245.667a.88.88 0 00.639.245.86.86 0 00.41-.098.84.84 0 00.316-.306l.525.306a1.194 1.194 0 01-.497.508 1.55 1.55 0 01-.748.175zm4.129-2.376h-1.021v2.337h-.683v-2.337h-1.027v-.579h2.731v.579zm2.111-.611c.284 0 .537.062.759.185.226.124.403.299.53.525.127.225.191.486.191.78a1.6 1.6 0 01-.191.787c-.127.225-.304.4-.53.524a1.53 1.53 0 01-.759.186c-.393 0-.704-.131-.933-.394v1.415h-.683v-3.976h.65v.383c.113-.139.251-.242.415-.312a1.43 1.43 0 01.551-.103zm-.076 2.402a.814.814 0 00.617-.251c.164-.167.246-.388.246-.661s-.082-.493-.246-.66a.814.814 0 00-.617-.251.864.864 0 00-.442.114.793.793 0 00-.312.317.979.979 0 00-.114.48c0 .182.038.343.114.481.077.138.18.246.312.322a.891.891 0 00.442.109zm2.235-2.37h.683v1.923l1.611-1.923h.622v2.916h-.682v-1.922l-1.606 1.922h-.628v-2.916zm5.451-.032c.284 0 .537.062.759.185.226.124.402.299.53.525.127.225.191.486.191.78a1.6 1.6 0 01-.191.787c-.128.225-.304.4-.53.524a1.53 1.53 0 01-.759.186c-.393 0-.704-.131-.934-.394v1.415h-.682v-3.976h.65v.383c.112-.139.251-.242.415-.312a1.43 1.43 0 01.551-.103zm-.076 2.402a.816.816 0 00.617-.251c.163-.167.245-.388.245-.661s-.082-.493-.245-.66a.816.816 0 00-.617-.251.867.867 0 00-.443.114.791.791 0 00-.311.317.98.98 0 00-.115.48c0 .182.039.343.115.481.076.138.18.246.311.322a.895.895 0 00.443.109zm3.535.585c-.295 0-.561-.064-.797-.191a1.414 1.414 0 01-.557-.53 1.536 1.536 0 01-.197-.776c0-.287.066-.544.197-.77.134-.225.32-.402.557-.529.236-.128.502-.191.797-.191.298 0 .566.063.803.191.236.127.42.304.551.529.135.226.202.483.202.77a1.5 1.5 0 01-.202.776 1.385 1.385 0 01-.551.53 1.674 1.674 0 01-.803.191zm0-.585a.83.83 0 00.622-.251c.164-.167.246-.388.246-.661s-.082-.493-.246-.66a.83.83 0 00-.622-.251.833.833 0 00-.623.251c-.16.167-.24.387-.24.66s.08.494.24.661a.833.833 0 00.623.251zm4.344-.972c.36.11.54.343.54.699 0 .262-.098.464-.295.606-.196.142-.487.213-.873.213h-1.486v-2.916h1.426c.356 0 .635.066.835.197a.63.63 0 01.301.557.64.64 0 01-.121.388.753.753 0 01-.327.256zm-1.464-.18h.716c.353 0 .529-.122.529-.366 0-.236-.176-.355-.529-.355h-.716v.721zm.781 1.202c.375 0 .563-.122.563-.366 0-.128-.044-.222-.131-.284-.088-.066-.224-.099-.41-.099h-.803v.749h.781zm3.037-2.452c.43 0 .757.103.983.311.229.204.344.513.344.928v1.709h-.644v-.355a.805.805 0 01-.361.295 1.401 1.401 0 01-.557.099c-.218 0-.409-.037-.573-.11a.927.927 0 01-.382-.311.81.81 0 01-.131-.453c0-.262.096-.471.289-.628.197-.16.504-.24.923-.24h.753v-.044c0-.204-.061-.36-.185-.47-.12-.109-.301-.163-.541-.163a1.59 1.59 0 00-.486.076 1.192 1.192 0 00-.398.213l-.268-.497c.153-.116.337-.206.551-.267.215-.062.443-.093.683-.093zm-.093 2.49a.877.877 0 00.453-.115.645.645 0 00.284-.338v-.339h-.704c-.393 0-.59.129-.59.388 0 .123.049.222.148.295.098.072.234.109.409.109zm4.575-1.879h-1.022v2.337h-.682v-2.337h-1.027v-.579h2.731v.579zm1.958.383c.371 0 .655.083.852.251.2.167.3.404.3.71 0 .32-.109.568-.327.742-.219.175-.526.261-.923.257l-1.365-.006v-2.916h.682v.956l.781.006zm-.158 1.458c.2.003.353-.039.458-.126.106-.087.159-.215.159-.382 0-.164-.051-.284-.153-.361-.102-.076-.257-.116-.464-.12l-.623-.005v.988l.623.006zm3.237.535c-.302 0-.573-.064-.813-.191a1.41 1.41 0 01-.563-.53 1.5 1.5 0 01-.202-.776c0-.287.067-.544.202-.77.135-.225.32-.402.557-.529.24-.128.513-.191.819-.191.288 0 .539.058.754.174.218.117.382.284.491.503l-.524.306a.807.807 0 00-.317-.301.823.823 0 00-.409-.103.858.858 0 00-.634.251c-.167.164-.251.384-.251.66 0 .277.082.499.246.667.167.163.38.245.639.245a.852.852 0 00.409-.098.843.843 0 00.317-.306l.524.306a1.188 1.188 0 01-.497.508 1.548 1.548 0 01-.748.175zm4.229-2.955v2.916h-.612v-.879h-.77l-.595.879h-.731l.688-.972a.978.978 0 01-.486-.333.936.936 0 01-.164-.562c0-.335.118-.594.355-.776.236-.182.562-.273.977-.273h1.338zm-1.316.574c-.441 0-.661.165-.661.497 0 .327.213.491.639.491h.726v-.988h-.704z" fill="#fff"/></g><path d="M141.119 212.987l-1.699 3.15a1.532 1.532 0 01-.475.563c-.182.124-.38.186-.595.186-.167 0-.338-.039-.513-.115l.142-.437c.135.047.255.071.36.071.24 0 .439-.127.595-.382l.088-.137-1.54-2.899h.584l1.24 2.424 1.272-2.424h.541zm3.01 2.599h-.563v1.223h-.524v-1.223h-.562l-.798 1.223h-.622l.994-1.496-.918-1.398h.557l.781 1.223h.568v-1.223h.524v1.223h.568l.781-1.223h.562l-.917 1.403.994 1.491h-.623l-.802-1.223zm4.521-.208c0 .04-.003.093-.011.159h-2.348c.033.255.144.46.333.617.193.153.432.229.716.229.346 0 .624-.116.835-.349l.29.338c-.131.153-.295.27-.492.35a1.68 1.68 0 01-.65.12c-.305 0-.577-.062-.813-.186a1.375 1.375 0 01-.552-.53 1.528 1.528 0 01-.191-.764c0-.28.062-.533.186-.759.127-.226.3-.4.519-.524.222-.128.471-.191.748-.191.276 0 .522.063.737.191.218.124.388.298.508.524.124.226.185.484.185.775zm-1.43-1.048a.917.917 0 00-.634.229.937.937 0 00-.295.601h1.857a.913.913 0 00-.3-.595.883.883 0 00-.628-.235zm6.326 1.048c0 .04-.004.093-.011.159h-2.348c.033.255.144.46.333.617.193.153.431.229.715.229.346 0 .625-.116.836-.349l.289.338c-.131.153-.295.27-.491.35-.193.08-.41.12-.65.12a1.73 1.73 0 01-.814-.186 1.379 1.379 0 01-.551-.53 1.518 1.518 0 01-.191-.764c0-.28.061-.533.185-.759.128-.226.301-.4.519-.524.222-.128.471-.191.748-.191s.523.063.737.191c.219.124.388.298.508.524.124.226.186.484.186.775zm-1.431-1.048a.914.914 0 00-.633.229.927.927 0 00-.295.601h1.856a.913.913 0 00-.3-.595.882.882 0 00-.628-.235zm3.505 2.512c-.294 0-.558-.064-.791-.191a1.407 1.407 0 01-.541-.525 1.491 1.491 0 01-.197-.764c0-.284.066-.537.197-.759.131-.226.311-.4.541-.524.233-.128.497-.191.791-.191.263 0 .496.052.699.158.208.106.368.258.481.459l-.399.256a.895.895 0 00-.786-.415c-.189 0-.36.042-.513.126a.91.91 0 00-.355.36c-.084.153-.126.33-.126.53 0 .204.042.384.126.541a.918.918 0 00.355.355c.153.083.324.125.513.125a.895.895 0 00.786-.415l.399.251a1.151 1.151 0 01-.481.464 1.488 1.488 0 01-.699.159zm3.978-2.468h-1.059v2.435h-.524v-2.435h-1.06v-.459h2.643v.459zm1.874.524c.368.003.648.087.841.251.193.164.29.395.29.694 0 .313-.106.555-.317.726-.208.167-.506.249-.896.246l-1.256-.006v-2.894h.525v.977l.813.006zm-.125 1.518c.236.004.415-.044.535-.142.124-.098.185-.244.185-.437 0-.189-.06-.328-.18-.415-.116-.087-.296-.133-.54-.136l-.688-.011v1.135l.688.006zm4.427-2.528c.4 0 .706.098.917.294.215.197.322.49.322.88v1.747h-.496v-.382a.845.845 0 01-.377.311c-.16.069-.352.104-.574.104-.324 0-.584-.078-.781-.235a.759.759 0 01-.289-.617c0-.255.093-.459.279-.612.185-.156.48-.234.884-.234h.83v-.104c0-.226-.065-.399-.196-.519s-.324-.18-.579-.18a1.5 1.5 0 00-.503.087 1.267 1.267 0 00-.415.224l-.218-.393c.149-.12.328-.211.535-.273a2.17 2.17 0 01.661-.098zm-.12 2.55a.99.99 0 00.518-.131.777.777 0 00.317-.383v-.404h-.808c-.444 0-.666.15-.666.448 0 .146.056.26.169.344.113.084.27.126.47.126zm3.428-.852h-.6v1.223h-.525v-2.894h.525v1.223h.611l.939-1.223h.563l-1.098 1.392 1.174 1.502h-.617l-.972-1.223zm3.264 0h-.601v1.223h-.524v-2.894h.524v1.223h.612l.939-1.223h.563l-1.098 1.392 1.174 1.502h-.617l-.972-1.223zm3.117-1.698c.401 0 .707.098.918.294.215.197.322.49.322.88v1.747h-.497v-.382a.84.84 0 01-.377.311c-.16.069-.351.104-.573.104-.324 0-.584-.078-.781-.235a.756.756 0 01-.289-.617c0-.255.092-.459.278-.612.186-.156.481-.234.885-.234h.83v-.104c0-.226-.066-.399-.197-.519s-.324-.18-.579-.18c-.171 0-.338.029-.502.087a1.257 1.257 0 00-.415.224l-.219-.393c.15-.12.328-.211.536-.273a2.16 2.16 0 01.66-.098zm-.12 2.55c.2 0 .373-.044.519-.131a.782.782 0 00.317-.383v-.404h-.808c-.445 0-.667.15-.667.448 0 .146.057.26.17.344.112.084.269.126.469.126zm4.887-2.523l-1.404 3.183c-.123.295-.269.503-.436.623a.982.982 0 01-.596.18c-.142 0-.28-.023-.415-.071a.813.813 0 01-.327-.196l.224-.394a.729.729 0 00.518.213.481.481 0 00.317-.103c.087-.066.166-.181.235-.344l.093-.202-1.278-2.889h.546l1.01 2.315 1-2.315h.513zm.537 0h.524v1.229h1.649v-1.229h.524v2.894h-.524v-1.212h-1.649v1.212h-.524v-2.894zm5.873.459h-1.059v2.435h-.524v-2.435h-1.06v-.459h2.643v.459zm1.274 1.228a.944.944 0 01.251-.666c.073-.076.167-.167.284-.273.145-.127.253-.237.322-.328a.556.556 0 00.104-.338.505.505 0 00-.208-.426c-.138-.109-.329-.164-.573-.164-.426 0-.752.144-.978.431l-.398-.283c.153-.197.347-.348.584-.454.24-.105.517-.158.83-.158.397 0 .712.087.945.262a.832.832 0 01.349.71 1.029 1.029 0 01-.251.683 4.344 4.344 0 01-.278.273 2.34 2.34 0 00-.334.354.658.658 0 00-.103.377h-.546zm.278 1.24a.363.363 0 01-.257-.098.356.356 0 01-.098-.252.348.348 0 01.355-.349c.102 0 .186.034.251.104a.33.33 0 01.099.245.345.345 0 01-.35.35z" fill="#373943"/><path d="M194.377 215.924h-1.911l-.377.885h-.732l1.72-3.822h.699l1.726 3.822h-.743l-.382-.885zm-.235-.557l-.721-1.671-.715 1.671h1.436zm3.983-.076c.36.109.54.342.54.699 0 .262-.098.464-.294.606-.197.142-.488.213-.874.213h-1.485v-2.916h1.425c.357 0 .635.066.835.197.2.131.301.316.301.557a.63.63 0 01-.121.387.748.748 0 01-.327.257zm-1.464-.18h.716c.353 0 .529-.122.529-.366 0-.237-.176-.355-.529-.355h-.716v.721zm.781 1.201c.375 0 .563-.122.563-.366 0-.127-.044-.222-.131-.284-.088-.065-.224-.098-.41-.098h-.803v.748h.781zm4.26-1.84h-1.021v2.337h-.682v-2.337h-1.027v-.579h2.73v.579zm1.667 2.375c-.295 0-.561-.063-.797-.191a1.414 1.414 0 01-.557-.53 1.532 1.532 0 01-.197-.775c0-.288.066-.544.197-.77a1.42 1.42 0 01.557-.53c.236-.127.502-.191.797-.191.299 0 .566.064.803.191.236.128.42.304.551.53.135.226.202.482.202.77 0 .288-.067.546-.202.775a1.379 1.379 0 01-.551.53 1.66 1.66 0 01-.803.191zm0-.584a.837.837 0 00.623-.251c.163-.168.245-.388.245-.661s-.082-.493-.245-.661a.837.837 0 00-.623-.251.833.833 0 00-.622.251c-.161.168-.241.388-.241.661s.08.493.241.661a.833.833 0 00.622.251zm3.847-2.403c.284 0 .537.062.759.186.226.124.402.298.53.524.127.226.191.486.191.781 0 .295-.064.557-.191.786a1.338 1.338 0 01-.53.525 1.54 1.54 0 01-.759.185c-.393 0-.704-.131-.934-.393v1.414h-.682v-3.975h.65v.382c.112-.138.251-.242.415-.311a1.43 1.43 0 01.551-.104zm-.076 2.403a.818.818 0 00.617-.251c.164-.168.245-.388.245-.661s-.081-.493-.245-.661a.818.818 0 00-.617-.251.858.858 0 00-.443.115.791.791 0 00-.311.317.98.98 0 00-.115.48c0 .182.039.342.115.481.077.138.18.245.311.322a.895.895 0 00.443.109zm2.235-2.37h.683v1.922l1.611-1.922h.622v2.916h-.682v-1.922l-1.606 1.922h-.628v-2.916zm5.539 1.398a.83.83 0 01.421.251c.101.113.152.25.152.41 0 .178-.06.336-.18.475-.12.135-.286.24-.497.317a2.117 2.117 0 01-.72.114c-.226 0-.446-.025-.661-.076a2.378 2.378 0 01-.585-.23l.197-.507c.142.08.302.142.481.185.178.044.356.066.535.066.229 0 .407-.035.535-.104.131-.073.196-.171.196-.295a.29.29 0 00-.152-.262c-.099-.062-.239-.093-.421-.093h-.568v-.458h.514c.171 0 .303-.03.398-.088a.273.273 0 00.148-.246c0-.105-.059-.189-.175-.251-.117-.062-.277-.093-.481-.093-.291 0-.599.071-.923.213l-.174-.502a2.718 2.718 0 011.157-.268c.248 0 .47.035.667.104.196.066.349.16.458.284a.603.603 0 01.038.797.855.855 0 01-.36.257zm1.282-1.398h.682v1.922l1.611-1.922h.623v2.916h-.683v-1.922l-1.605 1.922h-.628v-2.916zm5.45-.033c.284 0 .537.062.759.186.226.124.403.298.53.524.127.226.191.486.191.781 0 .295-.064.557-.191.786a1.332 1.332 0 01-.53.525 1.54 1.54 0 01-.759.185c-.393 0-.704-.131-.933-.393v1.414h-.683v-3.975h.65v.382a1.06 1.06 0 01.415-.311 1.43 1.43 0 01.551-.104zm-.076 2.403a.818.818 0 00.617-.251c.164-.168.246-.388.246-.661s-.082-.493-.246-.661a.818.818 0 00-.617-.251.855.855 0 00-.754.432.979.979 0 00-.114.48c0 .182.038.342.114.481a.84.84 0 00.312.322.891.891 0 00.442.109zm3.535.584c-.295 0-.56-.063-.797-.191a1.414 1.414 0 01-.557-.53 1.532 1.532 0 01-.197-.775c0-.288.066-.544.197-.77a1.42 1.42 0 01.557-.53c.237-.127.502-.191.797-.191.299 0 .566.064.803.191.237.128.42.304.551.53.135.226.202.482.202.77 0 .288-.067.546-.202.775a1.372 1.372 0 01-.551.53 1.66 1.66 0 01-.803.191zm0-.584a.837.837 0 00.623-.251c.163-.168.245-.388.245-.661s-.082-.493-.245-.661a.837.837 0 00-.623-.251.833.833 0 00-.622.251c-.161.168-.241.388-.241.661s.08.493.241.661a.833.833 0 00.622.251zm4.344-.972c.36.109.541.342.541.699a.704.704 0 01-.295.606c-.197.142-.488.213-.874.213h-1.485v-2.916h1.425c.357 0 .635.066.835.197a.626.626 0 01.301.557c0 .149-.04.278-.12.387a.757.757 0 01-.328.257zm-1.463-.18h.715c.353 0 .53-.122.53-.366 0-.237-.177-.355-.53-.355h-.715v.721zm.78 1.201c.375 0 .563-.122.563-.366 0-.127-.044-.222-.131-.284-.088-.065-.224-.098-.41-.098h-.802v.748h.78zm3.037-2.452c.43 0 .758.104.983.312.23.203.344.513.344.928v1.709h-.644v-.355a.808.808 0 01-.36.295 1.406 1.406 0 01-.557.098 1.4 1.4 0 01-.574-.109.927.927 0 01-.382-.311.819.819 0 01-.131-.453c0-.263.096-.472.289-.628.197-.161.504-.241.923-.241h.754v-.043c0-.204-.062-.361-.186-.47-.12-.109-.3-.164-.541-.164-.163 0-.325.026-.486.077a1.192 1.192 0 00-.398.213l-.268-.497c.153-.117.337-.206.552-.268.215-.062.442-.093.682-.093zm-.092 2.49a.886.886 0 00.453-.114.653.653 0 00.284-.339v-.338h-.705c-.393 0-.589.129-.589.387 0 .124.049.222.147.295.098.073.235.109.41.109zm4.574-1.878h-1.021v2.337h-.683v-2.337h-1.027v-.579h2.731v.579zm1.958.382c.372 0 .656.084.852.251.201.168.301.404.301.71 0 .321-.11.568-.328.743-.218.175-.526.26-.923.257l-1.365-.006v-2.916h.683v.956l.78.005zm-.158 1.458c.2.004.353-.038.459-.125.105-.088.158-.215.158-.383 0-.164-.051-.284-.153-.36-.102-.077-.256-.117-.464-.12l-.622-.006v.989l.622.005zm3.238.535c-.303 0-.574-.063-.814-.191a1.41 1.41 0 01-.563-.53 1.506 1.506 0 01-.202-.775 1.428 1.428 0 01.759-1.3c.241-.127.514-.191.82-.191.287 0 .538.059.753.175.219.117.382.284.492.502l-.525.306a.802.802 0 00-.316-.3.83.83 0 00-.41-.104.858.858 0 00-.633.251c-.168.164-.252.384-.252.661s.082.499.246.666a.877.877 0 00.639.246.87.87 0 00.41-.098.84.84 0 00.316-.306l.525.306a1.205 1.205 0 01-.497.508 1.553 1.553 0 01-.748.174zm4.228-2.954v2.916h-.611v-.879h-.77l-.595.879h-.732l.688-.972a1 1 0 01-.486-.333.943.943 0 01-.164-.562c0-.335.118-.594.355-.776.237-.182.562-.273.977-.273h1.338zm-1.316.573c-.44 0-.66.166-.66.497 0 .328.212.492.638.492h.727v-.989h-.705z" fill="#3E54D8"/><rect x="105.691" y="85.971" width="172.618" height="16.685" rx="2.882" fill="#FCFDFF"/><path d="M115.853 93.792c.251.055.444.164.579.328.138.16.207.367.207.622 0 .328-.122.58-.366.76-.24.174-.597.261-1.07.261h-1.758v-3.822h1.649c.426 0 .755.085.988.256.237.171.355.414.355.727a.916.916 0 01-.158.54.923.923 0 01-.426.328zm-2.004-1.518v1.387h1.218c.309 0 .547-.058.715-.175a.6.6 0 00.251-.519c0-.225-.084-.397-.251-.513-.168-.12-.406-.18-.715-.18h-1.218zm1.349 3.156c.342 0 .6-.058.775-.175.175-.116.262-.298.262-.546 0-.477-.346-.715-1.037-.715h-1.349v1.436h1.349zm4.783-.983h-2.403c.022.299.137.54.344.726.208.183.47.273.786.273.179 0 .343-.03.492-.092.149-.066.278-.16.388-.284l.218.25c-.127.154-.288.27-.481.35-.189.08-.398.12-.628.12a1.63 1.63 0 01-.786-.185 1.385 1.385 0 01-.53-.524 1.491 1.491 0 01-.191-.754c0-.28.06-.531.18-.754a1.354 1.354 0 011.224-.704c.265 0 .504.062.715.186.211.123.377.296.497.518.12.219.18.47.18.754l-.005.12zm-1.387-1.245a.98.98 0 00-.699.268 1.032 1.032 0 00-.317.688h2.037a1.027 1.027 0 00-.322-.688.97.97 0 00-.699-.268zm3.106-.333c.375 0 .663.095.863.284.2.186.3.462.3.83v1.78h-.371v-.448a.885.885 0 01-.388.35 1.329 1.329 0 01-.6.125c-.321 0-.576-.076-.765-.229a.741.741 0 01-.284-.606c0-.244.087-.44.262-.59.179-.149.461-.224.847-.224h.912v-.174c0-.248-.07-.435-.208-.563-.138-.13-.34-.196-.606-.196-.182 0-.357.03-.524.092-.168.059-.312.14-.432.246l-.174-.29c.145-.123.32-.218.524-.283.204-.07.418-.104.644-.104zm-.136 2.616c.218 0 .405-.05.562-.148a.914.914 0 00.35-.437v-.47h-.902c-.491 0-.737.172-.737.514 0 .168.064.3.191.399.128.094.306.142.536.142zm3.865.103a.765.765 0 01-.273.153 1.12 1.12 0 01-.333.05c-.27 0-.477-.073-.623-.219-.145-.146-.218-.351-.218-.617v-1.736h-.514v-.328h.514v-.628h.388v.628h.873v.328h-.873v1.714c0 .171.041.302.125.393.087.088.211.131.371.131a.692.692 0 00.23-.038.568.568 0 00.196-.11l.137.28zm2.999-3.68c.488 0 .923.102 1.305.306.386.2.686.484.901.852.215.364.322.78.322 1.25 0 .462-.08.825-.24 1.087-.16.258-.382.387-.666.387a.615.615 0 01-.437-.158.635.635 0 01-.18-.437c-.109.19-.259.337-.448.443a1.336 1.336 0 01-.644.152c-.255 0-.486-.06-.694-.18a1.356 1.356 0 01-.486-.508 1.503 1.503 0 01-.174-.726c0-.27.058-.51.174-.72.12-.215.282-.383.486-.503.208-.12.439-.18.694-.18.233 0 .442.05.628.153.189.098.34.238.453.42v-.551h.355v2.07c0 .145.031.25.093.316a.322.322 0 00.245.098c.172 0 .306-.102.405-.306.102-.203.152-.487.152-.851a2.15 2.15 0 00-.283-1.114 1.95 1.95 0 00-.798-.754 2.455 2.455 0 00-1.163-.268c-.44 0-.832.093-1.174.279-.338.182-.602.44-.792.775-.189.332-.284.71-.284 1.136 0 .426.093.806.279 1.141.189.335.451.596.786.781a2.38 2.38 0 001.163.279c.171 0 .35-.02.535-.06.19-.04.361-.1.514-.18l.093.267c-.157.08-.339.142-.546.186a2.844 2.844 0 01-.596.065 2.68 2.68 0 01-1.316-.316 2.286 2.286 0 01-.895-.88 2.59 2.59 0 01-.317-1.283c0-.48.107-.906.322-1.278.215-.375.515-.666.901-.873a2.74 2.74 0 011.327-.317zm-.038 3.566a.99.99 0 00.901-.519c.091-.168.136-.36.136-.579a1.15 1.15 0 00-.136-.568.942.942 0 00-.371-.382 1.036 1.036 0 00-.53-.136.99.99 0 00-.912.519 1.193 1.193 0 00-.131.567c0 .215.044.406.131.573.091.164.215.294.371.388.16.091.341.137.541.137zm6.046-2.583v2.523c0 .487-.12.848-.36 1.08-.237.237-.596.356-1.076.356-.266 0-.519-.04-.759-.12a1.523 1.523 0 01-.579-.323l.197-.294c.138.123.305.22.502.29.2.068.409.103.628.103.364 0 .632-.086.803-.257.171-.167.256-.43.256-.786v-.366c-.12.182-.278.32-.475.415a1.444 1.444 0 01-.644.142 1.56 1.56 0 01-.737-.175 1.354 1.354 0 01-.519-.497 1.426 1.426 0 01-.186-.726 1.315 1.315 0 01.705-1.212 1.54 1.54 0 01.737-.175c.244 0 .464.05.661.147.196.099.355.24.475.426v-.551h.371zm-1.469 2.419a1.2 1.2 0 00.563-.131.967.967 0 00.387-.377 1.05 1.05 0 00.142-.546c0-.204-.047-.384-.142-.54a.932.932 0 00-.387-.372 1.142 1.142 0 00-.563-.136 1.2 1.2 0 00-.562.13.978.978 0 00-.388.372c-.091.16-.137.342-.137.546 0 .204.046.386.137.546.095.16.224.286.388.377a1.2 1.2 0 00.562.13zm6.135-2.441c.361 0 .643.104.847.311.207.208.311.514.311.918v1.665h-.388v-1.627c0-.299-.072-.526-.218-.683-.142-.156-.344-.234-.606-.234-.299 0-.534.092-.705.278-.171.182-.256.435-.256.759v1.507h-.388v-1.627c0-.299-.073-.526-.218-.683-.142-.156-.346-.234-.612-.234-.295 0-.53.092-.704.278-.172.182-.257.435-.257.759v1.507h-.388v-2.872h.372v.524c.101-.175.243-.31.425-.404a1.34 1.34 0 01.628-.142c.241 0 .448.051.623.153a.942.942 0 01.399.453 1.1 1.1 0 01.453-.442c.2-.11.428-.164.682-.164zm3.214 0c.375 0 .663.095.863.284.2.186.3.462.3.83v1.78h-.371v-.448a.885.885 0 01-.388.35 1.326 1.326 0 01-.6.125c-.321 0-.576-.076-.765-.229a.741.741 0 01-.284-.606.74.74 0 01.262-.59c.179-.149.461-.224.847-.224h.912v-.174c0-.248-.069-.435-.208-.563-.138-.13-.34-.196-.606-.196-.182 0-.357.03-.524.092-.168.059-.311.14-.432.246l-.174-.29c.145-.123.32-.218.524-.283.204-.07.419-.104.644-.104zm-.136 2.616c.218 0 .406-.05.562-.148a.914.914 0 00.35-.437v-.47h-.901c-.492 0-.738.172-.738.514 0 .168.064.3.192.399.127.094.305.142.535.142zm2.352-2.594h.388v2.872h-.388v-2.872zm.197-.628a.275.275 0 01-.202-.082.267.267 0 01-.082-.197.26.26 0 01.082-.19.275.275 0 01.202-.083c.08 0 .147.028.202.082a.244.244 0 01.082.186c0 .08-.027.147-.082.202a.275.275 0 01-.202.082zm1.27-.552h.388v4.052h-.388v-4.052zm1.505 4.08c-.08 0-.15-.03-.208-.088a.303.303 0 01-.082-.213c0-.084.028-.153.082-.207a.284.284 0 01.208-.088c.08 0 .149.03.207.088a.274.274 0 01.088.207.29.29 0 01-.088.213.282.282 0 01-.207.087zm2.229 0a1.56 1.56 0 01-.764-.186 1.355 1.355 0 01-.525-.519 1.521 1.521 0 01-.191-.759c0-.28.064-.531.191-.754.128-.222.302-.394.525-.518a1.56 1.56 0 01.764-.186c.248 0 .468.05.661.147.196.095.351.235.464.42l-.289.197a.886.886 0 00-.361-.316 1.046 1.046 0 00-.475-.11 1.12 1.12 0 00-.562.143.985.985 0 00-.388.393 1.225 1.225 0 00-.137.584c0 .222.046.419.137.59.095.167.224.298.388.393.167.091.355.136.562.136.171 0 .33-.034.475-.103a.886.886 0 00.361-.317l.289.197a1.12 1.12 0 01-.464.425 1.505 1.505 0 01-.661.142zm3.013 0c-.277 0-.526-.062-.748-.186a1.393 1.393 0 01-.525-.524 1.491 1.491 0 01-.191-.754c0-.28.064-.531.191-.754.128-.222.302-.394.525-.518.222-.124.471-.186.748-.186.276 0 .526.062.748.186.222.123.395.296.519.518.127.223.191.474.191.754s-.064.532-.191.754a1.357 1.357 0 01-.519.524 1.511 1.511 0 01-.748.185zm0-.344c.204 0 .386-.046.546-.137a.982.982 0 00.382-.399c.091-.17.136-.365.136-.584 0-.218-.045-.413-.136-.584a.946.946 0 00-.382-.393 1.051 1.051 0 00-.546-.142 1.08 1.08 0 00-.552.142.997.997 0 00-.382.393 1.225 1.225 0 00-.137.584c0 .219.046.413.137.584.095.171.222.304.382.399.164.091.348.136.552.136zm5.831-2.578c.361 0 .643.104.847.311.207.208.311.514.311.918v1.665h-.388v-1.627c0-.299-.072-.526-.218-.683-.142-.156-.344-.234-.606-.234-.299 0-.534.092-.705.278-.171.182-.256.435-.256.759v1.507h-.388v-1.627c0-.299-.073-.526-.218-.683-.142-.156-.346-.234-.612-.234-.295 0-.53.092-.704.278-.172.182-.257.435-.257.759v1.507h-.388v-2.872h.372v.524c.101-.175.243-.31.425-.404a1.34 1.34 0 01.628-.142c.241 0 .448.051.623.153a.942.942 0 01.399.453 1.1 1.1 0 01.453-.442c.2-.11.428-.164.682-.164z" fill="#929398"/><rect x="105.691" y="85.971" width="172.618" height="16.685" rx="2.882" stroke="#D3E3FF" stroke-width=".303"/><rect x="105.691" y="120.252" width="172.618" height="16.685" rx="2.882" fill="#FCFDFF"/><path d="M114.133 127.891l.677.382-.126.229-.682-.398v.775h-.251l.005-.775-.683.398-.131-.229.683-.382-.683-.383.131-.234.683.404-.005-.776h.251v.776l.682-.404.126.234-.677.383zm2.377 0l.677.382-.126.229-.682-.398v.775h-.252l.006-.775-.683.398-.131-.229.683-.382-.683-.383.131-.234.683.404-.006-.776h.252v.776l.682-.404.126.234-.677.383zm2.377 0l.677.382-.126.229-.682-.398v.775h-.252l.006-.775-.683.398-.131-.229.683-.382-.683-.383.131-.234.683.404-.006-.776h.252v.776l.682-.404.126.234-.677.383zm2.376 0l.678.382-.126.229-.683-.398v.775h-.251l.006-.775-.683.398-.131-.229.683-.382-.683-.383.131-.234.683.404-.006-.776h.251v.776l.683-.404.126.234-.678.383zm2.377 0l.677.382-.125.229-.683-.398v.775h-.251l.006-.775-.683.398-.131-.229.683-.382-.683-.383.131-.234.683.404-.006-.776h.251v.776l.683-.404.125.234-.677.383zm2.377 0l.677.382-.125.229-.683-.398v.775h-.251l.005-.775-.682.398-.131-.229.682-.382-.682-.383.131-.234.682.404-.005-.776h.251v.776l.683-.404.125.234-.677.383zm2.377 0l.677.382-.125.229-.683-.398v.775h-.251l.005-.775-.682.398-.131-.229.682-.382-.682-.383.131-.234.682.404-.005-.776h.251v.776l.683-.404.125.234-.677.383z" fill="#929398"/><path d="M267.539 126.547c-2.275 0-3.185 2.048-3.185 2.048s.91 2.047 3.185 2.047 3.185-2.047 3.185-2.047-.91-2.048-3.185-2.048z" stroke="#8C9BEA" stroke-width=".455" stroke-linecap="round" stroke-linejoin="round"/><path d="M267.538 129.733a1.138 1.138 0 100-2.276 1.138 1.138 0 000 2.276z" stroke="#8C9BEA" stroke-width=".455" stroke-linecap="round" stroke-linejoin="round"/><rect x="105.691" y="120.252" width="172.618" height="16.685" rx="2.882" stroke="#D3E3FF" stroke-width=".303"/><rect x="105.691" y="154.534" width="172.618" height="16.685" rx="2.882" fill="#FCFDFF"/><path d="M265.264 160.374l4.55 5.005m-1.511-1.662a1.139 1.139 0 01-1.901-.896c.014-.301.147-.584.371-.787" stroke="#3E54D8" stroke-width=".455" stroke-linecap="round" stroke-linejoin="round"/><path d="M266.003 161.187c-1.16.587-1.649 1.69-1.649 1.69s.91 2.047 3.185 2.047a3.359 3.359 0 001.536-.358m.757-.521c.62-.556.893-1.169.893-1.169s-.91-2.048-3.186-2.048a3.414 3.414 0 00-.588.048m.799.883a1.138 1.138 0 01.919 1.01" stroke="#3E54D8" stroke-width=".455" stroke-linecap="round" stroke-linejoin="round"/><path d="M114.133 162.23l.677.382-.126.23-.682-.399v.775h-.251l.005-.775-.683.399-.131-.23.683-.382-.683-.382.131-.235.683.404-.005-.775h.251v.775l.682-.404.126.235-.677.382zm2.377 0l.677.382-.126.23-.682-.399v.775h-.252l.006-.775-.683.399-.131-.23.683-.382-.683-.382.131-.235.683.404-.006-.775h.252v.775l.682-.404.126.235-.677.382zm2.377 0l.677.382-.126.23-.682-.399v.775h-.252l.006-.775-.683.399-.131-.23.683-.382-.683-.382.131-.235.683.404-.006-.775h.252v.775l.682-.404.126.235-.677.382zm2.376 0l.678.382-.126.23-.683-.399v.775h-.251l.006-.775-.683.399-.131-.23.683-.382-.683-.382.131-.235.683.404-.006-.775h.251v.775l.683-.404.126.235-.678.382zm2.377 0l.677.382-.125.23-.683-.399v.775h-.251l.006-.775-.683.399-.131-.23.683-.382-.683-.382.131-.235.683.404-.006-.775h.251v.775l.683-.404.125.235-.677.382zm2.377 0l.677.382-.125.23-.683-.399v.775h-.251l.005-.775-.682.399-.131-.23.682-.382-.682-.382.131-.235.682.404-.005-.775h.251v.775l.683-.404.125.235-.677.382zm2.377 0l.677.382-.125.23-.683-.399v.775h-.251l.005-.775-.682.399-.131-.23.682-.382-.682-.382.131-.235.682.404-.005-.775h.251v.775l.683-.404.125.235-.677.382z" fill="#929398"/><rect x="105.691" y="154.534" width="172.618" height="16.685" rx="2.882" stroke="#D3E3FF" stroke-width=".303"/><path d="M134.61 112.42v2.973h-.301v-2.379l-1.168 2.001h-.149l-1.168-1.988v2.366h-.301v-2.973h.259l1.291 2.204 1.278-2.204h.259zm.93.739h.302v1.775l1.49-1.775h.268v2.234h-.302v-1.776l-1.486 1.776h-.272v-2.234zm2.924 0h.302v.989h1.405v-.989h.302v2.234h-.302v-.986h-1.405v.986h-.302v-2.234zm2.866 0h.302v1.775l1.49-1.775h.268v2.234h-.302v-1.776l-1.486 1.776h-.272v-2.234zm5.422 0v2.234h-.276v-1.767l-.905 1.495h-.136l-.905-1.5v1.772h-.276v-2.234h.306l.947 1.609.964-1.609h.281zm2.756 0l-1.117 2.501c-.09.21-.195.358-.314.446a.701.701 0 01-.429.132.878.878 0 01-.302-.051.657.657 0 01-.242-.153l.14-.225a.56.56 0 00.408.17.405.405 0 00.259-.085.753.753 0 00.204-.289l.098-.217-.998-2.229h.314l.841 1.898.841-1.898h.297zm2.967 0v2.234h-.276v-1.767l-.904 1.495h-.136l-.905-1.5v1.772h-.276v-2.234h.306l.947 1.609.964-1.609h.28zm2.994.454c.195 0 .368.037.518.11a.843.843 0 01.357.315.857.857 0 01.127.467.878.878 0 01-.132.48.882.882 0 01-.365.323 1.19 1.19 0 01-.518.11c-.394 0-.695-.129-.905-.386-.209-.261-.314-.628-.314-1.1 0-.332.057-.612.17-.841.113-.23.272-.402.475-.519.204-.118.442-.178.714-.178.294 0 .529.054.705.161l-.123.247c-.142-.094-.334-.14-.578-.14-.328 0-.586.104-.773.314-.187.207-.28.508-.28.905 0 .07.004.151.013.242a.787.787 0 01.352-.374c.162-.091.347-.136.557-.136zm-.026 1.546a.77.77 0 00.523-.174.598.598 0 00.203-.472.585.585 0 00-.203-.467c-.134-.116-.315-.174-.544-.174a.893.893 0 00-.399.085.672.672 0 00-.268.234.59.59 0 00-.098.331c0 .113.03.218.09.314a.674.674 0 00.271.234.948.948 0 00.425.089zm3.636.255a1.21 1.21 0 01-.595-.145 1.05 1.05 0 01-.407-.403 1.181 1.181 0 01-.149-.59c0-.218.05-.414.149-.587.099-.172.235-.307.407-.403.176-.096.374-.144.595-.144.193 0 .364.038.514.114a.846.846 0 01.361.327l-.225.153a.695.695 0 00-.28-.246.814.814 0 00-.37-.085.878.878 0 00-.437.11.767.767 0 00-.302.306.952.952 0 00-.106.455c0 .172.035.325.106.458a.8.8 0 00.302.306c.13.071.276.106.437.106a.866.866 0 00.37-.08.69.69 0 00.28-.247l.225.153a.861.861 0 01-.361.331 1.164 1.164 0 01-.514.111zm1.459-2.255h.301v1.775l1.491-1.775h.268v2.234h-.302v-1.776l-1.486 1.776h-.272v-2.234zm5.421 0v2.234h-.276v-1.767l-.904 1.495h-.136l-.905-1.5v1.772h-.276v-2.234h.306l.947 1.609.964-1.609h.28zm2.281 1.078c.303.071.455.254.455.548a.522.522 0 01-.217.45c-.144.105-.36.158-.645.158h-1.016v-2.234h.986c.255 0 .454.049.599.148a.485.485 0 01.216.425.497.497 0 01-.102.314.58.58 0 01-.276.191zm-1.13-.085h.672c.172 0 .304-.032.395-.097a.326.326 0 00.14-.285.315.315 0 00-.14-.28c-.091-.062-.223-.094-.395-.094h-.672v.756zm.71 1.003c.192 0 .337-.031.433-.094.096-.062.144-.16.144-.293 0-.133-.043-.231-.131-.293-.088-.065-.227-.098-.416-.098h-.74v.778h.71zm2.503.259c-.215 0-.409-.048-.582-.145a1.092 1.092 0 01-.408-.407 1.157 1.157 0 01-.148-.586c0-.218.049-.414.148-.587.1-.172.235-.307.408-.403.173-.096.367-.144.582-.144.215 0 .409.048.582.144.173.096.307.231.403.403.1.173.149.369.149.587 0 .218-.049.413-.149.586a1.05 1.05 0 01-.403.407 1.169 1.169 0 01-.582.145zm0-.268c.159 0 .3-.035.425-.106a.771.771 0 00.297-.31.95.95 0 00.106-.454.952.952 0 00-.106-.455.743.743 0 00-.297-.306.826.826 0 00-.425-.11.85.85 0 00-.429.11.775.775 0 00-.297.306.952.952 0 00-.106.455.95.95 0 00.106.454.806.806 0 00.297.31.869.869 0 00.429.106zm3.592-1.987v2.234h-.301v-1.967h-1.07l-.03.552c-.023.465-.077.821-.162 1.071-.085.249-.236.373-.454.373a.855.855 0 01-.217-.034l.022-.259a.526.526 0 00.106.017.285.285 0 00.263-.161c.06-.108.099-.241.119-.399a9.2 9.2 0 00.051-.629l.038-.798h1.635zm1.779 2.255c-.215 0-.409-.048-.582-.145a1.09 1.09 0 01-.407-.407 1.158 1.158 0 01-.149-.586c0-.218.05-.414.149-.587.099-.172.235-.307.407-.403.173-.096.367-.144.582-.144.215 0 .409.048.582.144.173.096.307.231.404.403.099.173.148.369.148.587 0 .218-.049.413-.148.586a1.06 1.06 0 01-.404.407 1.169 1.169 0 01-.582.145zm0-.268c.159 0 .3-.035.425-.106a.765.765 0 00.297-.31.95.95 0 00.106-.454.952.952 0 00-.106-.455.737.737 0 00-.297-.306.826.826 0 00-.425-.11.85.85 0 00-.429.11.781.781 0 00-.297.306.952.952 0 00-.106.455.95.95 0 00.106.454.813.813 0 00.297.31.869.869 0 00.429.106zm3.202-.909c.303.071.454.254.454.548a.52.52 0 01-.217.45c-.144.105-.359.158-.645.158h-1.015v-2.234h.985c.255 0 .455.049.599.148a.486.486 0 01.217.425.497.497 0 01-.102.314.584.584 0 01-.276.191zm-1.13-.085h.671c.173 0 .304-.032.395-.097a.326.326 0 00.14-.285.315.315 0 00-.14-.28c-.091-.062-.222-.094-.395-.094h-.671v.756zm.709 1.003c.193 0 .337-.031.433-.094.097-.062.145-.16.145-.293 0-.133-.044-.231-.132-.293-.088-.065-.226-.098-.416-.098h-.739v.778h.709zm-48.411-37.016v2.973h-.31V79.74h-1.86v1.372h-.315v-2.973h.315v1.325h1.86v-1.325h.31zm1.7.722c.292 0 .515.073.671.22.156.145.234.36.234.646v1.385h-.289v-.349a.692.692 0 01-.302.272c-.13.066-.286.098-.467.098-.249 0-.447-.06-.595-.178a.576.576 0 01-.22-.472c0-.19.068-.342.204-.459.138-.116.358-.174.658-.174h.709v-.135c0-.193-.054-.339-.161-.438-.108-.102-.265-.153-.472-.153-.141 0-.277.024-.407.072a.988.988 0 00-.336.192l-.136-.226a1.16 1.16 0 01.408-.22c.158-.054.325-.081.501-.081zm-.106 2.034c.17 0 .316-.038.437-.114a.705.705 0 00.272-.34v-.365h-.701c-.382 0-.573.133-.573.399 0 .13.049.233.149.31.099.073.237.11.416.11zm3.532-2.034c.224 0 .425.05.603.148a1.098 1.098 0 01.582.985 1.12 1.12 0 01-.582.995 1.22 1.22 0 01-.603.148c-.187 0-.358-.028-.514-.085a1.09 1.09 0 01-.395-.255l.179-.178c.19.178.429.268.718.268a.93.93 0 00.437-.102.848.848 0 00.323-.285.835.835 0 00.148-.407h-1.193v-.23h1.189a.829.829 0 00-.297-.543.908.908 0 00-.607-.213c-.289 0-.528.09-.718.268l-.179-.174c.108-.11.24-.194.395-.251.156-.06.327-.09.514-.09zm3.308.284h-.845v1.967h-.302v-1.967h-.845v-.267h1.992v.267zm1.254 1.988c-.215 0-.409-.048-.582-.144a1.082 1.082 0 01-.408-.408 1.157 1.157 0 01-.148-.586c0-.218.049-.414.148-.586a1.05 1.05 0 01.408-.404c.173-.096.367-.144.582-.144.215 0 .409.048.582.144.172.097.307.231.403.404.099.172.149.368.149.586 0 .218-.05.413-.149.586a1.055 1.055 0 01-.403.408 1.176 1.176 0 01-.582.144zm0-.267c.158 0 .3-.036.425-.107a.769.769 0 00.297-.31.95.95 0 00.106-.454.95.95 0 00-.106-.455.74.74 0 00-.297-.305.822.822 0 00-.425-.11.839.839 0 00-.429.11.765.765 0 00-.297.305.95.95 0 00-.107.455c0 .17.036.321.107.454a.796.796 0 00.297.31c.127.071.27.106.429.106zm3.267-1.72h-.845v1.966h-.302v-1.967h-.845v-.267h1.992v.267zm2.316-.285c.292 0 .515.073.671.22.156.145.234.36.234.646v1.385h-.289v-.349a.692.692 0 01-.302.272c-.13.066-.286.098-.467.098-.249 0-.447-.06-.594-.178a.574.574 0 01-.221-.472c0-.19.068-.342.204-.459.138-.116.358-.174.658-.174h.709v-.135c0-.193-.054-.339-.161-.438-.108-.102-.265-.153-.472-.153-.141 0-.277.024-.407.072a.998.998 0 00-.336.192l-.136-.226a1.16 1.16 0 01.408-.22c.159-.054.326-.081.501-.081zm-.106 2.034c.17 0 .316-.038.437-.114a.705.705 0 00.272-.34v-.365h-.701c-.382 0-.573.133-.573.399 0 .13.05.233.149.31.099.073.238.11.416.11zm3.992-.046v.802h-.284v-.54h-2.001v.54h-.284v-.802h.127c.15-.009.252-.12.306-.332.054-.212.091-.51.11-.892l.03-.747h1.648v1.97h.348zm-1.75-1.207a5.714 5.714 0 01-.08.786c-.04.204-.111.344-.213.42h1.393v-1.703h-1.074l-.026.497zm3.489-.781c.21 0 .399.048.569.144a1 1 0 01.399.4c.097.172.145.369.145.59 0 .224-.048.422-.145.594a1.03 1.03 0 01-.399.404 1.15 1.15 0 01-.569.14 1.09 1.09 0 01-.493-.11.948.948 0 01-.356-.332v1.245h-.302v-3.058h.289v.442a.925.925 0 01.357-.34c.15-.08.318-.12.505-.12zm-.021 2.004a.858.858 0 00.424-.106.765.765 0 00.298-.31.93.93 0 00.11-.454c0-.17-.037-.32-.11-.45a.764.764 0 00-.298-.31.831.831 0 00-.424-.11.839.839 0 00-.429.11.805.805 0 00-.298.31.937.937 0 00-.106.45c0 .17.036.321.106.454a.805.805 0 00.298.31c.127.071.27.106.429.106zm3.735-.777h-1.868c.017.232.106.42.267.565a.894.894 0 00.612.212.99.99 0 00.382-.072.86.86 0 00.302-.22l.169.195a.951.951 0 01-.373.272 1.25 1.25 0 01-.489.093c-.229 0-.433-.048-.611-.144a1.072 1.072 0 01-.412-.408 1.158 1.158 0 01-.149-.586c0-.218.047-.414.14-.586a1.05 1.05 0 01.952-.548c.206 0 .392.048.556.144.164.097.293.231.386.404.094.17.141.365.141.586l-.005.093zm-1.078-.968a.762.762 0 00-.544.208.803.803 0 00-.246.535h1.584a.799.799 0 00-.251-.535.751.751 0 00-.543-.208zm2.684 2.013c-.22 0-.419-.048-.594-.144a1.051 1.051 0 01-.408-.404 1.181 1.181 0 01-.149-.59c0-.218.05-.414.149-.586a1.05 1.05 0 01.408-.404c.175-.096.374-.144.594-.144.193 0 .364.038.514.114a.835.835 0 01.361.328l-.225.152a.685.685 0 00-.28-.246.812.812 0 00-.37-.085.871.871 0 00-.437.11.77.77 0 00-.302.306.961.961 0 00-.106.455c0 .172.036.325.106.459a.81.81 0 00.302.305.9.9 0 00.437.106.849.849 0 00.37-.08.685.685 0 00.28-.247l.225.153a.863.863 0 01-.361.332 1.17 1.17 0 01-.514.11zm5.068-2.255v2.234h-.276v-1.767l-.905 1.495h-.135l-.905-1.5v1.772h-.276v-2.234h.306l.947 1.61.964-1.61h.28zm1.797.79c.28.003.494.065.641.187.148.121.221.297.221.526 0 .238-.079.42-.238.548-.158.128-.385.19-.679.187l-.884-.004v-2.234h.302v.781l.637.009zm1.236-.79h.301v2.234h-.301v-2.234zm-1.308 2.009c.206.002.362-.038.467-.124.108-.087.161-.215.161-.382 0-.164-.052-.286-.157-.365-.105-.08-.262-.12-.471-.123l-.565-.009v.994l.565.009zm4.501.246a1.087 1.087 0 01-.989-.552 1.158 1.158 0 01-.149-.586c0-.218.05-.414.149-.586.099-.173.235-.308.407-.404.173-.096.367-.144.582-.144.215 0 .409.048.582.144.173.097.307.231.404.404.099.172.148.368.148.586 0 .218-.049.413-.148.586a1.058 1.058 0 01-.404.408 1.176 1.176 0 01-.582.144zm0-.267c.159 0 .3-.036.425-.107a.769.769 0 00.297-.31.95.95 0 00.106-.454.95.95 0 00-.106-.455.74.74 0 00-.297-.305.82.82 0 00-.425-.11.844.844 0 00-.429.11.778.778 0 00-.297.305.95.95 0 00-.106.455c0 .17.035.321.106.454a.81.81 0 00.297.31.869.869 0 00.429.106zm3.267-1.72h-.845v1.966h-.302v-1.967h-.845v-.267h1.992v.267zm2.441-.268v2.234h-.302v-1.967h-1.401v1.967h-.302v-2.234h2.005zm2.008-.017c.21 0 .399.048.569.144a1 1 0 01.399.4c.097.172.145.369.145.59 0 .224-.048.422-.145.594a1.03 1.03 0 01-.399.404 1.15 1.15 0 01-.569.14 1.09 1.09 0 01-.493-.11.948.948 0 01-.356-.332v1.245h-.302v-3.058h.289v.442a.932.932 0 01.357-.34c.15-.08.318-.12.505-.12zm-.021 2.004a.861.861 0 00.425-.106.769.769 0 00.297-.31.93.93 0 00.11-.454c0-.17-.037-.32-.11-.45a.768.768 0 00-.297-.31.835.835 0 00-.425-.11.795.795 0 00-.726.42.926.926 0 00-.107.45c0 .17.036.321.107.454a.796.796 0 00.297.31c.127.071.27.106.429.106zm2.538-2.004c.292 0 .515.073.671.22.156.145.234.36.234.646v1.385h-.289v-.349a.692.692 0 01-.302.272c-.13.066-.286.098-.467.098-.249 0-.447-.06-.594-.178a.574.574 0 01-.221-.472c0-.19.068-.342.204-.459.138-.116.358-.174.658-.174h.709v-.135c0-.193-.054-.339-.161-.438-.108-.102-.265-.153-.472-.153-.141 0-.277.024-.407.072a.988.988 0 00-.336.192l-.136-.226a1.16 1.16 0 01.408-.22c.158-.054.325-.081.501-.081zm-.106 2.034c.17 0 .316-.038.437-.114a.705.705 0 00.272-.34v-.365h-.701c-.382 0-.573.133-.573.399 0 .13.05.233.149.31.099.073.237.11.416.11zm3.236-.938c.303.07.455.253.455.547a.524.524 0 01-.217.45c-.144.105-.36.158-.645.158h-1.016v-2.234h.986c.255 0 .454.05.599.148.144.1.216.241.216.425a.498.498 0 01-.102.315.584.584 0 01-.276.19zm-1.13-.085h.672c.172 0 .304-.033.395-.098a.326.326 0 00.14-.285.315.315 0 00-.14-.28c-.091-.062-.223-.093-.395-.093h-.672v.756zm.71 1.002c.192 0 .337-.031.433-.093.096-.063.144-.16.144-.294 0-.133-.043-.23-.131-.293-.088-.065-.227-.097-.416-.097h-.74v.777h.71zm1.581-1.996h.302v1.775l1.491-1.775h.267v2.234h-.301v-1.775l-1.487 1.775h-.272v-2.234zm5.422 0v2.234h-.276v-1.767l-.905 1.495h-.136l-.904-1.5v1.772h-.276v-2.234h.305l.947 1.61.965-1.61h.28zm3.974 0v2.234h-.301v-1.967h-1.402v1.967h-.301v-2.234h2.004zm.857 0h.302v1.775l1.491-1.775h.267v2.234h-.301v-1.775l-1.487 1.775h-.272v-2.234zm3.859 2.255c-.221 0-.419-.048-.595-.144a1.055 1.055 0 01-.407-.404 1.171 1.171 0 01-.149-.59c0-.218.049-.414.149-.586.099-.173.235-.308.407-.404.176-.096.374-.144.595-.144.192 0 .364.038.514.114a.84.84 0 01.361.328l-.225.152a.688.688 0 00-.281-.246.811.811 0 00-.369-.085.875.875 0 00-.438.11.761.761 0 00-.301.306.95.95 0 00-.106.455.96.96 0 00.106.459.8.8 0 00.301.305.901.901 0 00.438.106.847.847 0 00.369-.08.688.688 0 00.281-.247l.225.153a.869.869 0 01-.361.332 1.17 1.17 0 01-.514.11zm2.419-1.465c.28.003.492.065.637.187.147.121.22.297.22.526 0 .238-.079.42-.237.548-.156.128-.383.19-.68.187l-.9-.004v-2.234h.301v.781l.659.009zm-.077 1.219c.207.002.363-.038.467-.124.108-.087.162-.215.162-.382 0-.164-.053-.286-.157-.365-.105-.08-.262-.12-.472-.123l-.582-.009v.994l.582.009zm4.007-2.01v2.235h-.276v-1.767l-.904 1.495h-.136l-.905-1.5v1.772h-.276v-2.234h.306l.947 1.61.964-1.61h.28zm1.78 2.256c-.215 0-.409-.048-.582-.144a1.082 1.082 0 01-.408-.408 1.157 1.157 0 01-.148-.586c0-.218.049-.414.148-.586a1.05 1.05 0 01.408-.404c.173-.096.367-.144.582-.144.215 0 .409.048.582.144.173.097.307.231.403.404.099.172.149.368.149.586 0 .218-.05.413-.149.586-.096.173-.23.308-.403.408a1.176 1.176 0 01-.582.144zm0-.267c.159 0 .3-.036.425-.107a.769.769 0 00.297-.31.95.95 0 00.106-.454.95.95 0 00-.106-.455.74.74 0 00-.297-.305.82.82 0 00-.425-.11.839.839 0 00-.429.11.765.765 0 00-.297.305.95.95 0 00-.106.455c0 .17.035.321.106.454a.796.796 0 00.297.31c.127.071.27.106.429.106zm3.824.267c-.22 0-.419-.048-.594-.144a1.051 1.051 0 01-.408-.404 1.181 1.181 0 01-.149-.59c0-.218.05-.414.149-.586a1.05 1.05 0 01.408-.404c.175-.096.374-.144.594-.144.193 0 .364.038.514.114a.835.835 0 01.361.328l-.225.152a.685.685 0 00-.28-.246.815.815 0 00-.37-.085.871.871 0 00-.437.11.77.77 0 00-.302.306.961.961 0 00-.106.455c0 .172.036.325.106.459a.81.81 0 00.302.305.9.9 0 00.437.106.852.852 0 00.37-.08.685.685 0 00.28-.247l.225.153a.863.863 0 01-.361.332 1.17 1.17 0 01-.514.11zm4.575-2.255v2.234h-.301v-1.967h-1.402v1.967h-.301v-2.234h2.004zm1.779 2.255a1.087 1.087 0 01-.989-.552 1.158 1.158 0 01-.149-.586c0-.218.05-.414.149-.586.099-.173.235-.308.407-.404.173-.096.367-.144.582-.144.215 0 .409.048.582.144.173.097.307.231.404.404.099.172.148.368.148.586 0 .218-.049.413-.148.586a1.058 1.058 0 01-.404.408 1.176 1.176 0 01-.582.144zm0-.267c.159 0 .3-.036.425-.107a.762.762 0 00.297-.31.95.95 0 00.107-.454.95.95 0 00-.107-.455.734.734 0 00-.297-.305.82.82 0 00-.425-.11.844.844 0 00-.429.11.778.778 0 00-.297.305.95.95 0 00-.106.455c0 .17.035.321.106.454a.81.81 0 00.297.31.869.869 0 00.429.106zm3.945-.017v.802h-.284v-.54h-2.001v.54h-.284v-.802h.127c.15-.009.252-.12.306-.332.054-.212.09-.51.11-.892l.03-.747h1.648v1.97h.348zm-1.75-1.207a5.714 5.714 0 01-.08.786c-.04.204-.111.344-.213.42h1.393v-1.703h-1.074l-.026.497zm3.909-.497h-.845v1.967h-.301v-1.967h-.846v-.267h1.992v.267zm1.859.812c.303.07.455.253.455.547a.524.524 0 01-.217.45c-.144.105-.36.158-.646.158h-1.015v-2.234h.986c.254 0 .454.05.598.148.145.1.217.241.217.425a.498.498 0 01-.102.315.584.584 0 01-.276.19zm-1.13-.085h.671c.173 0 .305-.033.395-.098a.325.325 0 00.141-.285.314.314 0 00-.141-.28c-.09-.062-.222-.093-.395-.093h-.671v.756zm.71 1.002c.192 0 .337-.031.433-.093.096-.063.144-.16.144-.294 0-.133-.044-.23-.131-.293-.088-.065-.227-.097-.417-.097h-.739v.777h.71zm3.535-.786h-1.869c.017.232.106.42.268.565a.892.892 0 00.611.212.992.992 0 00.383-.072.857.857 0 00.301-.22l.17.195a.954.954 0 01-.374.272 1.24 1.24 0 01-.488.093c-.229 0-.433-.048-.612-.144a1.079 1.079 0 01-.412-.408 1.157 1.157 0 01-.148-.586c0-.218.046-.414.14-.586a1.04 1.04 0 01.391-.404c.167-.096.353-.144.56-.144.207 0 .392.048.557.144.164.097.293.231.386.404.093.17.14.365.14.586l-.004.093zm-1.079-.968a.761.761 0 00-.543.208.804.804 0 00-.247.535h1.584a.793.793 0 00-.25-.535.755.755 0 00-.544-.208zm2.902-.26c.209 0 .399.049.569.145a1 1 0 01.399.4c.096.172.144.369.144.59 0 .224-.048.422-.144.594a1.03 1.03 0 01-.399.404 1.15 1.15 0 01-.569.14c-.181 0-.346-.037-.493-.11a.958.958 0 01-.357-.332v1.245h-.301v-3.058h.289v.442a.929.929 0 01.356-.34c.15-.08.319-.12.506-.12zm-.022 2.005a.859.859 0 00.425-.106.765.765 0 00.298-.31.93.93 0 00.11-.454c0-.17-.037-.32-.11-.45a.764.764 0 00-.298-.31.832.832 0 00-.425-.11.838.838 0 00-.428.11.805.805 0 00-.298.31.926.926 0 00-.106.45c0 .17.035.321.106.454a.805.805 0 00.298.31c.127.071.27.106.428.106zm3.662-.747h-.485v.994h-.301v-.994h-.484l-.684.994h-.361l.803-1.151-.739-1.083h.327l.654.98h.484v-.98h.301v.98h.485l.658-.98h.327l-.739 1.087.803 1.147h-.361l-.688-.994zm3.729.73v.803h-.284v-.54h-2.001v.54h-.284v-.802h.127c.15-.009.252-.12.306-.332.054-.212.091-.51.11-.892l.03-.747h1.648v1.97h.348zm-1.75-1.206a5.714 5.714 0 01-.08.786c-.04.204-.111.344-.213.42h1.393v-1.703h-1.074l-.026.497zm4.292.446h-1.869c.017.232.106.42.267.565a.896.896 0 00.612.212.86.86 0 00.684-.293l.17.196a.954.954 0 01-.374.272 1.24 1.24 0 01-.488.093c-.23 0-.434-.048-.612-.144a1.072 1.072 0 01-.412-.408 1.158 1.158 0 01-.149-.586c0-.218.047-.414.141-.586a1.048 1.048 0 01.951-.548 1.031 1.031 0 01.943.548c.093.17.14.365.14.586l-.004.093zm-1.079-.968a.764.764 0 00-.544.208.808.808 0 00-.246.535h1.584a.798.798 0 00-.25-.535.755.755 0 00-.544-.208zm1.75-.242h.302v.99h1.406v-.99h.301v2.234h-.301v-.986h-1.406v.986H238v-2.234zm2.866 0h.302v1.775l1.491-1.775h.267v2.234h-.301v-1.775l-1.487 1.775h-.272v-2.234zm4.878 1.21h-1.869a.81.81 0 00.268.565.893.893 0 00.612.212.99.99 0 00.382-.072.857.857 0 00.301-.22l.17.195a.951.951 0 01-.373.272 1.25 1.25 0 01-.489.093c-.229 0-.433-.048-.611-.144a1.072 1.072 0 01-.412-.408 1.148 1.148 0 01-.149-.586c0-.218.047-.414.14-.586a1.05 1.05 0 01.951-.548c.207 0 .393.048.557.144.164.097.293.231.386.404.094.17.14.365.14.586l-.004.093zm-1.079-.968a.761.761 0 00-.543.208.804.804 0 00-.247.535h1.585a.799.799 0 00-.251-.535.754.754 0 00-.544-.208zm4.248-.242v2.234h-.276v-1.767l-.904 1.495h-.136l-.905-1.5v1.772h-.276v-2.234h.306l.947 1.61.964-1.61h.28z" fill="#929398"/><path d="M108.886 80.12v.475h-2.774v-3.823h2.698v.475h-2.151v1.174h1.916v.464h-1.916v1.235h2.227zm.516-1.25h1.469v.452h-1.469v-.453zm5.896-1.197c.364 0 .652.106.863.317.215.211.322.524.322.94v1.665h-.524v-1.606c0-.28-.065-.491-.196-.633-.128-.142-.312-.213-.552-.213-.266 0-.477.084-.633.251-.157.164-.235.4-.235.71v1.49h-.524V78.99c0-.28-.066-.491-.197-.633-.127-.142-.311-.213-.552-.213-.265 0-.476.084-.633.251-.157.164-.235.4-.235.71v1.49h-.524v-2.893h.502v.431a.999.999 0 01.415-.339c.171-.08.366-.12.585-.12.225 0 .426.046.6.137a.94.94 0 01.404.398 1.12 1.12 0 01.454-.393c.196-.094.416-.142.66-.142zm3.204 0c.4 0 .706.099.917.295.215.197.322.49.322.88v1.747h-.496v-.382a.846.846 0 01-.377.31c-.16.07-.352.105-.574.105-.324 0-.584-.079-.781-.235a.758.758 0 01-.289-.617.75.75 0 01.279-.612c.185-.157.48-.235.884-.235h.83v-.103c0-.226-.065-.4-.196-.52s-.324-.18-.579-.18a1.5 1.5 0 00-.503.088c-.163.055-.302.13-.415.224l-.218-.393a1.55 1.55 0 01.535-.273c.208-.066.428-.099.661-.099zm-.12 2.55c.2 0 .373-.043.518-.13a.776.776 0 00.317-.383v-.404h-.808c-.444 0-.666.15-.666.448 0 .145.056.26.169.344.113.084.269.125.47.125zm2.33-2.522h.524v2.894h-.524V77.7zm.262-.557a.36.36 0 01-.257-.099.325.325 0 01-.098-.24c0-.095.032-.175.098-.24a.35.35 0 01.257-.104.34.34 0 01.251.098c.069.062.104.14.104.235a.343.343 0 01-.355.35zm1.263-.601h.524v4.052h-.524v-4.052zm-12.81 34.51v3.822h-.535v-3.347h-2.217v3.347h-.541v-3.822h3.293zm2.137.901c.4 0 .706.098.917.295.215.196.322.49.322.879v1.747h-.497v-.382a.836.836 0 01-.376.311c-.161.07-.352.104-.574.104-.324 0-.584-.078-.781-.235a.754.754 0 01-.289-.617c0-.254.093-.458.278-.611.186-.157.481-.235.885-.235h.83v-.104c0-.225-.065-.398-.196-.519-.132-.12-.324-.18-.579-.18-.171 0-.339.029-.503.088a1.239 1.239 0 00-.415.224l-.218-.394c.149-.12.328-.211.535-.273.208-.065.428-.098.661-.098zm-.12 2.55a.99.99 0 00.518-.131.774.774 0 00.317-.382v-.404h-.808c-.444 0-.666.149-.666.448 0 .145.056.26.169.344.113.083.269.125.47.125zm3.838-2.55c.28 0 .531.062.753.186.222.123.395.296.519.518.128.223.191.479.191.77 0 .292-.063.55-.191.776a1.322 1.322 0 01-.519.519 1.528 1.528 0 01-.753.185c-.208 0-.399-.04-.574-.12a1.187 1.187 0 01-.436-.349v1.496h-.525v-3.954h.503v.459c.116-.16.264-.28.442-.36.178-.084.375-.126.59-.126zm-.044 2.496a.922.922 0 00.846-.486c.088-.157.132-.335.132-.536 0-.2-.044-.376-.132-.529a.874.874 0 00-.349-.361.986.986 0 00-.497-.125.96.96 0 00-.846.486 1.08 1.08 0 00-.126.529c0 .201.042.379.126.536a.922.922 0 00.846.486zm3.508.458c-.287 0-.546-.063-.775-.191a1.412 1.412 0 01-.541-.524 1.535 1.535 0 01-.191-.765c0-.284.064-.537.191-.759.131-.225.312-.4.541-.524.229-.127.488-.191.775-.191.288 0 .545.064.77.191.23.124.408.299.536.524.131.222.196.475.196.759 0 .284-.065.539-.196.765a1.371 1.371 0 01-.536.524 1.53 1.53 0 01-.77.191zm0-.458a.925.925 0 00.847-.486c.084-.157.125-.335.125-.536 0-.2-.041-.376-.125-.529a.877.877 0 00-.35-.361.984.984 0 00-.497-.125c-.185 0-.353.042-.502.125a.92.92 0 00-.349.361 1.08 1.08 0 00-.126.529c0 .201.042.379.126.536a.973.973 0 00.349.36c.149.084.317.126.502.126zm4.722-2.469v2.894h-.524v-2.435h-1.245l-.033.644a6.92 6.92 0 01-.103.978 1.519 1.519 0 01-.252.622.57.57 0 01-.486.235 1.23 1.23 0 01-.322-.049l.033-.442a.577.577 0 00.131.016.355.355 0 00.328-.191c.072-.127.12-.279.142-.453.022-.175.042-.424.06-.748l.049-1.071h2.222zm2.352.983c.368.004.648.088.841.251.193.164.289.395.289.694 0 .313-.105.555-.316.726-.208.168-.507.25-.896.246l-1.256-.006v-2.894h.524v.978l.814.005zm-.126 1.518c.237.004.415-.043.535-.142.124-.098.186-.244.186-.437 0-.189-.06-.327-.18-.415-.117-.087-.297-.132-.541-.136l-.688-.011v1.136l.688.005zm-16.267 30.852v3.822h-.535v-3.347h-2.217v3.347h-.541v-3.822h3.293zm2.344 3.855c-.287 0-.546-.064-.775-.191a1.419 1.419 0 01-.541-.524 1.535 1.535 0 01-.191-.765c0-.284.064-.537.191-.759.131-.226.312-.4.541-.524.229-.128.488-.191.775-.191.288 0 .545.063.77.191.23.124.408.298.535.524.131.222.197.475.197.759 0 .284-.066.539-.197.765a1.369 1.369 0 01-.535.524 1.54 1.54 0 01-.77.191zm0-.459a.984.984 0 00.497-.125.934.934 0 00.35-.361c.083-.156.125-.335.125-.535s-.042-.377-.125-.53a.886.886 0 00-.35-.36.974.974 0 00-.497-.126c-.185 0-.353.042-.502.126a.933.933 0 00-.35.36c-.083.153-.125.33-.125.53s.042.379.125.535a.986.986 0 00.35.361c.149.083.317.125.502.125zm4.23-1.075c.375.094.563.329.563.704a.684.684 0 01-.29.59c-.189.138-.473.207-.852.207h-1.392v-2.894h1.343c.342 0 .61.066.803.197a.615.615 0 01.289.546.645.645 0 01-.125.398.755.755 0 01-.339.252zm-1.458-.148h.787c.2 0 .351-.036.453-.109a.362.362 0 00.158-.317c0-.276-.204-.415-.611-.415h-.787v.841zm.841 1.245c.219 0 .382-.034.492-.104.109-.069.163-.176.163-.322 0-.149-.05-.26-.152-.333-.099-.073-.255-.109-.47-.109h-.874v.868h.841zm4.157-2.031h-1.059v2.435h-.524v-2.435h-1.06v-.459h2.643v.459zm1.648 2.468c-.288 0-.546-.064-.776-.191a1.416 1.416 0 01-.54-.524 1.524 1.524 0 01-.191-.765c0-.284.063-.537.191-.759.131-.226.311-.4.54-.524.23-.128.488-.191.776-.191.287 0 .544.063.77.191.229.124.407.298.535.524.131.222.196.475.196.759 0 .284-.065.539-.196.765a1.382 1.382 0 01-.535.524 1.546 1.546 0 01-.77.191zm0-.459a.989.989 0 00.497-.125.932.932 0 00.349-.361c.084-.156.126-.335.126-.535s-.042-.377-.126-.53a.884.884 0 00-.349-.36.98.98 0 00-.497-.126 1.01 1.01 0 00-.503.126.93.93 0 00-.349.36c-.084.153-.126.33-.126.53s.042.379.126.535a.984.984 0 00.349.361c.15.083.317.125.503.125zm3.793-2.495c.28 0 .531.062.753.185.223.124.395.297.519.519.128.222.191.479.191.77 0 .291-.063.55-.191.776a1.306 1.306 0 01-.519.518 1.518 1.518 0 01-.753.186c-.208 0-.399-.04-.573-.12a1.184 1.184 0 01-.437-.35v1.497h-.525v-3.954h.503v.459c.116-.16.264-.281.442-.361.179-.083.375-.125.59-.125zm-.044 2.495a.984.984 0 00.497-.125.934.934 0 00.35-.361c.087-.156.131-.335.131-.535s-.044-.377-.131-.53a.886.886 0 00-.35-.36.974.974 0 00-.497-.126.962.962 0 00-.846.486c-.084.153-.126.33-.126.53s.042.379.126.535c.084.153.2.273.349.361.15.083.315.125.497.125zm2.269-2.468h.524v2.108l1.775-2.108h.475v2.894h-.524v-2.108l-1.769 2.108h-.481v-2.894zm5.949.459h-1.06v2.435h-.524v-2.435h-1.059v-.459h2.643v.459zm3.023 1.005c0 .04-.003.092-.011.158h-2.348c.033.255.144.46.333.617.193.153.432.229.716.229.346 0 .624-.116.835-.349l.29.338c-.131.153-.295.27-.492.35a1.68 1.68 0 01-.65.12c-.305 0-.577-.062-.813-.186a1.38 1.38 0 01-.552-.529 1.535 1.535 0 01-.191-.765c0-.28.062-.533.186-.759.127-.226.3-.4.518-.524.223-.128.472-.191.749-.191.276 0 .522.063.737.191.218.124.387.298.508.524.123.226.185.484.185.776zm-1.43-1.049a.92.92 0 00-.634.229.934.934 0 00-.295.601h1.857a.913.913 0 00-.3-.595.883.883 0 00-.628-.235zm6.391-.415v2.894h-.524v-2.435h-1.633v2.435h-.524v-2.894h2.681zm2.047-.027c.4 0 .706.098.917.295.215.196.322.489.322.879v1.747h-.497v-.382a.84.84 0 01-.377.311c-.16.069-.351.104-.573.104-.324 0-.584-.078-.781-.235a.754.754 0 01-.289-.617c0-.255.093-.459.278-.611.186-.157.481-.235.885-.235h.83v-.104c0-.226-.066-.399-.197-.519s-.324-.18-.578-.18c-.172 0-.339.029-.503.087-.164.055-.302.13-.415.224l-.218-.393c.149-.12.327-.211.535-.273.207-.065.428-.098.661-.098zm-.121 2.55a.99.99 0 00.519-.131.784.784 0 00.317-.382v-.404h-.808c-.444 0-.666.149-.666.447 0 .146.056.261.169.344.113.084.269.126.469.126zm3.839-2.55c.28 0 .531.062.753.185.222.124.395.297.519.519.127.222.191.479.191.77 0 .291-.064.55-.191.776a1.313 1.313 0 01-.519.518 1.518 1.518 0 01-.753.186c-.208 0-.399-.04-.574-.12a1.2 1.2 0 01-.437-.35v1.497h-.524v-3.954h.503v.459c.116-.16.263-.281.442-.361a1.38 1.38 0 01.59-.125zm-.044 2.495a.986.986 0 00.497-.125.925.925 0 00.349-.361c.088-.156.131-.335.131-.535s-.043-.377-.131-.53a.878.878 0 00-.349-.36.977.977 0 00-.497-.126.96.96 0 00-.846.486c-.084.153-.126.33-.126.53s.042.379.126.535c.083.153.2.273.349.361.149.083.315.125.497.125zm3.508.459c-.287 0-.546-.064-.775-.191a1.419 1.419 0 01-.541-.524 1.535 1.535 0 01-.191-.765c0-.284.064-.537.191-.759.131-.226.312-.4.541-.524.229-.128.488-.191.775-.191.288 0 .545.063.77.191.23.124.408.298.535.524.131.222.197.475.197.759 0 .284-.066.539-.197.765a1.369 1.369 0 01-.535.524 1.54 1.54 0 01-.77.191zm0-.459a.984.984 0 00.497-.125.934.934 0 00.35-.361c.083-.156.125-.335.125-.535s-.042-.377-.125-.53a.886.886 0 00-.35-.36.974.974 0 00-.497-.126c-.185 0-.353.042-.502.126a.933.933 0 00-.35.36c-.083.153-.125.33-.125.53s.042.379.125.535a.986.986 0 00.35.361c.149.083.317.125.502.125zm4.722-2.468v2.894h-.524v-2.435h-1.245l-.033.644a6.92 6.92 0 01-.104.978 1.519 1.519 0 01-.251.622.57.57 0 01-.486.235 1.23 1.23 0 01-.322-.049l.033-.443a.582.582 0 00.131.017.355.355 0 00.328-.191 1.23 1.23 0 00.142-.454c.021-.174.041-.424.06-.748l.049-1.07h2.222zm2.352.983c.367.004.648.087.841.251.193.164.289.395.289.694 0 .313-.105.555-.317.726-.207.167-.506.249-.895.246l-1.256-.006v-2.894h.524v.978l.814.005zm-.126 1.518c.237.004.415-.044.535-.142.124-.098.186-.244.186-.437 0-.189-.06-.327-.18-.415-.117-.087-.297-.133-.541-.136l-.688-.011v1.136l.688.005z" fill="#24252E"/><g filter="url(#filter2_d)"><rect x="171" y="236" width="40" height="40" rx="8" fill="#3E54D8"/></g><path opacity=".9" d="M187.135 263.24c-1.16 0-2.193-.287-3.1-.86-.906-.574-1.62-1.4-2.14-2.48-.506-1.094-.76-2.394-.76-3.9 0-1.507.254-2.8.76-3.88.52-1.094 1.234-1.927 2.14-2.5.907-.574 1.94-.86 3.1-.86 1.16 0 2.194.286 3.1.86.907.573 1.614 1.406 2.12 2.5.52 1.08.78 2.373.78 3.88 0 1.506-.26 2.806-.78 3.9-.506 1.08-1.213 1.906-2.12 2.48-.906.573-1.94.86-3.1.86zm0-2.74c.854 0 1.52-.367 2-1.1.494-.734.74-1.867.74-3.4 0-1.534-.246-2.667-.74-3.4-.48-.734-1.146-1.1-2-1.1-.84 0-1.506.366-2 1.1-.48.733-.72 1.866-.72 3.4 0 1.533.24 2.666.72 3.4.494.733 1.16 1.1 2 1.1zm12.858-11.5v14h-3.241v-11.4h-2.799V249h6.04z" fill="#fff"/><defs><filter id="filter0_d" x="0" y="0" width="384" height="374" filterUnits="userSpaceOnUse" color-interpolation-filters="sRGB"><feFlood flood-opacity="0" result="BackgroundImageFix"/><feColorMatrix in="SourceAlpha" values="0 0 0 0 0 0 0 0 0 0 0 0 0 0 0 0 0 0 127 0"/><feMorphology radius="17" in="SourceAlpha" result="effect1_dropShadow"/><feOffset dy="44"/><feGaussianBlur stdDeviation="44.5"/><feColorMatrix values="0 0 0 0 0.243137 0 0 0 0 0.329412 0 0 0 0 0.847059 0 0 0 0.06 0"/><feBlend in2="BackgroundImageFix" result="effect1_dropShadow"/><feBlend in="SourceGraphic" in2="effect1_dropShadow" result="shape"/></filter><filter id="filter1_d" x="102.809" y="181.078" width="178.382" height="28.213" filterUnits="userSpaceOnUse" color-interpolation-filters="sRGB"><feFlood flood-opacity="0" result="BackgroundImageFix"/><feColorMatrix in="SourceAlpha" values="0 0 0 0 0 0 0 0 0 0 0 0 0 0 0 0 0 0 127 0"/><feMorphology radius="3.944" in="SourceAlpha" result="effect1_dropShadow"/><feOffset dy="5.461"/><feGaussianBlur stdDeviation="3.337"/><feColorMatrix values="0 0 0 0 0.243137 0 0 0 0 0.329412 0 0 0 0 0.847059 0 0 0 0.51 0"/><feBlend in2="BackgroundImageFix" result="effect1_dropShadow"/><feBlend in="SourceGraphic" in2="effect1_dropShadow" result="shape"/></filter><filter id="filter2_d" x="162" y="236" width="58" height="70" filterUnits="userSpaceOnUse" color-interpolation-filters="sRGB"><feFlood flood-opacity="0" result="BackgroundImageFix"/><feColorMatrix in="SourceAlpha" values="0 0 0 0 0 0 0 0 0 0 0 0 0 0 0 0 0 0 127 0"/><feMorphology radius="13" in="SourceAlpha" result="effect1_dropShadow"/><feOffset dy="21"/><feGaussianBlur stdDeviation="11"/><feColorMatrix values="0 0 0 0 0.243137 0 0 0 0 0.329412 0 0 0 0 0.847059 0 0 0 0.51 0"/><feBlend in2="BackgroundImageFix" result="effect1_dropShadow"/><feBlend in="SourceGraphic" in2="effect1_dropShadow" result="shape"/></filter></defs></svg>