<svg width="384" height="374" fill="none" xmlns="http://www.w3.org/2000/svg"><g filter="url(#filter0_d)"><rect x="72" y="28" width="240" height="230" rx="36" fill="#fff"/></g><path d="M92.882 59.06h-1.215v3.058h-1.745v-7.59h1.745v3.068h1.258l1.995-3.068h1.854l-2.483 3.665 2.559 3.925h-1.995l-1.973-3.058zm10.388-2.776l-2.634 6.191c-.268.673-.6 1.146-.998 1.42-.39.276-.864.413-1.42.413a2.96 2.96 0 01-.9-.141 1.986 1.986 0 01-.727-.39l.618-1.204a1.468 1.468 0 00.955.369c.23 0 .419-.058.563-.174.145-.108.275-.293.39-.553l.022-.054-2.526-5.877h1.746l1.637 3.958 1.648-3.958h1.626zm6.617 0v5.834h-1.691v-4.446h-2.429v4.446h-1.681v-5.834h5.801zm1.622 0h1.681v3.47l2.84-3.47h1.551v5.834H115.9v-3.47l-2.83 3.47h-1.561v-5.834zm12.599 1.388h-1.974v4.446h-1.68v-4.446h-1.974v-1.388h5.628v1.388zm6.328 1.55c0 .022-.011.174-.032.456h-4.413c.079.361.267.647.564.857.296.21.665.314 1.106.314.303 0 .571-.043.802-.13.238-.094.459-.239.661-.434l.9.976c-.549.629-1.351.943-2.407.943-.658 0-1.239-.126-1.745-.38a2.853 2.853 0 01-1.171-1.072 2.94 2.94 0 01-.412-1.551c0-.571.133-1.084.401-1.54.274-.462.647-.82 1.117-1.073a3.27 3.27 0 011.593-.39c.571 0 1.088.123 1.551.368.462.246.824.6 1.084 1.063.268.455.401.986.401 1.594zm-3.025-1.745c-.383 0-.705.109-.965.325-.26.217-.419.514-.477.89h2.873a1.369 1.369 0 00-.477-.879 1.41 1.41 0 00-.954-.336zm9.366-1.301c.629 0 1.189.13 1.68.39.499.253.89.611 1.171 1.074.282.462.423.983.423 1.561a2.94 2.94 0 01-.423 1.561 2.917 2.917 0 01-1.171 1.085c-.491.253-1.051.38-1.68.38a4.08 4.08 0 01-1.518-.272 2.935 2.935 0 01-1.117-.802l.965-.911c.441.455.976.683 1.605.683.419 0 .78-.105 1.084-.314.304-.21.51-.496.618-.857h-2.45v-1.16h2.428a1.566 1.566 0 00-.618-.824c-.296-.203-.65-.304-1.062-.304-.622 0-1.157.231-1.605.694l-.965-.9a2.789 2.789 0 011.117-.802 3.94 3.94 0 011.518-.282zm9.111 1.496h-1.973v4.446h-1.681v-4.446h-1.973v-1.388h5.627v1.388zm.902-1.388h1.68v3.47l2.841-3.47h1.55v5.834h-1.68v-3.47l-2.83 3.47h-1.561v-5.834zm13.034-.086c.904 0 1.598.216 2.082.65.484.427.726 1.074.726 1.941v3.329h-1.583v-.727c-.318.542-.91.813-1.778.813-.448 0-.838-.075-1.171-.227a1.748 1.748 0 01-.748-.63 1.64 1.64 0 01-.26-.91c0-.542.202-.968.607-1.28.412-.31 1.044-.466 1.897-.466h1.345c0-.368-.112-.65-.336-.845-.224-.203-.56-.304-1.009-.304-.31 0-.618.05-.921.152a2.34 2.34 0 00-.759.39l-.607-1.182a3.664 3.664 0 011.138-.52 5.181 5.181 0 011.377-.184zm-.13 4.868c.289 0 .546-.065.77-.195.224-.138.383-.336.477-.597v-.596h-1.16c-.694 0-1.041.228-1.041.683 0 .217.083.39.249.52.174.123.409.185.705.185zm6.977-1.16h-.878v2.212h-1.691v-5.834h1.691v2.267h.911l1.583-2.267h1.8l-2.039 2.798 2.18 3.036h-1.995l-1.562-2.212zm10.958.824v2.667h-1.572v-1.28h-4.999v-5.833h1.681v4.446h2.353v-4.446h1.691v4.446h.846zm1.064-4.446h1.68v3.47l2.841-3.47h1.55v5.834h-1.68v-3.47l-2.83 3.47h-1.561v-5.834zm7.697 0h1.681v3.47l2.841-3.47h1.55v5.834h-1.68v-3.47l-2.83 3.47h-1.562v-5.834zm16.613 0l-2.635 6.191c-.267.673-.6 1.146-.997 1.42-.391.276-.864.413-1.421.413-.303 0-.603-.047-.9-.141a1.988 1.988 0 01-.726-.39l.618-1.204a1.46 1.46 0 00.954.369c.231 0 .419-.058.564-.174.144-.108.275-.293.39-.553l.022-.054-2.526-5.877h1.745l1.638 3.958 1.648-3.958h1.626zm6.662 5.92a3.659 3.659 0 01-1.68-.38 2.959 2.959 0 01-1.16-1.072 2.94 2.94 0 01-.412-1.551c0-.578.137-1.095.412-1.55.281-.456.668-.81 1.16-1.063a3.574 3.574 0 011.68-.39c.615 0 1.15.13 1.605.39.463.253.799.618 1.008 1.095l-1.312.705c-.303-.535-.741-.802-1.312-.802-.44 0-.806.144-1.095.433-.289.29-.433.683-.433 1.182 0 .499.144.893.433 1.182.289.289.655.434 1.095.434.579 0 1.016-.268 1.312-.803l1.312.716a2.316 2.316 0 01-1.008 1.084c-.455.26-.99.39-1.605.39zm8.097-3.133c.687.231 1.031.694 1.031 1.388 0 .527-.199.936-.597 1.225-.397.29-.99.434-1.778.434h-3.112v-5.834h2.982c.73 0 1.301.134 1.713.402.412.26.618.628.618 1.105 0 .29-.076.546-.228.77a1.432 1.432 0 01-.629.51zm-2.905-.39h1.279c.593 0 .889-.21.889-.63 0-.411-.296-.617-.889-.617h-1.279v1.247zm1.42 2.287c.622 0 .933-.213.933-.64 0-.223-.073-.386-.217-.487-.145-.109-.373-.163-.683-.163h-1.453v1.29h1.42zm6.506 1.236a3.574 3.574 0 01-1.659-.38 2.911 2.911 0 01-1.138-1.072 2.94 2.94 0 01-.412-1.551c0-.578.137-1.095.412-1.55.275-.456.654-.81 1.138-1.063a3.492 3.492 0 011.659-.39c.615 0 1.164.13 1.648.39.485.253.864.607 1.139 1.063.275.455.412.972.412 1.55a2.94 2.94 0 01-.412 1.55 2.907 2.907 0 01-1.139 1.074c-.484.253-1.033.38-1.648.38zm0-1.387c.434 0 .788-.145 1.063-.434.282-.297.423-.69.423-1.182s-.141-.882-.423-1.171c-.275-.296-.629-.444-1.063-.444-.433 0-.791.148-1.073.444-.282.29-.423.68-.423 1.171 0 .492.141.886.423 1.182.282.289.64.434 1.073.434zm10.033-1.594c0 .021-.011.173-.033.455h-4.413c.08.361.268.647.564.857.297.21.665.314 1.106.314.304 0 .571-.043.803-.13.238-.094.459-.239.661-.434l.9.976c-.549.629-1.352.943-2.407.943-.658 0-1.24-.126-1.746-.38a2.86 2.86 0 01-1.171-1.072 2.949 2.949 0 01-.412-1.551c0-.571.134-1.084.401-1.54.275-.462.647-.82 1.117-1.073a3.274 3.274 0 011.594-.39c.571 0 1.088.123 1.551.368.462.246.824.6 1.084 1.063.267.455.401.986.401 1.594zm-3.025-1.746c-.383 0-.705.109-.965.325-.26.217-.419.514-.477.89h2.873c-.058-.37-.217-.662-.477-.879a1.41 1.41 0 00-.954-.336zm8.995.195h-2.993v4.446h-1.681v-5.834h4.674v1.388zm3.385 4.532a3.569 3.569 0 01-1.659-.38 2.914 2.914 0 01-1.139-1.072 2.949 2.949 0 01-.412-1.551c0-.578.138-1.095.412-1.55.275-.456.655-.81 1.139-1.063a3.487 3.487 0 011.659-.39c.614 0 1.164.13 1.648.39a2.83 2.83 0 011.138 1.063c.275.455.412.972.412 1.55a2.94 2.94 0 01-.412 1.55 2.905 2.905 0 01-1.138 1.074c-.484.253-1.034.38-1.648.38zm0-1.387c.433 0 .788-.145 1.062-.434.282-.297.423-.69.423-1.182s-.141-.882-.423-1.171c-.274-.296-.629-.444-1.062-.444-.434 0-.792.148-1.074.444-.282.29-.422.68-.422 1.171 0 .492.14.886.422 1.182.282.289.64.434 1.074.434zM93.185 70.686c.557 0 1.045.115 1.464.346.42.225.74.543.965.955.231.412.347.889.347 1.43a2.71 2.71 0 01-.412 1.486 2.708 2.708 0 01-1.128.998c-.484.231-1.033.347-1.648.347-1.019 0-1.821-.326-2.407-.976-.578-.658-.867-1.62-.867-2.884 0-1.171.253-2.104.759-2.797.513-.702 1.297-1.16 2.353-1.378l2.775-.552.228 1.452-2.45.488c-.665.13-1.16.347-1.486.65-.318.304-.506.734-.564 1.291.253-.275.557-.484.911-.629a2.91 2.91 0 011.16-.227zm-.4 4.25c.433 0 .78-.141 1.04-.423.267-.282.401-.64.401-1.073 0-.441-.134-.792-.401-1.052-.26-.26-.607-.39-1.04-.39-.442 0-.796.13-1.063.39-.268.26-.402.61-.402 1.052 0 .44.138.802.412 1.084.275.275.626.412 1.052.412zm7.761-4.738c.542 0 1.033.126 1.474.38.448.245.799.596 1.052 1.05.253.449.38.973.38 1.573s-.127 1.128-.38 1.583a2.725 2.725 0 01-1.052 1.052 2.976 2.976 0 01-1.474.368c-.745 0-1.33-.234-1.757-.704v2.721h-1.691v-7.937h1.615v.673c.42-.506 1.03-.76 1.833-.76zm-.293 4.619c.434 0 .788-.145 1.063-.434.281-.296.422-.69.422-1.182 0-.491-.141-.882-.422-1.171-.275-.296-.629-.445-1.063-.445-.434 0-.791.149-1.073.445-.275.29-.413.68-.413 1.171 0 .492.138.886.413 1.182.281.289.64.434 1.073.434zm7.116 1.387a3.574 3.574 0 01-1.659-.38 2.911 2.911 0 01-1.138-1.073 2.94 2.94 0 01-.412-1.55c0-.578.137-1.095.412-1.55.275-.456.654-.81 1.138-1.063a3.492 3.492 0 011.659-.39c.615 0 1.164.13 1.648.39.485.253.864.607 1.139 1.063.275.455.412.972.412 1.55a2.94 2.94 0 01-.412 1.55 2.907 2.907 0 01-1.139 1.074c-.484.253-1.033.38-1.648.38zm0-1.387c.434 0 .788-.145 1.063-.434.282-.296.423-.69.423-1.182 0-.491-.141-.882-.423-1.171-.275-.296-.629-.445-1.063-.445a1.42 1.42 0 00-1.073.445c-.282.29-.423.68-.423 1.171 0 .492.141.886.423 1.182.282.289.64.434 1.073.434zm6.932-.911h-.878v2.212h-1.692v-5.834h1.692v2.266h.91l1.583-2.266h1.8l-2.038 2.798 2.179 3.036h-1.995l-1.561-2.212zm9.878-.683c0 .021-.011.173-.033.455h-4.413c.08.362.268.647.564.857.296.21.665.314 1.106.314.303 0 .571-.043.802-.13a2.02 2.02 0 00.662-.434l.9.976c-.55.629-1.352.943-2.408.943-.657 0-1.239-.126-1.745-.38a2.853 2.853 0 01-1.171-1.073 2.94 2.94 0 01-.412-1.55c0-.571.134-1.084.401-1.54.275-.462.647-.82 1.117-1.073a3.272 3.272 0 011.594-.39 3.26 3.26 0 011.55.368c.463.246.824.6 1.084 1.063.268.455.402.986.402 1.594zm-3.026-1.746c-.383 0-.704.108-.965.325-.26.217-.419.513-.477.89h2.874c-.058-.37-.217-.662-.477-.879a1.415 1.415 0 00-.955-.336zm7.759-1.28c.542 0 1.034.127 1.475.38a2.63 2.63 0 011.051 1.052c.253.448.38.972.38 1.572 0 .6-.127 1.128-.38 1.583a2.723 2.723 0 01-1.051 1.052 2.98 2.98 0 01-1.475.368c-.744 0-1.33-.234-1.756-.704v2.721h-1.692v-7.937h1.616v.673c.419-.506 1.03-.76 1.832-.76zm-.293 4.62c.434 0 .788-.145 1.063-.434.282-.296.423-.69.423-1.182 0-.491-.141-.882-.423-1.171-.275-.296-.629-.445-1.063-.445a1.42 1.42 0 00-1.073.445c-.275.29-.412.68-.412 1.171 0 .492.137.886.412 1.182.282.289.64.434 1.073.434zm6.555-4.62c.904 0 1.598.218 2.082.651.484.427.726 1.074.726 1.941v3.329h-1.583v-.727c-.318.542-.91.813-1.778.813-.448 0-.838-.075-1.171-.227a1.748 1.748 0 01-.748-.63 1.64 1.64 0 01-.26-.91c0-.542.202-.968.607-1.28.412-.31 1.045-.466 1.898-.466h1.344c0-.368-.112-.65-.336-.845-.224-.203-.56-.304-1.008-.304a2.9 2.9 0 00-.922.152 2.361 2.361 0 00-.759.39l-.607-1.182a3.664 3.664 0 011.138-.52 5.181 5.181 0 011.377-.184zm-.13 4.869c.289 0 .546-.065.77-.195.224-.138.383-.336.477-.597v-.596h-1.16c-.694 0-1.041.228-1.041.683 0 .217.083.39.249.52.174.123.409.185.705.185z" fill="#24252E"/><path d="M90.601 89.068a1.49 1.49 0 01-.72-.174 1.32 1.32 0 01-.684-1.184c0-.258.061-.49.182-.695a1.28 1.28 0 01.505-.485c.215-.12.456-.179.721-.179.208 0 .397.036.57.107.172.068.318.17.44.307l-.247.239a.99.99 0 00-.748-.315 1.08 1.08 0 00-.535.133.973.973 0 00-.375.368 1.026 1.026 0 00-.133.52c0 .192.044.367.133.524a.982.982 0 00.375.364c.16.088.338.133.535.133a.992.992 0 00.748-.32l.247.24a1.18 1.18 0 01-.444.311 1.48 1.48 0 01-.57.106zm3.018-2.041v2.011h-.364v-.812a1.528 1.528 0 01-.65.152c-.25 0-.443-.058-.58-.175-.136-.116-.205-.29-.205-.523v-.653h.365v.63c0 .139.043.244.129.315.088.07.21.106.368.106.177 0 .368-.044.573-.133v-.918h.364zm2.525 1.017c0 .028-.003.064-.008.11h-1.631c.022.177.1.32.231.429.134.106.3.16.497.16.24 0 .434-.082.58-.244l.202.236a.878.878 0 01-.341.242 1.169 1.169 0 01-.452.084c-.213 0-.401-.043-.566-.13a.958.958 0 01-.383-.367 1.06 1.06 0 01-.133-.532c0-.194.043-.37.13-.527a.942.942 0 01.36-.364c.154-.089.328-.133.52-.133s.363.044.512.133a.89.89 0 01.353.364c.086.157.13.336.13.539zm-.994-.729a.636.636 0 00-.44.16.646.646 0 00-.205.417h1.29a.635.635 0 00-.645-.577zm2.973.03h-.736v1.693h-.365v-1.692h-.736v-.32h1.837v.32z" fill="#373943"/><path d="M95.885 100.218a2.07 2.07 0 01-.65 1.529c-.434.419-1.06.679-1.876.78v1.215h-1.084v-1.182a5.904 5.904 0 01-1.529-.282c-.484-.159-.875-.354-1.17-.586l.595-1.323c.275.203.597.373.965.51a4.42 4.42 0 001.139.26v-1.81a8.182 8.182 0 01-1.301-.412 2.317 2.317 0 01-.89-.662c-.238-.296-.357-.686-.357-1.17 0-.6.217-1.114.65-1.54.441-.434 1.074-.698 1.898-.792V93.55h1.084v1.182c.89.073 1.623.293 2.201.662l-.542 1.333a4.311 4.311 0 00-1.659-.563v1.843c.506.115.933.25 1.28.401.354.145.65.365.889.661.238.29.357.673.357 1.15zm-4.413-3.22c0 .18.07.328.207.444.137.116.336.213.596.293v-1.54c-.275.065-.477.17-.607.315a.686.686 0 00-.196.487zm1.887 4.098c.26-.058.456-.152.586-.282a.635.635 0 00.195-.466.555.555 0 00-.206-.445c-.13-.115-.322-.217-.575-.303v1.496zm9.974-3.416c.484 0 .925.098 1.323.293.398.195.712.474.943.835.232.354.347.766.347 1.236 0 .506-.126.951-.379 1.334a2.51 2.51 0 01-1.041.889 3.401 3.401 0 01-1.453.304c-1.063 0-1.894-.326-2.494-.976-.6-.651-.9-1.58-.9-2.787 0-.86.163-1.597.488-2.212a3.33 3.33 0 011.355-1.398c.586-.319 1.262-.477 2.028-.477.405 0 .792.046 1.16.14.376.087.694.214.954.38l-.65 1.29c-.376-.253-.85-.38-1.421-.38-.643 0-1.153.189-1.528.565-.376.375-.579.921-.608 1.637.449-.448 1.074-.672 1.876-.672zm-.358 3.579c.376 0 .68-.102.911-.304.239-.202.358-.477.358-.824s-.119-.622-.358-.824c-.231-.21-.542-.314-.932-.314-.383 0-.698.108-.944.325a1.02 1.02 0 00-.368.813c0 .332.119.604.358.813.238.21.563.315.975.315zm9.281-3.557c1.07 0 1.857.213 2.363.64.514.426.77.998.77 1.713 0 .463-.115.886-.347 1.269-.231.376-.585.679-1.062.91-.47.225-1.052.337-1.746.337a6.196 6.196 0 01-1.583-.206 4.154 4.154 0 01-1.312-.608l.694-1.344c.289.217.622.387.998.509.375.116.762.174 1.16.174.441 0 .788-.087 1.041-.26a.833.833 0 00.379-.727.814.814 0 00-.401-.737c-.26-.166-.716-.25-1.366-.25h-1.941l.39-4.271h4.63v1.41h-3.166l-.119 1.441h.618zm7.338.239c.666.108 1.175.358 1.529.748.354.383.532.86.532 1.431 0 .441-.116.849-.347 1.225-.232.369-.586.665-1.063.889-.47.225-1.048.337-1.735.337a6.196 6.196 0 01-1.583-.206 4.154 4.154 0 01-1.312-.608l.683-1.344c.289.217.622.387.998.509.383.116.773.174 1.171.174.441 0 .788-.083 1.041-.249a.833.833 0 00.379-.727c0-.621-.473-.932-1.42-.932h-.802v-1.16l1.561-1.768h-3.231v-1.41h5.313v1.14l-1.714 1.95zm8.065.51c.376.187.662.433.857.737.202.303.303.654.303 1.051 0 .47-.133.882-.401 1.236-.267.347-.643.618-1.127.814-.485.188-1.045.282-1.681.282-.636 0-1.196-.094-1.681-.282-.477-.196-.849-.467-1.116-.814a2.026 2.026 0 01-.391-1.236c0-.397.098-.748.293-1.051a2.2 2.2 0 01.857-.738 1.87 1.87 0 01-.651-.65 1.81 1.81 0 01-.228-.911c0-.44.123-.824.369-1.15.246-.325.589-.574 1.03-.747.441-.181.947-.272 1.518-.272.578 0 1.088.09 1.529.272.448.173.795.422 1.041.748.245.325.368.708.368 1.149 0 .34-.076.643-.227.91a1.838 1.838 0 01-.662.651zm-2.049-2.44c-.354 0-.64.087-.857.26-.209.166-.314.398-.314.694 0 .29.105.517.314.683.21.166.495.25.857.25.361 0 .65-.084.867-.25a.814.814 0 00.326-.683c0-.296-.109-.528-.326-.694-.217-.174-.506-.26-.867-.26zm0 5.269c.441 0 .788-.097 1.041-.292.26-.203.39-.47.39-.803a.938.938 0 00-.39-.791c-.253-.196-.6-.293-1.041-.293-.434 0-.777.097-1.03.293a.947.947 0 00-.38.791c0 .34.127.607.38.803.253.195.596.292 1.03.292z" fill="#3E54D8"/><path d="M135.491 93.311h1.508l-3.579 10.214h-1.507l3.578-10.214zm10.537 6.983a1.99 1.99 0 01-.65 1.496c-.427.405-1.048.65-1.865.737v1.215h-.889v-1.204a6.07 6.07 0 01-1.518-.293c-.477-.159-.857-.361-1.139-.607l.488-1.095c.268.217.593.401.976.553.383.145.781.235 1.193.271v-2.169a8.619 8.619 0 01-1.291-.4 2.312 2.312 0 01-.856-.651c-.231-.29-.347-.669-.347-1.139 0-.585.213-1.084.64-1.496.426-.412 1.044-.658 1.854-.737v-1.226h.889v1.204c.405.022.799.09 1.182.206.39.116.73.267 1.019.455l-.445 1.096a4.512 4.512 0 00-1.756-.586v2.19c.52.123.95.257 1.29.401.347.145.636.362.867.651.239.282.358.658.358 1.128zm-4.499-3.35c0 .238.094.43.281.574.188.144.459.267.814.369v-1.93c-.369.057-.644.173-.824.347a.851.851 0 00-.271.64zm1.984 4.401c.383-.057.665-.17.845-.336a.791.791 0 00.282-.618.69.69 0 00-.292-.585c-.196-.152-.474-.279-.835-.38v1.919zm11.29-2.895c.397.181.701.427.911.738.216.303.325.661.325 1.073 0 .463-.13.867-.39 1.214-.253.347-.615.615-1.085.803-.47.181-1.015.271-1.637.271-.622 0-1.167-.09-1.637-.271-.463-.188-.821-.456-1.074-.803a2.004 2.004 0 01-.379-1.214c0-.412.105-.77.314-1.073.21-.311.51-.557.9-.738a1.861 1.861 0 01-.704-.65 1.849 1.849 0 01-.239-.944c0-.426.116-.798.347-1.116.239-.318.571-.564.997-.738.427-.173.918-.26 1.475-.26.564 0 1.059.087 1.486.26.426.174.758.42.997.738s.358.69.358 1.117c0 .354-.083.665-.25.932a1.919 1.919 0 01-.715.661zm-1.876-2.602c-.441 0-.791.094-1.052.282-.253.188-.379.452-.379.792 0 .325.126.585.379.78.261.188.611.282 1.052.282.448 0 .802-.094 1.063-.282a.928.928 0 00.39-.78.913.913 0 00-.401-.792c-.26-.188-.611-.282-1.052-.282zm0 5.595c.521 0 .933-.109 1.236-.325.304-.217.456-.517.456-.9 0-.376-.152-.672-.456-.89-.303-.216-.715-.325-1.236-.325-.52 0-.929.109-1.225.326a1.044 1.044 0 00-.445.889c0 .383.149.683.445.9.296.216.705.325 1.225.325zm6.401-3.654c1.07 0 1.861.21 2.374.629.514.412.77.976.77 1.691 0 .456-.112.868-.336 1.236-.224.369-.56.662-1.008.879-.448.216-1.001.325-1.659.325a5.434 5.434 0 01-1.572-.228 3.96 3.96 0 01-1.28-.65l.597-1.095a3.3 3.3 0 001.008.552c.398.131.806.196 1.225.196.499 0 .889-.102 1.171-.304.289-.21.434-.495.434-.857 0-.39-.156-.683-.466-.878-.304-.202-.828-.303-1.573-.303h-1.832l.39-4.131h4.457v1.181h-3.264l-.163 1.757h.727zm7.123 4.76a2.96 2.96 0 01-1.626-.456c-.477-.31-.853-.759-1.128-1.344-.274-.593-.412-1.294-.412-2.103 0-.81.138-1.508.412-2.093.275-.593.651-1.041 1.128-1.345a2.912 2.912 0 011.626-.466c.607 0 1.15.156 1.627.466.484.304.863.752 1.138 1.345.275.585.412 1.283.412 2.093s-.137 1.51-.412 2.103c-.275.585-.654 1.034-1.138 1.344a2.964 2.964 0 01-1.627.456zm0-1.225c.542 0 .969-.224 1.28-.673.318-.448.477-1.116.477-2.005 0-.89-.159-1.558-.477-2.006-.311-.448-.738-.673-1.28-.673-.535 0-.961.225-1.279.673-.311.448-.466 1.116-.466 2.005 0 .89.155 1.558.466 2.006.318.449.744.673 1.279.673zm7.296 1.225c-.607 0-1.15-.152-1.627-.456-.477-.31-.853-.759-1.127-1.344-.275-.593-.412-1.294-.412-2.103 0-.81.137-1.508.412-2.093.274-.593.65-1.041 1.127-1.345a2.916 2.916 0 011.627-.466c.607 0 1.149.156 1.626.466.484.304.864.752 1.139 1.345.274.585.412 1.283.412 2.093s-.138 1.51-.412 2.103c-.275.585-.655 1.034-1.139 1.344a2.96 2.96 0 01-1.626.456zm0-1.225c.542 0 .968-.224 1.279-.673.318-.448.477-1.116.477-2.005 0-.89-.159-1.558-.477-2.006-.311-.448-.737-.673-1.279-.673-.535 0-.962.225-1.28.673-.31.448-.466 1.116-.466 2.005 0 .89.156 1.558.466 2.006.318.449.745.673 1.28.673z" fill="#606371"/><g filter="url(#filter1_d)"><g clip-path="url(#clip0)"><rect x="89" y="117.925" width="206" height="98.043" rx="4.879" fill="#fff"/><g filter="url(#filter2_d)"><path fill="#FCFDFF" d="M89.272 188.585h275.13v27.106H89.272z"/></g><g clip-path="url(#clip1)"><path fill-rule="evenodd" clip-rule="evenodd" d="M234.094 205.412a.229.229 0 01.121-.018c.041.006.08.024.111.051l3.918 3.393a.22.22 0 01.063.236.215.215 0 01-.196.145l-1.446.064.838 1.841a.218.218 0 01-.107.287l-.934.425a.217.217 0 01-.287-.107l-.84-1.841-.993 1.048a.229.229 0 01-.111.063.22.22 0 01-.226-.091.214.214 0 01-.037-.122v-5.177c0-.041.012-.082.034-.117a.222.222 0 01.092-.08zm.307.672v4.159l.841-.887a.218.218 0 01.355.06l.882 1.935.539-.245-.881-1.936a.213.213 0 01.013-.203.211.211 0 01.175-.103l1.223-.054-3.147-2.726z" fill="#000"/></g><path d="M89.135 118.061h205.729v15.151H89.136v-15.151z" fill="#F5F6FD" stroke="#E6EEFF" stroke-width=".271"/><path d="M97.953 126.414H96.34l-.334.759h-.447l1.375-3.035h.43l1.379 3.035h-.456l-.334-.759zm-.152-.346l-.654-1.488-.655 1.488h1.31zm2.29.134h-.478v.971h-.416v-2.298h.416v.971h.486l.746-.971h.447l-.872 1.106.933 1.192h-.491l-.771-.971zm4.153.607v.915h-.395v-.551h-2.06v-2.298h.416v1.934h1.258v-1.934h.417v1.934h.364zm.54-1.934h.416v1.674l1.409-1.674h.378v2.298h-.417v-1.674l-1.405 1.674h-.381v-2.298zm4.854 0v2.298h-.373v-.728h-.715l-.504.728h-.446l.559-.785a.774.774 0 01-.399-.255.727.727 0 01-.139-.451c0-.264.09-.463.269-.599.18-.139.427-.208.742-.208h1.006zm-1.592.82c0 .153.048.267.144.342.098.072.244.109.438.109h.637v-.907h-.62c-.399 0-.599.152-.599.456zm73.491.143h-.633v1.335h-.425v-3.035h.425v1.318h.642l.954-1.318h.464l-1.084 1.47 1.136 1.565h-.494l-.985-1.335zm2.809 1.361c-.228 0-.433-.05-.616-.151a1.123 1.123 0 01-.429-.417 1.213 1.213 0 01-.152-.607c0-.225.051-.426.152-.603a1.08 1.08 0 01.429-.416c.183-.101.388-.152.616-.152.229 0 .433.051.612.152.182.098.324.237.425.416.104.177.156.378.156.603 0 .226-.052.428-.156.607a1.092 1.092 0 01-.425.417 1.223 1.223 0 01-.612.151zm0-.364a.773.773 0 00.395-.1.726.726 0 00.277-.286.88.88 0 00.1-.425.86.86 0 00-.1-.421.7.7 0 00-.277-.286.783.783 0 00-.395-.1.81.81 0 00-.399.1.74.74 0 00-.277.286.86.86 0 00-.1.421.88.88 0 00.1.425.769.769 0 00.277.286c.119.067.252.1.399.1zm3.751-1.96v2.298h-.417v-1.934h-.989l-.026.512a5.523 5.523 0 01-.082.776c-.041.206-.107.37-.2.495a.453.453 0 01-.386.186.978.978 0 01-.255-.039l.026-.351a.5.5 0 00.104.013.282.282 0 00.26-.152.965.965 0 00.113-.36c.017-.139.033-.337.047-.594l.039-.85h1.766zm.805 0h.416v1.674l1.41-1.674h.377v2.298h-.417v-1.674l-1.405 1.674h-.381v-2.298zm4.846 0v2.298h-.417v-.928a1.74 1.74 0 01-.741.174c-.287 0-.508-.067-.664-.2-.156-.133-.234-.332-.234-.598v-.746h.416v.72c0 .159.049.279.148.36.101.081.241.121.42.121.203 0 .421-.05.655-.152v-1.049h.417zm2.885 1.162c0 .032-.003.074-.008.126h-1.865a.734.734 0 00.264.49.889.889 0 00.568.182.853.853 0 00.664-.277l.23.268a.998.998 0 01-.391.278 1.326 1.326 0 01-.516.095 1.38 1.38 0 01-.646-.147 1.09 1.09 0 01-.438-.421 1.213 1.213 0 01-.152-.607c0-.222.049-.423.148-.603a1.07 1.07 0 01.412-.416c.176-.101.374-.152.594-.152.22 0 .415.051.585.152.174.098.308.237.404.416.098.18.147.385.147.616zm-1.136-.833c-.2 0-.367.061-.503.183a.736.736 0 00-.234.477h1.474a.724.724 0 00-.238-.473.705.705 0 00-.499-.187zm2.784 1.995c-.234 0-.444-.05-.629-.151a1.123 1.123 0 01-.585-1.024c0-.225.052-.426.156-.603a1.08 1.08 0 01.429-.416c.185-.101.395-.152.629-.152.208 0 .393.042.555.126a.895.895 0 01.382.364l-.317.204a.704.704 0 00-.269-.247.839.839 0 00-.763.017.732.732 0 00-.282.286.87.87 0 00-.1.421c0 .162.034.305.1.43.07.121.163.215.282.281.121.067.257.1.408.1a.712.712 0 00.624-.329l.317.199a.925.925 0 01-.382.369 1.188 1.188 0 01-.555.125zm3.159-1.96h-.841v1.934h-.416v-1.934h-.842v-.364h2.099v.364zm1.992.742c.298.075.446.261.446.559a.542.542 0 01-.229.469c-.151.11-.376.164-.677.164h-1.106v-2.298h1.067c.272 0 .484.052.638.156a.49.49 0 01.229.434.517.517 0 01-.099.316.602.602 0 01-.269.2zm-1.158-.117h.624c.159 0 .279-.029.36-.087a.287.287 0 00.126-.252c0-.219-.162-.329-.486-.329h-.624v.668zm.668.989c.173 0 .303-.028.39-.083.087-.055.13-.14.13-.256 0-.118-.04-.206-.121-.264-.078-.058-.203-.087-.373-.087h-.694v.69h.668zm2.573.346c-.229 0-.434-.05-.616-.151a1.133 1.133 0 01-.43-.417 1.212 1.212 0 01-.151-.607c0-.225.05-.426.151-.603.105-.179.248-.318.43-.416.182-.101.387-.152.616-.152.228 0 .432.051.611.152.182.098.324.237.425.416.104.177.156.378.156.603 0 .226-.052.428-.156.607a1.092 1.092 0 01-.425.417 1.222 1.222 0 01-.611.151zm0-.364a.77.77 0 00.394-.1.728.728 0 00.278-.286.892.892 0 00.1-.425.87.87 0 00-.1-.421.703.703 0 00-.278-.286.78.78 0 00-.394-.1.736.736 0 00-.677.386.87.87 0 00-.1.421c0 .159.034.301.1.425a.764.764 0 00.278.286c.118.067.251.1.399.1zm18.789-2.32h-1.041v2.658h-.425v-2.658h-1.036v-.377h2.502v.377zm2.298 1.522c0 .032-.003.074-.008.126h-1.865a.734.734 0 00.264.49.889.889 0 00.568.182.853.853 0 00.664-.277l.23.268a.998.998 0 01-.391.278 1.326 1.326 0 01-.516.095c-.243 0-.458-.049-.646-.147a1.09 1.09 0 01-.438-.421 1.213 1.213 0 01-.152-.607c0-.222.049-.423.148-.603a1.07 1.07 0 01.412-.416c.176-.101.374-.152.594-.152.22 0 .415.051.585.152.174.098.308.237.404.416.098.18.147.385.147.616zm-1.136-.833c-.2 0-.367.061-.503.183a.736.736 0 00-.234.477h1.474a.724.724 0 00-.238-.473.705.705 0 00-.499-.187zm2.676.998h-.478v.971h-.416v-2.298h.416v.971h.486l.746-.971h.447l-.872 1.106.933 1.192h-.49l-.772-.971zm3.618-1.327l-1.114 2.528c-.099.235-.214.399-.347.495a.78.78 0 01-.473.143.979.979 0 01-.33-.057.642.642 0 01-.26-.156l.178-.312a.578.578 0 00.412.169.38.38 0 00.251-.082.647.647 0 00.187-.273l.074-.161-1.015-2.294h.434l.802 1.839.794-1.839h.407zm3.701 0v2.298h-3.274v-2.298h.416v1.934h1.015v-1.934h.416v1.934h1.011v-1.934h.416zm.343 1.934v.855h-.391v-.491h-.386v-.364h.777zm1.285-1.956c.318 0 .561.078.729.234.17.156.256.389.256.699v1.387h-.395v-.303a.668.668 0 01-.299.247 1.143 1.143 0 01-.456.082c-.257 0-.464-.062-.62-.186a.601.601 0 01-.23-.49.6.6 0 01.221-.486c.148-.124.382-.186.703-.186h.659v-.083c0-.179-.052-.316-.156-.412-.104-.095-.257-.143-.46-.143-.135 0-.268.023-.399.07a.984.984 0 00-.329.177l-.174-.312c.119-.095.261-.168.425-.217.165-.052.34-.078.525-.078zm-.095 2.026a.781.781 0 00.412-.105.62.62 0 00.251-.303v-.321h-.642c-.352 0-.529.118-.529.356 0 .115.045.206.135.273.089.066.214.1.373.1zm3.673-2.004v2.298h-.373v-.728h-.716l-.503.728h-.447l.56-.785a.766.766 0 01-.399-.255.721.721 0 01-.139-.451c0-.264.09-.463.269-.599.179-.139.426-.208.741-.208h1.007zm-1.592.82c0 .153.048.267.143.342.098.072.244.109.438.109h.638v-.907h-.621c-.399 0-.598.152-.598.456zm6.023 1.114v.915h-.394v-.551h-2.06v-2.298h.416v1.934h1.258v-1.934h.416v1.934h.364zm2.618-.772c0 .032-.003.074-.009.126h-1.865a.734.734 0 00.264.49.892.892 0 00.569.182.851.851 0 00.663-.277l.23.268a1.002 1.002 0 01-.39.278 1.329 1.329 0 01-.516.095 1.38 1.38 0 01-.647-.147 1.09 1.09 0 01-.438-.421 1.212 1.212 0 01-.151-.607c0-.222.049-.423.147-.603.101-.179.239-.318.412-.416.176-.101.374-.152.594-.152.22 0 .415.051.586.152.173.098.308.237.403.416.098.18.148.385.148.616zm-1.137-.833a.726.726 0 00-.503.183.736.736 0 00-.234.477h1.475a.73.73 0 00-.738-.66zm1.782-.329h.417v.976h1.31v-.976h.416v2.298h-.416v-.962h-1.31v.962h-.417v-2.298zm3.772-.022c.318 0 .561.078.729.234.17.156.256.389.256.699v1.387h-.395v-.303a.668.668 0 01-.299.247 1.143 1.143 0 01-.456.082c-.257 0-.464-.062-.62-.186a.601.601 0 01-.23-.49c0-.202.074-.364.222-.486.147-.124.381-.186.702-.186h.659v-.083c0-.179-.052-.316-.156-.412-.104-.095-.257-.143-.46-.143-.135 0-.268.023-.399.07a.994.994 0 00-.329.177l-.174-.312c.119-.095.261-.168.425-.217.165-.052.34-.078.525-.078zm-.095 2.026a.781.781 0 00.412-.105.62.62 0 00.251-.303v-.321h-.642c-.352 0-.529.118-.529.356 0 .115.045.206.135.273.089.066.214.1.373.1zm17.353.329c-.303 0-.578-.066-.824-.199a1.51 1.51 0 01-.572-.555 1.553 1.553 0 01-.208-.798c0-.295.069-.56.208-.794a1.46 1.46 0 01.577-.555 1.67 1.67 0 01.824-.204c.237 0 .454.04.65.121a1.3 1.3 0 01.503.352l-.282.273a1.13 1.13 0 00-.854-.36c-.226 0-.429.05-.612.152a1.11 1.11 0 00-.429.42 1.178 1.178 0 00-.152.595c0 .219.051.419.152.598.104.176.247.315.429.416.183.102.386.152.612.152.338 0 .623-.121.854-.364l.282.273a1.352 1.352 0 01-.507.356 1.696 1.696 0 01-.651.121zm3.738-2.333l-1.115 2.528c-.098.235-.214.399-.347.495a.779.779 0 01-.473.143.978.978 0 01-.329-.057.636.636 0 01-.26-.156l.177-.312a.58.58 0 00.412.169.38.38 0 00.252-.082.656.656 0 00.187-.273l.073-.161-1.015-2.294h.434l.802 1.839.794-1.839h.408zm3.076 0v2.298h-.377v-1.678l-.859 1.418h-.182l-.85-1.422v1.682h-.382v-2.298h.429l.903 1.552.928-1.552h.39zm3.46 0v2.298h-.377v-1.678l-.859 1.418h-.182l-.85-1.422v1.682h-.382v-2.298h.43l.902 1.552.928-1.552h.39zm1.63-.022c.318 0 .561.078.729.234.171.156.256.389.256.699v1.387h-.395v-.303a.668.668 0 01-.299.247 1.142 1.142 0 01-.455.082c-.258 0-.464-.062-.621-.186a.6.6 0 01-.229-.49c0-.202.073-.364.221-.486.147-.124.381-.186.702-.186h.66v-.083c0-.179-.053-.316-.157-.412-.104-.095-.257-.143-.459-.143-.136 0-.269.023-.399.07a1 1 0 00-.33.177l-.173-.312c.118-.095.26-.168.425-.217.164-.052.339-.078.524-.078zm-.095 2.026a.781.781 0 00.412-.105.621.621 0 00.252-.303v-.321h-.642c-.353 0-.529.118-.529.356 0 .115.044.206.134.273.09.066.214.1.373.1z" fill="#24252E"/><path d="M98.161 145.959h-1.585l-.303.732h-.81l1.523-3.416h.78l1.527 3.416h-.83l-.302-.732zm-.249-.6l-.541-1.308-.542 1.308h1.084zm4.844 1.332l-.005-2.05-1.005 1.689h-.356l-1.001-1.645v2.006h-.741v-3.416h.653l1.279 2.123 1.259-2.123h.649l.009 3.416h-.741zm3.801-.732h-1.586l-.302.732h-.81l1.522-3.416h.781l1.527 3.416h-.83l-.302-.732zm-.249-.6l-.542-1.308-.541 1.308h1.083zm2.271-1.44h-1.093v-.644h2.977v.644h-1.093v2.772h-.791v-2.772zm-10.418 28.875h-1.585l-.303.731h-.81l1.523-3.415h.78l1.527 3.415h-.83l-.302-.731zm-.249-.601l-.541-1.307-.542 1.307h1.084zm4.844 1.332l-.005-2.049-1.005 1.688h-.356l-1.001-1.644v2.005h-.741v-3.415h.653l1.279 2.122 1.259-2.122h.649l.009 3.415h-.741zm3.859-1.761h.723v1.386c-.186.14-.401.247-.644.322-.244.075-.49.112-.737.112-.355 0-.674-.075-.957-.225a1.722 1.722 0 01-.668-.629 1.764 1.764 0 01-.239-.912 1.673 1.673 0 01.912-1.537c.287-.153.609-.23.966-.23.3 0 .571.051.815.152s.449.247.615.439l-.507.468a1.175 1.175 0 00-.884-.385c-.217 0-.411.045-.58.136a.979.979 0 00-.395.386 1.128 1.128 0 00-.142.571c0 .211.047.4.142.566.094.166.224.296.39.39.169.091.361.137.576.137.227 0 .432-.049.614-.147v-1zm4.589-1.654v3.415h-.649l-1.703-2.073v2.073h-.78v-3.415h.654l1.698 2.074v-2.074h.78zM98.42 198.585a.843.843 0 01.625.845c0 .299-.118.53-.352.692-.23.16-.57.239-1.015.239h-1.766v-3.415h1.669c.416 0 .735.08.956.239.224.16.337.376.337.649a.82.82 0 01-.122.444.814.814 0 01-.332.307zm-1.722-1.044v.805h.785c.195 0 .343-.034.444-.102a.341.341 0 00.151-.303c0-.133-.05-.232-.15-.297-.102-.069-.25-.103-.445-.103h-.785zm.922 2.225c.208 0 .364-.034.468-.102.108-.069.161-.174.161-.317 0-.283-.21-.425-.63-.425h-.921v.844h.922zm2.813-2.186v.903h1.581v.634h-1.581v1.244h-.79v-3.415h2.581v.634h-1.791zm3.927 2.84c-.348 0-.663-.075-.946-.224a1.741 1.741 0 01-.664-.63 1.764 1.764 0 01-.239-.912 1.688 1.688 0 01.903-1.537c.283-.153.6-.23.951-.23.296 0 .563.053.8.157.241.104.443.253.605.449l-.507.468a1.09 1.09 0 00-.859-.4c-.211 0-.4.047-.566.141a.985.985 0 00-.39.386 1.156 1.156 0 00-.137.566c0 .211.046.4.137.566.094.166.224.296.39.39.166.091.355.137.566.137.342 0 .628-.135.859-.405l.507.468c-.162.199-.364.35-.605.454-.24.104-.509.156-.805.156z" fill="#3E54D8"/><path d="M97.897 153.335h-1.614l-.334.759h-.446l1.375-3.036h.429l1.38 3.036h-.456l-.334-.759zm-.152-.347l-.655-1.488-.655 1.488h1.31zm2.552-1.215c.223 0 .422.049.598.148.177.098.314.235.413.412.101.176.151.38.151.611 0 .232-.05.437-.151.616a1.043 1.043 0 01-.413.412 1.208 1.208 0 01-.598.148 1.07 1.07 0 01-.455-.096.945.945 0 01-.347-.277v1.188h-.417v-3.14h.4v.364a.87.87 0 01.35-.286c.142-.066.298-.1.469-.1zm-.035 1.982a.738.738 0 00.673-.386.86.86 0 00.104-.425.833.833 0 00-.104-.42.7.7 0 00-.278-.287.783.783 0 00-.395-.099.762.762 0 00-.672.386.857.857 0 00-.1.42c0 .159.034.301.1.425a.736.736 0 00.278.287c.118.066.25.099.394.099zm2.991-1.982c.223 0 .422.049.599.148.176.098.313.235.412.412.101.176.152.38.152.611 0 .232-.051.437-.152.616a1.047 1.047 0 01-.412.412 1.214 1.214 0 01-.599.148c-.165 0-.316-.032-.455-.096a.94.94 0 01-.347-.277v1.188h-.416v-3.14h.399v.364a.865.865 0 01.351-.286c.142-.066.298-.1.468-.1zm-.034 1.982a.738.738 0 00.672-.386.86.86 0 00.104-.425.833.833 0 00-.104-.42.7.7 0 00-.278-.287.779.779 0 00-.394-.099.76.76 0 00-.673.386.863.863 0 00-.099.42c0 .159.033.301.099.425a.738.738 0 00.278.287c.118.066.25.099.395.099zm1.772-2.879h.416v3.218h-.416v-3.218zm1.211.919h.417v2.299h-.417v-2.299zm.208-.442a.282.282 0 01-.203-.078.257.257 0 01-.079-.191c0-.075.026-.139.079-.191a.274.274 0 01.203-.083c.081 0 .148.027.2.079a.238.238 0 01.082.186.272.272 0 01-.282.278zm3.081 1.604c0 .032-.003.074-.009.126h-1.865a.735.735 0 00.265.49.883.883 0 00.568.182.853.853 0 00.664-.277l.229.269a1 1 0 01-.39.277 1.326 1.326 0 01-.516.096c-.243 0-.458-.05-.646-.148a1.09 1.09 0 01-.438-.421 1.213 1.213 0 01-.152-.607c0-.222.049-.423.147-.603.102-.179.239-.318.412-.416.177-.101.375-.152.595-.152.219 0 .415.051.585.152.174.098.308.237.403.416.099.18.148.385.148.616zm-1.136-.832c-.2 0-.368.06-.503.182a.737.737 0 00-.235.477h1.475a.727.727 0 00-.737-.659zm3.883-1.249v3.218h-.399v-.365a.903.903 0 01-.352.291c-.141.066-.298.1-.468.1-.223 0-.422-.05-.599-.148a1.07 1.07 0 01-.416-.412 1.26 1.26 0 01-.147-.616c0-.231.049-.435.147-.611a1.07 1.07 0 01.416-.412c.177-.099.376-.148.599-.148.165 0 .316.032.455.096.139.06.255.152.347.273v-1.266h.417zm-1.184 2.879a.795.795 0 00.394-.099.738.738 0 00.278-.287.892.892 0 00.1-.425.864.864 0 00-.1-.42.7.7 0 00-.278-.287.795.795 0 00-.394-.099.732.732 0 00-.677.386.864.864 0 00-.1.42c0 .159.034.301.1.425a.774.774 0 00.278.287.803.803 0 00.399.099zm6.012.339l-.005-2.212-1.097 1.843h-.2l-1.097-1.83v2.199h-.416v-3.036h.355l1.267 2.134 1.249-2.134h.356l.004 3.036h-.416zm2.103-2.321c.318 0 .561.078.729.235.171.156.256.388.256.698v1.388h-.395v-.304a.668.668 0 01-.299.247 1.141 1.141 0 01-.455.083c-.258 0-.465-.063-.621-.187a.601.601 0 01-.23-.49c0-.202.074-.364.222-.486.147-.124.381-.186.702-.186h.659v-.083c0-.179-.052-.316-.156-.412-.104-.095-.257-.143-.459-.143-.136 0-.269.023-.399.07a.983.983 0 00-.33.178l-.173-.313c.118-.095.26-.167.425-.217.164-.052.339-.078.524-.078zm-.095 2.026a.79.79 0 00.412-.104.62.62 0 00.251-.304v-.321h-.641c-.353 0-.529.119-.529.356 0 .115.044.206.134.273.09.066.214.1.373.1zm3.143.16a.652.652 0 01-.226.122.986.986 0 01-.277.039c-.232 0-.411-.063-.538-.187-.127-.124-.191-.302-.191-.533v-1.262h-.39v-.343h.39v-.503h.416v.503h.66v.343h-.66v1.244c0 .125.031.22.092.287a.354.354 0 00.268.099.504.504 0 00.326-.108l.13.299zm2.504-1.002c0 .032-.003.074-.008.126h-1.865a.734.734 0 00.264.49.885.885 0 00.568.182.853.853 0 00.664-.277l.23.269a1 1 0 01-.39.277 1.334 1.334 0 01-.517.096 1.38 1.38 0 01-.646-.148 1.09 1.09 0 01-.438-.421 1.213 1.213 0 01-.152-.607c0-.222.05-.423.148-.603a1.07 1.07 0 01.412-.416c.176-.101.374-.152.594-.152.22 0 .415.051.586.152.173.098.307.237.403.416.098.18.147.385.147.616zm-1.136-.832a.726.726 0 00-.503.182.736.736 0 00-.234.477h1.474a.726.726 0 00-.737-.659zm2.114.056a.714.714 0 01.32-.304c.142-.069.314-.104.517-.104v.404a.78.78 0 00-.096-.005c-.225 0-.403.068-.533.204-.128.133-.191.324-.191.573v1.145h-.417v-2.299h.4v.386zm1.35-.386h.416v2.299h-.416v-2.299zm.208-.442a.286.286 0 01-.204-.078.26.26 0 01-.078-.191.26.26 0 01.078-.191.278.278 0 01.204-.083.27.27 0 01.199.079.239.239 0 01.083.186.273.273 0 01-.282.278zm1.84.42c.318 0 .561.078.729.235.17.156.256.388.256.698v1.388h-.395v-.304a.668.668 0 01-.299.247 1.146 1.146 0 01-.456.083c-.257 0-.464-.063-.62-.187a.601.601 0 01-.23-.49.6.6 0 01.221-.486c.148-.124.382-.186.703-.186h.659v-.083c0-.179-.052-.316-.156-.412-.104-.095-.257-.143-.46-.143-.136 0-.269.023-.399.07a.969.969 0 00-.329.178l-.174-.313c.119-.095.26-.167.425-.217.165-.052.34-.078.525-.078zm-.095 2.026a.79.79 0 00.412-.104.626.626 0 00.251-.304v-.321h-.642c-.352 0-.529.119-.529.356 0 .115.045.206.135.273.089.066.214.1.373.1zm1.85-2.923h.416v3.218h-.416v-3.218zm1.871 3.244c-.188 0-.369-.025-.543-.074a1.215 1.215 0 01-.407-.195l.173-.33c.101.072.224.13.369.174.145.043.291.065.438.065.364 0 .546-.104.546-.313a.2.2 0 00-.073-.164.438.438 0 00-.187-.087 3.275 3.275 0 00-.312-.065 3.094 3.094 0 01-.455-.1.702.702 0 01-.3-.191c-.084-.089-.125-.215-.125-.377 0-.208.086-.375.26-.499.173-.127.406-.191.698-.191.153 0 .307.019.46.057.153.037.279.088.377.151l-.178.33a1.198 1.198 0 00-.663-.182c-.177 0-.311.029-.404.087-.092.058-.138.134-.138.23 0 .075.026.134.078.177a.48.48 0 00.19.096c.079.02.187.043.326.069.185.032.334.067.446.104a.66.66 0 01.295.182.516.516 0 01.122.365c0 .208-.09.374-.269.498-.176.122-.418.183-.724.183zm2.782-.595c.081 0 .147.029.199.087a.283.283 0 01.083.208.473.473 0 01-.017.126 1.87 1.87 0 01-.057.187l-.204.603h-.273l.161-.647a.291.291 0 01-.135-.099.307.307 0 01-.048-.17.282.282 0 01.291-.295zm2.104-2.467h.434v3.036h-.434v-3.036zm2.509.715c.292 0 .524.086.694.256.174.168.26.415.26.742v1.323h-.416v-1.275c0-.223-.054-.391-.16-.504-.107-.112-.261-.169-.46-.169-.226 0-.404.067-.534.2-.13.13-.195.318-.195.564v1.184h-.416v-2.299h.399v.347a.801.801 0 01.338-.273 1.2 1.2 0 01.49-.096zm2.739 2.347c-.234 0-.443-.051-.628-.152a1.112 1.112 0 01-.43-.417 1.185 1.185 0 01-.156-.607c0-.225.052-.426.156-.603.104-.179.247-.318.43-.416.185-.101.394-.152.628-.152.209 0 .394.042.556.126a.893.893 0 01.381.364l-.316.204a.712.712 0 00-.625-.329.843.843 0 00-.408.099.725.725 0 00-.281.287.853.853 0 00-.1.42c0 .162.033.305.1.43a.739.739 0 00.281.282.843.843 0 00.408.099.712.712 0 00.625-.329l.316.199a.922.922 0 01-.381.369 1.19 1.19 0 01-.556.126zm1.661 0a.29.29 0 01-.295-.3c0-.083.029-.153.087-.208a.282.282 0 01.208-.087c.081 0 .149.028.204.083a.287.287 0 01.082.212.294.294 0 01-.087.217.271.271 0 01-.199.083zm-46.621 26.049h-1.614l-.334.759h-.446l1.375-3.036h.429l1.38 3.036h-.456l-.334-.759zm-.152-.347l-.655-1.487-.655 1.487h1.31zm2.552-1.214c.223 0 .422.049.598.147.177.099.314.236.413.413.101.176.151.38.151.611 0 .231-.05.437-.151.616a1.049 1.049 0 01-.413.412 1.207 1.207 0 01-.598.147c-.165 0-.317-.031-.455-.095a.948.948 0 01-.347-.278v1.189h-.417v-3.14h.4v.364a.863.863 0 01.35-.286c.142-.067.298-.1.469-.1zm-.035 1.982a.735.735 0 00.673-.386.86.86 0 00.104-.425.84.84 0 00-.104-.421.703.703 0 00-.278-.286.783.783 0 00-.395-.1.771.771 0 00-.394.104.75.75 0 00-.278.282.864.864 0 00-.1.421c0 .159.034.301.1.425a.734.734 0 00.672.386zm2.991-1.982c.223 0 .422.049.599.147.176.099.313.236.412.413.101.176.152.38.152.611 0 .231-.051.437-.152.616a1.053 1.053 0 01-.412.412 1.214 1.214 0 01-.599.147c-.165 0-.316-.031-.455-.095a.943.943 0 01-.347-.278v1.189h-.416v-3.14h.399v.364a.857.857 0 01.351-.286c.142-.067.298-.1.468-.1zm-.034 1.982a.735.735 0 00.672-.386.86.86 0 00.104-.425.84.84 0 00-.104-.421.703.703 0 00-.278-.286.78.78 0 00-.394-.1.77.77 0 00-.673.386.87.87 0 00-.099.421c0 .159.033.301.099.425a.735.735 0 00.673.386zm1.772-2.88h.416v3.218h-.416v-3.218zm1.211.92h.417v2.298h-.417v-2.298zm.208-.443a.282.282 0 01-.203-.078.256.256 0 01-.079-.191c0-.075.026-.138.079-.19a.274.274 0 01.203-.083c.081 0 .148.026.2.078a.24.24 0 01.082.187.271.271 0 01-.282.277zm3.081 1.605c0 .032-.003.074-.009.126h-1.865a.735.735 0 00.265.49.889.889 0 00.568.182.85.85 0 00.664-.278l.229.269a1.002 1.002 0 01-.39.278 1.326 1.326 0 01-.516.095c-.243 0-.458-.049-.646-.147a1.096 1.096 0 01-.438-.421 1.213 1.213 0 01-.152-.607c0-.223.049-.424.147-.603.102-.179.239-.318.412-.416.177-.101.375-.152.595-.152.219 0 .415.051.585.152.174.098.308.237.403.416.099.179.148.385.148.616zm-1.136-.833c-.2 0-.368.061-.503.182a.742.742 0 00-.235.478h1.475a.725.725 0 00-.239-.473.699.699 0 00-.498-.187zm3.883-1.249v3.218h-.399v-.364a.912.912 0 01-.352.291 1.093 1.093 0 01-.468.099c-.223 0-.422-.049-.599-.147a1.076 1.076 0 01-.416-.412 1.264 1.264 0 01-.147-.616c0-.231.049-.435.147-.611.101-.177.24-.314.416-.413.177-.098.376-.147.599-.147.165 0 .316.032.455.095a.86.86 0 01.347.274v-1.267h.417zm-1.184 2.88a.735.735 0 00.672-.386.892.892 0 00.1-.425.87.87 0 00-.1-.421.703.703 0 00-.278-.286.796.796 0 00-.394-.1.736.736 0 00-.677.386.87.87 0 00-.1.421c0 .159.034.301.1.425a.771.771 0 00.278.286c.118.067.251.1.399.1zm6.012.338l-.005-2.212-1.097 1.844h-.2l-1.097-1.831v2.199h-.416v-3.036h.355l1.267 2.134 1.249-2.134h.356l.004 3.036h-.416zm2.251.026c-.229 0-.434-.05-.616-.151a1.123 1.123 0 01-.429-.417 1.203 1.203 0 01-.152-.607c0-.225.05-.426.152-.603a1.08 1.08 0 01.429-.416c.182-.101.387-.152.616-.152.228 0 .432.051.611.152.182.098.324.237.425.416.104.177.156.378.156.603 0 .226-.052.428-.156.607a1.092 1.092 0 01-.425.417 1.222 1.222 0 01-.611.151zm0-.364a.77.77 0 00.394-.1.728.728 0 00.278-.286.88.88 0 00.1-.425.86.86 0 00-.1-.421.697.697 0 00-.278-.286.78.78 0 00-.394-.1.804.804 0 00-.399.1.743.743 0 00-.278.286.87.87 0 00-.1.421c0 .159.034.301.1.425.07.121.162.217.278.286.118.067.251.1.399.1zm1.768-2.88h.417v3.218h-.417v-3.218zm3.289 2.082c0 .032-.003.074-.009.126H122.5a.735.735 0 00.265.49.889.889 0 00.568.182.85.85 0 00.664-.278l.23.269a1.006 1.006 0 01-.391.278 1.326 1.326 0 01-.516.095c-.243 0-.458-.049-.646-.147a1.096 1.096 0 01-.438-.421 1.213 1.213 0 01-.152-.607c0-.223.049-.424.148-.603a1.07 1.07 0 01.412-.416c.176-.101.374-.152.594-.152.219 0 .415.051.585.152.174.098.308.237.404.416.098.179.147.385.147.616zm-1.136-.833c-.2 0-.367.061-.503.182a.746.746 0 00-.235.478h1.475a.728.728 0 00-.737-.66zm2.716 1.995c-.234 0-.444-.05-.629-.151a1.123 1.123 0 01-.585-1.024c0-.225.052-.426.156-.603a1.08 1.08 0 01.429-.416c.185-.101.395-.152.629-.152.208 0 .393.042.555.126a.895.895 0 01.382.364l-.317.204a.704.704 0 00-.269-.247.839.839 0 00-.763.017.732.732 0 00-.282.286.87.87 0 00-.1.421.9.9 0 00.1.429c.07.122.163.216.282.282.121.067.257.1.408.1a.707.707 0 00.624-.33l.317.2a.925.925 0 01-.382.369 1.2 1.2 0 01-.555.125zm3.618-2.324v2.298h-.394v-.347a.851.851 0 01-.334.278 1.036 1.036 0 01-.447.095c-.306 0-.548-.083-.724-.251-.177-.171-.265-.421-.265-.75v-1.323h.417v1.275c0 .222.053.392.16.507.107.113.26.169.46.169.219 0 .393-.066.52-.199s.191-.321.191-.564v-1.188h.416zm.793-.92h.416v3.218h-.416v-3.218zm2.048.898c.318 0 .561.078.729.234.171.156.256.389.256.698v1.388h-.395v-.303a.668.668 0 01-.299.247 1.142 1.142 0 01-.455.082c-.258 0-.465-.062-.621-.186a.6.6 0 01-.229-.49c0-.203.073-.365.221-.486.147-.124.381-.186.702-.186h.66v-.083c0-.179-.053-.316-.157-.412-.104-.095-.257-.143-.459-.143-.136 0-.269.023-.399.069a1.02 1.02 0 00-.33.178l-.173-.312c.118-.095.26-.168.425-.217.164-.052.339-.078.524-.078zm-.095 2.025a.781.781 0 00.412-.104.621.621 0 00.252-.303v-.321h-.642c-.353 0-.529.118-.529.355 0 .116.044.207.134.274.09.066.214.099.373.099zm2.249-1.617a.722.722 0 01.321-.304c.142-.069.314-.104.516-.104v.403a.798.798 0 00-.095-.004c-.226 0-.403.068-.533.204-.128.133-.191.324-.191.572v1.145h-.417v-2.298h.399v.386zm4.709.377h.416v1.184a1.61 1.61 0 01-.524.286c-.2.067-.408.1-.625.1-.306 0-.582-.066-.828-.199a1.523 1.523 0 01-.581-.556 1.548 1.548 0 01-.209-.798c0-.295.07-.561.209-.798.141-.237.335-.422.581-.555.248-.133.527-.199.837-.199.243 0 .462.04.659.121.2.078.369.194.508.347l-.269.269a1.224 1.224 0 00-.881-.351c-.231 0-.439.05-.624.152a1.082 1.082 0 00-.43.416 1.155 1.155 0 00-.156.598 1.124 1.124 0 00.586 1.015c.185.101.391.152.62.152.272 0 .509-.065.711-.195v-.989zm3.264.399c0 .032-.003.074-.009.126h-1.865a.73.73 0 00.265.49.887.887 0 00.568.182.849.849 0 00.663-.278l.23.269a1.002 1.002 0 01-.39.278 1.326 1.326 0 01-.516.095 1.38 1.38 0 01-.647-.147 1.11 1.11 0 01-.438-.421 1.212 1.212 0 01-.151-.607c0-.223.049-.424.147-.603.101-.179.239-.318.412-.416.176-.101.375-.152.594-.152.22 0 .415.051.586.152.173.098.308.237.403.416.098.179.148.385.148.616zm-1.137-.833a.73.73 0 00-.503.182.74.74 0 00-.234.478h1.475a.73.73 0 00-.239-.473.7.7 0 00-.499-.187zm2.942-.351c.292 0 .523.085.694.256.174.168.26.415.26.742v1.322h-.416v-1.275c0-.222-.054-.39-.161-.503-.107-.113-.26-.169-.459-.169-.226 0-.404.067-.534.2-.13.13-.195.318-.195.563v1.184h-.416v-2.298h.399v.347a.81.81 0 01.338-.274c.145-.063.308-.095.49-.095zm3.815 1.184c0 .032-.003.074-.009.126h-1.865a.735.735 0 00.265.49.889.889 0 00.568.182.85.85 0 00.664-.278l.229.269a1.002 1.002 0 01-.39.278 1.326 1.326 0 01-.516.095c-.243 0-.458-.049-.646-.147a1.096 1.096 0 01-.438-.421 1.213 1.213 0 01-.152-.607c0-.223.049-.424.147-.603.102-.179.239-.318.412-.416.177-.101.375-.152.595-.152.219 0 .415.051.585.152.174.098.308.237.403.416.099.179.148.385.148.616zm-1.136-.833c-.2 0-.368.061-.503.182a.742.742 0 00-.235.478h1.475a.725.725 0 00-.239-.473.699.699 0 00-.498-.187zm2.373 1.995c-.188 0-.368-.024-.542-.073a1.212 1.212 0 01-.408-.196l.174-.329a1.49 1.49 0 00.807.238c.364 0 .546-.104.546-.312a.202.202 0 00-.074-.165.445.445 0 00-.186-.086 2.986 2.986 0 00-.312-.065 3.28 3.28 0 01-.456-.1.705.705 0 01-.299-.191.53.53 0 01-.126-.377c0-.209.087-.375.26-.499.174-.127.407-.191.699-.191.153 0 .306.019.459.056.154.038.279.089.378.152l-.178.33a1.191 1.191 0 00-.664-.182c-.176 0-.31.029-.403.086-.093.058-.139.135-.139.23a.22.22 0 00.078.178.513.513 0 00.191.096c.078.02.187.043.325.069.185.032.334.066.447.104a.651.651 0 01.295.182.513.513 0 01.121.364.577.577 0 01-.268.499c-.177.122-.418.182-.725.182zm1.514-2.324h.416v2.298h-.416v-2.298zm.208-.443a.286.286 0 01-.204-.078.259.259 0 01-.078-.191c0-.075.026-.138.078-.19a.278.278 0 01.204-.083c.081 0 .147.026.199.078a.24.24 0 01.083.187.271.271 0 01-.083.199.269.269 0 01-.199.078zm1.662 2.767c-.188 0-.368-.024-.542-.073a1.197 1.197 0 01-.407-.196l.173-.329a1.49 1.49 0 00.807.238c.364 0 .546-.104.546-.312a.202.202 0 00-.074-.165.445.445 0 00-.186-.086 2.986 2.986 0 00-.312-.065 3.28 3.28 0 01-.456-.1.705.705 0 01-.299-.191.53.53 0 01-.126-.377c0-.209.087-.375.261-.499.173-.127.406-.191.698-.191.153 0 .306.019.459.056.154.038.28.089.378.152l-.178.33a1.191 1.191 0 00-.664-.182c-.176 0-.31.029-.403.086-.092.058-.139.135-.139.23a.22.22 0 00.078.178.513.513 0 00.191.096c.078.02.187.043.325.069a3.1 3.1 0 01.447.104.651.651 0 01.295.182.513.513 0 01.122.364c0 .209-.09.375-.269.499-.177.122-.418.182-.725.182zM98.005 206.19a.772.772 0 01.417.269.756.756 0 01.151.486.7.7 0 01-.299.607c-.197.142-.484.212-.863.212h-1.448v-3.036h1.361c.347 0 .615.07.803.209.19.138.286.331.286.576a.74.74 0 01-.113.413.711.711 0 01-.295.264zm-1.609-1.11v.971h.89c.222 0 .392-.04.511-.121a.415.415 0 00.182-.364.405.405 0 00-.182-.36c-.118-.084-.29-.126-.512-.126h-.889zm.998 2.333c.245 0 .43-.04.555-.121.124-.081.186-.209.186-.382 0-.338-.247-.507-.741-.507h-.998v1.01h.998zm2.19-1.561a.714.714 0 01.32-.304c.142-.069.314-.104.516-.104v.403a1.091 1.091 0 00-.095-.004c-.226 0-.404.068-.534.204-.127.133-.19.324-.19.572v1.145h-.417v-2.298h.4v.386zm2.313 1.938c-.229 0-.434-.05-.616-.151a1.133 1.133 0 01-.43-.417 1.212 1.212 0 01-.151-.607c0-.225.05-.426.151-.603.105-.179.248-.318.43-.416.182-.101.387-.152.616-.152.228 0 .432.051.611.152.182.098.324.237.425.416.104.177.156.378.156.603 0 .226-.052.428-.156.607a1.092 1.092 0 01-.425.417 1.222 1.222 0 01-.611.151zm0-.364a.77.77 0 00.394-.1.728.728 0 00.278-.286.892.892 0 00.1-.425.87.87 0 00-.1-.421.703.703 0 00-.278-.286.78.78 0 00-.394-.1.804.804 0 00-.399.1.743.743 0 00-.278.286.87.87 0 00-.1.421c0 .159.034.301.1.425.07.122.162.217.278.286.118.067.251.1.399.1zm5.183-1.96l-.859 2.298h-.399l-.663-1.743-.673 1.743h-.399l-.854-2.298h.395l.668 1.83.694-1.83h.351l.681 1.839.685-1.839h.373zm1.65-.022c.292 0 .523.085.694.256.173.168.26.415.26.742v1.322h-.416v-1.275c0-.222-.054-.39-.161-.503-.107-.113-.26-.169-.46-.169-.225 0-.403.067-.533.2-.13.13-.195.318-.195.563v1.184h-.417v-2.298h.399v.347a.804.804 0 01.339-.273c.144-.064.308-.096.49-.096zm1.577.95h1.167v.36h-1.167v-.36zm2.302-1.288v1.058h1.522v.373h-1.522v1.227h-.434v-3.036h2.143v.378h-1.709zm3.171 2.684c-.228 0-.433-.05-.616-.151a1.123 1.123 0 01-.429-.417 1.213 1.213 0 01-.152-.607c0-.225.051-.426.152-.603a1.08 1.08 0 01.429-.416c.183-.101.388-.152.616-.152.229 0 .433.051.612.152.182.098.324.237.425.416.104.177.156.378.156.603 0 .226-.052.428-.156.607a1.092 1.092 0 01-.425.417 1.223 1.223 0 01-.612.151zm0-.364a.735.735 0 00.673-.386.892.892 0 00.099-.425.87.87 0 00-.099-.421.71.71 0 00-.278-.286.783.783 0 00-.395-.1.81.81 0 00-.399.1.74.74 0 00-.277.286.86.86 0 00-.1.421.88.88 0 00.1.425.769.769 0 00.277.286c.119.067.252.1.399.1zm2.168-1.574a.712.712 0 01.321-.304c.141-.069.313-.104.516-.104v.403a1.099 1.099 0 00-.096-.004c-.225 0-.403.068-.533.204-.127.133-.191.324-.191.572v1.145h-.416v-2.298h.399v.386zm4.225-.408c.29 0 .518.084.686.252.17.167.256.416.256.746v1.322h-.417v-1.275c0-.222-.052-.39-.156-.503-.101-.113-.247-.169-.438-.169a.655.655 0 00-.503.2c-.124.13-.187.318-.187.563v1.184h-.416v-1.275c0-.222-.052-.39-.156-.503-.101-.113-.247-.169-.438-.169a.655.655 0 00-.503.2c-.125.13-.187.318-.187.563v1.184h-.416v-2.298h.399v.342a.789.789 0 01.33-.268c.135-.064.29-.096.464-.096.179 0 .338.036.477.109a.753.753 0 01.321.316.872.872 0 01.36-.312c.156-.075.331-.113.524-.113zm2.545 0c.318 0 .561.078.728.234.171.156.256.389.256.699v1.387h-.394v-.303a.676.676 0 01-.3.247 1.142 1.142 0 01-.455.082c-.257 0-.464-.062-.62-.186a.598.598 0 01-.23-.49c0-.203.074-.364.221-.486.147-.124.382-.186.703-.186h.659v-.083c0-.179-.052-.316-.156-.412-.104-.095-.258-.143-.46-.143-.136 0-.269.023-.399.069a1.02 1.02 0 00-.33.178l-.173-.312c.118-.095.26-.168.425-.217.165-.052.34-.078.525-.078zm-.096 2.025a.779.779 0 00.412-.104.616.616 0 00.252-.303v-.321h-.642c-.353 0-.529.118-.529.356 0 .115.045.206.134.273.09.066.214.099.373.099zm3.078-2.025c.292 0 .523.085.694.256.173.168.26.415.26.742v1.322h-.416v-1.275c0-.222-.054-.39-.161-.503-.107-.113-.26-.169-.459-.169-.226 0-.404.067-.534.2-.13.13-.195.318-.195.563v1.184h-.416v-2.298h.399v.347a.801.801 0 01.338-.273 1.2 1.2 0 01.49-.096zm4.308 2.355a1.7 1.7 0 01-.824-.199 1.508 1.508 0 01-.573-.556 1.547 1.547 0 01-.208-.798c0-.294.069-.559.208-.793a1.46 1.46 0 01.577-.555c.246-.136.52-.204.824-.204.237 0 .454.04.651.121.196.078.364.195.503.352l-.282.273a1.132 1.132 0 00-.855-.36c-.225 0-.429.05-.611.152a1.12 1.12 0 00-.581 1.014c0 .22.05.42.151.599.105.176.248.315.43.416.182.102.386.152.611.152.339 0 .623-.121.855-.364l.282.273a1.348 1.348 0 01-.508.356 1.687 1.687 0 01-.65.121zm2.603-.009c-.229 0-.434-.05-.616-.151a1.123 1.123 0 01-.429-.417 1.203 1.203 0 01-.152-.607c0-.225.05-.426.152-.603a1.08 1.08 0 01.429-.416c.182-.101.387-.152.616-.152.228 0 .432.051.611.152.182.098.324.237.425.416.104.177.156.378.156.603 0 .226-.052.428-.156.607a1.092 1.092 0 01-.425.417 1.222 1.222 0 01-.611.151zm0-.364a.77.77 0 00.394-.1.728.728 0 00.278-.286.892.892 0 00.1-.425.87.87 0 00-.1-.421.703.703 0 00-.278-.286.78.78 0 00-.394-.1.804.804 0 00-.399.1.743.743 0 00-.278.286.87.87 0 00-.1.421c0 .159.034.301.1.425.07.122.162.217.278.286.118.067.251.1.399.1zm2.167-1.574a.722.722 0 01.321-.304c.142-.069.314-.104.516-.104v.403a1.091 1.091 0 00-.095-.004c-.226 0-.403.068-.534.204-.127.133-.19.324-.19.572v1.145h-.417v-2.298h.399v.386zm2.569-.408c.223 0 .422.049.599.148.176.098.313.235.412.412.101.176.151.38.151.611 0 .231-.05.437-.151.616a1.053 1.053 0 01-.412.412 1.214 1.214 0 01-.599.147c-.165 0-.316-.031-.455-.095a.943.943 0 01-.347-.278v1.189h-.417v-3.14h.399v.364a.866.866 0 01.352-.286c.141-.067.298-.1.468-.1zm-.035 1.982a.773.773 0 00.395-.1.728.728 0 00.278-.286.86.86 0 00.104-.425.84.84 0 00-.104-.421.703.703 0 00-.278-.286.783.783 0 00-.395-.1.768.768 0 00-.672.386.87.87 0 00-.1.421c0 .159.034.301.1.425a.728.728 0 00.278.286c.118.067.25.1.394.1zm2.757.364c-.228 0-.433-.05-.616-.151a1.123 1.123 0 01-.429-.417 1.213 1.213 0 01-.152-.607c0-.225.051-.426.152-.603a1.08 1.08 0 01.429-.416c.183-.101.388-.152.616-.152.229 0 .433.051.612.152.182.098.324.237.425.416.104.177.156.378.156.603 0 .226-.052.428-.156.607a1.092 1.092 0 01-.425.417 1.223 1.223 0 01-.612.151zm0-.364a.773.773 0 00.395-.1.726.726 0 00.277-.286.88.88 0 00.1-.425.86.86 0 00-.1-.421.7.7 0 00-.277-.286.783.783 0 00-.395-.1.81.81 0 00-.399.1.74.74 0 00-.277.286.86.86 0 00-.1.421.88.88 0 00.1.425.769.769 0 00.277.286c.119.067.252.1.399.1zm2.168-1.574a.712.712 0 01.321-.304c.141-.069.313-.104.516-.104v.403a1.099 1.099 0 00-.096-.004c-.225 0-.403.068-.533.204-.127.133-.191.324-.191.572v1.145h-.416v-2.298h.399v.386zm2.569-.408a1.2 1.2 0 01.598.148c.177.098.314.235.412.412.101.176.152.38.152.611 0 .231-.051.437-.152.616a1.04 1.04 0 01-.412.412 1.21 1.21 0 01-.598.147c-.165 0-.317-.031-.456-.095a.95.95 0 01-.347-.278v1.189h-.416v-3.14h.399v.364a.863.863 0 01.351-.286c.142-.067.298-.1.469-.1zm-.035 1.982a.776.776 0 00.395-.1.726.726 0 00.277-.286.85.85 0 00.104-.425.83.83 0 00-.104-.421.7.7 0 00-.277-.286.786.786 0 00-.395-.1.75.75 0 00-.672.386.86.86 0 00-.1.421.88.88 0 00.1.425.726.726 0 00.277.286c.119.067.25.1.395.1zm2.757.364c-.229 0-.434-.05-.616-.151a1.123 1.123 0 01-.429-.417 1.203 1.203 0 01-.152-.607c0-.225.05-.426.152-.603a1.08 1.08 0 01.429-.416c.182-.101.387-.152.616-.152.228 0 .432.051.611.152.182.098.324.237.425.416.104.177.156.378.156.603 0 .226-.052.428-.156.607a1.092 1.092 0 01-.425.417 1.222 1.222 0 01-.611.151zm0-.364a.77.77 0 00.394-.1.728.728 0 00.278-.286.892.892 0 00.1-.425.87.87 0 00-.1-.421.703.703 0 00-.278-.286.78.78 0 00-.394-.1.804.804 0 00-.399.1.743.743 0 00-.278.286.87.87 0 00-.1.421c0 .159.034.301.1.425.07.122.162.217.278.286.118.067.251.1.399.1zm2.167-1.574a.722.722 0 01.321-.304c.142-.069.314-.104.516-.104v.403a1.091 1.091 0 00-.095-.004c-.226 0-.403.068-.534.204-.127.133-.19.324-.19.572v1.145h-.417v-2.298h.399v.386zm2.183-.408c.318 0 .561.078.729.234.17.156.256.389.256.699v1.387h-.395v-.303a.668.668 0 01-.299.247 1.143 1.143 0 01-.456.082c-.257 0-.464-.062-.62-.186a.601.601 0 01-.23-.49c0-.203.074-.364.222-.486.147-.124.381-.186.702-.186h.659v-.083c0-.179-.052-.316-.156-.412-.104-.095-.257-.143-.459-.143-.136 0-.269.023-.399.069a1.01 1.01 0 00-.33.178l-.174-.312c.119-.095.261-.168.425-.217.165-.052.34-.078.525-.078zm-.095 2.025a.781.781 0 00.412-.104.614.614 0 00.251-.303v-.321h-.641c-.353 0-.53.118-.53.356 0 .115.045.206.135.273a.617.617 0 00.373.099zm3.143.161a.65.65 0 01-.226.121.986.986 0 01-.277.039c-.232 0-.411-.062-.538-.186-.127-.124-.191-.302-.191-.534v-1.262h-.39v-.342h.39v-.503h.416v.503h.66v.342h-.66v1.245c0 .124.031.22.091.286.064.067.154.1.269.1a.504.504 0 00.326-.108l.13.299zm.503-2.164h.416v2.298h-.416v-2.298zm.208-.443a.286.286 0 01-.204-.078.258.258 0 01-.078-.19c0-.076.026-.139.078-.191a.278.278 0 01.204-.083c.081 0 .148.026.2.078a.24.24 0 01.082.187.271.271 0 01-.282.277zm1.988 2.767c-.229 0-.434-.05-.616-.151a1.123 1.123 0 01-.429-.417 1.203 1.203 0 01-.152-.607c0-.225.05-.426.152-.603a1.08 1.08 0 01.429-.416c.182-.101.387-.152.616-.152.228 0 .432.051.611.152.183.098.324.237.425.416.105.177.157.378.157.603 0 .226-.052.428-.157.607a1.086 1.086 0 01-.425.417 1.222 1.222 0 01-.611.151zm0-.364a.776.776 0 00.395-.1.726.726 0 00.277-.286.88.88 0 00.1-.425.86.86 0 00-.1-.421.7.7 0 00-.277-.286.786.786 0 00-.395-.1.804.804 0 00-.399.1.743.743 0 00-.278.286.87.87 0 00-.099.421c0 .159.033.301.099.425.07.122.162.217.278.286.118.067.251.1.399.1zm2.996-1.982c.292 0 .523.085.694.256.173.168.26.415.26.742v1.322h-.416v-1.275c0-.222-.054-.39-.161-.503-.107-.113-.26-.169-.46-.169-.225 0-.403.067-.533.2-.13.13-.195.318-.195.563v1.184h-.417v-2.298h.399v.347a.804.804 0 01.339-.273c.144-.064.308-.096.49-.096zm2.384 2.346a1.98 1.98 0 01-.542-.073 1.212 1.212 0 01-.408-.195l.173-.33c.102.072.224.13.369.173a1.5 1.5 0 00.438.065c.364 0 .546-.104.546-.312a.204.204 0 00-.073-.165.45.45 0 00-.187-.086 2.986 2.986 0 00-.312-.065 3.23 3.23 0 01-.455-.1.702.702 0 01-.3-.191.534.534 0 01-.125-.377c0-.208.086-.375.26-.499.173-.127.406-.191.698-.191.153 0 .307.019.46.056.153.038.279.089.377.152l-.178.33a1.19 1.19 0 00-.663-.182c-.177 0-.311.029-.404.086-.092.058-.138.135-.138.23 0 .076.026.135.078.178a.494.494 0 00.19.096c.079.02.187.043.326.069.185.032.334.066.446.104a.651.651 0 01.295.182.514.514 0 01.122.365c0 .208-.09.374-.269.498-.176.122-.418.182-.724.182z" fill="#929398"/><path stroke="#E6EEFF" stroke-width=".271" stroke-linecap="round" d="M95.643 161.885h262.119"/><path d="M223.038 146.798v3.416h-.483v-2.991h-.771v-.425h1.254zm3.148 2.991v.425h-2.454v-.332l1.39-1.342c.169-.162.283-.302.342-.419a.83.83 0 00.088-.361.494.494 0 00-.191-.415c-.123-.101-.302-.151-.536-.151-.378 0-.669.123-.874.37l-.331-.287c.133-.163.307-.29.522-.381.218-.091.46-.137.727-.137.357 0 .642.087.853.259.212.169.318.4.318.693 0 .182-.039.354-.118.517-.078.163-.226.348-.444.556l-1.044 1.005h1.752zm2.802 0v.425h-2.455v-.332l1.391-1.342c.169-.162.283-.302.342-.419a.828.828 0 00.087-.361.493.493 0 00-.19-.415c-.124-.101-.302-.151-.537-.151-.377 0-.668.123-.873.37l-.332-.287a1.34 1.34 0 01.522-.381c.218-.091.461-.137.727-.137.358 0 .643.087.854.259.212.169.317.4.317.693 0 .182-.039.354-.117.517-.078.163-.226.348-.444.556l-1.044 1.005h1.752zm.77.454a.327.327 0 01-.234-.093.33.33 0 01-.097-.244.31.31 0 01.097-.234.319.319 0 01.234-.097.314.314 0 01.323.331.33.33 0 01-.098.244.306.306 0 01-.225.093zm1.781-3.445v3.416h-.483v-2.991h-.771v-.425h1.254zm2.142 3.455a1.3 1.3 0 01-.722-.205 1.424 1.424 0 01-.493-.605 2.247 2.247 0 01-.18-.937c0-.361.06-.673.18-.937a1.39 1.39 0 01.493-.6c.212-.14.452-.21.722-.21.267 0 .504.07.713.21.211.137.377.337.497.6.121.264.181.576.181.937 0 .361-.06.673-.181.937-.12.263-.286.465-.497.605a1.27 1.27 0 01-.713.205zm0-.434a.77.77 0 00.654-.337c.166-.224.249-.55.249-.976 0-.426-.083-.751-.249-.976a.769.769 0 00-.654-.336.785.785 0 00-.663.336c-.163.225-.244.55-.244.976 0 .426.081.752.244.976a.786.786 0 00.663.337zm5.765-.537a.852.852 0 01-.293.654c-.191.179-.471.283-.839.312v.551h-.312v-.551a2.45 2.45 0 01-.678-.132 1.51 1.51 0 01-.508-.292l.181-.381c.117.107.265.197.444.268.179.069.366.109.561.122v-1.132a3.702 3.702 0 01-.571-.18.996.996 0 01-.38-.288.776.776 0 01-.152-.498c0-.257.093-.475.278-.654.189-.178.464-.283.825-.312v-.556h.312v.551c.186.007.365.036.537.088.176.052.327.122.454.21l-.161.39a1.717 1.717 0 00-.83-.273v1.137c.238.058.433.12.586.185a.95.95 0 01.385.283c.108.124.161.29.161.498zm-2.069-1.566c0 .14.054.249.161.327.108.078.262.143.464.195v-1.054c-.208.026-.364.088-.468.185a.45.45 0 00-.157.347zm.937 2.112c.218-.019.381-.074.488-.165a.445.445 0 00.166-.352.367.367 0 00-.171-.327 1.587 1.587 0 00-.483-.205v1.049zm30.955-1.688c.224 0 .424.043.6.127a.978.978 0 01.571.908c0 .214-.054.403-.161.566a1.055 1.055 0 01-.435.38 1.393 1.393 0 01-.614.132c-.459 0-.813-.148-1.064-.444-.247-.296-.371-.716-.371-1.259 0-.38.067-.704.2-.971.137-.27.326-.473.566-.61.244-.14.527-.21.849-.21.166 0 .322.018.469.054.146.033.273.081.38.146l-.185.381c-.163-.107-.381-.161-.654-.161-.355 0-.633.111-.834.332-.202.218-.303.537-.303.956 0 .052.002.093.005.122a.92.92 0 01.4-.332c.173-.078.366-.117.581-.117zm-.059 1.718c.225 0 .407-.06.547-.181a.603.603 0 00.209-.483.584.584 0 00-.214-.478c-.14-.12-.329-.181-.566-.181-.153 0-.29.03-.41.088a.722.722 0 00-.278.239.61.61 0 00-.098.337c0 .12.031.231.093.332a.729.729 0 00.278.239c.124.058.27.088.439.088zm2.655-3.06v3.416h-.483v-2.991h-.771v-.425h1.254zm2.143 3.455c-.27 0-.511-.068-.722-.205a1.417 1.417 0 01-.493-.605 2.247 2.247 0 01-.181-.937c0-.361.061-.673.181-.937.12-.263.285-.463.493-.6.211-.14.452-.21.722-.21.267 0 .504.07.712.21.212.137.378.337.498.6.12.264.18.576.18.937 0 .361-.06.673-.18.937-.12.263-.286.465-.498.605a1.264 1.264 0 01-.712.205zm0-.434a.77.77 0 00.654-.337c.166-.224.249-.55.249-.976 0-.426-.083-.751-.249-.976a.769.769 0 00-.654-.336.785.785 0 00-.664.336c-.162.225-.244.55-.244.976 0 .426.082.752.244.976a.786.786 0 00.664.337zm2.124.424a.331.331 0 01-.235-.093.33.33 0 01-.097-.244.31.31 0 01.097-.234.323.323 0 01.235-.097c.091 0 .167.031.229.092a.324.324 0 01.093.239.33.33 0 01-.098.244.306.306 0 01-.224.093zm1.759-2.083c.488 0 .846.092 1.073.278.231.182.347.432.347.751a.98.98 0 01-.581.927 1.656 1.656 0 01-.712.137c-.241 0-.474-.036-.698-.107a1.58 1.58 0 01-.556-.308l.224-.385c.117.11.267.2.449.268a1.7 1.7 0 00.576.098c.257 0 .455-.054.595-.161a.54.54 0 00.215-.449.521.521 0 00-.234-.464c-.157-.107-.423-.161-.801-.161h-.775l.18-1.786h1.927v.425h-1.517l-.093.937h.381zm5.732 1.122a.855.855 0 01-.293.654c-.192.179-.472.283-.839.312v.551h-.312v-.551a2.456 2.456 0 01-.679-.132 1.514 1.514 0 01-.507-.292l.18-.381c.118.107.266.197.444.268a1.9 1.9 0 00.562.122v-1.132a3.702 3.702 0 01-.571-.18 1 1 0 01-.381-.288.776.776 0 01-.151-.498c0-.257.093-.475.278-.654.189-.178.464-.283.825-.312v-.556h.312v.551c.185.007.364.036.537.088.175.052.326.122.453.21l-.161.39a1.714 1.714 0 00-.829-.273v1.137c.237.058.432.12.585.185a.953.953 0 01.386.283c.107.124.161.29.161.498zm-2.069-1.566c0 .14.054.249.161.327.107.078.262.143.464.195v-1.054c-.209.026-.365.088-.469.185a.451.451 0 00-.156.347zm.937 2.112c.218-.019.38-.074.488-.165a.448.448 0 00.166-.352.367.367 0 00-.171-.327 1.61 1.61 0 00-.483-.205v1.049zm-59.204 24.969c.335.033.591.137.766.312a.89.89 0 01.264.664.998.998 0 01-.147.532 1.022 1.022 0 01-.439.375 1.644 1.644 0 01-.707.137 2.32 2.32 0 01-.703-.107 1.53 1.53 0 01-.551-.308l.224-.385c.117.11.267.2.449.268.182.065.376.098.581.098.253 0 .45-.054.59-.161a.527.527 0 00.215-.444.515.515 0 00-.21-.439c-.14-.104-.351-.157-.634-.157h-.274v-.341l.859-1.054h-1.644v-.424h2.254v.331l-.893 1.103zm2.769 0c.335.033.59.137.766.312a.893.893 0 01.263.664c0 .195-.049.372-.146.532a1.028 1.028 0 01-.439.375 1.646 1.646 0 01-.708.137 2.32 2.32 0 01-.703-.107 1.53 1.53 0 01-.551-.308l.225-.385c.117.11.266.2.448.268.183.065.376.098.581.098.254 0 .451-.054.59-.161a.524.524 0 00.215-.444.515.515 0 00-.21-.439c-.14-.104-.351-.157-.634-.157h-.273v-.341l.859-1.054h-1.645v-.424h2.254v.331l-.892 1.103zm4.455 1.142h-.648v.839h-.474v-.839h-1.898v-.342l1.747-2.234h.527l-1.674 2.156h1.313v-.741h.459v.741h.648v.42zm.71.868a.33.33 0 01-.234-.092.333.333 0 01-.097-.244.31.31 0 01.097-.235.319.319 0 01.234-.097c.091 0 .168.031.23.092a.328.328 0 01.092.24.333.333 0 01-.097.244.31.31 0 01-.225.092zm1.781-3.444v3.415h-.484v-2.991h-.77v-.424h1.254zm2.142 3.454c-.27 0-.511-.068-.722-.205a1.41 1.41 0 01-.493-.605 2.244 2.244 0 01-.18-.937c0-.361.06-.673.18-.937.12-.263.285-.463.493-.6.211-.14.452-.209.722-.209.267 0 .504.069.712.209.212.137.378.337.498.6.12.264.181.576.181.937 0 .361-.061.674-.181.937-.12.264-.286.465-.498.605a1.264 1.264 0 01-.712.205zm0-.434a.768.768 0 00.654-.337c.166-.224.249-.55.249-.976 0-.426-.083-.751-.249-.976a.769.769 0 00-.654-.336.787.787 0 00-.664.336c-.162.225-.243.55-.243.976 0 .426.081.752.243.976a.785.785 0 00.664.337zm5.765-.537a.855.855 0 01-.293.654c-.192.179-.471.283-.839.312v.551h-.312v-.551a2.442 2.442 0 01-.678-.132 1.51 1.51 0 01-.508-.292l.181-.381c.117.107.265.197.444.268.179.069.366.109.561.122v-1.132a3.702 3.702 0 01-.571-.18 1 1 0 01-.381-.288.776.776 0 01-.151-.498c0-.257.093-.475.278-.653.189-.179.464-.283.825-.313v-.556h.312v.551c.185.007.364.036.537.088.175.052.327.122.454.21l-.162.39a1.71 1.71 0 00-.829-.273v1.137c.237.059.433.12.586.185a.966.966 0 01.385.283c.107.124.161.29.161.498zm-2.069-1.566c0 .14.054.249.161.327.108.078.262.143.464.195v-1.054c-.208.026-.365.088-.469.185a.451.451 0 00-.156.347zm.937 2.113c.218-.02.381-.075.488-.166a.445.445 0 00.166-.352.367.367 0 00-.171-.327 1.61 1.61 0 00-.483-.205v1.05zm30.99-.454h-.649v.839h-.474v-.839h-1.898v-.342l1.747-2.234h.527l-1.673 2.156h1.312v-.741h.459v.741h.649v.42zm1.688.878c-.27 0-.511-.068-.723-.205a1.409 1.409 0 01-.492-.605 2.228 2.228 0 01-.181-.937c0-.361.06-.673.181-.937.12-.263.284-.463.492-.6.212-.14.453-.209.723-.209.266 0 .504.069.712.209.211.137.377.337.498.6.12.264.18.576.18.937 0 .361-.06.674-.18.937a1.406 1.406 0 01-.498.605 1.266 1.266 0 01-.712.205zm0-.434a.765.765 0 00.653-.337c.166-.224.249-.55.249-.976 0-.426-.083-.751-.249-.976a.766.766 0 00-.653-.336.785.785 0 00-.664.336c-.163.225-.244.55-.244.976 0 .426.081.752.244.976a.784.784 0 00.664.337zm3.254.434c-.27 0-.511-.068-.722-.205a1.41 1.41 0 01-.493-.605 2.244 2.244 0 01-.181-.937c0-.361.061-.673.181-.937.12-.263.285-.463.493-.6.211-.14.452-.209.722-.209.267 0 .504.069.712.209.212.137.378.337.498.6.12.264.18.576.18.937 0 .361-.06.674-.18.937-.12.264-.286.465-.498.605a1.264 1.264 0 01-.712.205zm0-.434a.768.768 0 00.654-.337c.166-.224.249-.55.249-.976 0-.426-.083-.751-.249-.976a.769.769 0 00-.654-.336.785.785 0 00-.664.336c-.162.225-.244.55-.244.976 0 .426.082.752.244.976a.784.784 0 00.664.337zm2.966-3.059c.459 0 .812.148 1.059.444.251.296.376.715.376 1.258 0 .381-.068.706-.205.976-.133.267-.322.47-.566.61a1.678 1.678 0 01-.844.205c-.166 0-.322-.016-.469-.049a1.353 1.353 0 01-.38-.151l.185-.381c.166.108.386.161.659.161.355 0 .631-.109.829-.327.202-.221.303-.541.303-.961v-.122a.94.94 0 01-.405.337 1.44 1.44 0 01-.581.112c-.224 0-.426-.042-.605-.127a.99.99 0 01-.414-.361 1.02 1.02 0 01-.147-.546c0-.215.052-.404.156-.566.108-.163.252-.288.435-.376.182-.091.387-.136.614-.136zm.044 1.717c.153 0 .29-.029.41-.088a.66.66 0 00.278-.239.583.583 0 00.103-.337.634.634 0 00-.376-.566.962.962 0 00-.439-.092c-.225 0-.407.06-.547.18a.615.615 0 00-.204.483c0 .202.069.363.209.483.14.117.329.176.566.176zm2.125 1.766a.33.33 0 01-.234-.092.334.334 0 01-.098-.244.31.31 0 01.098-.235.319.319 0 01.234-.097c.091 0 .168.031.229.092a.325.325 0 01.093.24.33.33 0 01-.098.244.306.306 0 01-.224.092zm3.232-.454v.425h-2.455v-.332l1.391-1.342c.169-.162.283-.302.342-.419a.828.828 0 00.087-.361.493.493 0 00-.19-.415c-.124-.101-.302-.151-.537-.151-.377 0-.668.123-.873.371l-.332-.288a1.34 1.34 0 01.522-.381c.218-.091.461-.136.727-.136.358 0 .643.086.854.258.212.169.317.4.317.693 0 .182-.039.355-.117.517-.078.163-.226.348-.444.556l-1.044 1.005h1.752zm4.307-.507a.855.855 0 01-.293.654c-.192.179-.472.283-.839.312v.551h-.312v-.551a2.456 2.456 0 01-.679-.132 1.514 1.514 0 01-.507-.292l.18-.381c.118.107.266.197.444.268a1.9 1.9 0 00.562.122v-1.132a3.702 3.702 0 01-.571-.18 1 1 0 01-.381-.288.776.776 0 01-.151-.498c0-.257.093-.475.278-.653.189-.179.464-.283.825-.313v-.556h.312v.551c.185.007.364.036.537.088.175.052.326.122.453.21l-.161.39a1.714 1.714 0 00-.829-.273v1.137c.237.059.432.12.585.185a.963.963 0 01.386.283c.107.124.161.29.161.498zm-2.069-1.566c0 .14.054.249.161.327.107.078.262.143.464.195v-1.054c-.209.026-.365.088-.469.185a.451.451 0 00-.156.347zm.937 2.113c.218-.02.38-.075.488-.166a.448.448 0 00.166-.352.367.367 0 00-.171-.327 1.61 1.61 0 00-.483-.205v1.05zm-62.871 26.796v.425h-2.454v-.332l1.39-1.342a1.69 1.69 0 00.342-.42.81.81 0 00.088-.361.492.492 0 00-.19-.414c-.124-.101-.303-.152-.537-.152-.378 0-.669.124-.874.371l-.331-.288c.133-.162.307-.289.522-.38.218-.091.46-.137.727-.137.358 0 .642.086.854.259a.84.84 0 01.317.693c0 .182-.039.354-.117.517-.078.162-.226.348-.444.556l-1.045 1.005h1.752zm1.709-1.556c.335.032.59.136.766.312a.886.886 0 01.263.663.992.992 0 01-.146.532 1.03 1.03 0 01-.439.376 1.646 1.646 0 01-.708.137 2.28 2.28 0 01-.702-.108 1.533 1.533 0 01-.552-.307l.225-.386c.117.111.267.2.449.269.182.065.375.097.58.097.254 0 .451-.053.591-.161a.523.523 0 00.214-.444.515.515 0 00-.209-.439c-.14-.104-.352-.156-.635-.156h-.273v-.341l.859-1.054h-1.644v-.425h2.254v.332l-.893 1.103zm4.456 1.141h-.649v.84h-.473v-.84h-1.898v-.341l1.746-2.235h.527l-1.673 2.157h1.312v-.742h.459v.742h.649v.419zm.71.869a.33.33 0 01-.235-.093.33.33 0 01-.097-.244.31.31 0 01.097-.234.322.322 0 01.235-.098.31.31 0 01.229.093.324.324 0 01.093.239.33.33 0 01-.098.244.306.306 0 01-.224.093zm1.78-3.445v3.416h-.483v-2.991h-.771v-.425h1.254zm2.142 3.455c-.27 0-.51-.069-.722-.205a1.424 1.424 0 01-.493-.605 2.247 2.247 0 01-.18-.937c0-.361.06-.674.18-.937a1.39 1.39 0 01.493-.6c.212-.14.452-.21.722-.21.267 0 .505.07.713.21.211.137.377.337.497.6.121.263.181.576.181.937 0 .361-.06.673-.181.937-.12.263-.286.465-.497.605a1.275 1.275 0 01-.713.205zm0-.435a.767.767 0 00.654-.336c.166-.225.249-.55.249-.976 0-.426-.083-.752-.249-.976a.767.767 0 00-.654-.337.786.786 0 00-.663.337c-.163.224-.244.55-.244.976 0 .426.081.751.244.976a.785.785 0 00.663.336zm5.765-.536a.85.85 0 01-.292.653c-.192.179-.472.283-.84.313v.551h-.312v-.551a2.456 2.456 0 01-.678-.132 1.51 1.51 0 01-.508-.293l.181-.38c.117.107.265.196.444.268.179.068.366.109.561.122v-1.132a3.588 3.588 0 01-.571-.181 1.011 1.011 0 01-.38-.287.776.776 0 01-.152-.498c0-.257.093-.475.279-.654.188-.179.463-.283.824-.312v-.556h.312v.551c.186.006.365.036.537.088.176.052.327.122.454.21l-.161.39a1.717 1.717 0 00-.83-.273v1.137c.238.058.433.12.586.185a.95.95 0 01.385.283c.108.124.161.289.161.498zm-2.068-1.567c0 .14.053.249.161.327.107.078.261.143.463.195v-1.053c-.208.026-.364.087-.468.185a.45.45 0 00-.156.346zm.936 2.113c.218-.019.381-.075.488-.166a.441.441 0 00.166-.351.367.367 0 00-.171-.327 1.587 1.587 0 00-.483-.205v1.049zm30.386-.039v.425h-2.454v-.332l1.39-1.342c.169-.163.283-.303.342-.42a.822.822 0 00.087-.361.49.49 0 00-.19-.414c-.123-.101-.302-.152-.537-.152-.377 0-.668.124-.873.371l-.332-.288c.134-.162.308-.289.522-.38.218-.091.461-.137.727-.137.358 0 .643.086.854.259.212.169.317.4.317.693 0 .182-.039.354-.117.517-.078.162-.226.348-.444.556l-1.044 1.005h1.752zm1.46-2.991v3.416h-.483v-2.991h-.771v-.425h1.254zm2.142 3.455c-.27 0-.51-.069-.722-.205a1.424 1.424 0 01-.493-.605 2.247 2.247 0 01-.18-.937c0-.361.06-.674.18-.937a1.39 1.39 0 01.493-.6c.212-.14.452-.21.722-.21.267 0 .504.07.713.21.211.137.377.337.497.6.121.263.181.576.181.937 0 .361-.06.673-.181.937-.12.263-.286.465-.497.605a1.277 1.277 0 01-.713.205zm0-.435a.769.769 0 00.654-.336c.166-.225.249-.55.249-.976 0-.426-.083-.752-.249-.976a.77.77 0 00-.654-.337.786.786 0 00-.663.337c-.163.224-.244.55-.244.976 0 .426.081.751.244.976a.785.785 0 00.663.336zm3.333-1.678c.224 0 .424.042.6.127a.973.973 0 01.571.907c0 .215-.054.404-.161.566a1.05 1.05 0 01-.435.381 1.393 1.393 0 01-.614.132c-.459 0-.814-.148-1.064-.444-.247-.296-.371-.716-.371-1.259 0-.381.067-.704.2-.971.137-.27.325-.473.566-.61.244-.14.527-.21.849-.21.166 0 .322.018.469.054.146.032.273.081.38.146l-.185.381c-.163-.108-.381-.161-.654-.161-.355 0-.633.11-.834.331-.202.218-.303.537-.303.957 0 .052.002.092.005.122a.913.913 0 01.4-.332c.172-.078.366-.117.581-.117zm-.059 1.717c.225 0 .407-.06.547-.18a.609.609 0 00.209-.483.584.584 0 00-.214-.478c-.14-.121-.329-.181-.566-.181a.918.918 0 00-.41.088.706.706 0 00-.278.239.61.61 0 00-.098.337c0 .12.031.231.093.331a.722.722 0 00.278.24c.124.058.27.087.439.087zm1.966.386a.327.327 0 01-.332-.337.31.31 0 01.098-.234.32.32 0 01.234-.098.31.31 0 01.229.093.324.324 0 01.093.239.33.33 0 01-.097.244.306.306 0 01-.225.093zm1.891-3.484c.459 0 .812.148 1.059.444.25.296.376.716.376 1.259 0 .38-.069.706-.205.976-.134.266-.322.47-.566.61a1.688 1.688 0 01-.844.205c-.166 0-.322-.017-.469-.049a1.353 1.353 0 01-.38-.151l.185-.381c.166.107.386.161.659.161.354 0 .631-.109.829-.327.202-.221.303-.542.303-.961v-.122a.954.954 0 01-.405.337 1.461 1.461 0 01-.581.112c-.224 0-.426-.043-.605-.127a1 1 0 01-.415-.361 1.034 1.034 0 01-.146-.547c0-.214.052-.403.156-.566.107-.162.252-.287.434-.375a1.36 1.36 0 01.615-.137zm.044 1.718c.153 0 .29-.03.41-.088a.681.681 0 00.278-.239.59.59 0 00.102-.337.578.578 0 00-.097-.327.638.638 0 00-.278-.239.952.952 0 00-.439-.093c-.225 0-.407.06-.547.181a.613.613 0 00-.205.483c0 .202.07.363.21.483.14.117.329.176.566.176zm5.766.805a.852.852 0 01-.293.653c-.192.179-.471.283-.839.313v.551h-.312v-.551a2.442 2.442 0 01-.678-.132 1.51 1.51 0 01-.508-.293l.181-.38c.117.107.265.196.444.268.179.068.366.109.561.122v-1.132a3.588 3.588 0 01-.571-.181 1.007 1.007 0 01-.381-.287.776.776 0 01-.151-.498c0-.257.093-.475.278-.654.189-.179.464-.283.825-.312v-.556h.312v.551c.185.006.364.036.537.088.175.052.327.122.453.21l-.161.39a1.714 1.714 0 00-.829-.273v1.137c.237.058.433.12.586.185a.957.957 0 01.385.283c.107.124.161.289.161.498zm-2.069-1.567c0 .14.054.249.161.327.108.078.262.143.464.195v-1.053c-.208.026-.365.087-.469.185a.45.45 0 00-.156.346zm.937 2.113c.218-.019.381-.075.488-.166a.441.441 0 00.166-.351.367.367 0 00-.171-.327 1.61 1.61 0 00-.483-.205v1.049zm-104.391-55.339c.488 0 .846.093 1.074.278.231.182.346.433.346.751 0 .202-.049.384-.146.547a.989.989 0 01-.434.381 1.66 1.66 0 01-.713.136c-.24 0-.473-.036-.697-.107a1.57 1.57 0 01-.557-.308l.225-.385c.117.111.266.2.449.268.182.065.374.098.575.098.257 0 .456-.054.596-.161a.537.537 0 00.214-.449.523.523 0 00-.234-.464c-.156-.107-.423-.161-.8-.161h-.776l.181-1.785h1.927v.424h-1.517l-.093.937h.38zm.083 25.474v3.415h-.483v-2.991h-.771v-.424h1.254zm3.148 2.99v.425h-2.454v-.332l1.39-1.342c.169-.162.283-.302.342-.419a.83.83 0 00.088-.361.494.494 0 00-.191-.415c-.123-.101-.302-.151-.536-.151-.378 0-.669.123-.874.371l-.331-.288c.133-.163.307-.29.522-.381.218-.091.46-.136.727-.136.357 0 .642.086.853.258.212.169.318.4.318.693 0 .182-.039.355-.118.517-.078.163-.226.348-.444.556l-1.044 1.005h1.752zm-3.099 23.806c.459 0 .812.148 1.059.444.25.296.376.716.376 1.259 0 .38-.069.706-.205.976-.134.266-.322.47-.566.61a1.688 1.688 0 01-.844.205c-.166 0-.322-.017-.469-.049a1.353 1.353 0 01-.38-.151l.185-.381c.166.107.385.161.659.161.354 0 .631-.109.829-.327.202-.221.303-.542.303-.961v-.122a.954.954 0 01-.405.337 1.461 1.461 0 01-.581.112c-.224 0-.426-.043-.605-.127a1 1 0 01-.415-.361 1.034 1.034 0 01-.146-.547c0-.214.052-.403.156-.566.107-.162.252-.287.434-.375.182-.091.387-.137.615-.137zm.044 1.718c.153 0 .29-.03.41-.088a.681.681 0 00.278-.239.59.59 0 00.102-.337.578.578 0 00-.097-.327.638.638 0 00-.278-.239.952.952 0 00-.439-.093c-.225 0-.407.06-.547.181a.613.613 0 00-.205.483c0 .202.07.363.21.483.14.117.329.176.566.176z" fill="#373943"/></g><rect x="89.135" y="118.061" width="205.729" height="97.772" rx="4.744" stroke="#D3E3FF" stroke-width=".271"/></g><g filter="url(#filter3_d)"><rect x="173" y="236" width="40" height="40" rx="8" fill="#3E54D8"/></g><path opacity=".9" d="M187.153 263.24c-1.16 0-2.193-.287-3.1-.86-.907-.574-1.62-1.4-2.14-2.48-.507-1.094-.76-2.394-.76-3.9 0-1.507.253-2.8.76-3.88.52-1.094 1.233-1.927 2.14-2.5.907-.574 1.94-.86 3.1-.86 1.16 0 2.193.286 3.1.86.907.573 1.613 1.406 2.12 2.5.52 1.08.78 2.373.78 3.88 0 1.506-.26 2.806-.78 3.9-.507 1.08-1.213 1.906-2.12 2.48-.907.573-1.94.86-3.1.86zm0-2.74c.853 0 1.52-.367 2-1.1.493-.734.74-1.867.74-3.4 0-1.534-.247-2.667-.74-3.4-.48-.734-1.147-1.1-2-1.1-.84 0-1.507.366-2 1.1-.48.733-.72 1.866-.72 3.4 0 1.533.24 2.666.72 3.4.493.733 1.16 1.1 2 1.1zm17.917-.14V263h-10.58v-2.1l5.4-5.1c.573-.547.96-1.014 1.16-1.4.2-.4.3-.794.3-1.18 0-.56-.193-.987-.58-1.28-.373-.307-.927-.46-1.66-.46-.613 0-1.167.12-1.66.36a3.09 3.09 0 00-1.24 1.04l-2.36-1.52c.547-.814 1.3-1.447 2.26-1.9.96-.467 2.06-.7 3.3-.7 1.04 0 1.947.173 2.72.52.787.333 1.393.813 1.82 1.44.44.613.66 1.34.66 2.18 0 .76-.16 1.473-.48 2.14-.32.666-.94 1.426-1.86 2.28l-3.22 3.04h6.02z" fill="#fff"/><defs><filter id="filter0_d" x="0" y="0" width="384" height="374" filterUnits="userSpaceOnUse" color-interpolation-filters="sRGB"><feFlood flood-opacity="0" result="BackgroundImageFix"/><feColorMatrix in="SourceAlpha" values="0 0 0 0 0 0 0 0 0 0 0 0 0 0 0 0 0 0 127 0"/><feMorphology radius="17" in="SourceAlpha" result="effect1_dropShadow"/><feOffset dy="44"/><feGaussianBlur stdDeviation="44.5"/><feColorMatrix values="0 0 0 0 0.243137 0 0 0 0 0.329412 0 0 0 0 0.847059 0 0 0 0.06 0"/><feBlend in2="BackgroundImageFix" result="effect1_dropShadow"/><feBlend in="SourceGraphic" in2="effect1_dropShadow" result="shape"/></filter><filter id="filter1_d" x="88.187" y="117.925" width="207.626" height="101.296" filterUnits="userSpaceOnUse" color-interpolation-filters="sRGB"><feFlood flood-opacity="0" result="BackgroundImageFix"/><feColorMatrix in="SourceAlpha" values="0 0 0 0 0 0 0 0 0 0 0 0 0 0 0 0 0 0 127 0"/><feMorphology radius="3.524" in="SourceAlpha" result="effect1_dropShadow"/><feOffset dy="2.44"/><feGaussianBlur stdDeviation="2.169"/><feColorMatrix values="0 0 0 0 0.243137 0 0 0 0 0.329412 0 0 0 0 0.847059 0 0 0 0.22 0"/><feBlend in2="BackgroundImageFix" result="effect1_dropShadow"/><feBlend in="SourceGraphic" in2="effect1_dropShadow" result="shape"/></filter><filter id="filter2_d" x="86.832" y="186.145" width="280.009" height="31.986" filterUnits="userSpaceOnUse" color-interpolation-filters="sRGB"><feFlood flood-opacity="0" result="BackgroundImageFix"/><feColorMatrix in="SourceAlpha" values="0 0 0 0 0 0 0 0 0 0 0 0 0 0 0 0 0 0 127 0"/><feOffset/><feGaussianBlur stdDeviation="1.22"/><feColorMatrix values="0 0 0 0 0.243137 0 0 0 0 0.329412 0 0 0 0 0.847059 0 0 0 0.18 0"/><feBlend in2="BackgroundImageFix" result="effect1_dropShadow"/><feBlend in="SourceGraphic" in2="effect1_dropShadow" result="shape"/></filter><filter id="filter3_d" x="164" y="236" width="58" height="70" filterUnits="userSpaceOnUse" color-interpolation-filters="sRGB"><feFlood flood-opacity="0" result="BackgroundImageFix"/><feColorMatrix in="SourceAlpha" values="0 0 0 0 0 0 0 0 0 0 0 0 0 0 0 0 0 0 127 0"/><feMorphology radius="13" in="SourceAlpha" result="effect1_dropShadow"/><feOffset dy="21"/><feGaussianBlur stdDeviation="11"/><feColorMatrix values="0 0 0 0 0.243137 0 0 0 0 0.329412 0 0 0 0 0.847059 0 0 0 0.51 0"/><feBlend in2="BackgroundImageFix" result="effect1_dropShadow"/><feBlend in="SourceGraphic" in2="effect1_dropShadow" result="shape"/></filter><clipPath id="clip0"><rect x="89" y="117.925" width="206" height="98.043" rx="4.879" fill="#fff"/></clipPath><clipPath id="clip1"><path fill="#fff" transform="translate(232.665 205.391)" d="M0 0h6.506v6.506H0z"/></clipPath></defs></svg>