<svg width="384" height="374" fill="none" xmlns="http://www.w3.org/2000/svg"><g filter="url(#filter0_d)"><rect x="72" y="28" width="240" height="230" rx="36" fill="#fff"/></g><g filter="url(#filter1_d)"><rect x="172" y="236" width="40" height="40" rx="8" fill="#3E54D8"/></g><path opacity=".9" d="M185.098 263.24c-1.16 0-2.193-.287-3.1-.86-.906-.573-1.62-1.4-2.14-2.48-.506-1.093-.76-2.393-.76-3.9 0-1.507.254-2.8.76-3.88.52-1.093 1.234-1.927 2.14-2.5.907-.573 1.94-.86 3.1-.86 1.16 0 2.194.287 3.1.86.907.573 1.614 1.407 2.12 2.5.52 1.08.78 2.373.78 3.88 0 1.507-.26 2.807-.78 3.9-.506 1.08-1.213 1.907-2.12 2.48-.906.573-1.94.86-3.1.86zm0-2.74c.854 0 1.52-.367 2-1.1.494-.733.74-1.867.74-3.4s-.246-2.667-.74-3.4c-.48-.733-1.146-1.1-2-1.1-.84 0-1.506.367-2 1.1-.48.733-.72 1.867-.72 3.4s.24 2.667.72 3.4c.494.733 1.16 1.1 2 1.1zm20.395-.44h-2.28V263h-3.16v-2.94h-7.54v-2.18l6.6-8.88h3.4l-6.12 8.42h3.76v-2.62h3.06v2.62h2.28v2.64z" fill="#fff"/><g filter="url(#filter2_d)"><rect x="85" y="55.614" width="215" height="166.117" rx="3.809" fill="#fff"/><path d="M90.08 71.485h204.843" stroke="#D3E3FF" stroke-width=".212" stroke-linecap="round"/><path d="M93.64 64.885v3.5h-.49V65.32h-2.03v3.065h-.495v-3.5h3.015zm2.147 3.53c-.264 0-.5-.058-.71-.175a1.293 1.293 0 01-.495-.48 1.399 1.399 0 01-.175-.7c0-.26.058-.491.175-.695.12-.206.285-.366.495-.48.21-.116.446-.175.71-.175.263 0 .498.059.705.175.21.114.373.274.49.48.12.204.18.435.18.695 0 .26-.06.494-.18.7a1.25 1.25 0 01-.49.48 1.41 1.41 0 01-.705.175zm0-.42a.847.847 0 00.775-.445c.076-.143.115-.306.115-.49a.994.994 0 00-.115-.485.804.804 0 00-.32-.33.896.896 0 00-.455-.115.846.846 0 00-.78.445.993.993 0 00-.115.485c0 .184.038.347.115.49.08.14.186.25.32.33.136.077.29.115.46.115zm6.466-2.26v2.65h-.435V66.45l-.99 1.635h-.21l-.98-1.64v1.94h-.44v-2.65h.495l1.04 1.79 1.07-1.79h.45zm3.329 1.34c0 .037-.003.085-.01.145h-2.15c.03.234.132.422.305.565.177.14.395.21.655.21.317 0 .572-.106.765-.32l.265.31c-.12.14-.27.247-.45.32a1.54 1.54 0 01-.595.11c-.28 0-.528-.056-.745-.17a1.262 1.262 0 01-.505-.485 1.396 1.396 0 01-.175-.7c0-.256.057-.488.17-.695.117-.206.275-.366.475-.48.203-.116.432-.175.685-.175.253 0 .478.059.675.175.2.114.355.274.465.48.113.207.17.444.17.71zm-1.31-.96a.84.84 0 00-.58.21.855.855 0 00-.27.55h1.7a.837.837 0 00-.275-.545.809.809 0 00-.575-.215zm3.21 2.3c-.27 0-.512-.058-.725-.175a1.293 1.293 0 01-.495-.48c-.12-.206-.18-.44-.18-.7 0-.26.06-.491.18-.695.12-.206.285-.366.495-.48.213-.116.455-.175.725-.175.24 0 .453.049.64.145.19.097.336.237.44.42l-.365.235a.822.822 0 00-.72-.38.96.96 0 00-.47.115.834.834 0 00-.325.33.99.99 0 00-.115.485c0 .187.038.352.115.495.08.14.188.249.325.325.14.077.296.115.47.115a.824.824 0 00.72-.38l.365.23a1.06 1.06 0 01-.44.425c-.187.097-.4.145-.64.145zm3.743-2.68v2.65h-.43v-.84h-.825l-.58.84h-.515l.645-.905a.887.887 0 01-.46-.295.831.831 0 01-.16-.52c0-.303.103-.533.31-.69.207-.16.492-.24.855-.24h1.16zm-1.835.945c0 .177.055.309.165.395.113.084.282.125.505.125h.735v-1.045h-.715c-.46 0-.69.175-.69.525zm5.602 1.285v1.055h-.455v-.635h-2.375v-2.65h.48v2.23h1.45v-2.23h.48v2.23h.42zm1.567-2.255c.366 0 .646.09.84.27.196.18.295.449.295.805v1.6h-.455v-.35a.773.773 0 01-.345.285 1.322 1.322 0 01-.525.095c-.297 0-.535-.071-.715-.215a.691.691 0 01-.265-.565.69.69 0 01.255-.56c.17-.143.44-.215.81-.215h.76v-.095c0-.206-.06-.365-.18-.475-.12-.11-.297-.165-.53-.165-.157 0-.31.027-.46.08-.15.05-.277.119-.38.205l-.2-.36c.136-.11.3-.193.49-.25.19-.06.391-.09.605-.09zm-.11 2.335c.183 0 .341-.04.475-.12.133-.083.23-.2.29-.35v-.37h-.74c-.407 0-.61.137-.61.41a.37.37 0 00.155.315c.103.077.246.115.43.115zm5.164-2.31v2.65h-.435V66.45l-.99 1.635h-.21l-.98-1.64v1.94h-.44v-2.65h.495l1.04 1.79 1.07-1.79h.45z" fill="#3E54D8"/><path d="M133.412 64.885v3.5h-.49V65.32h-2.03v3.065h-.495v-3.5h3.015zm2.146 3.53c-.263 0-.5-.058-.71-.175a1.293 1.293 0 01-.495-.48 1.406 1.406 0 01-.175-.7c0-.26.059-.491.175-.695.12-.206.285-.366.495-.48.21-.116.447-.175.71-.175.264 0 .499.059.705.175.21.114.374.274.49.48.12.204.18.435.18.695 0 .26-.06.494-.18.7-.116.204-.28.364-.49.48a1.406 1.406 0 01-.705.175zm0-.42c.17 0 .322-.038.455-.115a.84.84 0 00.32-.33 1.02 1.02 0 00.115-.49.99.99 0 00-.115-.485.797.797 0 00-.32-.33.895.895 0 00-.455-.115.849.849 0 00-.78.445 1 1 0 00-.115.485c0 .184.039.347.115.49.08.14.187.25.32.33.137.077.29.115.46.115zm5.361-1.84h-1.47v2.23h-.48v-2.65h1.95v.42zm1.509 2.26c-.263 0-.5-.058-.71-.175a1.293 1.293 0 01-.495-.48 1.406 1.406 0 01-.175-.7c0-.26.059-.491.175-.695.12-.206.285-.366.495-.48.21-.116.447-.175.71-.175.264 0 .499.059.705.175.21.114.374.274.49.48.12.204.18.435.18.695 0 .26-.06.494-.18.7-.116.204-.28.364-.49.48a1.406 1.406 0 01-.705.175zm0-.42c.17 0 .322-.038.455-.115a.84.84 0 00.32-.33 1.02 1.02 0 00.115-.49.99.99 0 00-.115-.485.797.797 0 00-.32-.33.895.895 0 00-.455-.115.849.849 0 00-.78.445 1 1 0 00-.115.485c0 .184.039.347.115.49.08.14.187.25.32.33.137.077.29.115.46.115zm4.744-.03V69h-.45v-.615h-2.215V69h-.455v-1.035h.14c.17-.01.287-.13.35-.36.063-.23.107-.555.13-.975l.04-.895h2.055v2.23h.405zm-2.06-1.3a5.56 5.56 0 01-.085.83c-.04.217-.115.374-.225.47h1.485v-1.81h-1.15l-.025.51zm3.63-.955c.367 0 .647.09.84.27.197.18.295.449.295.805v1.6h-.455v-.35a.773.773 0 01-.345.285 1.315 1.315 0 01-.525.095c-.296 0-.535-.071-.715-.215a.694.694 0 01-.265-.565.69.69 0 01.255-.56c.17-.143.44-.215.81-.215h.76v-.095c0-.206-.06-.365-.18-.475-.12-.11-.296-.165-.53-.165-.156 0-.31.027-.46.08a1.17 1.17 0 00-.38.205l-.2-.36c.137-.11.3-.193.49-.25a2 2 0 01.605-.09zm-.11 2.335c.184 0 .342-.04.475-.12a.71.71 0 00.29-.35v-.37h-.74c-.406 0-.61.137-.61.41a.37.37 0 00.155.315c.104.077.247.115.43.115zm5.165-2.31v2.65h-.435V66.45l-.99 1.635h-.21l-.98-1.64v1.94h-.44v-2.65h.495l1.04 1.79 1.07-1.79h.45zm10.552.835c.236.057.415.159.535.305a.822.822 0 01.185.555c0 .304-.112.539-.335.705-.22.167-.542.25-.965.25h-1.6v-3.5h1.505c.383 0 .681.079.895.235.216.154.325.375.325.665 0 .19-.049.352-.145.485a.846.846 0 01-.4.3zm-1.685-.145h.975c.243 0 .428-.048.555-.145.13-.096.195-.238.195-.425a.498.498 0 00-.195-.425c-.13-.1-.315-.15-.555-.15h-.975v1.145zm1.095 1.565c.536 0 .805-.2.805-.6 0-.2-.069-.346-.205-.44-.134-.096-.334-.145-.6-.145h-1.095v1.185h1.095zm4.173-2.285c.27 0 .513.059.73.175a1.294 1.294 0 01.7 1.18 1.295 1.295 0 01-.7 1.185c-.217.117-.46.175-.73.175-.234 0-.445-.036-.635-.11a1.272 1.272 0 01-.475-.32l.28-.28c.213.21.483.315.81.315.26 0 .481-.073.665-.22a.91.91 0 00.33-.585h-1.33v-.355h1.32a.89.89 0 00-.335-.555 1.011 1.011 0 00-.65-.215c-.324 0-.594.107-.81.32l-.28-.275c.13-.143.29-.251.48-.325.19-.073.4-.11.63-.11zm3.988.45h-.97v2.23h-.48v-2.23h-.97v-.42h2.42v.42zm1.509 2.26c-.264 0-.5-.058-.71-.175a1.293 1.293 0 01-.495-.48 1.396 1.396 0 01-.175-.7c0-.26.058-.491.175-.695.12-.206.285-.366.495-.48.21-.116.446-.175.71-.175.263 0 .498.059.705.175.21.114.373.274.49.48.12.204.18.435.18.695 0 .26-.06.494-.18.7a1.26 1.26 0 01-.49.48 1.411 1.411 0 01-.705.175zm0-.42c.17 0 .321-.038.455-.115a.853.853 0 00.32-.33 1.03 1.03 0 00.115-.49 1 1 0 00-.115-.485.81.81 0 00-.32-.33.898.898 0 00-.455-.115.922.922 0 00-.46.115.842.842 0 00-.32.33.99.99 0 00-.115.485c0 .184.038.347.115.49.08.14.186.25.32.33.136.077.29.115.46.115zm5.123-2.26v2.65h-.435V66.45l-.99 1.635h-.21l-.98-1.64v1.94h-.44v-2.65h.495l1.04 1.79 1.07-1.79h.45zm4.227.42h-1.47v2.23h-.48v-2.65h1.95v.42zm1.509 2.26c-.263 0-.5-.058-.71-.175a1.293 1.293 0 01-.495-.48 1.396 1.396 0 01-.175-.7c0-.26.058-.491.175-.695.12-.206.285-.366.495-.48.21-.116.447-.175.71-.175.263 0 .498.059.705.175.21.114.373.274.49.48.12.204.18.435.18.695 0 .26-.06.494-.18.7a1.26 1.26 0 01-.49.48 1.411 1.411 0 01-.705.175zm0-.42a.846.846 0 00.775-.445 1.02 1.02 0 00.115-.49.99.99 0 00-.115-.485.803.803 0 00-.32-.33.895.895 0 00-.455-.115.849.849 0 00-.78.445.99.99 0 00-.115.485c0 .184.038.347.115.49.08.14.187.25.32.33.137.077.29.115.46.115zm4.744-.03V69h-.45v-.615h-2.215V69h-.455v-1.035h.14c.17-.01.286-.13.35-.36.063-.23.106-.555.13-.975l.04-.895h2.055v2.23h.405zm-2.06-1.3c-.014.334-.042.61-.085.83-.04.217-.115.374-.225.47h1.485v-1.81h-1.15l-.025.51zm5.05-.93l-1.285 2.915c-.113.27-.247.46-.4.57a.897.897 0 01-.545.165 1.12 1.12 0 01-.38-.065.753.753 0 01-.3-.18l.205-.36c.137.13.295.195.475.195a.44.44 0 00.29-.095.749.749 0 00.215-.315l.085-.185-1.17-2.645h.5l.925 2.12.915-2.12h.47z" fill="#373943"/><circle cx="199.924" cy="66.385" r=".529" fill="#3E54D8"/><circle cx="202.254" cy="66.385" r=".529" fill="#3E54D8"/><circle cx="204.581" cy="66.385" r=".529" fill="#3E54D8"/><path d="M90.396 71.168H122.5" stroke="#3E54D8" stroke-width=".635" stroke-linecap="round"/><path d="M91.133 94.564a1.82 1.82 0 01-.531-.078 1.105 1.105 0 01-.403-.207l.152-.341a1.262 1.262 0 00.782.26c.176 0 .307-.028.393-.084.088-.057.132-.131.132-.224a.209.209 0 00-.074-.166.482.482 0 00-.183-.105 4.14 4.14 0 00-.305-.084 3.653 3.653 0 01-.44-.13.745.745 0 01-.288-.199.555.555 0 01-.118-.372c0-.131.035-.25.105-.356a.73.73 0 01.321-.257c.145-.063.32-.095.528-.095.145 0 .287.018.427.054.14.036.26.088.362.156l-.138.342a1.367 1.367 0 00-.326-.139 1.217 1.217 0 00-.328-.047c-.174 0-.304.03-.39.088a.272.272 0 00-.125.233c0 .068.024.123.071.166.05.043.112.077.187.102.074.025.176.053.304.084.176.041.321.084.434.13a.706.706 0 01.288.199c.08.09.121.212.121.366 0 .13-.036.25-.108.355a.714.714 0 01-.322.254c-.144.063-.32.095-.528.095zm2.37-2.404a1.3 1.3 0 01.535.102.78.78 0 01.352.29.815.815 0 01.122.451c0 .172-.04.322-.122.45a.78.78 0 01-.352.291 1.3 1.3 0 01-.535.102h-.535v.684h-.44v-2.37h.975zm-.02 1.314c.192 0 .337-.041.436-.122a.425.425 0 00.15-.349.424.424 0 00-.15-.349c-.099-.081-.244-.122-.436-.122h-.515v.942h.515zm3.01-.397c.334 0 .58.066.741.197a.64.64 0 01.24.528c0 .142-.035.27-.105.386a.725.725 0 01-.314.274 1.18 1.18 0 01-.518.102 1.71 1.71 0 01-.491-.071 1.233 1.233 0 01-.4-.203l.186-.342c.088.072.193.13.315.172.124.041.252.061.383.061a.617.617 0 00.365-.094.313.313 0 00.136-.268.302.302 0 00-.146-.274c-.094-.063-.258-.095-.49-.095h-.573l.122-1.29h1.392v.369h-1.02l-.05.549h.227zm2.224 1.487a.925.925 0 01-.508-.142.985.985 0 01-.352-.42 1.551 1.551 0 01-.129-.657c0-.253.043-.47.129-.653a.959.959 0 01.352-.42.909.909 0 01.508-.146.91.91 0 01.508.146.95.95 0 01.355.42c.086.182.13.4.13.653s-.044.472-.13.657a.977.977 0 01-.355.42.926.926 0 01-.508.142zm0-.383a.46.46 0 00.4-.21c.099-.14.148-.348.148-.626s-.05-.486-.148-.626a.46.46 0 00-.4-.21c-.167 0-.3.07-.4.21-.097.14-.145.348-.145.626s.048.486.145.626c.1.14.233.21.4.21zm2.278.383a.928.928 0 01-.508-.142.986.986 0 01-.352-.42 1.547 1.547 0 01-.128-.657c0-.253.042-.47.128-.653a.96.96 0 01.352-.42.911.911 0 01.508-.146.91.91 0 01.508.146c.151.094.27.234.356.42.085.182.128.4.128.653s-.043.472-.128.657a.98.98 0 01-.356.42.925.925 0 01-.508.142zm0-.383c.169 0 .303-.07.4-.21.099-.14.149-.348.149-.626s-.05-.486-.149-.626a.462.462 0 00-.4-.21c-.167 0-.3.07-.399.21-.097.14-.146.348-.146.626s.049.486.146.626c.099.14.232.21.399.21zm-8.405 7.39L92.585 100l-.779 1.3h-.196l-.779-1.279v1.55h-.416v-2.37h.362l.938 1.568.927-1.568h.36l.006 2.37h-.42zm1.84.024c-.182 0-.347-.04-.494-.119a.878.878 0 01-.345-.328.95.95 0 01-.122-.481c0-.178.04-.337.122-.477a.88.88 0 01.345-.329c.147-.079.312-.118.495-.118.185 0 .35.04.498.118.146.08.26.189.341.329.084.14.126.299.126.477a.93.93 0 01-.126.481.854.854 0 01-.341.328 1.034 1.034 0 01-.498.119zm0-.362a.517.517 0 00.387-.156.56.56 0 00.152-.41.558.558 0 00-.152-.409.517.517 0 00-.386-.156.516.516 0 00-.386.156.565.565 0 00-.15.409c0 .17.05.306.15.41.101.104.23.156.386.156zm1.384-1.47h.423v1.192l.999-1.192h.386v1.808h-.423v-1.192l-.996 1.192h-.39v-1.808zm.877-.213c-.183 0-.323-.042-.42-.125-.095-.086-.143-.21-.146-.373h.281a.272.272 0 00.075.193c.05.048.118.071.206.071a.282.282 0 00.204-.07.259.259 0 00.08-.194h.288c-.002.163-.051.287-.148.373-.098.083-.237.125-.42.125zm-4.593 4.213v1.808h-.42v-1.449h-.89v1.449h-.423v-1.808h1.733zm1.377 1.832c-.183 0-.347-.04-.494-.119a.878.878 0 01-.346-.328.95.95 0 01-.121-.481c0-.178.04-.337.121-.477a.88.88 0 01.346-.329c.147-.079.311-.118.494-.118.185 0 .351.039.498.118a.86.86 0 01.342.329c.083.14.125.299.125.477a.93.93 0 01-.125.481.855.855 0 01-.342.328 1.033 1.033 0 01-.498.119zm0-.362a.517.517 0 00.386-.156.56.56 0 00.152-.41.559.559 0 00-.152-.409.517.517 0 00-.386-.156.517.517 0 00-.386.156.566.566 0 00-.149.409c0 .17.05.306.15.41.1.104.23.156.385.156zm2.385-1.49c.177 0 .333.038.471.115a.82.82 0 01.328.325c.08.14.119.301.119.484s-.04.346-.119.488a.829.829 0 01-.328.325.948.948 0 01-.47.115c-.244 0-.437-.081-.58-.244v.877h-.423v-2.465h.403V104a.657.657 0 01.258-.193.885.885 0 01.341-.064zm-.047 1.49a.506.506 0 00.383-.156.56.56 0 00.152-.41.558.558 0 00-.152-.409.506.506 0 00-.383-.156.538.538 0 00-.274.071.493.493 0 00-.193.196.606.606 0 00-.071.298.61.61 0 00.07.298.51.51 0 00.468.268zm2.752-1.111h-.633v1.449h-.423v-1.449h-.637v-.359h1.693v.359zm2.618.542c0 .28-.093.5-.281.66-.185.16-.45.252-.795.274v.63h-.4v-.626c-.345-.023-.61-.114-.796-.274-.185-.161-.277-.382-.277-.664 0-.28.092-.498.277-.654.186-.158.45-.248.796-.27v-.681h.4v.681c.345.022.61.112.795.27.188.158.281.376.281.654zm-2.133 0a.52.52 0 00.16.406c.108.097.274.156.497.176v-1.148c-.223.019-.39.075-.498.17a.504.504 0 00-.159.396zm1.057.582c.442-.04.663-.235.663-.582 0-.172-.055-.304-.166-.396-.108-.095-.274-.151-.497-.17v1.148zm3.179-.569c0 .03-.002.072-.006.126h-1.419a.5.5 0 00.193.318.65.65 0 00.393.115.66.66 0 00.491-.196l.227.26a.772.772 0 01-.309.221 1.133 1.133 0 01-.419.074c-.199 0-.374-.04-.525-.119a.865.865 0 01-.352-.328.943.943 0 01-.122-.481c0-.176.039-.334.118-.474a.869.869 0 01.335-.332.977.977 0 01.481-.118.93.93 0 01.471.118c.14.077.248.187.325.329.079.14.118.302.118.487zm-.914-.595a.5.5 0 00-.514.44h1.026a.51.51 0 00-.166-.319.507.507 0 00-.346-.121zm2.993-.319v1.808h-.423v-1.449h-.677l-.017.359c-.012.239-.034.44-.068.603a.842.842 0 01-.166.382.39.39 0 01-.318.139.928.928 0 01-.234-.037l.02-.356a.395.395 0 00.082.011c.085 0 .15-.034.193-.102a.596.596 0 00.081-.247c.013-.097.025-.235.034-.413l.03-.698h1.463zm1.477.596c.231 0 .407.052.528.156a.54.54 0 01.187.44.558.558 0 01-.203.461c-.136.108-.327.161-.573.159l-.846-.004v-1.808h.423v.593l.484.003zm-.098.904c.124.002.219-.024.285-.078.065-.054.098-.133.098-.237 0-.101-.032-.176-.095-.223-.063-.048-.159-.072-.288-.075l-.386-.003v.613l.386.003z" fill="#24252E"/><path d="M117.953 82.72a.65.65 0 01.362.207.553.553 0 01.125.376.56.56 0 01-.226.477c-.149.113-.367.17-.654.17h-1.083v-2.37h1.019c.259 0 .461.053.606.159.147.103.22.254.22.45a.547.547 0 01-.098.328.575.575 0 01-.271.204zm-1.141-.098h.66c.165 0 .29-.032.376-.098.088-.065.132-.161.132-.288 0-.126-.044-.222-.132-.287-.088-.068-.213-.102-.376-.102h-.66v.775zm.741 1.06c.364 0 .545-.135.545-.406 0-.136-.046-.235-.138-.298-.091-.066-.226-.098-.407-.098h-.741v.802h.741zm2.181.288c-.183 0-.346-.04-.491-.119a.875.875 0 01-.457-.799c0-.176.041-.333.122-.47a.843.843 0 01.335-.325.997.997 0 01.491-.119.93.93 0 01.433.098c.129.066.228.16.298.285l-.247.159a.546.546 0 00-.21-.193.596.596 0 00-.277-.064.652.652 0 00-.319.078.569.569 0 00-.22.223.672.672 0 00-.078.328c0 .127.026.238.078.335a.575.575 0 00.22.22.653.653 0 00.319.079.597.597 0 00.277-.065.547.547 0 00.21-.193l.247.156a.716.716 0 01-.298.288.924.924 0 01-.433.098zm2.748-.907c0 .024-.003.057-.007.098h-1.456a.57.57 0 00.206.382c.12.095.268.142.444.142a.666.666 0 00.518-.216l.179.21a.778.778 0 01-.304.216c-.12.05-.254.075-.403.075-.19 0-.358-.038-.505-.115a.866.866 0 01-.342-.329.947.947 0 01-.118-.474.96.96 0 01.115-.47.837.837 0 01.322-.325.912.912 0 01.463-.119c.172 0 .324.04.458.119.135.076.24.185.314.325.077.14.116.3.116.48zm-.888-.65a.567.567 0 00-.392.142.576.576 0 00-.183.372h1.151a.567.567 0 00-.576-.515zm3.523.606c.233.058.349.204.349.436 0 .158-.06.28-.179.366-.118.086-.294.129-.529.129h-.863v-1.795h.833c.212 0 .378.04.498.122a.383.383 0 01.179.339.403.403 0 01-.078.247.46.46 0 01-.21.156zm-.904-.092h.488a.482.482 0 00.281-.068.225.225 0 00.098-.196c0-.172-.126-.257-.379-.257h-.488v.521zm.522.772a.574.574 0 00.304-.064c.068-.043.102-.11.102-.2 0-.093-.032-.162-.095-.207-.061-.045-.158-.067-.291-.067h-.542v.538h.522zm2.191-1.56a.94.94 0 01.467.114.816.816 0 01.322.322.943.943 0 01.119.477c0 .18-.04.341-.119.481a.817.817 0 01-.322.322.94.94 0 01-.467.115.841.841 0 01-.355-.075.736.736 0 01-.271-.216v.927h-.325v-2.45h.311v.283a.682.682 0 01.275-.223.846.846 0 01.365-.078zm-.027 1.547a.571.571 0 00.525-.301.671.671 0 00.081-.333.652.652 0 00-.081-.328.543.543 0 00-.217-.224.605.605 0 00-.308-.077.6.6 0 00-.525.3.672.672 0 00-.078.33c0 .124.026.234.078.331a.571.571 0 00.525.302zm3.029-.624c0 .025-.003.058-.007.099h-1.456a.57.57 0 00.207.382.69.69 0 00.443.142.665.665 0 00.518-.216l.18.21a.789.789 0 01-.305.216c-.12.05-.254.075-.403.075-.19 0-.358-.038-.505-.115a.866.866 0 01-.342-.329.947.947 0 01-.118-.474.96.96 0 01.115-.47.837.837 0 01.322-.325.913.913 0 01.464-.119.88.88 0 01.457.119.8.8 0 01.315.325c.076.14.115.3.115.48zm-.887-.65a.568.568 0 00-.393.143.576.576 0 00-.183.372h1.151a.567.567 0 00-.575-.515zm3.46-.257v1.795h-.295v-1.31l-.67 1.106h-.142l-.664-1.11v1.314h-.298v-1.795h.335l.704 1.212.725-1.212h.305zm2.071 0v1.795h-.291v-.57h-.559l-.392.57h-.349l.437-.613a.599.599 0 01-.312-.2.565.565 0 01-.108-.352c0-.206.07-.361.21-.467.14-.109.333-.163.579-.163h.785zm-1.242.64c0 .12.037.209.111.267.077.057.191.085.342.085h.498v-.708h-.484c-.312 0-.467.119-.467.356zm9.12-.64h.325v.762h1.022v-.762h.325v1.795h-.325v-.752h-1.022v.752h-.325v-1.795zm3.073 1.815a.974.974 0 01-.481-.119.875.875 0 01-.335-.325.948.948 0 01-.119-.474c0-.176.04-.333.119-.47a.843.843 0 01.335-.325.974.974 0 01.481-.119c.178 0 .337.04.477.119a.817.817 0 01.332.325.911.911 0 01.122.47.93.93 0 01-.122.474.847.847 0 01-.332.325.954.954 0 01-.477.119zm0-.284a.571.571 0 00.525-.301.692.692 0 00.078-.333.672.672 0 00-.078-.328.543.543 0 00-.217-.224.605.605 0 00-.308-.077.573.573 0 00-.528.301.672.672 0 00-.078.328.605.605 0 00.294.555.63.63 0 00.312.079zm2.78-1.53v1.794h-.291v-.57h-.559l-.393.57h-.348l.436-.613a.6.6 0 01-.311-.2.566.566 0 01-.109-.352c0-.206.07-.361.21-.467.14-.109.333-.163.579-.163h.786zm-1.243.639c0 .12.038.209.112.267.077.057.191.085.342.085h.498v-.708h-.484c-.312 0-.468.119-.468.356zm2.791-.579c.167 0 .316.037.447.112a.777.777 0 01.305.311.9.9 0 01.112.45c0 .174-.04.329-.119.464a.797.797 0 01-.328.312 1.01 1.01 0 01-.481.112c-.305 0-.541-.104-.708-.312-.165-.21-.247-.504-.247-.884 0-.368.076-.655.227-.863.151-.21.383-.349.694-.416l.819-.183.048.298-.755.162c-.235.052-.41.14-.525.264-.115.124-.181.303-.196.535a.784.784 0 01.298-.267.872.872 0 01.409-.095zm-.057 1.49a.586.586 0 00.304-.078.536.536 0 00.21-.213.652.652 0 00.075-.315.58.58 0 00-.163-.43.575.575 0 00-.426-.163.588.588 0 00-.43.163.58.58 0 00-.163.43.57.57 0 00.288.528.6.6 0 00.305.078zm2.336-1.568c.174 0 .33.038.468.115a.82.82 0 01.321.322.943.943 0 01.119.477c0 .18-.04.341-.119.481a.821.821 0 01-.321.322.947.947 0 01-.468.115.841.841 0 01-.355-.075.736.736 0 01-.271-.216v.927h-.325v-2.45h.311v.283a.682.682 0 01.275-.223.846.846 0 01.365-.078zm-.027 1.547a.571.571 0 00.525-.301.671.671 0 00.081-.332.652.652 0 00-.081-.328.543.543 0 00-.217-.224.605.605 0 00-.308-.077.6.6 0 00-.525.3.672.672 0 00-.077.33c0 .124.025.234.077.331a.578.578 0 00.525.302zm2.236-.92c.228.002.402.054.522.155a.535.535 0 01.179.43.546.546 0 01-.196.45c-.129.104-.314.155-.555.153l-.779-.003v-1.795h.325v.606l.504.004zm-.077.94c.146.003.257-.026.331-.087.077-.061.115-.151.115-.271 0-.117-.037-.203-.111-.257-.072-.055-.184-.083-.335-.085l-.427-.007v.704l.427.004zm1.247-.199c.063 0 .115.023.156.068a.223.223 0 01.064.162.357.357 0 01-.014.099c-.006.031-.021.08-.044.145l-.159.47h-.213l.125-.504a.225.225 0 01-.105-.078.236.236 0 01-.037-.132c0-.067.021-.123.064-.166a.22.22 0 01.163-.064zm3.115.149v.295h-1.703v-.23l.965-.932c.117-.113.196-.21.237-.29a.564.564 0 00.061-.252.342.342 0 00-.132-.287c-.086-.07-.21-.105-.373-.105-.261 0-.463.085-.606.257l-.23-.2a.929.929 0 01.362-.264c.152-.063.32-.095.505-.095.248 0 .446.06.592.18a.582.582 0 01.221.48.822.822 0 01-.082.36 1.435 1.435 0 01-.308.385l-.724.698h1.215zm1.237.322a.904.904 0 01-.501-.142.974.974 0 01-.342-.42 1.546 1.546 0 01-.125-.65c0-.251.041-.468.125-.65a.95.95 0 01.342-.417.888.888 0 01.501-.146c.185 0 .35.049.494.146a.951.951 0 01.346.417c.083.182.125.399.125.65 0 .25-.042.467-.125.65a.974.974 0 01-.346.42.879.879 0 01-.494.142zm0-.302c.19 0 .341-.078.454-.233.115-.156.172-.382.172-.677 0-.296-.057-.522-.172-.678a.533.533 0 00-.454-.233.546.546 0 00-.461.233c-.112.156-.169.382-.169.677 0 .296.057.522.169.678a.546.546 0 00.461.233zm10.443-.01v.701h-.305v-.416h-1.5v.416h-.308v-.7h.095c.115-.008.194-.089.237-.245.043-.155.072-.375.088-.66l.027-.606h1.392v1.51h.274zm-1.395-.88a3.816 3.816 0 01-.057.562c-.028.147-.078.253-.153.318h1.006V82.44h-.779l-.017.346zm3.44.278c0 .024-.002.057-.006.098h-1.456a.57.57 0 00.206.382c.12.095.268.142.444.142a.666.666 0 00.518-.216l.179.21a.781.781 0 01-.305.216c-.119.05-.254.075-.402.075-.19 0-.358-.038-.505-.115a.853.853 0 01-.342-.329.947.947 0 01-.118-.474.96.96 0 01.115-.47.841.841 0 01.321-.325.918.918 0 01.464-.119c.172 0 .324.04.457.119a.788.788 0 01.315.325c.077.14.115.3.115.48zm-.887-.65a.57.57 0 00-.393.142.58.58 0 00-.182.372h1.151a.567.567 0 00-.576-.515zm2.089.778h-.372v.759h-.325v-1.795h.325v.758h.379l.582-.758h.349l-.681.864.728.93h-.382l-.603-.758zm1.933-1.053c.248 0 .438.061.569.183.133.122.2.304.2.545v1.084h-.309v-.237a.524.524 0 01-.233.193.897.897 0 01-.356.064.755.755 0 01-.484-.146.467.467 0 01-.179-.382c0-.158.057-.285.172-.38.115-.097.298-.145.549-.145h.514v-.064c0-.14-.04-.248-.121-.322-.082-.075-.201-.112-.359-.112a.926.926 0 00-.312.054.782.782 0 00-.257.14l-.136-.245a.971.971 0 01.332-.169c.129-.04.265-.06.41-.06zm-.075 1.581a.612.612 0 00.322-.08.48.48 0 00.196-.238v-.25h-.501c-.275 0-.413.092-.413.277 0 .09.035.162.105.213a.48.48 0 00.291.078zm2.343-1.503c.167 0 .316.037.447.112a.783.783 0 01.305.311.9.9 0 01.111.45.903.903 0 01-.118.464.793.793 0 01-.329.312 1.01 1.01 0 01-.48.112c-.305 0-.541-.104-.708-.312-.165-.21-.247-.504-.247-.884 0-.368.075-.655.227-.863.151-.21.382-.349.694-.416l.819-.183.048.298-.755.162c-.235.052-.41.14-.525.264-.115.124-.181.303-.197.535a.791.791 0 01.298-.267.879.879 0 01.41-.095zm-.058 1.49a.587.587 0 00.305-.078.55.55 0 00.21-.213.652.652 0 00.075-.315.583.583 0 00-.163-.43.576.576 0 00-.427-.163.59.59 0 00-.43.163.582.582 0 00-.162.43c0 .117.025.222.074.315.052.09.123.161.214.213a.6.6 0 00.304.078zm2.337-1.568a.94.94 0 01.467.115.816.816 0 01.322.322.942.942 0 01.118.477.96.96 0 01-.118.481.817.817 0 01-.322.322.94.94 0 01-.467.115.838.838 0 01-.355-.075.728.728 0 01-.271-.216v.927h-.325v-2.45h.311v.283a.679.679 0 01.274-.223.853.853 0 01.366-.078zm-.027 1.547a.571.571 0 00.525-.301.671.671 0 00.081-.332.652.652 0 00-.081-.328.543.543 0 00-.217-.224.605.605 0 00-.308-.077.597.597 0 00-.525.3.672.672 0 00-.078.33c0 .124.026.234.078.331a.571.571 0 00.525.302zm2.236-.92c.228.002.402.054.522.155a.535.535 0 01.179.43.546.546 0 01-.196.45c-.129.104-.314.155-.556.153l-.778-.003v-1.795h.325v.606l.504.004zm-.078.94c.147.003.258-.026.332-.087.077-.061.115-.151.115-.271 0-.117-.037-.203-.111-.257-.073-.055-.184-.083-.336-.085l-.426-.007v.704l.426.004zm1.248-.199c.063 0 .115.023.155.068a.22.22 0 01.065.162.357.357 0 01-.014.099 1.36 1.36 0 01-.044.145l-.159.47h-.213l.125-.504a.225.225 0 01-.105-.078.236.236 0 01-.037-.132c0-.067.021-.123.064-.166a.22.22 0 01.163-.064zm3.115.149v.295h-1.703v-.23l.965-.932c.117-.113.196-.21.237-.29a.578.578 0 00.061-.252.342.342 0 00-.132-.287c-.086-.07-.21-.105-.373-.105-.262 0-.464.085-.606.257l-.23-.2a.922.922 0 01.362-.264c.151-.063.32-.095.505-.095.248 0 .446.06.592.18.147.117.22.278.22.48a.821.821 0 01-.081.36 1.435 1.435 0 01-.308.385l-.725.698h1.216zm1.237.322a.9.9 0 01-.501-.142.974.974 0 01-.342-.42 1.546 1.546 0 01-.126-.65c0-.251.042-.468.126-.65a.95.95 0 01.342-.417.884.884 0 01.501-.146c.185 0 .35.049.494.146a.943.943 0 01.345.417c.084.182.126.399.126.65 0 .25-.042.467-.126.65a.966.966 0 01-.345.42.879.879 0 01-.494.142zm0-.302a.53.53 0 00.453-.233c.116-.156.173-.382.173-.677 0-.296-.057-.522-.173-.678a.53.53 0 00-.453-.233.545.545 0 00-.461.233c-.113.156-.169.382-.169.677 0 .296.056.522.169.678a.545.545 0 00.461.233zm8.185-1.52v1.795h-.291v-.57h-.559l-.392.57h-.349l.437-.613a.599.599 0 01-.312-.2.565.565 0 01-.108-.352c0-.206.07-.361.21-.467.14-.109.333-.163.579-.163h.785zm-1.242.64c0 .12.037.209.111.267.077.057.191.085.342.085h.498v-.708h-.484c-.312 0-.467.119-.467.356zm1.876-.64h.325v.762h1.023v-.762h.325v1.795h-.325v-.752h-1.023v.752h-.325v-1.795zm3.527.864c.233.058.349.204.349.436 0 .158-.06.28-.179.366-.118.086-.294.129-.529.129h-.863v-1.795h.833c.212 0 .378.04.498.122a.383.383 0 01.179.339.403.403 0 01-.078.247.46.46 0 01-.21.156zm-.904-.092h.488a.482.482 0 00.281-.068.225.225 0 00.098-.196c0-.172-.126-.257-.379-.257h-.488v.521zm.522.772a.574.574 0 00.304-.064c.068-.043.102-.11.102-.2 0-.093-.032-.162-.095-.207-.061-.045-.158-.067-.291-.067h-.542v.538h.522zm1.88-1.56c.248 0 .438.06.569.182.133.122.199.304.199.545v1.084h-.308v-.237a.524.524 0 01-.233.193.897.897 0 01-.356.064.755.755 0 01-.484-.146.468.468 0 01-.18-.382c0-.158.058-.285.173-.38.115-.097.298-.145.549-.145h.514v-.064c0-.14-.04-.248-.122-.322-.081-.075-.201-.112-.359-.112a.92.92 0 00-.311.054.772.772 0 00-.257.14l-.136-.245a.962.962 0 01.332-.169c.129-.04.265-.06.41-.06zm-.075 1.58a.614.614 0 00.322-.08.48.48 0 00.196-.238v-.25h-.501c-.275 0-.413.092-.413.277 0 .09.035.162.105.213a.48.48 0 00.291.078zm2.38-1.58a.94.94 0 01.467.114.816.816 0 01.322.322.942.942 0 01.118.477.96.96 0 01-.118.481.817.817 0 01-.322.322.94.94 0 01-.467.115.846.846 0 01-.356-.075.733.733 0 01-.27-.216v.927h-.325v-2.45h.311v.283a.679.679 0 01.274-.223.853.853 0 01.366-.078zm-.027 1.547a.571.571 0 00.525-.301.671.671 0 00.081-.333.652.652 0 00-.081-.328.543.543 0 00-.217-.224.605.605 0 00-.308-.077.597.597 0 00-.525.3.672.672 0 00-.078.33c0 .124.026.234.078.331a.571.571 0 00.525.302zm2.236-.922c.228.003.402.055.522.156a.535.535 0 01.179.43.546.546 0 01-.196.45c-.129.104-.314.155-.556.153l-.778-.003v-1.795h.325v.606l.504.004zm-.078.942c.147.002.258-.027.332-.088.077-.061.115-.151.115-.271 0-.117-.037-.203-.112-.257-.072-.055-.183-.083-.335-.085l-.426-.007v.704l.426.004zm1.247-.2a.2.2 0 01.156.068.22.22 0 01.065.162.357.357 0 01-.014.099 1.36 1.36 0 01-.044.145l-.159.47h-.213l.125-.504a.225.225 0 01-.105-.078.236.236 0 01-.037-.132.22.22 0 01.226-.23zm3.116.149v.295h-1.703v-.23l.965-.932c.117-.113.196-.21.237-.29a.578.578 0 00.061-.252.342.342 0 00-.132-.287c-.086-.07-.21-.105-.373-.105-.262 0-.464.085-.606.257l-.23-.2a.922.922 0 01.362-.264c.151-.063.32-.095.505-.095.248 0 .445.06.592.18.147.117.22.278.22.48a.821.821 0 01-.081.36 1.435 1.435 0 01-.308.385l-.725.698h1.216zm1.013-2.076v2.37h-.335v-2.075h-.535v-.294h.87zm11.385 1.47c0 .278-.093.496-.278.657-.185.16-.446.25-.782.267v.633h-.318v-.633c-.337-.018-.597-.106-.783-.264-.182-.16-.274-.38-.274-.66 0-.278.092-.494.274-.65.183-.156.444-.243.783-.26v-.702h.318v.701c.336.018.597.106.782.264.185.156.278.372.278.647zm-2.113 0a.57.57 0 00.183.45c.124.109.308.17.552.187v-1.26c-.246.016-.43.077-.552.183a.553.553 0 00-.183.44zm1.053.64c.492-.038.738-.252.738-.64a.542.542 0 00-.186-.44c-.124-.106-.308-.167-.552-.183v1.263zm3.141-.626a.824.824 0 01-.007.098h-1.456a.573.573 0 00.207.382.69.69 0 00.443.142.665.665 0 00.518-.216l.18.21a.781.781 0 01-.305.216c-.12.05-.254.075-.403.075a1.07 1.07 0 01-.504-.115.853.853 0 01-.342-.329.948.948 0 01-.119-.474.97.97 0 01.115-.47.844.844 0 01.322-.325.915.915 0 01.464-.119.88.88 0 01.457.119.8.8 0 01.315.325c.077.14.115.3.115.48zm-.887-.65a.568.568 0 00-.393.142.576.576 0 00-.183.372h1.151a.567.567 0 00-.575-.515zm2.613.606c.233.058.349.204.349.436 0 .158-.06.28-.179.366-.118.086-.294.129-.528.129h-.864v-1.795h.833c.212 0 .378.04.498.122a.383.383 0 01.179.339.403.403 0 01-.078.247.46.46 0 01-.21.156zm-.904-.092h.488a.482.482 0 00.281-.068.225.225 0 00.098-.196c0-.172-.126-.257-.379-.257h-.488v.521zm.522.772a.58.58 0 00.305-.064c.067-.043.101-.11.101-.2 0-.093-.031-.162-.095-.207-.061-.045-.158-.067-.291-.067h-.542v.538h.522zm2.191-1.56c.174 0 .33.038.468.114a.82.82 0 01.321.322.943.943 0 01.119.477c0 .18-.04.341-.119.481a.821.821 0 01-.321.322.947.947 0 01-.468.115.841.841 0 01-.355-.075.736.736 0 01-.271-.216v.927h-.325v-2.45h.311v.283a.682.682 0 01.275-.223.846.846 0 01.365-.078zm-.027 1.547a.571.571 0 00.525-.301.671.671 0 00.081-.333.652.652 0 00-.081-.328.543.543 0 00-.217-.224.605.605 0 00-.308-.077.6.6 0 00-.525.3.683.683 0 00-.077.33.7.7 0 00.077.331.578.578 0 00.525.302zm2.03-1.548c.249 0 .438.061.569.183.133.122.2.304.2.545v1.084h-.308v-.237a.521.521 0 01-.234.193.892.892 0 01-.355.064c-.201 0-.363-.049-.484-.146a.468.468 0 01-.18-.382c0-.158.058-.285.173-.38.115-.097.298-.145.548-.145h.515v-.064c0-.14-.041-.248-.122-.322-.081-.075-.201-.112-.359-.112a.916.916 0 00-.311.054.777.777 0 00-.258.14l-.135-.245a.954.954 0 01.332-.169c.128-.04.265-.06.409-.06zm-.074 1.581a.617.617 0 00.322-.08.486.486 0 00.196-.238v-.25h-.501c-.276 0-.413.092-.413.277 0 .09.035.162.105.213a.48.48 0 00.291.078zm2.969-1.564v1.795h-.325v-1.51h-.772l-.021.399a4.21 4.21 0 01-.064.606.929.929 0 01-.156.386.353.353 0 01-.301.146.772.772 0 01-.2-.03l.021-.275c.029.007.056.01.081.01a.22.22 0 00.203-.118.76.76 0 00.088-.281 6.86 6.86 0 00.037-.464l.031-.664h1.378zm1.458.61c.228.002.402.054.521.155.12.102.18.245.18.43a.547.547 0 01-.197.45c-.128.104-.313.155-.555.153l-.779-.003v-1.795h.325v.606l.505.004zm-.078.94c.147.003.257-.026.332-.087.076-.061.115-.151.115-.271 0-.117-.037-.203-.112-.257-.072-.055-.184-.083-.335-.085l-.427-.007v.704l.427.004zm1.247-.199c.063 0 .115.023.156.068a.22.22 0 01.064.162.357.357 0 01-.013.099 1.64 1.64 0 01-.044.145l-.159.47h-.214l.125-.504a.228.228 0 01-.104-.078.237.237 0 01-.038-.132.22.22 0 01.227-.23zm3.115.149v.295h-1.703v-.23l.965-.932c.118-.113.197-.21.237-.29a.564.564 0 00.061-.252.342.342 0 00-.132-.287c-.085-.07-.21-.105-.372-.105-.262 0-.464.085-.606.257l-.23-.2a.922.922 0 01.362-.264c.151-.063.319-.095.504-.095.249 0 .446.06.593.18.147.117.22.278.22.48a.821.821 0 01-.081.36 1.455 1.455 0 01-.308.385l-.725.698h1.215zm1.014-2.076v2.37h-.336v-2.075h-.535v-.294h.871zm8.561.576v1.795h-.295v-1.31l-.67 1.106h-.143l-.663-1.11v1.314h-.298v-1.795h.335l.704 1.212.725-1.212h.305zm1.272-.017c.248 0 .438.061.569.183.133.122.2.304.2.545v1.084h-.308v-.237a.527.527 0 01-.234.193.892.892 0 01-.355.064.758.758 0 01-.485-.146.47.47 0 01-.179-.382c0-.158.057-.285.173-.38.115-.097.298-.145.548-.145h.515v-.064c0-.14-.041-.248-.122-.322-.081-.075-.201-.112-.359-.112a.926.926 0 00-.312.054.782.782 0 00-.257.14l-.135-.245a.954.954 0 01.332-.169c.128-.04.265-.06.409-.06zm-.074 1.581a.61.61 0 00.321-.08.483.483 0 00.197-.238v-.25h-.501c-.276 0-.413.092-.413.277 0 .09.035.162.105.213a.478.478 0 00.291.078zm2.379-1.58c.174 0 .33.038.468.114a.814.814 0 01.321.322.943.943 0 01.119.477c0 .18-.04.341-.119.481a.815.815 0 01-.321.322.947.947 0 01-.468.115.841.841 0 01-.355-.075.744.744 0 01-.271-.216v.927h-.325v-2.45h.312v.283a.672.672 0 01.274-.223.846.846 0 01.365-.078zm-.027 1.547a.576.576 0 00.525-.301.671.671 0 00.081-.333.652.652 0 00-.081-.328.547.547 0 00-.216-.224.609.609 0 00-.309-.077.602.602 0 00-.308.08.58.58 0 00-.216.22.672.672 0 00-.078.33c0 .124.026.234.078.331a.576.576 0 00.524.302zm2.678-1.247h-.656v1.51h-.325v-1.51h-.657v-.284h1.638v.284zm.245 1.067c.063 0 .115.023.156.068a.22.22 0 01.064.162.357.357 0 01-.013.099 1.64 1.64 0 01-.044.145l-.159.47h-.214l.126-.504a.225.225 0 01-.105-.078.237.237 0 01-.038-.132.22.22 0 01.227-.23zm3.116.149v.295h-1.703v-.23l.964-.932c.118-.113.197-.21.237-.29a.564.564 0 00.061-.252.342.342 0 00-.132-.287c-.085-.07-.21-.105-.372-.105-.262 0-.464.085-.606.257l-.23-.2a.922.922 0 01.362-.264c.151-.063.319-.095.504-.095.249 0 .446.06.593.18.147.117.22.278.22.48a.821.821 0 01-.081.36 1.435 1.435 0 01-.308.385l-.725.698h1.216zm1.013-2.076v2.37h-.335v-2.075h-.535v-.294h.87zm13.996.559c.248 0 .438.061.569.183.133.122.2.304.2.545v1.084h-.308v-.237a.527.527 0 01-.234.193.893.893 0 01-.356.064.756.756 0 01-.484-.146.47.47 0 01-.179-.382c0-.158.057-.285.173-.38.115-.097.297-.145.548-.145h.515v-.064c0-.14-.041-.248-.122-.322-.081-.075-.201-.112-.359-.112a.926.926 0 00-.312.054.782.782 0 00-.257.14l-.135-.245a.958.958 0 01.331-.169c.129-.04.266-.06.41-.06zm-.074 1.581a.61.61 0 00.321-.08.483.483 0 00.197-.238v-.25h-.501c-.276 0-.413.092-.413.277 0 .09.035.162.104.213.07.052.168.078.292.078zm3.09-1.564v1.795h-.325v-1.51h-1.012v1.51h-.325v-1.795h1.662zm1.581-.017a.94.94 0 01.467.115.816.816 0 01.322.322.942.942 0 01.118.477.96.96 0 01-.118.481.817.817 0 01-.322.322.943.943 0 01-.467.115.846.846 0 01-.356-.075.744.744 0 01-.271-.216v.927h-.325v-2.45h.312v.283a.679.679 0 01.274-.223.853.853 0 01.366-.078zm-.027 1.547a.578.578 0 00.525-.301.671.671 0 00.081-.332.652.652 0 00-.081-.328.549.549 0 00-.217-.224.605.605 0 00-.308-.077.597.597 0 00-.525.3.672.672 0 00-.078.33c0 .124.026.234.078.331a.571.571 0 00.525.302zm3.028-.623c0 .025-.002.058-.006.099h-1.456a.57.57 0 00.206.382c.12.095.268.142.444.142a.666.666 0 00.518-.216l.179.21a.781.781 0 01-.305.216c-.119.05-.253.075-.402.075-.19 0-.358-.038-.505-.115a.853.853 0 01-.342-.329.947.947 0 01-.118-.474.96.96 0 01.115-.47.841.841 0 01.321-.325.918.918 0 01.464-.119c.172 0 .324.04.457.119a.788.788 0 01.315.325c.077.14.115.3.115.48zm-.887-.65a.57.57 0 00-.393.143.58.58 0 00-.182.372h1.151a.567.567 0 00-.576-.515zm2.902-.257v1.795h-.325v-1.51h-.772l-.02.399a4.358 4.358 0 01-.064.606.956.956 0 01-.156.386.354.354 0 01-.301.146.766.766 0 01-.2-.03l.02-.275a.35.35 0 00.081.01c.091 0 .158-.04.204-.118a.76.76 0 00.088-.281c.013-.109.026-.263.037-.464l.03-.664h1.378zm1.458.61c.228.002.402.054.522.155a.535.535 0 01.179.43.546.546 0 01-.196.45c-.129.104-.314.155-.555.153l-.779-.003v-1.795h.325v.606l.504.004zm-.078.94c.147.003.258-.026.332-.087.077-.061.115-.151.115-.271 0-.117-.037-.203-.111-.257-.073-.055-.184-.083-.336-.085l-.426-.007v.704l.426.004zm1.248-.199c.063 0 .115.023.155.068a.22.22 0 01.065.162.357.357 0 01-.014.099 1.36 1.36 0 01-.044.145l-.159.47h-.213l.125-.504a.225.225 0 01-.105-.078.236.236 0 01-.037-.132c0-.067.021-.123.064-.166a.22.22 0 01.163-.064zm3.115.149v.295h-1.703v-.23l.965-.932c.117-.113.196-.21.237-.29a.564.564 0 00.061-.252.342.342 0 00-.132-.287c-.086-.07-.21-.105-.373-.105-.261 0-.463.085-.606.257l-.23-.2a.929.929 0 01.362-.264c.152-.063.32-.095.505-.095.248 0 .446.06.592.18.147.117.22.278.22.48a.821.821 0 01-.081.36 1.435 1.435 0 01-.308.385l-.724.698h1.215zm1.013-2.076v2.37h-.335v-2.075h-.535v-.294h.87z" fill="#606371"/><path d="M91.893 175.297a.75.75 0 01.35.251c.082.109.123.24.123.392 0 .16-.043.3-.13.419a.826.826 0 01-.37.271 1.53 1.53 0 01-.563.095c-.213 0-.4-.032-.56-.095a.828.828 0 01-.366-.271.695.695 0 01-.13-.419.65.65 0 01.119-.392.762.762 0 01.35-.251.67.67 0 01-.278-.233.607.607 0 01-.095-.343c0-.147.04-.275.118-.384a.777.777 0 01.34-.252 1.34 1.34 0 01.502-.087c.193 0 .362.029.507.087a.75.75 0 01.339.252.624.624 0 01.121.384c0 .13-.032.244-.099.343a.67.67 0 01-.278.233zm-.59-.991a.7.7 0 00-.427.118.369.369 0 00-.156.313c0 .132.051.236.153.312.104.076.247.114.43.114.185 0 .33-.038.434-.114a.363.363 0 00.16-.312.363.363 0 00-.163-.313.714.714 0 00-.431-.118zm0 2.111c.21 0 .377-.044.499-.13a.42.42 0 00.183-.358.4.4 0 00-.183-.347c-.122-.086-.288-.129-.499-.129-.21 0-.376.043-.495.129-.12.084-.18.2-.18.347 0 .15.06.269.18.358.12.086.284.13.495.13zm2.368-.576h-.42v.854h-.365v-2.019h.366v.853h.426l.655-.853h.393l-.766.971.819 1.048h-.43l-.678-.854zm-2.581-21.07v2.667h-.377v-2.335h-.602v-.332h.979zm1.733 1.048c.176 0 .332.033.469.099a.766.766 0 01.445.708.783.783 0 01-.125.442.823.823 0 01-.34.297 1.085 1.085 0 01-.48.103c-.357 0-.634-.115-.83-.347-.193-.231-.289-.558-.289-.982 0-.297.052-.55.156-.758a1.1 1.1 0 01.442-.476 1.3 1.3 0 01.663-.164c.13 0 .251.014.365.042a.964.964 0 01.297.114l-.144.297c-.127-.084-.297-.126-.51-.126-.277 0-.494.087-.652.259-.157.171-.236.419-.236.747a.89.89 0 00.004.095c.076-.114.18-.2.312-.259.135-.061.286-.091.453-.091zm-.045 1.341a.63.63 0 00.426-.141.473.473 0 00.164-.377.458.458 0 00-.168-.374.654.654 0 00-.442-.141.718.718 0 00-.32.069.558.558 0 00-.216.187.471.471 0 00-.077.262.478.478 0 00.29.446.79.79 0 00.343.069zm2.202-.576h-.42v.854h-.365v-2.019h.366v.853h.426l.656-.853h.392l-.766.971.82 1.048h-.431l-.678-.854zm-2.843-18.312v.332h-1.916v-.259l1.086-1.048c.132-.127.22-.236.266-.327a.64.64 0 00.069-.282c0-.14-.05-.248-.148-.324-.097-.079-.237-.118-.42-.118-.294 0-.521.097-.681.29l-.26-.225c.105-.127.24-.226.408-.297.17-.071.36-.107.568-.107.28 0 .501.067.666.202a.655.655 0 01.248.541c0 .142-.03.277-.091.404s-.177.271-.347.434l-.815.784h1.367zm2.562-.323h-.506v.655h-.37v-.655h-1.481v-.267l1.363-1.744h.412l-1.307 1.683h1.025v-.579h.358v.579h.506v.328zm1.185-.198h-.42v.853H95.1v-2.019h.366v.853h.426l.656-.853h.392l-.766.971.82 1.048h-.431l-.678-.853zm-4.6-19.951c.261.026.46.107.598.244a.695.695 0 01.206.518.779.779 0 01-.115.415.805.805 0 01-.342.294c-.15.071-.334.106-.553.106a1.79 1.79 0 01-.548-.084 1.19 1.19 0 01-.43-.239l.175-.301c.091.086.208.156.35.209.142.051.293.076.453.076.198 0 .352-.042.461-.125a.41.41 0 00.168-.347.403.403 0 00-.164-.343c-.11-.081-.274-.122-.495-.122h-.213v-.266l.67-.823H90.22v-.332h1.76v.259l-.697.861zm3.014 1.215v.332h-1.916v-.259l1.086-1.048c.132-.127.221-.236.267-.327a.64.64 0 00.068-.282c0-.14-.05-.248-.148-.324-.097-.079-.237-.118-.42-.118-.294 0-.521.096-.681.289l-.26-.224c.105-.127.24-.226.408-.297.17-.071.36-.107.568-.107.28 0 .502.067.666.202a.655.655 0 01.248.541c0 .142-.03.277-.091.404a1.643 1.643 0 01-.347.434l-.815.784h1.367zm1.27-.521h-.42v.853h-.365v-2.019h.366v.853h.426l.655-.853h.393l-.766.971.82 1.048h-.431l-.678-.853zm-4.215 77.488c-.211 0-.4-.054-.564-.16a1.109 1.109 0 01-.385-.473 1.743 1.743 0 01-.14-.731c0-.282.046-.526.14-.731.094-.206.222-.362.385-.469a1 1 0 01.564-.164c.208 0 .393.055.556.164.165.107.294.263.388.469.094.205.141.449.141.731s-.047.526-.14.731a1.099 1.099 0 01-.39.473.996.996 0 01-.555.16zm0-.339a.6.6 0 00.51-.263c.13-.175.194-.429.194-.762s-.064-.587-.194-.762a.6.6 0 00-.51-.263.613.613 0 00-.518.263c-.127.175-.19.429-.19.762s.063.587.19.762a.612.612 0 00.518.263zm2.4-.633l-.42.389v.552h-.365v-2.826h.365v1.813l1.101-1.006h.442l-.85.835.934 1.184h-.45l-.758-.941z" fill="#373943"/><path stroke="#EAF1FE" stroke-width=".212" d="M101.295 194.75h193.627m-193.627-19.257h193.627m-193.627-19.257h193.627m-193.627-18.834h193.627m-193.627-19.256h193.627m-178.393 76.498v-76.393m26.242 76.393v-76.393m25.605 76.393v-76.393m52.057 76.393v-76.393m26.029 76.393v-76.393m25.815 76.393v-76.393"/><path d="M104.468 183.429l14.545-8.166 25.113.462 25.682-7.703 26.136-4.006 17.159-1.695 18.636 5.701 24.773-9.553 17.045-10.168 21.363 10.168" stroke="#3E54D8" stroke-width=".6" stroke-linecap="round"/><path d="M104.258 181.736l17.456-10.49 39.448-1.878 29.813 6.418 24.863 3.776 17.192-17.083 31.626 3.131 16.663-3.131 13.603 3.131" stroke="#DE4355" stroke-width=".6" stroke-linecap="round"/><circle cx="91.138" cy="208.294" r="1.058" fill="#3E54D8"/><path d="M95.965 208.054c.18.043.316.121.408.233.094.109.14.25.14.422a.631.631 0 01-.254.538c-.168.127-.413.19-.736.19h-1.218v-2.666h1.146c.292 0 .52.059.682.179a.581.581 0 01.248.506.615.615 0 01-.11.37.638.638 0 01-.306.228zm-1.283-.11h.742c.186 0 .327-.037.423-.111.1-.073.149-.181.149-.323 0-.143-.05-.25-.149-.324-.099-.076-.24-.114-.422-.114h-.743v.872zm.834 1.192c.409 0 .613-.152.613-.457 0-.152-.052-.264-.156-.335-.102-.074-.254-.111-.457-.111h-.834v.903h.834zm2.293-1.737c.28 0 .493.069.64.206.15.137.225.341.225.613v1.219h-.347v-.267a.582.582 0 01-.263.217.992.992 0 01-.4.073c-.226 0-.407-.055-.544-.164a.527.527 0 01-.202-.43c0-.178.065-.32.194-.427.13-.109.335-.164.617-.164h.58v-.072c0-.158-.046-.278-.138-.362-.091-.084-.226-.126-.404-.126-.12 0-.236.021-.35.061a.874.874 0 00-.29.156l-.152-.274c.104-.084.229-.147.373-.19.145-.046.299-.069.461-.069zm-.084 1.779c.14 0 .26-.03.362-.091a.549.549 0 00.221-.267v-.282h-.564c-.31 0-.464.104-.464.312 0 .102.04.182.118.24a.536.536 0 00.327.088zm4.483-1.76v2.019h-2.876v-2.019h.366v1.699h.891v-1.699h.366v1.699h.887v-1.699h.366zm3.603 0v2.019h-.365v-1.699h-1.139v1.699h-.366v-2.019h1.87zm1.573 2.042c-.201 0-.381-.045-.541-.133a.982.982 0 01-.377-.366 1.065 1.065 0 01-.134-.533c0-.198.045-.375.134-.53a.955.955 0 01.377-.366c.16-.088.34-.133.541-.133.2 0 .379.045.537.133.16.087.284.209.373.366.091.155.137.332.137.53s-.046.375-.137.533a.958.958 0 01-.373.366 1.085 1.085 0 01-.537.133zm0-.32a.675.675 0 00.346-.088.64.64 0 00.244-.251.784.784 0 00.088-.373c0-.14-.03-.263-.088-.37a.609.609 0 00-.244-.251.675.675 0 00-.346-.088.648.648 0 00-.595.339.763.763 0 00-.087.37c0 .139.029.264.087.373.061.107.143.19.244.251a.698.698 0 00.351.088zm2.645-1.741c.196 0 .371.043.526.13a.914.914 0 01.362.362c.089.154.133.333.133.537 0 .203-.044.383-.133.54a.914.914 0 01-.362.362c-.155.087-.33.13-.526.13a.95.95 0 01-.4-.084.833.833 0 01-.304-.244v1.044h-.366v-2.758h.351v.32a.759.759 0 01.308-.251.947.947 0 01.411-.088zm-.03 1.741a.68.68 0 00.347-.088.638.638 0 00.243-.251.753.753 0 00.092-.373.733.733 0 00-.092-.37.607.607 0 00-.243-.251.68.68 0 00-.347-.088.674.674 0 00-.59.339.753.753 0 00-.088.37c0 .139.029.264.088.373.058.107.139.19.243.251.104.059.22.088.347.088zm3.013-1.402h-.739v1.699h-.366v-1.699h-.739v-.32h1.844v.32zm2.833.686c0 .312-.104.558-.313.739-.208.18-.501.28-.88.301v.712h-.358v-.712c-.378-.021-.671-.12-.88-.297-.205-.181-.308-.428-.308-.743 0-.313.103-.556.308-.732.206-.175.499-.273.88-.293v-.788h.358v.788c.379.02.672.12.88.297.209.175.313.418.313.728zm-2.377 0c0 .216.068.385.205.506.14.122.347.192.621.21v-1.417c-.276.018-.483.086-.621.206-.137.119-.205.284-.205.495zm1.184.72c.554-.043.831-.283.831-.72 0-.214-.07-.379-.21-.495-.139-.12-.346-.188-.621-.206v1.421zm3.534-.705c0 .028-.003.065-.008.111h-1.638a.646.646 0 00.233.43c.134.107.301.16.499.16a.75.75 0 00.583-.244l.201.236a.875.875 0 01-.342.244 1.174 1.174 0 01-.454.084c-.213 0-.402-.043-.567-.13a.97.97 0 01-.385-.369 1.065 1.065 0 01-.133-.533c0-.196.043-.372.129-.53a.957.957 0 01.362-.366 1.04 1.04 0 01.522-.133c.193 0 .364.045.514.133a.892.892 0 01.354.366c.087.158.13.338.13.541zm-.998-.731a.64.64 0 00-.442.16.65.65 0 00-.206.419h1.296a.646.646 0 00-.21-.416.617.617 0 00-.438-.163zm3.265-.29v2.019h-.366v-1.699h-.868l-.023.45a4.966 4.966 0 01-.072.681 1.06 1.06 0 01-.176.435.398.398 0 01-.339.163.848.848 0 01-.224-.034l.022-.308a.45.45 0 00.092.011.246.246 0 00.228-.133.833.833 0 00.099-.316c.016-.122.03-.296.042-.522l.035-.747h1.55zm1.64.686c.257.002.452.061.587.175.134.114.202.276.202.484 0 .218-.074.387-.221.506-.145.117-.353.174-.625.172l-.876-.004v-2.019h.366v.682l.567.004zm-.087 1.059c.165.002.289-.031.373-.099.086-.069.129-.17.129-.305 0-.132-.042-.229-.125-.289-.082-.061-.207-.093-.377-.096l-.48-.007v.792l.48.004z" fill="#24252E"/><circle cx="132.614" cy="208.294" r="1.058" fill="#DE4355"/><path d="M136.542 209.467c-.2 0-.394-.03-.582-.091a1.197 1.197 0 01-.438-.244l.141-.297c.101.092.231.167.388.225.16.056.324.084.491.084.221 0 .386-.037.496-.111a.35.35 0 00.163-.301.286.286 0 00-.091-.221.573.573 0 00-.221-.133 3.933 3.933 0 00-.369-.103 3.917 3.917 0 01-.488-.144.839.839 0 01-.316-.221.612.612 0 01-.13-.408c0-.142.037-.27.111-.385a.785.785 0 01.343-.274c.152-.069.341-.103.567-.103.158 0 .313.021.465.061.152.041.283.099.392.175l-.125.305a1.368 1.368 0 00-.358-.16 1.302 1.302 0 00-.374-.057c-.216 0-.378.039-.487.118a.362.362 0 00-.16.305.3.3 0 00.091.225c.061.055.136.1.225.133.091.03.214.063.369.099.201.048.362.096.484.145a.782.782 0 01.312.221.575.575 0 01.134.399c0 .14-.038.268-.115.385a.777.777 0 01-.346.274 1.462 1.462 0 01-.572.099zm3.539.012l-.354-.354a1.23 1.23 0 01-.891.342 1.26 1.26 0 01-.48-.087.804.804 0 01-.335-.244.592.592 0 01-.118-.362.67.67 0 01.148-.43c.102-.127.268-.257.499-.389a1.325 1.325 0 01-.247-.316.626.626 0 01-.073-.293c0-.18.065-.325.195-.434.132-.11.307-.164.525-.164.203 0 .365.049.484.148a.503.503 0 01.179.408.555.555 0 01-.133.362 1.586 1.586 0 01-.435.335l.659.655c.077-.145.131-.306.164-.484l.293.096a1.757 1.757 0 01-.232.609l.358.358-.206.244zm-1.131-2.465a.41.41 0 00-.282.092.294.294 0 00-.099.232c0 .069.018.135.054.198.038.064.11.15.217.259.175-.099.296-.184.362-.255a.33.33 0 00.102-.232.265.265 0 00-.095-.214.382.382 0 00-.259-.08zm-.091 2.149a.887.887 0 00.651-.252l-.758-.754a1.385 1.385 0 00-.385.286.448.448 0 00-.106.293c0 .127.054.23.164.309a.74.74 0 00.434.118zm2.923-2.392c.346 0 .617.082.816.247.198.165.297.393.297.682 0 .29-.099.517-.297.682-.199.165-.47.247-.816.247h-.659v.808h-.381v-2.666h1.04zm-.011 1.527c.241 0 .425-.051.552-.152.127-.104.191-.253.191-.446s-.064-.34-.191-.442c-.127-.104-.311-.156-.552-.156h-.648v1.196h.648zm3.288-.465c.381 0 .66.073.838.218.18.142.27.337.27.586a.765.765 0 01-.453.724c-.15.071-.335.106-.556.106-.188 0-.369-.027-.545-.083a1.246 1.246 0 01-.434-.24l.175-.301c.092.086.209.156.351.209.142.051.292.076.449.076.201 0 .356-.041.465-.125a.42.42 0 00.168-.351c0-.16-.061-.28-.183-.362-.122-.083-.33-.125-.625-.125h-.606l.141-1.394h1.505v.331h-1.185l-.072.731h.297zm2.515 1.634a1.02 1.02 0 01-.564-.159 1.114 1.114 0 01-.385-.473 1.746 1.746 0 01-.141-.731c0-.282.047-.526.141-.731.094-.206.223-.362.385-.469a1 1 0 01.564-.164c.208 0 .393.055.556.164.165.107.295.263.389.469.093.205.14.449.14.731s-.047.525-.14.731a1.1 1.1 0 01-.389.473.996.996 0 01-.556.159zm0-.339a.599.599 0 00.51-.262c.13-.176.195-.43.195-.762 0-.333-.065-.587-.195-.762a.6.6 0 00-.51-.263.612.612 0 00-.518.263c-.127.175-.191.429-.191.762 0 .332.064.586.191.762a.611.611 0 00.518.262zm2.54.339a1.02 1.02 0 01-.563-.159 1.106 1.106 0 01-.385-.473 1.746 1.746 0 01-.141-.731c0-.282.047-.526.141-.731.094-.206.222-.362.385-.469a1 1 0 01.563-.164c.209 0 .394.055.557.164.165.107.294.263.388.469.094.205.141.449.141.731s-.047.525-.141.731a1.098 1.098 0 01-.388.473.997.997 0 01-.557.159zm0-.339a.6.6 0 00.511-.262c.129-.176.194-.43.194-.762 0-.333-.065-.587-.194-.762a.6.6 0 00-.511-.263.615.615 0 00-.518.263c-.127.175-.19.429-.19.762 0 .332.063.586.19.762.13.175.303.262.518.262z" fill="#24252E"/><g filter="url(#filter3_bd)"><rect x="134.729" y="154.649" width="52.269" height="28.779" rx="4.867" fill="#fff" fill-opacity=".78"/><path d="M147.205 178.145a1.67 1.67 0 01-.518-.081 1.076 1.076 0 01-.39-.217l.125-.264c.091.081.206.148.346.2.142.05.288.074.437.074.196 0 .343-.032.44-.098a.31.31 0 00.145-.267.256.256 0 00-.081-.197.5.5 0 00-.196-.118 3.544 3.544 0 00-.329-.092 3.323 3.323 0 01-.433-.128.736.736 0 01-.281-.197.538.538 0 01-.115-.362c0-.126.032-.24.098-.342a.702.702 0 01.305-.244c.135-.061.303-.091.504-.091.14 0 .278.018.413.054.136.036.252.088.349.156l-.112.271a1.164 1.164 0 00-.318-.142 1.15 1.15 0 00-.332-.051c-.192 0-.336.035-.433.105a.322.322 0 00-.142.271c0 .081.027.147.081.199a.59.59 0 00.2.119c.081.027.19.056.328.088.178.043.322.086.43.129a.706.706 0 01.278.196.51.51 0 01.118.355.615.615 0 01-.101.342.696.696 0 01-.309.244 1.287 1.287 0 01-.507.088zm3.145.01l-.315-.314c-.21.203-.474.304-.792.304-.158 0-.3-.026-.426-.078a.71.71 0 01-.298-.216.529.529 0 01-.105-.322.6.6 0 01.132-.383c.09-.112.238-.228.443-.345a1.181 1.181 0 01-.22-.281.56.56 0 01-.064-.261.48.48 0 01.172-.386.714.714 0 01.468-.145c.18 0 .324.044.43.132a.446.446 0 01.159.362.49.49 0 01-.119.322 1.375 1.375 0 01-.386.298l.586.582c.068-.129.116-.272.146-.43l.26.085c-.04.207-.109.388-.206.541l.318.319-.183.216zm-1.005-2.19a.366.366 0 00-.251.081.262.262 0 00-.088.207c0 .061.016.119.048.176.033.056.098.133.193.23.155-.088.262-.164.321-.227a.293.293 0 00.092-.207.235.235 0 00-.085-.189c-.054-.048-.131-.071-.23-.071zm-.082 1.909a.79.79 0 00.579-.223l-.673-.67c-.163.09-.277.174-.342.253a.396.396 0 00-.095.261c0 .113.048.204.145.274.1.07.228.105.386.105zm2.599-2.126c.307 0 .549.073.725.22.176.147.264.349.264.606 0 .258-.088.46-.264.606-.176.147-.418.22-.725.22h-.586v.718h-.338v-2.37h.924zm-.01 1.358c.215 0 .378-.045.491-.136.113-.092.169-.224.169-.396 0-.171-.056-.302-.169-.393-.113-.092-.276-.138-.491-.138h-.576v1.063h.576zm2.923-.413c.338 0 .587.064.745.193.16.126.24.3.24.521a.679.679 0 01-.403.643 1.136 1.136 0 01-.494.095 1.6 1.6 0 01-.484-.074 1.077 1.077 0 01-.386-.214l.155-.267a.918.918 0 00.312.186c.126.045.26.068.399.068.179 0 .316-.037.414-.112a.373.373 0 00.149-.311.362.362 0 00-.163-.322c-.108-.074-.293-.112-.555-.112h-.539l.126-1.239h1.337v.295h-1.053l-.064.65h.264zm2.235 1.452a.902.902 0 01-.501-.142.987.987 0 01-.342-.42 1.56 1.56 0 01-.125-.65c0-.25.042-.467.125-.65a.957.957 0 01.342-.416.89.89 0 01.501-.146.87.87 0 01.495.146.95.95 0 01.345.416c.083.183.125.4.125.65 0 .251-.042.467-.125.65a.979.979 0 01-.345.42.883.883 0 01-.495.142zm0-.301c.19 0 .341-.078.454-.234.115-.155.173-.381.173-.677 0-.296-.058-.521-.173-.677a.533.533 0 00-.454-.234.543.543 0 00-.46.234c-.113.156-.17.381-.17.677 0 .296.057.522.17.677a.543.543 0 00.46.234zm2.259.301a.903.903 0 01-.502-.142.987.987 0 01-.342-.42 1.56 1.56 0 01-.125-.65c0-.25.042-.467.125-.65a.957.957 0 01.342-.416.89.89 0 01.502-.146c.185 0 .349.049.494.146a.936.936 0 01.345.416c.084.183.125.4.125.65 0 .251-.041.467-.125.65a.965.965 0 01-.345.42.88.88 0 01-.494.142zm0-.301c.189 0 .34-.078.453-.234.115-.155.173-.381.173-.677 0-.296-.058-.521-.173-.677a.532.532 0 00-.453-.234.545.545 0 00-.461.234c-.113.156-.169.381-.169.677 0 .296.056.522.169.677a.545.545 0 00.461.234z" fill="#373943"/><path d="M171.464 175.028v.332l-1.036 2.335h-.529l1.002-2.248h-1.048v.454h-.461v-.873h2.072zm.414 2.693a.31.31 0 01-.221-.087.31.31 0 01-.091-.229c0-.094.029-.17.087-.228a.31.31 0 01.225-.088c.089 0 .162.029.221.088a.3.3 0 01.091.228.31.31 0 01-.091.229.31.31 0 01-.221.087zm2.588-2.693v.332l-1.036 2.335h-.529l1.001-2.248h-1.047v.454h-.461v-.873h2.072zm1.344 2.705c-.213 0-.404-.054-.571-.16a1.1 1.1 0 01-.396-.473 1.732 1.732 0 01-.145-.738c0-.285.048-.53.145-.736.096-.208.228-.365.396-.472.167-.109.358-.164.571-.164.214 0 .404.055.572.164.17.107.303.264.4.472.096.206.144.451.144.736 0 .284-.048.53-.144.738-.097.206-.23.364-.4.473-.168.106-.358.16-.572.16zm0-.431c.191 0 .34-.078.45-.236.111-.157.167-.392.167-.704 0-.313-.056-.548-.167-.705a.518.518 0 00-.45-.236.521.521 0 00-.449.236c-.109.157-.164.392-.164.705 0 .312.055.547.164.704a.521.521 0 00.449.236zm2.285-1.241c.376 0 .654.073.834.221a.717.717 0 01.271.594c0 .16-.04.304-.118.434a.826.826 0 01-.355.309 1.33 1.33 0 01-.582.114c-.191 0-.375-.027-.553-.08a1.385 1.385 0 01-.449-.229l.209-.384c.099.081.217.146.355.194.139.046.283.068.43.068.175 0 .312-.035.411-.106a.352.352 0 00.153-.301.342.342 0 00-.164-.309c-.107-.071-.291-.106-.552-.106h-.644l.137-1.452h1.566v.416h-1.147l-.057.617h.255zm4.538.88c0 .205-.076.38-.229.525-.149.142-.368.229-.655.259v.427h-.312v-.423a2.134 2.134 0 01-.533-.103 1.166 1.166 0 01-.4-.213l.171-.385c.094.076.208.141.343.194.135.051.274.083.419.096v-.762a3 3 0 01-.453-.141.803.803 0 01-.301-.229.622.622 0 01-.122-.4c0-.205.075-.381.225-.525.149-.145.367-.231.651-.259v-.431h.312v.423c.143.008.281.032.415.072.138.041.257.094.359.16l-.157.385a1.587 1.587 0 00-.617-.206v.77c.183.043.334.09.454.141a.764.764 0 01.304.228.593.593 0 01.126.397zm-1.581-1.177a.24.24 0 00.099.201.87.87 0 00.286.13v-.678a.527.527 0 00-.29.122.301.301 0 00-.095.225zm.697 1.546a.553.553 0 00.297-.118.278.278 0 00.099-.217.243.243 0 00-.102-.206.86.86 0 00-.294-.133v.674z" fill="#24252E"/><path d="M148.569 168.553v2.37h-.332v-2.076h-1.374v2.076h-.336v-2.37h2.042zm1.454 2.39a.971.971 0 01-.481-.118.88.88 0 01-.335-.325.948.948 0 01-.119-.474c0-.176.04-.333.119-.471a.845.845 0 01.335-.325.971.971 0 01.481-.118c.178 0 .337.039.477.118a.824.824 0 01.332.325.913.913 0 01.122.471.93.93 0 01-.122.474.857.857 0 01-.332.325.953.953 0 01-.477.118zm0-.284a.579.579 0 00.524-.301.695.695 0 00.078-.332.675.675 0 00-.078-.329.546.546 0 00-.216-.223.608.608 0 00-.308-.078.582.582 0 00-.529.301.675.675 0 00-.078.329c0 .124.026.234.078.332a.619.619 0 00.217.223.626.626 0 00.312.078zm2.351-1.547c.174 0 .33.038.468.115a.812.812 0 01.321.321.944.944 0 01.119.478c0 .18-.04.341-.119.481a.819.819 0 01-.321.321.944.944 0 01-.468.115.852.852 0 01-.355-.074.747.747 0 01-.271-.217v.928h-.325v-2.452h.311v.285a.688.688 0 01.275-.224.859.859 0 01.365-.077zm-.027 1.547a.574.574 0 00.525-.301.675.675 0 00.081-.332.655.655 0 00-.081-.329.542.542 0 00-.217-.223.605.605 0 00-.308-.078.585.585 0 00-.524.301.675.675 0 00-.078.329c0 .124.026.234.078.332a.572.572 0 00.524.301zm2.678-1.246h-.657v1.51h-.325v-1.51h-.656v-.285h1.638v.285zm2.518.609c0 .278-.092.497-.277.657-.185.16-.446.25-.782.268v.633h-.319v-.633c-.336-.018-.597-.106-.782-.264-.183-.161-.274-.381-.274-.661 0-.277.091-.494.274-.65.183-.155.444-.242.782-.26v-.701h.319v.701c.336.018.597.106.782.264.185.155.277.371.277.646zm-2.112 0c0 .192.061.342.183.451.124.108.308.17.551.186v-1.26c-.246.016-.43.077-.551.183a.553.553 0 00-.183.44zm1.053.64c.492-.038.738-.251.738-.64a.543.543 0 00-.186-.44c-.125-.106-.309-.167-.552-.183v1.263zm3.141-.626c0 .025-.003.057-.007.098h-1.456a.57.57 0 00.207.383.694.694 0 00.443.142.663.663 0 00.518-.217l.18.21a.791.791 0 01-.305.217c-.12.049-.254.074-.403.074-.19 0-.358-.038-.505-.115a.864.864 0 01-.342-.328.947.947 0 01-.118-.474.96.96 0 01.115-.471.838.838 0 01.322-.325.912.912 0 01.464-.118.88.88 0 01.457.118c.135.077.24.185.315.325.076.14.115.3.115.481zm-.887-.65a.567.567 0 00-.393.142.576.576 0 00-.183.372h1.151a.568.568 0 00-.575-.514zm2.902-.258v1.795h-.325v-1.51h-.772l-.021.399a4.194 4.194 0 01-.064.606.938.938 0 01-.156.386.351.351 0 01-.301.146.783.783 0 01-.2-.03l.021-.275c.029.007.056.01.081.01a.22.22 0 00.203-.118.761.761 0 00.088-.281c.014-.108.026-.263.037-.464l.031-.664h1.378zm1.458.61c.228.002.402.054.521.156.12.101.18.245.18.43a.546.546 0 01-.197.45c-.128.104-.314.155-.555.152l-.779-.003v-1.795h.325v.607l.505.003zm-.078.941c.147.002.257-.027.332-.088.076-.061.115-.151.115-.271 0-.117-.037-.203-.112-.257-.072-.054-.184-.082-.335-.085l-.427-.006v.704l.427.003z" fill="#373943"/><path d="M168.871 167.833v2.667h-.496v-2.252h-.563v-.415h1.059zm2.46 2.248v.419h-1.966v-.332l1.059-1.005c.119-.115.199-.214.24-.297a.575.575 0 00.065-.256.341.341 0 00-.126-.285c-.084-.066-.207-.099-.369-.099-.272 0-.48.092-.625.278l-.347-.267c.104-.14.244-.248.419-.324.178-.078.376-.118.595-.118.289 0 .52.069.693.206a.676.676 0 01.259.56c0 .145-.031.28-.092.407a1.59 1.59 0 01-.35.435l-.712.678h1.257zm.62.445a.308.308 0 01-.221-.087.31.31 0 01-.092-.229c0-.094.03-.17.088-.228a.31.31 0 01.225-.088c.089 0 .162.029.221.088a.3.3 0 01.091.228.31.31 0 01-.091.229.31.31 0 01-.221.087zm1.805-1.592c.246.031.434.114.564.252a.72.72 0 01.194.514.784.784 0 01-.118.423.82.82 0 01-.358.304 1.36 1.36 0 01-.579.111c-.191 0-.375-.027-.552-.08a1.422 1.422 0 01-.45-.229l.213-.385c.097.082.214.146.351.195.139.045.283.068.43.068.175 0 .313-.035.412-.106a.35.35 0 00.152-.297.334.334 0 00-.145-.29c-.094-.071-.238-.107-.434-.107h-.244v-.339l.606-.72h-1.211v-.415h1.816v.332l-.647.769zm3.056-1.101v.332l-1.036 2.335h-.53l1.002-2.248h-1.047v.454h-.461v-.873h2.072zm1.073 1.033c.376 0 .654.073.834.22a.72.72 0 01.271.595c0 .16-.039.304-.118.434a.82.82 0 01-.354.308 1.323 1.323 0 01-.583.115c-.191 0-.375-.027-.553-.08a1.385 1.385 0 01-.449-.229l.21-.385c.099.082.217.146.354.195.139.045.283.068.43.068.175 0 .313-.035.412-.106a.354.354 0 00.152-.301.342.342 0 00-.164-.309c-.107-.071-.291-.106-.552-.106h-.644l.137-1.452h1.566v.415h-1.147l-.057.618h.255zm4.538.879a.7.7 0 01-.228.526c-.15.142-.369.229-.656.259v.427h-.312v-.423a2.134 2.134 0 01-.533-.103 1.166 1.166 0 01-.4-.213l.171-.385c.094.076.209.141.343.194.135.051.274.083.419.096v-.762a3 3 0 01-.453-.141.822.822 0 01-.301-.229.622.622 0 01-.122-.4c0-.205.075-.381.225-.525.15-.145.367-.231.651-.259v-.431h.312v.423c.143.008.281.032.416.072.137.041.256.094.358.16l-.156.385a1.592 1.592 0 00-.618-.206v.77c.183.043.334.09.454.141a.757.757 0 01.304.228.592.592 0 01.126.396zm-1.581-1.177c0 .084.033.152.099.202a.87.87 0 00.286.13v-.678a.523.523 0 00-.289.122.298.298 0 00-.096.224zm.697 1.547a.56.56 0 00.298-.118.28.28 0 00.099-.217.244.244 0 00-.103-.206.86.86 0 00-.294-.133v.674z" fill="#24252E"/><path d="M141.742 160.512v2.37h-.434v-.661h-.633l-.44.661h-.464l.508-.732a.785.785 0 01-.383-.287.856.856 0 01-.132-.481c0-.181.041-.337.122-.467a.77.77 0 01.346-.298c.149-.07.324-.105.524-.105h.986zm-.972.372c-.181 0-.319.042-.416.125-.095.084-.143.206-.143.366a.47.47 0 00.139.362c.093.084.227.126.403.126h.555v-.979h-.538zm1.593.19h.423v.734h.911v-.734h.423v1.808h-.423v-.715h-.911v.715h-.423v-1.808zm3.635.866c.223.068.335.213.335.434a.437.437 0 01-.183.376c-.122.088-.303.132-.542.132h-.921v-1.808h.884c.221 0 .394.04.518.122a.389.389 0 01.186.345.398.398 0 01-.074.24.467.467 0 01-.203.159zm-.908-.111h.444c.219 0 .328-.076.328-.227 0-.147-.109-.22-.328-.22h-.444v.447zm.484.745c.233 0 .349-.076.349-.227 0-.079-.027-.138-.081-.176-.054-.041-.139-.061-.254-.061h-.498v.464h.484zm1.883-1.521c.267 0 .47.065.61.193.142.127.213.319.213.576v1.06h-.399v-.22a.497.497 0 01-.224.182.87.87 0 01-.345.061.873.873 0 01-.356-.067.593.593 0 01-.237-.193.507.507 0 01-.081-.281c0-.163.06-.293.179-.39.122-.099.313-.149.573-.149h.467v-.027a.37.37 0 00-.115-.291c-.075-.068-.187-.102-.335-.102a.978.978 0 00-.302.048.738.738 0 00-.247.132l-.166-.308c.095-.072.209-.128.342-.166.133-.038.274-.058.423-.058zm-.057 1.544c.106 0 .2-.023.281-.071a.4.4 0 00.176-.21v-.21h-.437c-.244 0-.366.08-.366.241 0 .076.031.137.092.183a.42.42 0 00.254.067zm2.406-1.544a.96.96 0 01.471.115.83.83 0 01.328.326.965.965 0 01.119.484c0 .183-.04.345-.119.487a.82.82 0 01-.328.325.95.95 0 01-.471.115c-.244 0-.437-.081-.579-.243v.877h-.423v-2.465h.403v.237a.652.652 0 01.257-.193.887.887 0 01.342-.065zm-.047 1.49a.505.505 0 00.382-.156.557.557 0 00.153-.409.56.56 0 00-.153-.41.505.505 0 00-.382-.156.542.542 0 00-.275.071.501.501 0 00-.193.197.61.61 0 00-.071.298.61.61 0 00.071.298.52.52 0 00.193.199.55.55 0 00.275.068zm2.293-.873c.23 0 .406.052.528.155a.544.544 0 01.187.44.555.555 0 01-.204.461c-.135.108-.326.161-.572.159l-.846-.003v-1.808h.423v.592l.484.004zm-.098.904c.124.002.219-.024.284-.078.066-.054.099-.133.099-.237 0-.102-.032-.176-.095-.224a.494.494 0 00-.288-.074l-.386-.004v.613l.386.004zm1.3-.231c.079 0 .145.026.196.078.052.052.078.12.078.203a.407.407 0 01-.017.116 1.346 1.346 0 01-.061.176l-.172.477h-.274l.135-.518a.26.26 0 01-.119-.095.297.297 0 01-.04-.156.265.265 0 01.274-.281zm3.212.166v.373h-1.748v-.295l.942-.894a.992.992 0 00.213-.264.51.51 0 00.058-.227.307.307 0 00-.112-.254.529.529 0 00-.329-.088c-.241 0-.426.083-.555.248l-.308-.237a.896.896 0 01.372-.288c.159-.07.335-.105.529-.105.257 0 .462.061.616.183.153.122.23.287.23.497 0 .129-.027.25-.081.363a1.425 1.425 0 01-.312.386l-.633.602h1.118zm1.073-1.997v2.37h-.44v-2.001h-.501v-.369h.941z" fill="#373943"/><circle cx="141.713" cy="176.657" r="1.905" fill="#DE4355"/><circle cx="141.713" cy="169.462" r="1.905" fill="#3E54D8"/><rect x="134.835" y="154.755" width="52.057" height="28.568" rx="4.761" stroke="#D3E3FF" stroke-width=".212"/></g><g clip-path="url(#clip0)"><path fill-rule="evenodd" clip-rule="evenodd" d="M195.942 170.96a.168.168 0 01.094-.013.168.168 0 01.087.039l3.058 2.649a.169.169 0 01-.01.264.165.165 0 01-.093.034l-1.129.049.654 1.437c.018.041.02.088.004.13a.166.166 0 01-.088.094l-.729.332a.17.17 0 01-.224-.083l-.656-1.437-.775.818a.168.168 0 01-.186.04.167.167 0 01-.106-.158v-4.041c0-.032.009-.064.027-.091a.163.163 0 01.072-.063zm.239.525v3.247l.657-.692a.16.16 0 01.069-.045.171.171 0 01.157.027.164.164 0 01.05.064l.69 1.511.42-.192-.688-1.511a.184.184 0 01-.015-.08.175.175 0 01.083-.136.168.168 0 01.079-.023l.955-.042-2.457-2.128z" fill="#000"/></g><path d="M194.405 194.856v-76.604" stroke="#3E54D8" stroke-width=".212"/><circle cx="194.406" cy="164.383" r="1.058" fill="#3E54D8"/><circle cx="194.406" cy="176.446" r="1.058" fill="#DE4355"/><path d="M142.352 92.903h1.025v.317h-1.025v-.317zm2.183-1.462v2.666h-.377v-2.335h-.601v-.331h.978zm.835 2.689a.257.257 0 01-.183-.072.258.258 0 01-.076-.19.24.24 0 01.076-.184.25.25 0 01.183-.076.24.24 0 01.179.073c.048.048.073.11.073.186s-.026.14-.077.19a.237.237 0 01-.175.073zm1.39-2.69v2.667h-.377v-2.335h-.602v-.331h.979zm1.41 0v2.667h-.377v-2.335h-.602v-.331h.979zm1.162 1.433a.564.564 0 01-.45-.202.785.785 0 01-.171-.526c0-.215.057-.39.171-.525a.564.564 0 01.45-.202.55.55 0 01.446.202c.114.132.171.307.171.525 0 .219-.057.395-.171.53a.556.556 0 01-.446.198zm1.607-1.432h.294l-1.821 2.666h-.293l1.82-2.666zm-1.607 1.215a.322.322 0 00.274-.133.633.633 0 00.099-.377.616.616 0 00-.099-.374.319.319 0 00-.274-.137.325.325 0 00-.274.137.626.626 0 00-.099.373c0 .158.033.282.099.374.068.091.16.137.274.137zm1.687 1.474a.565.565 0 01-.449-.198c-.112-.135-.168-.311-.168-.53 0-.218.056-.393.168-.525a.56.56 0 01.449-.202.56.56 0 01.45.202c.114.134.171.31.171.526a.786.786 0 01-.171.525.561.561 0 01-.45.202zm0-.217a.316.316 0 00.271-.137.613.613 0 00.103-.373.613.613 0 00-.103-.374.316.316 0 00-.271-.137.32.32 0 00-.274.137.616.616 0 00-.099.374c0 .16.033.285.099.377a.323.323 0 00.274.133zm17.362-1.01h1.025v.317h-1.025v-.317zm2.371-.342c.261.025.461.106.598.243a.694.694 0 01.205.519.78.78 0 01-.114.415.797.797 0 01-.343.293c-.15.071-.334.107-.552.107a1.8 1.8 0 01-.549-.084 1.193 1.193 0 01-.43-.24l.175-.301c.092.086.208.156.351.21.142.05.293.076.453.076.198 0 .352-.042.461-.126a.408.408 0 00.167-.347.402.402 0 00-.163-.342c-.11-.082-.275-.122-.496-.122h-.213v-.267l.671-.823h-1.284v-.331h1.76v.259l-.697.86zm1.41 1.569a.257.257 0 01-.183-.072.258.258 0 01-.076-.19.24.24 0 01.076-.184.25.25 0 01.183-.076.24.24 0 01.179.073c.048.048.072.11.072.186s-.025.14-.076.19a.237.237 0 01-.175.073zm2.506-2.69v.26l-1.078 2.407h-.404l1.055-2.335h-1.219v.476h-.365v-.807h2.011zm1.325 1.12c.261.026.461.107.598.245a.694.694 0 01.205.517.78.78 0 01-.114.416.797.797 0 01-.343.293 1.28 1.28 0 01-.552.107c-.19 0-.373-.028-.548-.084a1.189 1.189 0 01-.431-.24l.175-.301c.092.086.209.156.351.21.142.05.293.076.453.076.198 0 .352-.042.461-.126a.409.409 0 00.168-.347.403.403 0 00-.164-.342c-.109-.082-.274-.122-.495-.122h-.214v-.267l.671-.823h-1.284v-.331h1.76v.259l-.697.86zm1.701.313a.56.56 0 01-.45-.202.785.785 0 01-.171-.526c0-.215.057-.39.171-.525a.56.56 0 01.45-.202.55.55 0 01.445.202c.114.132.172.307.172.525a.792.792 0 01-.172.53.554.554 0 01-.445.198zm1.607-1.432h.293l-1.82 2.666h-.294l1.821-2.666zm-1.607 1.215a.323.323 0 00.274-.133.633.633 0 00.099-.377.616.616 0 00-.099-.374.32.32 0 00-.274-.137.327.327 0 00-.275.137.626.626 0 00-.099.373c0 .158.033.282.099.374.069.091.16.137.275.137zm1.687 1.474a.568.568 0 01-.45-.198c-.111-.135-.167-.311-.167-.53 0-.218.056-.393.167-.525a.564.564 0 01.45-.202.56.56 0 01.449.202.78.78 0 01.172.526.78.78 0 01-.172.525.56.56 0 01-.449.202zm0-.217a.315.315 0 00.27-.137.606.606 0 00.103-.373.606.606 0 00-.103-.374.315.315 0 00-.27-.137.319.319 0 00-.274.137.616.616 0 00-.099.374c0 .16.033.285.099.377a.322.322 0 00.274.133zm15.029 8.301h1.025v.316h-1.025v-.316zm2.184-1.462v2.666h-.377v-2.335h-.602v-.331h.979zm.835 2.689a.253.253 0 01-.259-.263.24.24 0 01.076-.183.248.248 0 01.183-.076.245.245 0 01.251.259c0 .076-.025.14-.076.19a.236.236 0 01-.175.073zm1.373-1.627c.381 0 .66.073.838.217.18.143.27.338.27.587a.765.765 0 01-.453.724c-.15.071-.335.106-.556.106-.188 0-.369-.027-.545-.083a1.246 1.246 0 01-.434-.24l.175-.301c.092.086.209.156.351.209.142.051.292.076.449.076.201 0 .356-.041.465-.125a.42.42 0 00.168-.351c0-.16-.061-.28-.183-.362-.122-.083-.33-.125-.625-.125h-.606l.141-1.394h1.505v.331h-1.185l-.072.731h.297zm2.576-.015c.175 0 .331.033.468.099a.762.762 0 01.446.709.779.779 0 01-.126.441.828.828 0 01-.339.298 1.098 1.098 0 01-.48.102c-.358 0-.635-.115-.83-.346-.193-.231-.29-.559-.29-.983 0-.297.052-.55.157-.758.106-.211.254-.369.441-.476.191-.109.412-.164.663-.164.13 0 .252.014.366.042a.994.994 0 01.297.114l-.145.297c-.127-.083-.297-.125-.51-.125-.277 0-.494.086-.652.259-.157.17-.236.419-.236.746 0 .041.002.073.004.096a.703.703 0 01.312-.259 1.09 1.09 0 01.454-.092zm-.046 1.341a.634.634 0 00.427-.141.473.473 0 00.163-.377.454.454 0 00-.167-.373.655.655 0 00-.442-.141.733.733 0 00-.32.068.558.558 0 00-.217.187.473.473 0 00-.076.263c0 .094.024.18.072.259a.561.561 0 00.217.186.792.792 0 00.343.069zm1.751-.956a.563.563 0 01-.45-.202.787.787 0 01-.171-.526c0-.216.057-.391.171-.525a.563.563 0 01.45-.202.55.55 0 01.446.202c.114.132.171.307.171.525 0 .219-.057.395-.171.53a.556.556 0 01-.446.198zm1.607-1.432h.294l-1.821 2.666h-.293l1.82-2.666zm-1.607 1.215a.322.322 0 00.274-.134.632.632 0 00.099-.377.615.615 0 00-.099-.373.32.32 0 00-.274-.137.326.326 0 00-.274.137.625.625 0 00-.099.373c0 .158.033.282.099.374.068.091.16.137.274.137zm1.687 1.474a.565.565 0 01-.449-.198c-.112-.135-.168-.311-.168-.53 0-.218.056-.393.168-.525a.56.56 0 01.449-.202c.186 0 .335.067.45.202a.782.782 0 01.171.525.787.787 0 01-.171.526.561.561 0 01-.45.202zm0-.217a.317.317 0 00.271-.137.615.615 0 00.103-.374.612.612 0 00-.103-.373.317.317 0 00-.271-.137.32.32 0 00-.274.137.615.615 0 00-.099.373c0 .16.033.286.099.377a.322.322 0 00.274.134zm41.697-1.01h1.025v.316h-1.025v-.316zm2.37-.343c.262.026.461.107.598.244a.693.693 0 01.206.518.778.778 0 01-.114.415.807.807 0 01-.343.294c-.15.071-.334.106-.552.106a1.79 1.79 0 01-.549-.083 1.21 1.21 0 01-.43-.24l.175-.301c.091.086.208.156.35.209.143.051.294.076.454.076.198 0 .351-.041.461-.125a.412.412 0 00.167-.347.402.402 0 00-.164-.343c-.109-.081-.274-.122-.495-.122h-.213v-.266l.67-.823h-1.283v-.331h1.759v.259l-.697.86zm1.411 1.57a.254.254 0 01-.259-.263.24.24 0 01.076-.183.25.25 0 01.183-.076c.071 0 .131.024.179.072a.256.256 0 01.072.187c0 .076-.025.14-.076.19a.236.236 0 01-.175.073zm1.373-1.627c.381 0 .66.073.838.217.18.143.271.338.271.587a.765.765 0 01-.454.724 1.291 1.291 0 01-.556.106c-.188 0-.369-.027-.544-.083a1.251 1.251 0 01-.435-.24l.176-.301c.091.086.208.156.35.209.142.051.292.076.449.076.201 0 .356-.041.465-.125a.42.42 0 00.168-.351c0-.16-.061-.28-.183-.362-.122-.083-.33-.125-.625-.125h-.605l.14-1.394h1.505v.331h-1.185l-.072.731h.297zm2.576-.015c.175 0 .331.033.468.099a.762.762 0 01.446.709.779.779 0 01-.126.441.828.828 0 01-.339.298 1.098 1.098 0 01-.48.102c-.358 0-.634-.115-.83-.346-.193-.231-.289-.559-.289-.983 0-.297.052-.55.156-.758.106-.211.254-.369.442-.476.19-.109.411-.164.662-.164.13 0 .252.014.366.042a.994.994 0 01.297.114l-.145.297c-.127-.083-.297-.125-.51-.125-.277 0-.494.086-.651.259-.158.17-.236.419-.236.746 0 .041.001.073.003.096a.706.706 0 01.313-.259c.134-.061.285-.092.453-.092zm-.046 1.341a.632.632 0 00.427-.141.474.474 0 00.164-.377.454.454 0 00-.168-.373c-.109-.094-.256-.141-.442-.141a.733.733 0 00-.32.068.558.558 0 00-.217.187.473.473 0 00-.076.263c0 .094.024.18.072.259a.561.561 0 00.217.186.792.792 0 00.343.069zm1.751-.956a.56.56 0 01-.449-.202.782.782 0 01-.172-.526c0-.216.057-.391.172-.525a.56.56 0 01.449-.202.55.55 0 01.446.202c.114.132.171.307.171.525 0 .219-.057.395-.171.53a.556.556 0 01-.446.198zm1.608-1.432h.293l-1.821 2.666h-.293l1.821-2.666zm-1.608 1.215a.322.322 0 00.274-.134.632.632 0 00.099-.377.615.615 0 00-.099-.373.32.32 0 00-.274-.137.326.326 0 00-.274.137.625.625 0 00-.099.373c0 .158.033.282.099.374.068.091.16.137.274.137zm1.687 1.474a.565.565 0 01-.449-.198c-.112-.135-.168-.311-.168-.53 0-.218.056-.393.168-.525a.56.56 0 01.449-.202.56.56 0 01.45.202.782.782 0 01.171.525.787.787 0 01-.171.526.56.56 0 01-.45.202zm0-.217a.317.317 0 00.271-.137.608.608 0 00.103-.374.605.605 0 00-.103-.373.317.317 0 00-.271-.137.32.32 0 00-.274.137.615.615 0 00-.099.373c0 .16.033.286.099.377a.323.323 0 00.274.134zm-11.122-10.321h1.025v.317h-1.025v-.317zm2.184-1.462v2.666h-.377v-2.335h-.602v-.331h.979zm.834 2.689a.257.257 0 01-.183-.072.261.261 0 01-.076-.19c0-.074.026-.135.076-.184a.25.25 0 01.183-.076.25.25 0 01.252.259c0 .076-.026.14-.077.19a.237.237 0 01-.175.073zm1.718-1.642c.175 0 .331.033.468.1a.765.765 0 01.446.708.782.782 0 01-.126.442.82.82 0 01-.339.297 1.09 1.09 0 01-.48.103c-.358 0-.635-.116-.83-.347-.193-.231-.29-.559-.29-.983 0-.297.052-.55.156-.758.107-.21.254-.37.442-.476.191-.109.412-.164.663-.164.129 0 .251.014.366.042a.986.986 0 01.297.115l-.145.297c-.127-.084-.297-.126-.51-.126-.277 0-.494.086-.652.259-.157.17-.236.419-.236.746 0 .041.001.073.004.096.076-.114.18-.2.312-.26a1.09 1.09 0 01.454-.09zm-.046 1.341a.63.63 0 00.426-.14.47.47 0 00.164-.378.458.458 0 00-.167-.373.657.657 0 00-.442-.141.72.72 0 00-.32.068.55.55 0 00-.217.187.473.473 0 00-.076.263c0 .094.024.18.072.259a.564.564 0 00.217.187.794.794 0 00.343.068zm2.073-2.388v2.666h-.377v-2.335h-.602v-.331h.979zm1.162 1.432a.562.562 0 01-.45-.202.785.785 0 01-.171-.526c0-.215.057-.39.171-.525a.562.562 0 01.45-.202.55.55 0 01.446.202c.114.132.171.307.171.525 0 .219-.057.395-.171.53a.556.556 0 01-.446.198zm1.607-1.432h.294l-1.821 2.666h-.293l1.82-2.666zm-1.607 1.215a.322.322 0 00.274-.133.633.633 0 00.099-.377.616.616 0 00-.099-.374.319.319 0 00-.274-.137.325.325 0 00-.274.137.626.626 0 00-.099.373c0 .158.033.282.099.374.068.091.16.137.274.137zm1.687 1.474a.565.565 0 01-.449-.198c-.112-.135-.168-.311-.168-.53 0-.218.056-.393.168-.525a.56.56 0 01.449-.202c.186 0 .335.067.45.202.114.134.171.31.171.526a.786.786 0 01-.171.525.563.563 0 01-.45.202zm0-.217a.316.316 0 00.271-.137.613.613 0 00.103-.373.613.613 0 00-.103-.374.316.316 0 00-.271-.137.319.319 0 00-.274.137.616.616 0 00-.099.374c0 .16.033.285.099.377a.322.322 0 00.274.133zm16.415-1.01h1.025v.317h-1.025v-.317zm2.184-1.462v2.666h-.377v-2.335h-.602v-.331h.979zm.835 2.689a.255.255 0 01-.183-.072.258.258 0 01-.076-.19.24.24 0 01.076-.184.249.249 0 01.183-.076c.071 0 .13.024.179.073.048.048.072.11.072.186s-.025.14-.076.19a.239.239 0 01-.175.073zm1.476-2.72c.358 0 .633.116.826.347.196.231.294.559.294.983 0 .297-.054.55-.16.761a1.103 1.103 0 01-.442.477 1.32 1.32 0 01-.659.16 1.68 1.68 0 01-.366-.038 1.06 1.06 0 01-.297-.118l.145-.298c.129.084.301.126.514.126.277 0 .493-.085.648-.255.157-.173.236-.423.236-.75v-.096a.736.736 0 01-.316.263 1.131 1.131 0 01-.454.088c-.175 0-.332-.033-.472-.1a.782.782 0 01-.324-.281.802.802 0 01-.114-.427c0-.167.041-.315.122-.442a.831.831 0 01.339-.293c.142-.071.302-.107.48-.107zm.034 1.341a.724.724 0 00.32-.068.524.524 0 00.217-.187.453.453 0 00.08-.263.495.495 0 00-.293-.442.743.743 0 00-.343-.072.634.634 0 00-.427.14.48.48 0 00-.16.378c0 .157.055.283.164.377a.67.67 0 00.442.137zm2.436-.19c.261.025.461.106.598.243a.694.694 0 01.205.519.78.78 0 01-.114.415.797.797 0 01-.343.293c-.15.071-.334.107-.552.107a1.8 1.8 0 01-.549-.084 1.193 1.193 0 01-.43-.24l.175-.301c.092.086.209.156.351.21.142.05.293.076.453.076.198 0 .352-.042.461-.126a.408.408 0 00.167-.347.402.402 0 00-.163-.342c-.109-.082-.275-.122-.495-.122h-.214v-.267l.671-.823h-1.284v-.331h1.76v.259l-.697.86zm1.7.312a.56.56 0 01-.449-.202.785.785 0 01-.171-.526c0-.215.057-.39.171-.525a.56.56 0 01.449-.202.55.55 0 01.446.202c.114.132.172.307.172.525a.792.792 0 01-.172.53.555.555 0 01-.446.198zm1.608-1.432h.293l-1.821 2.666h-.293l1.821-2.666zm-1.608 1.215a.324.324 0 00.275-.133.633.633 0 00.099-.377.616.616 0 00-.099-.374.32.32 0 00-.275-.137.326.326 0 00-.274.137.626.626 0 00-.099.373c0 .158.033.282.099.374.069.091.16.137.274.137zm1.688 1.474a.567.567 0 01-.45-.198c-.111-.135-.167-.311-.167-.53 0-.218.056-.393.167-.525a.562.562 0 01.45-.202.56.56 0 01.449.202.78.78 0 01.172.526.78.78 0 01-.172.525.56.56 0 01-.449.202zm0-.217a.315.315 0 00.27-.137.606.606 0 00.103-.373.606.606 0 00-.103-.374.315.315 0 00-.27-.137.319.319 0 00-.274.137.616.616 0 00-.099.374c0 .16.033.285.099.377a.322.322 0 00.274.133z" fill="#DE4355"/><path d="M118.069 102.237h-.693v.682h-.32v-.682h-.693v-.301h.693v-.685h.32v.685h.693v.301zm1.198-1.485v2.666h-.377v-2.335h-.602v-.331h.979zm2.457 2.335v.331h-1.916v-.259l1.086-1.048c.132-.127.221-.236.267-.327a.649.649 0 00.068-.282.384.384 0 00-.148-.324c-.097-.078-.237-.118-.419-.118-.295 0-.522.097-.682.29l-.259-.225c.104-.127.24-.226.407-.297.17-.071.36-.107.568-.107.279 0 .501.067.666.202a.655.655 0 01.248.541c0 .142-.03.277-.091.404s-.177.271-.347.434l-.815.785h1.367zm.602.354a.254.254 0 01-.259-.263.24.24 0 01.076-.183.25.25 0 01.183-.076c.071 0 .131.024.179.072a.256.256 0 01.072.187c0 .076-.025.14-.076.19a.235.235 0 01-.175.073zm1.373-1.627c.381 0 .661.073.838.217a.706.706 0 01.271.587c0 .158-.038.3-.114.427a.776.776 0 01-.339.297 1.3 1.3 0 01-.557.106c-.187 0-.369-.027-.544-.083a1.246 1.246 0 01-.434-.24l.175-.301c.091.086.208.156.35.209.142.051.292.076.45.076.2 0 .355-.041.464-.125a.42.42 0 00.168-.351c0-.16-.061-.28-.183-.362-.122-.083-.33-.125-.625-.125h-.605l.141-1.394h1.504v.331h-1.184l-.073.731h.297zm2.576-.015c.175 0 .332.033.469.099a.76.76 0 01.445.709.786.786 0 01-.125.441.84.84 0 01-.339.298 1.104 1.104 0 01-.48.102c-.358 0-.635-.115-.831-.346-.193-.231-.289-.559-.289-.983 0-.297.052-.55.156-.758.107-.211.254-.369.442-.476a1.31 1.31 0 01.663-.164c.129 0 .251.014.365.042a.973.973 0 01.297.114l-.144.297c-.127-.083-.297-.125-.511-.125-.277 0-.494.086-.651.259-.158.17-.236.419-.236.746 0 .041.001.073.004.096a.703.703 0 01.312-.259c.135-.061.286-.092.453-.092zm-.046 1.341a.63.63 0 00.427-.141.474.474 0 00.164-.377.454.454 0 00-.168-.373c-.109-.094-.256-.141-.442-.141a.733.733 0 00-.32.068.566.566 0 00-.217.187.481.481 0 00-.076.263c0 .094.024.18.073.259.05.076.123.138.217.186.096.046.21.069.342.069zm1.751-.956a.56.56 0 01-.449-.202.787.787 0 01-.172-.526c0-.216.058-.391.172-.525a.56.56 0 01.449-.202.55.55 0 01.446.202c.114.132.171.307.171.525 0 .219-.057.395-.171.53a.555.555 0 01-.446.198zm1.608-1.432h.293l-1.821 2.666h-.293l1.821-2.666zm-1.608 1.215a.324.324 0 00.275-.134.632.632 0 00.099-.377.615.615 0 00-.099-.373.321.321 0 00-.275-.137.327.327 0 00-.274.137.625.625 0 00-.099.373c0 .158.033.282.099.374.069.091.16.137.274.137zm1.688 1.474a.567.567 0 01-.45-.198c-.111-.135-.167-.311-.167-.53 0-.218.056-.393.167-.525a.561.561 0 01.45-.202.56.56 0 01.449.202.783.783 0 01.172.525.787.787 0 01-.172.526.56.56 0 01-.449.202zm0-.217a.316.316 0 00.27-.137.608.608 0 00.103-.374.605.605 0 00-.103-.373.316.316 0 00-.27-.137.323.323 0 00-.275.137.615.615 0 00-.099.373c0 .16.033.286.099.377a.325.325 0 00.275.134zm-11.599-10.298h-.693v.682h-.32v-.682h-.693v-.3h.693v-.686h.32v.686h.693v.3zm1.615-.438c.175 0 .331.033.468.1a.765.765 0 01.446.708.782.782 0 01-.126.442.82.82 0 01-.339.297 1.09 1.09 0 01-.48.103c-.358 0-.635-.116-.83-.347-.193-.231-.29-.559-.29-.983 0-.297.052-.55.157-.758.106-.21.254-.37.441-.476.191-.109.412-.164.663-.164.13 0 .252.014.366.042a.986.986 0 01.297.115l-.145.297c-.127-.084-.297-.126-.51-.126-.277 0-.494.086-.652.259-.157.17-.236.419-.236.746 0 .041.002.073.004.096.076-.114.18-.2.312-.26a1.09 1.09 0 01.454-.09zm-.046 1.341a.634.634 0 00.427-.14.472.472 0 00.163-.378.455.455 0 00-.167-.373.655.655 0 00-.442-.141.724.724 0 00-.32.068.557.557 0 00-.217.187.473.473 0 00-.076.263c0 .094.024.18.072.259a.564.564 0 00.217.187.797.797 0 00.343.068zm1.535.301a.257.257 0 01-.183-.072.258.258 0 01-.076-.19.24.24 0 01.076-.184.25.25 0 01.183-.076.24.24 0 01.179.073c.048.048.072.11.072.186s-.025.14-.076.19a.239.239 0 01-.175.073zm1.39-2.69v2.667h-.377v-2.335h-.602v-.331h.979zm1.733 1.048c.175 0 .332.033.469.1a.763.763 0 01.445.708.782.782 0 01-.125.442.832.832 0 01-.339.297 1.09 1.09 0 01-.48.103c-.358 0-.635-.116-.831-.347-.193-.231-.289-.559-.289-.983 0-.297.052-.55.156-.758.107-.21.254-.37.442-.476a1.31 1.31 0 01.663-.164c.129 0 .251.014.365.042a.982.982 0 01.298.115l-.145.297c-.127-.084-.297-.126-.511-.126-.276 0-.494.086-.651.259-.157.17-.236.419-.236.746 0 .041.001.073.004.096.076-.114.18-.2.312-.26a1.09 1.09 0 01.453-.09zm-.045 1.341a.63.63 0 00.426-.14.473.473 0 00.164-.378.456.456 0 00-.168-.373.652.652 0 00-.441-.141.72.72 0 00-.32.068.56.56 0 00-.218.187.48.48 0 00-.076.263c0 .094.024.18.073.259.05.076.123.138.217.187a.794.794 0 00.343.068zm1.75-.956a.56.56 0 01-.449-.202.785.785 0 01-.171-.526c0-.215.057-.39.171-.525a.56.56 0 01.449-.202.55.55 0 01.446.202c.114.132.171.307.171.525 0 .219-.057.395-.171.53a.555.555 0 01-.446.198zm1.608-1.432h.293l-1.821 2.666h-.293l1.821-2.666zm-1.608 1.215a.324.324 0 00.275-.133.633.633 0 00.099-.377.616.616 0 00-.099-.374.32.32 0 00-.275-.137.326.326 0 00-.274.137.626.626 0 00-.099.373c0 .158.033.282.099.374.069.091.16.137.274.137zm1.688 1.474a.567.567 0 01-.45-.198c-.111-.135-.167-.311-.167-.53 0-.218.056-.393.167-.525a.562.562 0 01.45-.202.56.56 0 01.449.202.78.78 0 01.172.526.78.78 0 01-.172.525.56.56 0 01-.449.202zm0-.217a.315.315 0 00.27-.137.606.606 0 00.103-.373.606.606 0 00-.103-.374.315.315 0 00-.27-.137.319.319 0 00-.274.137.616.616 0 00-.099.374c0 .16.033.285.099.377a.322.322 0 00.274.133zm16.408 8.324h-.694v.682h-.32v-.682h-.693v-.301h.693v-.685h.32v.685h.694v.301zm2.263.85v.331h-1.916v-.259l1.086-1.048c.132-.127.221-.236.267-.327a.649.649 0 00.068-.282.384.384 0 00-.148-.324c-.097-.078-.236-.118-.419-.118-.295 0-.522.097-.682.29l-.259-.225c.104-.127.24-.226.407-.297.171-.071.36-.107.568-.107.279 0 .501.067.667.202a.655.655 0 01.247.541c0 .142-.03.277-.091.404s-.177.271-.347.434l-.815.785h1.367zm.602.354a.254.254 0 01-.259-.263c0-.074.026-.135.076-.183a.25.25 0 01.183-.076c.071 0 .131.024.179.072a.256.256 0 01.073.187c0 .076-.026.14-.077.19a.235.235 0 01-.175.073zm2.279-1.421a.764.764 0 01.351.251c.081.11.122.24.122.393a.7.7 0 01-.13.419.813.813 0 01-.369.27c-.16.064-.348.095-.564.095-.213 0-.4-.031-.56-.095a.82.82 0 01-.366-.27.7.7 0 01-.129-.419c0-.153.039-.283.118-.393a.76.76 0 01.35-.251.67.67 0 01-.278-.232.615.615 0 01-.095-.343.64.64 0 01.118-.385.764.764 0 01.339-.251c.145-.059.312-.088.503-.088.193 0 .362.029.506.088a.732.732 0 01.339.251.623.623 0 01.122.385.605.605 0 01-.099.343.664.664 0 01-.278.232zm-.59-.99c-.18 0-.323.039-.427.118a.366.366 0 00-.156.312.37.37 0 00.152.312c.105.077.248.115.431.115.185 0 .33-.038.434-.115a.362.362 0 00.16-.312.36.36 0 00-.164-.312c-.106-.079-.25-.118-.43-.118zm0 2.11c.211 0 .377-.043.499-.13a.42.42 0 00.183-.358.398.398 0 00-.183-.346c-.122-.087-.288-.13-.499-.13-.211 0-.376.043-.495.13a.399.399 0 00-.179.346c0 .15.059.27.179.358.119.087.284.13.495.13zm2.432-1.269c.262.026.461.107.598.244a.697.697 0 01.206.518.778.778 0 01-.114.415.813.813 0 01-.343.294c-.15.071-.334.106-.553.106-.19 0-.373-.027-.548-.083a1.2 1.2 0 01-.43-.24l.175-.301c.091.086.208.156.35.209.142.051.293.076.453.076.199 0 .352-.041.461-.125a.41.41 0 00.168-.347.405.405 0 00-.164-.343c-.109-.081-.274-.122-.495-.122h-.213v-.266l.67-.823h-1.284v-.331h1.76v.259l-.697.86zm1.701.313a.563.563 0 01-.45-.202.787.787 0 01-.171-.526c0-.216.057-.391.171-.525a.563.563 0 01.45-.202.55.55 0 01.446.202c.114.132.171.307.171.525 0 .219-.057.395-.171.53a.556.556 0 01-.446.198zm1.607-1.432h.294l-1.821 2.666h-.293l1.82-2.666zm-1.607 1.215a.322.322 0 00.274-.134.632.632 0 00.099-.377.615.615 0 00-.099-.373.32.32 0 00-.274-.137.326.326 0 00-.274.137.625.625 0 00-.099.373c0 .158.033.282.099.374.068.091.16.137.274.137zm1.687 1.474a.565.565 0 01-.449-.198c-.112-.135-.168-.311-.168-.53 0-.218.056-.393.168-.525a.56.56 0 01.449-.202c.186 0 .335.067.45.202a.782.782 0 01.171.525.787.787 0 01-.171.526.561.561 0 01-.45.202zm0-.217a.317.317 0 00.271-.137.615.615 0 00.103-.374.612.612 0 00-.103-.373.317.317 0 00-.271-.137.32.32 0 00-.274.137.615.615 0 00-.099.373c0 .16.033.286.099.377a.322.322 0 00.274.134zm15.655-.987h-.693v.682h-.32v-.682h-.694v-.301h.694v-.685h.32v.685h.693v.301zm1.2-.423c.381 0 .66.073.838.217.18.143.27.338.27.587 0 .158-.038.3-.114.427a.776.776 0 01-.339.297c-.15.071-.335.106-.556.106-.188 0-.37-.027-.545-.083a1.246 1.246 0 01-.434-.24l.175-.301c.092.086.208.156.351.209.142.051.292.076.449.076.201 0 .356-.041.465-.125a.422.422 0 00.167-.351c0-.16-.061-.28-.182-.362-.122-.083-.331-.125-.625-.125h-.606l.141-1.394h1.505v.331h-1.185l-.072.731h.297zm1.677 1.627a.254.254 0 01-.259-.263.24.24 0 01.076-.183.25.25 0 01.183-.076.245.245 0 01.251.259c0 .076-.025.14-.076.19a.236.236 0 01-.175.073zm1.669-1.57c.262.026.461.107.598.244a.697.697 0 01.206.518.778.778 0 01-.114.415.807.807 0 01-.343.294c-.15.071-.334.106-.552.106a1.79 1.79 0 01-.549-.083 1.2 1.2 0 01-.43-.24l.175-.301c.091.086.208.156.35.209.142.051.294.076.454.076.198 0 .351-.041.46-.125a.41.41 0 00.168-.347.405.405 0 00-.164-.343c-.109-.081-.274-.122-.495-.122h-.213v-.266l.67-.823h-1.283v-.331h1.759v.259l-.697.86zm3.015 1.216v.331h-1.916v-.259l1.085-1.048c.132-.127.221-.236.267-.327a.635.635 0 00.068-.282.384.384 0 00-.148-.324c-.097-.078-.236-.118-.419-.118-.295 0-.522.097-.682.29l-.259-.225c.104-.127.24-.226.408-.297.17-.071.359-.107.567-.107.28 0 .502.067.667.202a.655.655 0 01.247.541c0 .142-.03.277-.091.404s-.177.271-.347.434l-.815.785h1.368zm.929-.903a.56.56 0 01-.449-.202.782.782 0 01-.172-.526c0-.216.057-.391.172-.525a.56.56 0 01.449-.202.55.55 0 01.446.202c.114.132.171.307.171.525 0 .219-.057.395-.171.53a.556.556 0 01-.446.198zm1.607-1.432h.294l-1.821 2.666h-.293l1.82-2.666zm-1.607 1.215a.322.322 0 00.274-.134.632.632 0 00.099-.377.615.615 0 00-.099-.373.32.32 0 00-.274-.137.326.326 0 00-.274.137.625.625 0 00-.099.373c0 .158.033.282.099.374.068.091.16.137.274.137zm1.687 1.474a.565.565 0 01-.449-.198c-.112-.135-.168-.311-.168-.53 0-.218.056-.393.168-.525a.56.56 0 01.449-.202.56.56 0 01.45.202.782.782 0 01.171.525.787.787 0 01-.171.526.56.56 0 01-.45.202zm0-.217a.317.317 0 00.271-.137.615.615 0 00.103-.374.612.612 0 00-.103-.373.317.317 0 00-.271-.137.32.32 0 00-.274.137.615.615 0 00-.099.373c0 .16.033.286.099.377a.323.323 0 00.274.134zm15.852-10.298h-.693v.682h-.32v-.682h-.693v-.3h.693v-.686h.32v.686h.693v.3zm1.615-.438c.175 0 .331.033.468.1a.765.765 0 01.446.708.782.782 0 01-.126.442.82.82 0 01-.339.297 1.09 1.09 0 01-.48.103c-.358 0-.635-.116-.83-.347-.193-.231-.29-.559-.29-.983 0-.297.052-.55.156-.758.107-.21.254-.37.442-.476.191-.109.412-.164.663-.164.13 0 .251.014.366.042a.986.986 0 01.297.115l-.145.297c-.127-.084-.297-.126-.51-.126-.277 0-.494.086-.652.259-.157.17-.236.419-.236.746 0 .041.001.073.004.096.076-.114.18-.2.312-.26a1.09 1.09 0 01.454-.09zm-.046 1.341a.63.63 0 00.426-.14.47.47 0 00.164-.378.458.458 0 00-.167-.373.657.657 0 00-.442-.141.72.72 0 00-.32.068.55.55 0 00-.217.187.473.473 0 00-.076.263c0 .094.024.18.072.259a.564.564 0 00.217.187.797.797 0 00.343.068zm1.535.301a.257.257 0 01-.183-.072.258.258 0 01-.076-.19.24.24 0 01.076-.184.25.25 0 01.183-.076c.071 0 .13.024.179.073.048.048.072.11.072.186s-.025.14-.076.19a.239.239 0 01-.175.073zm2.523-.354v.331h-1.916v-.259l1.085-1.047c.132-.127.221-.237.267-.328a.635.635 0 00.068-.282.384.384 0 00-.148-.323c-.097-.08-.236-.119-.419-.119-.295 0-.522.097-.682.29l-.259-.225a1.04 1.04 0 01.408-.297c.17-.071.359-.107.567-.107.279 0 .502.068.667.202a.655.655 0 01.247.541.92.92 0 01-.091.404 1.62 1.62 0 01-.347.434l-.815.785h1.368zm1.452-1.288c.175 0 .331.033.468.1a.765.765 0 01.446.708.782.782 0 01-.126.442.82.82 0 01-.339.297 1.09 1.09 0 01-.48.103c-.358 0-.634-.116-.83-.347-.193-.231-.289-.559-.289-.983 0-.297.052-.55.156-.758.106-.21.254-.37.442-.476.19-.109.411-.164.662-.164.13 0 .252.014.366.042a.986.986 0 01.297.115l-.145.297c-.127-.084-.297-.126-.51-.126-.277 0-.494.086-.651.259-.158.17-.237.419-.237.746 0 .041.002.073.004.096a.714.714 0 01.313-.26c.134-.06.285-.09.453-.09zm-.046 1.341a.632.632 0 00.427-.14.473.473 0 00.164-.378.456.456 0 00-.168-.373c-.109-.094-.256-.141-.442-.141a.724.724 0 00-.32.068.557.557 0 00-.217.187.473.473 0 00-.076.263c0 .094.024.18.072.259a.564.564 0 00.217.187.797.797 0 00.343.068zm1.751-.956a.56.56 0 01-.449-.202.78.78 0 01-.172-.526.78.78 0 01.172-.525.56.56 0 01.449-.202.55.55 0 01.446.202c.114.132.171.307.171.525 0 .219-.057.395-.171.53a.556.556 0 01-.446.198zm1.607-1.432h.294l-1.821 2.666h-.293l1.82-2.666zm-1.607 1.215a.322.322 0 00.274-.133.633.633 0 00.099-.377.616.616 0 00-.099-.374.319.319 0 00-.274-.137.325.325 0 00-.274.137.626.626 0 00-.099.373c0 .158.033.282.099.374.068.091.16.137.274.137zm1.687 1.474a.565.565 0 01-.449-.198c-.112-.135-.168-.311-.168-.53 0-.218.056-.393.168-.525a.56.56 0 01.449-.202.56.56 0 01.45.202c.114.134.171.31.171.526a.786.786 0 01-.171.525.561.561 0 01-.45.202zm0-.217a.316.316 0 00.271-.137.613.613 0 00.103-.373.613.613 0 00-.103-.374.316.316 0 00-.271-.137.32.32 0 00-.274.137.616.616 0 00-.099.374c0 .16.033.285.099.377a.323.323 0 00.274.133zm15.558-.987h-.693v.682h-.32v-.682h-.693v-.3h.693v-.686h.32v.686h.693v.3zm2.784.526h-.506v.655h-.37v-.655h-1.482v-.267l1.364-1.744h.411l-1.306 1.683h1.025v-.578h.358v.578h.506v.328zm.554.678a.253.253 0 01-.259-.263c0-.073.026-.134.077-.183a.246.246 0 01.182-.076.25.25 0 01.252.259.26.26 0 01-.076.19.241.241 0 01-.176.073zm1.374-1.626c.381 0 .66.072.838.217.18.142.27.337.27.586 0 .158-.038.3-.114.427a.771.771 0 01-.339.297c-.15.071-.335.107-.556.107-.188 0-.37-.028-.545-.084a1.23 1.23 0 01-.434-.24l.175-.301c.092.086.208.156.351.21.142.05.292.076.449.076.201 0 .356-.042.465-.126a.42.42 0 00.167-.35.406.406 0 00-.183-.362c-.121-.084-.33-.126-.624-.126h-.606l.141-1.394h1.505v.331h-1.185l-.072.732h.297zm3.281 1.272v.331h-1.916v-.259l1.085-1.047c.132-.127.221-.237.267-.328a.635.635 0 00.068-.282.384.384 0 00-.148-.323c-.097-.08-.236-.119-.419-.119-.295 0-.522.097-.682.29l-.259-.225a1.04 1.04 0 01.408-.297c.17-.071.359-.107.567-.107.28 0 .502.068.667.202a.655.655 0 01.247.541.92.92 0 01-.091.404 1.62 1.62 0 01-.347.434l-.815.785h1.368zm.929-.903a.56.56 0 01-.449-.202.78.78 0 01-.172-.526.78.78 0 01.172-.525.56.56 0 01.449-.202.55.55 0 01.446.202c.114.132.171.307.171.525 0 .219-.057.395-.171.53a.556.556 0 01-.446.198zm1.607-1.432h.294l-1.821 2.666h-.293l1.82-2.666zm-1.607 1.215a.322.322 0 00.274-.133.633.633 0 00.099-.377.616.616 0 00-.099-.374.319.319 0 00-.274-.137.325.325 0 00-.274.137.626.626 0 00-.099.373c0 .158.033.282.099.374.068.091.16.137.274.137zm1.687 1.474a.565.565 0 01-.449-.198c-.112-.135-.168-.311-.168-.53 0-.218.056-.393.168-.525a.56.56 0 01.449-.202.56.56 0 01.45.202c.114.134.171.31.171.526a.786.786 0 01-.171.525.561.561 0 01-.45.202zm0-.217a.316.316 0 00.271-.137.613.613 0 00.103-.373.613.613 0 00-.103-.374.316.316 0 00-.271-.137.32.32 0 00-.274.137.616.616 0 00-.099.374c0 .16.033.285.099.377a.323.323 0 00.274.133zm-10.609 8.324h-.693v.682h-.32v-.682h-.693v-.301h.693v-.685h.32v.685h.693v.301zm1.615-.438c.175 0 .331.033.468.099a.762.762 0 01.446.709.779.779 0 01-.126.441.828.828 0 01-.339.298 1.098 1.098 0 01-.48.102c-.358 0-.634-.115-.83-.346-.193-.231-.289-.559-.289-.983 0-.297.052-.55.156-.758.106-.211.254-.369.442-.476.19-.109.411-.164.662-.164.13 0 .252.014.366.042a.994.994 0 01.297.114l-.145.297c-.127-.083-.297-.125-.51-.125-.277 0-.494.086-.651.259-.158.17-.237.419-.237.746 0 .041.002.073.004.096a.706.706 0 01.313-.259c.134-.061.285-.092.453-.092zm-.046 1.341a.632.632 0 00.427-.141.474.474 0 00.164-.377.454.454 0 00-.168-.373.655.655 0 00-.442-.141.733.733 0 00-.32.068.558.558 0 00-.217.187.473.473 0 00-.076.263c0 .094.024.18.072.259a.561.561 0 00.217.186.792.792 0 00.343.069zm1.535.301a.254.254 0 01-.259-.263.24.24 0 01.076-.183.25.25 0 01.183-.076c.071 0 .131.024.179.072a.256.256 0 01.072.187c0 .076-.025.14-.076.19a.235.235 0 01-.175.073zm1.476-2.72c.358 0 .634.116.827.347.195.231.293.558.293.983 0 .297-.053.551-.16.761a1.092 1.092 0 01-.442.476c-.188.107-.407.16-.659.16-.129 0-.251-.012-.365-.038a1.03 1.03 0 01-.297-.118l.144-.297c.13.084.301.126.515.126.276 0 .492-.085.647-.255.157-.173.236-.423.236-.751v-.095a.732.732 0 01-.316.263 1.136 1.136 0 01-.453.087c-.175 0-.333-.033-.473-.099a.776.776 0 01-.323-.281.805.805 0 01-.115-.427c0-.168.041-.315.122-.442a.826.826 0 01.339-.293c.143-.071.303-.107.48-.107zm.035 1.341a.72.72 0 00.32-.069.53.53 0 00.217-.186.463.463 0 00.003-.518.49.49 0 00-.217-.187.746.746 0 00-.343-.072.63.63 0 00-.426.141.475.475 0 00-.16.377.47.47 0 00.164.377c.109.091.256.137.442.137zm3.314 1.025v.331h-1.916v-.259l1.086-1.048c.132-.127.221-.236.267-.327a.649.649 0 00.068-.282.384.384 0 00-.148-.324c-.097-.078-.236-.118-.419-.118-.295 0-.522.097-.682.29l-.259-.225c.104-.127.24-.226.407-.297.171-.071.36-.107.568-.107.279 0 .501.067.667.202a.655.655 0 01.247.541c0 .142-.03.277-.091.404s-.177.271-.347.434l-.815.785h1.367zm.93-.903a.561.561 0 01-.45-.202.787.787 0 01-.171-.526c0-.216.057-.391.171-.525a.561.561 0 01.45-.202c.185 0 .334.067.445.202.115.132.172.307.172.525 0 .219-.057.395-.172.53a.553.553 0 01-.445.198zm1.607-1.432h.293l-1.82 2.666h-.294l1.821-2.666zm-1.607 1.215a.322.322 0 00.274-.134.632.632 0 00.099-.377.615.615 0 00-.099-.373.32.32 0 00-.274-.137.325.325 0 00-.274.137.618.618 0 00-.1.373c0 .158.033.282.1.374a.325.325 0 00.274.137zm1.687 1.474a.565.565 0 01-.449-.198c-.112-.135-.168-.311-.168-.53 0-.218.056-.393.168-.525a.56.56 0 01.449-.202c.186 0 .335.067.45.202a.782.782 0 01.171.525.787.787 0 01-.171.526.561.561 0 01-.45.202zm0-.217a.318.318 0 00.271-.137.615.615 0 00.102-.374.612.612 0 00-.102-.373.318.318 0 00-.271-.137.32.32 0 00-.274.137.615.615 0 00-.099.373c0 .16.033.286.099.377a.322.322 0 00.274.134zm41.509-.987h-.693v.682h-.32v-.682h-.693v-.301h.693v-.685h.32v.685h.693v.301zm2.264.85v.331h-1.916v-.259l1.085-1.048c.133-.127.221-.236.267-.327a.637.637 0 00.069-.282c0-.14-.05-.248-.149-.324-.096-.078-.236-.118-.419-.118-.294 0-.522.097-.682.29l-.259-.225c.104-.127.24-.226.408-.297.17-.071.359-.107.567-.107.28 0 .502.067.667.202a.655.655 0 01.248.541.923.923 0 01-.092.404 1.62 1.62 0 01-.346.434l-.816.785h1.368zm.602.354a.254.254 0 01-.259-.263.24.24 0 01.076-.183.25.25 0 01.183-.076.245.245 0 01.251.259c0 .076-.025.14-.076.19a.236.236 0 01-.175.073zm2.279-1.421a.76.76 0 01.35.251c.081.11.122.24.122.393a.7.7 0 01-.129.419.822.822 0 01-.37.27c-.16.064-.348.095-.564.095-.213 0-.4-.031-.56-.095a.817.817 0 01-.365-.27.693.693 0 01-.13-.419.66.66 0 01.118-.393.764.764 0 01.351-.251.664.664 0 01-.278-.232.608.608 0 01-.096-.343c0-.147.04-.276.118-.385a.773.773 0 01.34-.251 1.32 1.32 0 01.502-.088c.193 0 .362.029.507.088.147.058.26.142.339.251a.63.63 0 01.122.385.605.605 0 01-.099.343.67.67 0 01-.278.232zm-.591-.99c-.18 0-.322.039-.426.118a.366.366 0 00-.156.312c0 .132.05.236.152.312.104.077.247.115.43.115.186 0 .33-.038.435-.115a.364.364 0 00.16-.312.36.36 0 00-.164-.312.708.708 0 00-.431-.118zm0 2.11c.211 0 .377-.043.499-.13a.42.42 0 00.183-.358.398.398 0 00-.183-.346c-.122-.087-.288-.13-.499-.13-.21 0-.376.043-.495.13a.4.4 0 00-.179.346c0 .15.06.27.179.358.119.087.285.13.495.13zm3.354-2.388v.259l-1.078 2.407h-.403l1.055-2.335h-1.219v.476h-.366v-.807h2.011zm.924 1.432a.56.56 0 01-.449-.202.787.787 0 01-.171-.526c0-.216.057-.391.171-.525a.56.56 0 01.449-.202.55.55 0 01.446.202c.114.132.171.307.171.525 0 .219-.057.395-.171.53a.555.555 0 01-.446.198zm1.608-1.432h.293l-1.821 2.666h-.293l1.821-2.666zm-1.608 1.215a.324.324 0 00.275-.134.632.632 0 00.099-.377.615.615 0 00-.099-.373.321.321 0 00-.275-.137.327.327 0 00-.274.137.625.625 0 00-.099.373c0 .158.033.282.099.374.069.091.16.137.274.137zm1.688 1.474a.567.567 0 01-.45-.198c-.111-.135-.167-.311-.167-.53 0-.218.056-.393.167-.525a.561.561 0 01.45-.202.56.56 0 01.449.202.778.778 0 01.172.525.782.782 0 01-.172.526.56.56 0 01-.449.202zm0-.217a.316.316 0 00.27-.137.608.608 0 00.103-.374.605.605 0 00-.103-.373.316.316 0 00-.27-.137.32.32 0 00-.274.137.615.615 0 00-.099.373c0 .16.033.286.099.377a.322.322 0 00.274.134z" fill="#199F27"/><rect x="85.106" y="55.72" width="214.788" height="165.906" rx="3.703" stroke="#D3E3FF" stroke-width=".212"/></g><defs><filter id="filter0_d" x="0" y="0" width="384" height="374" filterUnits="userSpaceOnUse" color-interpolation-filters="sRGB"><feFlood flood-opacity="0" result="BackgroundImageFix"/><feColorMatrix in="SourceAlpha" values="0 0 0 0 0 0 0 0 0 0 0 0 0 0 0 0 0 0 127 0"/><feMorphology radius="17" in="SourceAlpha" result="effect1_dropShadow"/><feOffset dy="44"/><feGaussianBlur stdDeviation="44.5"/><feColorMatrix values="0 0 0 0 0.243137 0 0 0 0 0.329412 0 0 0 0 0.847059 0 0 0 0.06 0"/><feBlend in2="BackgroundImageFix" result="effect1_dropShadow"/><feBlend in="SourceGraphic" in2="effect1_dropShadow" result="shape"/></filter><filter id="filter1_d" x="163" y="236" width="58" height="70" filterUnits="userSpaceOnUse" color-interpolation-filters="sRGB"><feFlood flood-opacity="0" result="BackgroundImageFix"/><feColorMatrix in="SourceAlpha" values="0 0 0 0 0 0 0 0 0 0 0 0 0 0 0 0 0 0 127 0"/><feMorphology radius="13" in="SourceAlpha" result="effect1_dropShadow"/><feOffset dy="21"/><feGaussianBlur stdDeviation="11"/><feColorMatrix values="0 0 0 0 0.243137 0 0 0 0 0.329412 0 0 0 0 0.847059 0 0 0 0.51 0"/><feBlend in2="BackgroundImageFix" result="effect1_dropShadow"/><feBlend in="SourceGraphic" in2="effect1_dropShadow" result="shape"/></filter><filter id="filter2_d" x="84.365" y="55.614" width="216.27" height="168.656" filterUnits="userSpaceOnUse" color-interpolation-filters="sRGB"><feFlood flood-opacity="0" result="BackgroundImageFix"/><feColorMatrix in="SourceAlpha" values="0 0 0 0 0 0 0 0 0 0 0 0 0 0 0 0 0 0 127 0"/><feMorphology radius="2.751" in="SourceAlpha" result="effect1_dropShadow"/><feOffset dy="1.905"/><feGaussianBlur stdDeviation="1.693"/><feColorMatrix values="0 0 0 0 0.243137 0 0 0 0 0.329412 0 0 0 0 0.847059 0 0 0 0.22 0"/><feBlend in2="BackgroundImageFix" result="effect1_dropShadow"/><feBlend in="SourceGraphic" in2="effect1_dropShadow" result="shape"/></filter><filter id="filter3_bd" x="131.767" y="153.591" width="58.194" height="35.34" filterUnits="userSpaceOnUse" color-interpolation-filters="sRGB"><feFlood flood-opacity="0" result="BackgroundImageFix"/><feGaussianBlur in="BackgroundImage" stdDeviation=".529"/><feComposite in2="SourceAlpha" operator="in" result="effect1_backgroundBlur"/><feColorMatrix in="SourceAlpha" values="0 0 0 0 0 0 0 0 0 0 0 0 0 0 0 0 0 0 127 0"/><feMorphology radius="1.905" in="SourceAlpha" result="effect2_dropShadow"/><feOffset dy="2.539"/><feGaussianBlur stdDeviation="2.434"/><feColorMatrix values="0 0 0 0 0.596875 0 0 0 0 0.66651 0 0 0 0 0.795833 0 0 0 0.3 0"/><feBlend in2="effect1_backgroundBlur" result="effect2_dropShadow"/><feBlend in="SourceGraphic" in2="effect2_dropShadow" result="shape"/></filter><clipPath id="clip0"><path fill="#fff" transform="translate(194.827 170.944)" d="M0 0h5.079v5.079H0z"/></clipPath></defs></svg>