<svg width="1418" height="956" viewBox="0 0 1418 956" fill="none" xmlns="http://www.w3.org/2000/svg">
<path d="M0 218.5C0 97.8258 97.8258 0 218.5 0H248V248H0V218.5Z" fill="#ED6373"/>
<path d="M31 310C31 289.565 47.5655 273 68 273H105V347H68C47.5655 347 31 330.435 31 310Z" fill="#F3B63F"/>
<path d="M1294 -5.42021e-06C1362.48 -2.42671e-06 1418 55.5167 1418 124L1418 248L1170 248L1170 124C1170 55.5167 1225.52 -8.41371e-06 1294 -5.42021e-06Z" fill="#F3B63F"/>
<circle cx="293.5" cy="75.5" r="25.5" fill="#3E54D8"/>
<circle cx="1339.5" cy="303.5" r="25.5" fill="#ED6373"/>
<g filter="url(#filter0_d)">
<rect x="124" y="121" width="1170" height="719" rx="36" fill="white"/>
</g>
<path d="M124 157C124 137.118 140.118 121 160 121H1258C1277.88 121 1294 137.118 1294 157V186H124V157Z" fill="#050238"/>
<path d="M167.8 736H176.7V734.64H169.8L173.8 730.66C175.22 729.24 176.4 727.74 176.4 725.96C176.4 723.22 174.26 721.76 172.18 721.76C170.4 721.76 168.76 722.62 167.86 724.4L169.04 725.1C169.72 723.72 170.82 723.12 172.18 723.12C173.62 723.12 175 724.06 175 725.96C175 727.26 174.02 728.48 172.84 729.66L167.8 734.74V736ZM187.508 726.38C187.508 723.64 185.528 721.76 182.808 721.76C180.088 721.76 178.108 723.64 178.108 726.38C178.108 729.12 180.088 731 182.808 731C183.188 731 183.568 730.96 183.928 730.88L180.488 736H182.068L186.648 729.18C187.188 728.42 187.508 727.48 187.508 726.38ZM179.508 726.38C179.508 724.42 180.828 723.12 182.808 723.12C184.788 723.12 186.108 724.42 186.108 726.38C186.108 728.34 184.788 729.64 182.808 729.64C180.828 729.64 179.508 728.34 179.508 726.38ZM197.593 736L192.233 730.8L197.393 726H195.593L190.833 730.42V722H189.513V736H190.833V731.18L195.833 736H197.593Z" fill="#373943"/>
<path d="M172.94 600.82L176.2 596.32V595H168V596.32H174.58L171.1 601.08L171.7 602H172.08L172.1 601.98V602C173.92 602 175.4 603 175.4 604.94C175.4 606.88 173.92 607.88 172.1 607.88C170.5 607.88 169.22 607.2 168.76 605.78L167.6 606.46C168.28 608.3 170.08 609.24 172.1 609.24C174.56 609.24 176.8 607.72 176.8 604.94C176.8 602.48 175.04 601.1 172.94 600.82ZM182.808 600.64H180.448L180.748 596.32H187.008V595H179.508L179.008 602H182.808C184.628 602 186.108 603 186.108 604.94C186.108 606.88 184.628 607.88 182.808 607.88C181.208 607.88 179.888 607.12 179.488 605.58L178.308 606.26C178.928 608.24 180.788 609.24 182.808 609.24C185.268 609.24 187.508 607.72 187.508 604.94C187.508 602.16 185.268 600.64 182.808 600.64ZM197.789 609L192.429 603.8L197.589 599H195.789L191.029 603.42V595H189.709V609H191.029V604.18L196.029 609H197.789Z" fill="#373943"/>
<path d="M176.1 477.88H174.3V473.6H172.9V477.88H167.04L172.24 468H170.7L165.5 477.88V479.2H172.9V482H174.3V479.2H176.1V477.88ZM182.902 482.24C186.322 482.24 188.202 479.32 188.202 475C188.202 470.68 186.322 467.76 182.902 467.76C179.482 467.76 177.602 470.68 177.602 475C177.602 479.32 179.482 482.24 182.902 482.24ZM182.902 480.88C180.442 480.88 179.002 478.74 179.002 475C179.002 471.26 180.442 469.12 182.902 469.12C185.362 469.12 186.802 471.26 186.802 475C186.802 478.74 185.362 480.88 182.902 480.88ZM198.679 482L193.319 476.8L198.479 472H196.679L191.919 476.42V468H190.599V482H191.919V477.18L196.919 482H198.679Z" fill="#373943"/>
<path d="M172.3 346.64H169.94L170.24 342.32H176.5V341H169L168.5 348H172.3C174.12 348 175.6 349 175.6 350.94C175.6 352.88 174.12 353.88 172.3 353.88C170.7 353.88 169.38 353.12 168.98 351.58L167.8 352.26C168.42 354.24 170.28 355.24 172.3 355.24C174.76 355.24 177 353.72 177 350.94C177 348.16 174.76 346.64 172.3 346.64ZM183.905 355.24C187.325 355.24 189.205 352.32 189.205 348C189.205 343.68 187.325 340.76 183.905 340.76C180.485 340.76 178.605 343.68 178.605 348C178.605 352.32 180.485 355.24 183.905 355.24ZM183.905 353.88C181.445 353.88 180.005 351.74 180.005 348C180.005 344.26 181.445 342.12 183.905 342.12C186.365 342.12 187.805 344.26 187.805 348C187.805 351.74 186.365 353.88 183.905 353.88ZM199.683 355L194.323 349.8L199.483 345H197.683L192.923 349.42V341H191.603V355H192.923V350.18L197.923 355H199.683Z" fill="#373943"/>
<path d="M274.06 785.26C276.98 785.26 279.02 783.7 279.02 781.14C279.02 778.36 276.68 777.64 274.36 776.9C272.32 776.26 271.54 775.8 271.54 774.72C271.54 773.66 272.4 772.98 273.74 772.98C275.3 772.98 276.18 773.82 276.68 774.94L278.62 773.82C277.74 771.96 276.04 770.74 273.74 770.74C271.38 770.74 269.24 772.2 269.24 774.78C269.24 777.42 271.36 778.22 273.54 778.88C275.62 779.52 276.72 779.94 276.72 781.18C276.72 782.2 275.94 783.02 274.12 783.02C272.22 783.02 271.14 782.08 270.64 780.66L268.66 781.82C269.4 783.9 271.3 785.26 274.06 785.26ZM292.326 784.3L290.506 782.32C291.066 781.42 291.446 780.38 291.666 779.36L289.706 778.24C289.566 779.18 289.326 780 288.986 780.68L285.586 777C284.926 776.28 284.386 775.66 284.386 774.76C284.386 773.68 285.266 772.98 286.366 772.98C287.466 772.98 288.326 773.66 288.706 774.78L290.666 773.66C289.906 771.76 288.226 770.74 286.346 770.74C283.986 770.74 282.086 772.3 282.086 774.7C282.086 775.72 282.406 776.48 282.886 777.14C281.266 778.02 280.426 779.52 280.426 781.16C280.426 783.72 282.426 785.26 285.226 785.26C286.846 785.26 288.126 784.74 289.126 783.94L290.466 785.38L292.326 784.3ZM285.346 783.12C283.666 783.12 282.746 782.26 282.746 780.98C282.746 780.14 283.146 779.22 284.226 778.68L287.666 782.38C287.026 782.86 286.266 783.12 285.346 783.12ZM299.345 771H294.185V785H296.485V780.2H299.345C301.985 780.2 303.985 778.18 303.985 775.6C303.985 773 301.985 771 299.345 771ZM299.345 778.04H296.485V773.16H299.345C300.705 773.16 301.685 774.18 301.685 775.6C301.685 777 300.705 778.04 299.345 778.04ZM310.082 776.28H308.322L308.562 773.16H314.242V771H306.442L305.902 778.52H309.982C311.502 778.52 312.542 779.36 312.542 780.76C312.542 782.16 311.502 783.02 309.942 783.02C308.482 783.02 307.522 782.36 307.162 781.12L305.182 782.26C305.922 784.28 307.822 785.26 309.942 785.26C312.522 785.26 314.842 783.7 314.842 780.76C314.842 777.84 312.622 776.28 310.082 776.28ZM321.624 785.26C325.144 785.26 327.124 782.32 327.124 778C327.124 773.68 325.144 770.74 321.624 770.74C318.104 770.74 316.124 773.68 316.124 778C316.124 782.32 318.104 785.26 321.624 785.26ZM321.624 783.02C319.564 783.02 318.424 781.22 318.424 778C318.424 774.78 319.564 772.98 321.624 772.98C323.704 772.98 324.824 774.78 324.824 778C324.824 781.22 323.704 783.02 321.624 783.02ZM334.222 785.26C337.742 785.26 339.722 782.32 339.722 778C339.722 773.68 337.742 770.74 334.222 770.74C330.702 770.74 328.722 773.68 328.722 778C328.722 782.32 330.702 785.26 334.222 785.26ZM334.222 783.02C332.162 783.02 331.022 781.22 331.022 778C331.022 774.78 332.162 772.98 334.222 772.98C336.302 772.98 337.422 774.78 337.422 778C337.422 781.22 336.302 783.02 334.222 783.02Z" fill="#373943"/>
<path opacity="0.3" d="M263.944 220L259.176 226.16V220H258.12V228H259.016L263.784 221.84V228H264.84V220H263.944ZM272.833 220H266.113V221.024H268.945V228H270.001V221.024H272.833V220ZM277.536 228.192C279.872 228.192 281.744 226.368 281.744 224C281.744 221.632 279.872 219.808 277.536 219.808C275.2 219.808 273.328 221.632 273.328 224C273.328 226.368 275.2 228.192 277.536 228.192ZM277.536 227.168C275.76 227.168 274.384 225.776 274.384 224C274.384 222.224 275.76 220.832 277.536 220.832C279.312 220.832 280.688 222.224 280.688 224C280.688 225.776 279.312 227.168 277.536 227.168ZM288.631 220H283.511V228H284.567V221.024H288.631V220ZM293.332 228.192C295.668 228.192 297.54 226.368 297.54 224C297.54 221.632 295.668 219.808 293.332 219.808C290.996 219.808 289.124 221.632 289.124 224C289.124 226.368 290.996 228.192 293.332 228.192ZM293.332 227.168C291.556 227.168 290.18 225.776 290.18 224C290.18 222.224 291.556 220.832 293.332 220.832C295.108 220.832 296.484 222.224 296.484 224C296.484 225.776 295.108 227.168 293.332 227.168Z" fill="#373943"/>
<path d="M261.152 252.8L258.208 253.84L258.656 255.408L260.912 254.768V264H262.752V252.8H261.152ZM268.353 257.024H266.945L267.137 254.528H271.681V252.8H265.441L265.009 258.816H268.273C269.489 258.816 270.321 259.488 270.321 260.608C270.321 261.728 269.489 262.416 268.241 262.416C267.073 262.416 266.305 261.888 266.017 260.896L264.433 261.808C265.025 263.424 266.545 264.208 268.241 264.208C270.305 264.208 272.161 262.96 272.161 260.608C272.161 258.272 270.385 257.024 268.353 257.024ZM275.767 262.08H273.847L273.207 266.24H274.647L275.767 262.08ZM283.789 256.416C283.789 254.16 282.157 252.592 279.837 252.592C277.517 252.592 275.869 254.16 275.869 256.416C275.869 258.672 277.517 260.24 279.837 260.24H280.029L277.469 264H279.581L283.117 258.672C283.549 258.048 283.789 257.28 283.789 256.416ZM277.709 256.416C277.709 255.136 278.621 254.336 279.837 254.336C281.053 254.336 281.949 255.136 281.949 256.416C281.949 257.696 281.053 258.496 279.837 258.496C278.621 258.496 277.709 257.68 277.709 256.416ZM288.243 256.56H288.035L290.595 252.8H288.499L284.947 258.128C284.515 258.752 284.275 259.52 284.275 260.384C284.275 262.64 285.907 264.208 288.243 264.208C290.563 264.208 292.195 262.64 292.195 260.384C292.195 258.128 290.563 256.56 288.243 256.56ZM288.243 262.464C287.011 262.464 286.115 261.664 286.115 260.384C286.115 259.104 287.011 258.304 288.243 258.304C289.459 258.304 290.355 259.104 290.355 260.384C290.355 261.648 289.459 262.464 288.243 262.464ZM295.533 257.712C297.037 257.712 298.141 256.56 298.141 255.152C298.141 253.712 297.021 252.592 295.533 252.592C294.029 252.592 292.909 253.728 292.909 255.152C292.909 256.56 294.029 257.712 295.533 257.712ZM295.517 256.304C294.845 256.304 294.381 255.792 294.381 255.152C294.381 254.496 294.845 253.984 295.517 253.984C296.205 253.984 296.669 254.496 296.669 255.152C296.669 255.776 296.205 256.304 295.517 256.304ZM293.853 262.352L294.717 262.864L302.093 254.64L301.229 254.144L293.853 262.352ZM300.653 264.192C302.141 264.192 303.261 263.04 303.261 261.632C303.261 260.208 302.141 259.072 300.653 259.072C299.149 259.072 298.029 260.208 298.029 261.632C298.029 263.04 299.149 264.192 300.653 264.192ZM300.637 262.784C299.965 262.784 299.501 262.272 299.501 261.632C299.501 260.976 299.965 260.464 300.637 260.464C301.325 260.464 301.789 260.976 301.789 261.632C301.789 262.256 301.325 262.784 300.637 262.784Z" fill="#199F27"/>
<path d="M161.848 264.208C164.184 264.208 165.816 262.96 165.816 260.912C165.816 258.688 163.944 258.112 162.088 257.52C160.456 257.008 159.832 256.64 159.832 255.776C159.832 254.928 160.52 254.384 161.592 254.384C162.84 254.384 163.544 255.056 163.944 255.952L165.496 255.056C164.792 253.568 163.432 252.592 161.592 252.592C159.704 252.592 157.992 253.76 157.992 255.824C157.992 257.936 159.688 258.576 161.432 259.104C163.096 259.616 163.976 259.952 163.976 260.944C163.976 261.76 163.352 262.416 161.896 262.416C160.376 262.416 159.512 261.664 159.112 260.528L157.528 261.456C158.12 263.12 159.64 264.208 161.848 264.208ZM176.461 263.44L175.005 261.856C175.453 261.136 175.757 260.304 175.933 259.488L174.365 258.592C174.253 259.344 174.061 260 173.789 260.544L171.069 257.6C170.541 257.024 170.109 256.528 170.109 255.808C170.109 254.944 170.813 254.384 171.693 254.384C172.573 254.384 173.261 254.928 173.565 255.824L175.133 254.928C174.525 253.408 173.181 252.592 171.677 252.592C169.789 252.592 168.269 253.84 168.269 255.76C168.269 256.576 168.525 257.184 168.909 257.712C167.613 258.416 166.941 259.616 166.941 260.928C166.941 262.976 168.541 264.208 170.781 264.208C172.077 264.208 173.101 263.792 173.901 263.152L174.973 264.304L176.461 263.44ZM170.877 262.496C169.533 262.496 168.797 261.808 168.797 260.784C168.797 260.112 169.117 259.376 169.981 258.944L172.733 261.904C172.221 262.288 171.613 262.496 170.877 262.496ZM182.076 252.8H177.948V264H179.788V260.16H182.076C184.188 260.16 185.788 258.544 185.788 256.48C185.788 254.4 184.188 252.8 182.076 252.8ZM182.076 258.432H179.788V254.528H182.076C183.164 254.528 183.948 255.344 183.948 256.48C183.948 257.6 183.164 258.432 182.076 258.432ZM190.666 257.024H189.258L189.45 254.528H193.994V252.8H187.754L187.322 258.816H190.586C191.802 258.816 192.634 259.488 192.634 260.608C192.634 261.728 191.802 262.416 190.554 262.416C189.386 262.416 188.618 261.888 188.33 260.896L186.746 261.808C187.338 263.424 188.858 264.208 190.554 264.208C192.618 264.208 194.474 262.96 194.474 260.608C194.474 258.272 192.698 257.024 190.666 257.024ZM199.899 264.208C202.715 264.208 204.299 261.856 204.299 258.4C204.299 254.944 202.715 252.592 199.899 252.592C197.083 252.592 195.499 254.944 195.499 258.4C195.499 261.856 197.083 264.208 199.899 264.208ZM199.899 262.416C198.251 262.416 197.339 260.976 197.339 258.4C197.339 255.824 198.251 254.384 199.899 254.384C201.563 254.384 202.459 255.824 202.459 258.4C202.459 260.976 201.563 262.416 199.899 262.416ZM209.978 264.208C212.794 264.208 214.378 261.856 214.378 258.4C214.378 254.944 212.794 252.592 209.978 252.592C207.162 252.592 205.578 254.944 205.578 258.4C205.578 261.856 207.162 264.208 209.978 264.208ZM209.978 262.416C208.33 262.416 207.418 260.976 207.418 258.4C207.418 255.824 208.33 254.384 209.978 254.384C211.642 254.384 212.538 255.824 212.538 258.4C212.538 260.976 211.642 262.416 209.978 262.416Z" fill="#373943"/>
<path d="M162.248 282.8H158.12V294H159.96V290.16H162.248C164.36 290.16 165.96 288.544 165.96 286.48C165.96 284.4 164.36 282.8 162.248 282.8ZM162.248 288.432H159.96V284.528H162.248C163.336 284.528 164.12 285.344 164.12 286.48C164.12 287.6 163.336 288.432 162.248 288.432ZM170.659 294.208C173.011 294.208 174.883 292.368 174.883 290C174.883 287.616 173.011 285.792 170.659 285.792C168.323 285.792 166.435 287.616 166.435 290C166.435 292.368 168.323 294.208 170.659 294.208ZM170.659 292.528C169.251 292.528 168.163 291.456 168.163 290C168.163 288.544 169.251 287.472 170.659 287.472C172.067 287.472 173.155 288.544 173.155 290C173.155 291.456 172.067 292.528 170.659 292.528ZM178.174 287.344V286H176.446V294H178.174V289.968C178.174 288.176 179.502 287.648 180.638 287.728V285.856C179.63 285.856 178.654 286.256 178.174 287.344ZM186.581 287.664V286H184.597V283.76L182.869 284.272V286H181.397V287.664H182.869V291.504C182.869 293.584 183.925 294.32 186.581 294V292.448C185.269 292.512 184.597 292.528 184.597 291.504V287.664H186.581ZM191.919 284.256V282.592C189.519 282.432 188.303 283.68 188.303 285.84V286H187.087V287.664H188.303V294H190.031V287.664H191.919V286H190.031V285.84C190.031 284.608 190.703 284.144 191.919 284.256ZM196.331 294.208C198.683 294.208 200.555 292.368 200.555 290C200.555 287.616 198.683 285.792 196.331 285.792C193.995 285.792 192.107 287.616 192.107 290C192.107 292.368 193.995 294.208 196.331 294.208ZM196.331 292.528C194.923 292.528 193.835 291.456 193.835 290C193.835 288.544 194.923 287.472 196.331 287.472C197.739 287.472 198.827 288.544 198.827 290C198.827 291.456 197.739 292.528 196.331 292.528ZM202.117 294H203.845V282.32H202.117V294ZM206.716 284.8C207.324 284.8 207.82 284.288 207.82 283.696C207.82 283.088 207.324 282.592 206.716 282.592C206.108 282.592 205.612 283.088 205.612 283.696C205.612 284.288 206.108 284.8 206.716 284.8ZM205.852 294H207.58V286H205.852V294ZM213.362 294.208C215.714 294.208 217.586 292.368 217.586 290C217.586 287.616 215.714 285.792 213.362 285.792C211.026 285.792 209.138 287.616 209.138 290C209.138 292.368 211.026 294.208 213.362 294.208ZM213.362 292.528C211.954 292.528 210.866 291.456 210.866 290C210.866 288.544 211.954 287.472 213.362 287.472C214.77 287.472 215.858 288.544 215.858 290C215.858 291.456 214.77 292.528 213.362 292.528Z" fill="#373943"/>
<path d="M258.496 294H265.872V292.224H261.232L263.76 289.696C264.832 288.608 265.664 287.44 265.664 286.048C265.664 283.824 263.92 282.592 262.08 282.592C260.592 282.592 259.184 283.328 258.464 284.864L260.016 285.776C260.448 284.88 261.168 284.384 262.096 284.384C263.056 284.384 263.824 284.992 263.824 286.112C263.824 286.96 263.2 287.776 262.4 288.576L258.496 292.56V294ZM271.657 287.376L273.929 284.368V282.8H267.049V284.528H271.737L269.321 287.712L270.057 288.816H270.473C271.737 288.816 272.553 289.488 272.553 290.608C272.553 291.728 271.737 292.416 270.473 292.416C269.353 292.416 268.601 291.92 268.281 290.976L266.713 291.888C267.337 293.456 268.825 294.208 270.473 294.208C272.537 294.208 274.392 292.96 274.392 290.608C274.392 288.864 273.193 287.744 271.657 287.376ZM278.049 292.08H276.129L275.489 296.24H276.929L278.049 292.08ZM287.883 290.272H286.603V287.36H284.747V290.272H281.243L285.099 282.8H283.099L279.243 290.272V291.984H284.747V294H286.603V291.984H287.883V290.272ZM295.002 288.176C295.77 287.68 296.282 286.88 296.282 285.808C296.282 283.648 294.586 282.592 292.73 282.592C290.858 282.592 289.178 283.648 289.178 285.808C289.178 286.88 289.69 287.68 290.442 288.176C289.418 288.752 288.794 289.728 288.794 290.896C288.794 292.976 290.394 294.208 292.73 294.208C295.066 294.208 296.65 292.976 296.65 290.896C296.65 289.712 296.042 288.752 295.002 288.176ZM292.73 284.336C293.658 284.336 294.442 284.848 294.442 285.888C294.442 286.88 293.658 287.44 292.73 287.44C291.786 287.44 291.018 286.88 291.018 285.888C291.018 284.848 291.786 284.336 292.73 284.336ZM292.73 292.464C291.514 292.464 290.634 291.856 290.634 290.72C290.634 289.568 291.514 288.976 292.73 288.976C293.93 288.976 294.81 289.568 294.81 290.72C294.81 291.856 293.93 292.464 292.73 292.464ZM300.315 287.712C301.819 287.712 302.923 286.56 302.923 285.152C302.923 283.712 301.803 282.592 300.315 282.592C298.811 282.592 297.691 283.728 297.691 285.152C297.691 286.56 298.811 287.712 300.315 287.712ZM300.299 286.304C299.627 286.304 299.163 285.792 299.163 285.152C299.163 284.496 299.627 283.984 300.299 283.984C300.987 283.984 301.451 284.496 301.451 285.152C301.451 285.776 300.987 286.304 300.299 286.304ZM298.635 292.352L299.499 292.864L306.875 284.64L306.011 284.144L298.635 292.352ZM305.435 294.192C306.923 294.192 308.043 293.04 308.043 291.632C308.043 290.208 306.923 289.072 305.435 289.072C303.931 289.072 302.811 290.208 302.811 291.632C302.811 293.04 303.931 294.192 305.435 294.192ZM305.419 292.784C304.747 292.784 304.283 292.272 304.283 291.632C304.283 290.976 304.747 290.464 305.419 290.464C306.107 290.464 306.571 290.976 306.571 291.632C306.571 292.256 306.107 292.784 305.419 292.784Z" fill="#199F27"/>
<path opacity="0.3" d="M428.784 220V223.488H424.176V220H423.12V228H424.176V224.512H428.784V228H429.84V220H428.784ZM435.801 228.192C438.137 228.192 440.009 226.368 440.009 224C440.009 221.632 438.137 219.808 435.801 219.808C433.465 219.808 431.593 221.632 431.593 224C431.593 226.368 433.465 228.192 435.801 228.192ZM435.801 227.168C434.025 227.168 432.649 225.776 432.649 224C432.649 222.224 434.025 220.832 435.801 220.832C437.577 220.832 438.953 222.224 438.953 224C438.953 225.776 437.577 227.168 435.801 227.168ZM447.224 220H443.976C442.52 220 441.304 221.008 441.304 222.48C441.304 223.792 442.264 224.704 443.512 224.896L440.984 228H442.328L444.792 224.928H446.168V228H447.224V220ZM443.976 223.936C443.112 223.936 442.36 223.392 442.36 222.48C442.36 221.568 443.112 221.024 443.976 221.024H446.168V223.936H443.976ZM453.016 228.192C455.272 228.192 456.936 226.608 456.936 224.448C456.936 222.272 455.368 220.72 453.24 220.72C452.328 220.72 451.016 221.072 450.216 222.128C450.52 221.008 451.128 220.416 452.616 219.776C454.184 219.088 455.848 218.64 456.104 217.04L455.272 216.56C455.08 217.92 453.72 218.144 452.056 218.944C449.464 220.192 448.984 221.504 448.984 224.08C448.984 226.544 450.76 228.192 453.016 228.192ZM453.016 227.136C451.384 227.136 450.104 225.984 450.104 224.352C450.104 222.672 451.704 221.744 453.096 221.744C454.792 221.744 455.88 222.88 455.88 224.448C455.88 226 454.696 227.136 453.016 227.136ZM462.83 219.808C461.406 219.808 460.27 220.496 459.598 221.568V220H458.542V231.2H459.598V226.432C460.27 227.504 461.406 228.192 462.83 228.192C465.086 228.192 466.958 226.368 466.958 224C466.958 221.632 465.086 219.808 462.83 219.808ZM462.75 227.168C460.974 227.168 459.598 225.776 459.598 224C459.598 222.224 460.974 220.832 462.75 220.832C464.526 220.832 465.902 222.224 465.902 224C465.902 225.776 464.526 227.168 462.75 227.168ZM471.962 223.04H469.77V220H468.714V228H471.962C473.418 228 474.634 226.992 474.634 225.52C474.634 224.048 473.418 223.04 471.962 223.04ZM471.962 226.976H469.77V224.064H471.962C472.826 224.064 473.578 224.608 473.578 225.52C473.578 226.432 472.826 226.976 471.962 226.976ZM477.833 226.64H476.553L475.913 230.24H476.873L477.833 226.64ZM483.437 228H490.557V226.912H485.037L488.237 223.728C489.373 222.592 490.317 221.392 490.317 219.968C490.317 217.776 488.605 216.608 486.941 216.608C485.517 216.608 484.205 217.296 483.485 218.72L484.429 219.28C484.973 218.176 485.853 217.696 486.941 217.696C488.093 217.696 489.197 218.448 489.197 219.968C489.197 221.008 488.413 221.984 487.469 222.928L483.437 226.992V228ZM496.087 228.192C498.823 228.192 500.327 225.856 500.327 222.4C500.327 218.944 498.823 216.608 496.087 216.608C493.351 216.608 491.847 218.944 491.847 222.4C491.847 225.856 493.351 228.192 496.087 228.192ZM496.087 227.104C494.119 227.104 492.967 225.392 492.967 222.4C492.967 219.408 494.119 217.696 496.087 217.696C498.055 217.696 499.207 219.408 499.207 222.4C499.207 225.392 498.055 227.104 496.087 227.104Z" fill="#373943"/>
<path d="M433.152 252.8L430.208 253.84L430.656 255.408L432.912 254.768V264H434.752V252.8H433.152ZM440.993 264.208C443.809 264.208 445.393 261.856 445.393 258.4C445.393 254.944 443.809 252.592 440.993 252.592C438.177 252.592 436.593 254.944 436.593 258.4C436.593 261.856 438.177 264.208 440.993 264.208ZM440.993 262.416C439.345 262.416 438.433 260.976 438.433 258.4C438.433 255.824 439.345 254.384 440.993 254.384C442.657 254.384 443.553 255.824 443.553 258.4C443.553 260.976 442.657 262.416 440.993 262.416ZM448.955 262.08H447.035L446.395 266.24H447.835L448.955 262.08ZM456.976 256.416C456.976 254.16 455.344 252.592 453.024 252.592C450.704 252.592 449.056 254.16 449.056 256.416C449.056 258.672 450.704 260.24 453.024 260.24H453.216L450.656 264H452.768L456.304 258.672C456.736 258.048 456.976 257.28 456.976 256.416ZM450.896 256.416C450.896 255.136 451.808 254.336 453.024 254.336C454.24 254.336 455.136 255.136 455.136 256.416C455.136 257.696 454.24 258.496 453.024 258.496C451.808 258.496 450.896 257.68 450.896 256.416ZM462.415 264.208C465.231 264.208 466.815 261.856 466.815 258.4C466.815 254.944 465.231 252.592 462.415 252.592C459.599 252.592 458.015 254.944 458.015 258.4C458.015 261.856 459.599 264.208 462.415 264.208ZM462.415 262.416C460.767 262.416 459.855 260.976 459.855 258.4C459.855 255.824 460.767 254.384 462.415 254.384C464.079 254.384 464.975 255.824 464.975 258.4C464.975 260.976 464.079 262.416 462.415 262.416ZM470.565 257.712C472.069 257.712 473.173 256.56 473.173 255.152C473.173 253.712 472.053 252.592 470.565 252.592C469.061 252.592 467.941 253.728 467.941 255.152C467.941 256.56 469.061 257.712 470.565 257.712ZM470.549 256.304C469.877 256.304 469.413 255.792 469.413 255.152C469.413 254.496 469.877 253.984 470.549 253.984C471.237 253.984 471.701 254.496 471.701 255.152C471.701 255.776 471.237 256.304 470.549 256.304ZM468.885 262.352L469.749 262.864L477.125 254.64L476.261 254.144L468.885 262.352ZM475.685 264.192C477.173 264.192 478.293 263.04 478.293 261.632C478.293 260.208 477.173 259.072 475.685 259.072C474.181 259.072 473.061 260.208 473.061 261.632C473.061 263.04 474.181 264.192 475.685 264.192ZM475.669 262.784C474.997 262.784 474.533 262.272 474.533 261.632C474.533 260.976 474.997 260.464 475.669 260.464C476.357 260.464 476.821 260.976 476.821 261.632C476.821 262.256 476.357 262.784 475.669 262.784Z" fill="#199F27"/>
<path d="M432.152 282.8L429.208 283.84L429.656 285.408L431.912 284.768V294H433.752V282.8H432.152ZM439.321 286.56H439.113L441.673 282.8H439.577L436.025 288.128C435.593 288.752 435.353 289.52 435.353 290.384C435.353 292.64 436.985 294.208 439.321 294.208C441.641 294.208 443.273 292.64 443.273 290.384C443.273 288.128 441.641 286.56 439.321 286.56ZM439.321 292.464C438.089 292.464 437.193 291.664 437.193 290.384C437.193 289.104 438.089 288.304 439.321 288.304C440.537 288.304 441.433 289.104 441.433 290.384C441.433 291.648 440.537 292.464 439.321 292.464ZM446.767 292.08H444.847L444.207 296.24H445.647L446.767 292.08ZM452.149 294.208C454.965 294.208 456.549 291.856 456.549 288.4C456.549 284.944 454.965 282.592 452.149 282.592C449.333 282.592 447.749 284.944 447.749 288.4C447.749 291.856 449.333 294.208 452.149 294.208ZM452.149 292.416C450.501 292.416 449.589 290.976 449.589 288.4C449.589 285.824 450.501 284.384 452.149 284.384C453.813 284.384 454.709 285.824 454.709 288.4C454.709 290.976 453.813 292.416 452.149 292.416ZM462.228 294.208C465.044 294.208 466.628 291.856 466.628 288.4C466.628 284.944 465.044 282.592 462.228 282.592C459.412 282.592 457.828 284.944 457.828 288.4C457.828 291.856 459.412 294.208 462.228 294.208ZM462.228 292.416C460.58 292.416 459.668 290.976 459.668 288.4C459.668 285.824 460.58 284.384 462.228 284.384C463.892 284.384 464.788 285.824 464.788 288.4C464.788 290.976 463.892 292.416 462.228 292.416ZM470.377 287.712C471.881 287.712 472.985 286.56 472.985 285.152C472.985 283.712 471.865 282.592 470.377 282.592C468.873 282.592 467.753 283.728 467.753 285.152C467.753 286.56 468.873 287.712 470.377 287.712ZM470.361 286.304C469.689 286.304 469.225 285.792 469.225 285.152C469.225 284.496 469.689 283.984 470.361 283.984C471.049 283.984 471.513 284.496 471.513 285.152C471.513 285.776 471.049 286.304 470.361 286.304ZM468.697 292.352L469.561 292.864L476.937 284.64L476.073 284.144L468.697 292.352ZM475.497 294.192C476.985 294.192 478.105 293.04 478.105 291.632C478.105 290.208 476.985 289.072 475.497 289.072C473.993 289.072 472.873 290.208 472.873 291.632C472.873 293.04 473.993 294.192 475.497 294.192ZM475.481 292.784C474.809 292.784 474.345 292.272 474.345 291.632C474.345 290.976 474.809 290.464 475.481 290.464C476.169 290.464 476.633 290.976 476.633 291.632C476.633 292.256 476.169 292.784 475.481 292.784Z" fill="#ED6373"/>
<path opacity="0.3" d="M661.84 226.976V220H656.112V223.952C656.112 225.52 655.808 226.304 655.296 226.976H654.32V230.144H655.376V228H661.904V230.144H662.96V226.976H661.84ZM656.576 226.976C656.96 226.208 657.168 225.264 657.168 223.952V221.024H660.784V226.976H656.576ZM667.941 219.808C665.461 219.808 663.765 221.648 663.765 224C663.765 226.416 665.493 228.192 668.021 228.192C669.637 228.192 670.869 227.44 671.541 226.352L670.613 225.808C670.181 226.576 669.301 227.168 668.037 227.168C666.341 227.168 665.077 226.16 664.853 224.528H671.877C671.893 224.368 671.909 224.192 671.909 224.032C671.909 221.84 670.389 219.808 667.941 219.808ZM667.941 220.832C669.317 220.832 670.597 221.744 670.821 223.504H664.853C665.061 221.936 666.261 220.832 667.941 220.832ZM680.053 228L675.765 223.84L679.893 220H678.453L674.645 223.536V220H673.589V228H674.645V224.144L678.645 228H680.053ZM687.578 220V221.568C686.906 220.496 685.77 219.808 684.346 219.808C682.09 219.808 680.218 221.632 680.218 224C680.218 226.368 682.09 228.192 684.346 228.192C685.77 228.192 686.906 227.504 687.578 226.432V228H688.634V220H687.578ZM684.426 227.168C682.65 227.168 681.274 225.776 681.274 224C681.274 222.224 682.65 220.832 684.426 220.832C686.202 220.832 687.578 222.224 687.578 224C687.578 225.776 686.202 227.168 684.426 227.168ZM694.422 228.192C696.678 228.192 698.342 226.608 698.342 224.448C698.342 222.272 696.774 220.72 694.646 220.72C693.734 220.72 692.422 221.072 691.622 222.128C691.926 221.008 692.534 220.416 694.022 219.776C695.59 219.088 697.254 218.64 697.51 217.04L696.678 216.56C696.486 217.92 695.126 218.144 693.462 218.944C690.87 220.192 690.39 221.504 690.39 224.08C690.39 226.544 692.166 228.192 694.422 228.192ZM694.422 227.136C692.79 227.136 691.51 225.984 691.51 224.352C691.51 222.672 693.11 221.744 694.502 221.744C696.198 221.744 697.286 222.88 697.286 224.448C697.286 226 696.102 227.136 694.422 227.136ZM704.236 219.808C702.812 219.808 701.676 220.496 701.004 221.568V220H699.948V231.2H701.004V226.432C701.676 227.504 702.812 228.192 704.236 228.192C706.492 228.192 708.364 226.368 708.364 224C708.364 221.632 706.492 219.808 704.236 219.808ZM704.156 227.168C702.38 227.168 701.004 225.776 701.004 224C701.004 222.224 702.38 220.832 704.156 220.832C705.932 220.832 707.308 222.224 707.308 224C707.308 225.776 705.932 227.168 704.156 227.168ZM713.368 223.04H711.176V220H710.12V228H713.368C714.824 228 716.04 226.992 716.04 225.52C716.04 224.048 714.824 223.04 713.368 223.04ZM713.368 226.976H711.176V224.064H713.368C714.232 224.064 714.984 224.608 714.984 225.52C714.984 226.432 714.232 226.976 713.368 226.976ZM719.239 226.64H717.959L717.319 230.24H718.279L719.239 226.64ZM724.843 228H731.963V226.912H726.443L729.643 223.728C730.779 222.592 731.723 221.392 731.723 219.968C731.723 217.776 730.011 216.608 728.347 216.608C726.923 216.608 725.611 217.296 724.891 218.72L725.835 219.28C726.379 218.176 727.259 217.696 728.347 217.696C729.499 217.696 730.603 218.448 730.603 219.968C730.603 221.008 729.819 221.984 728.875 222.928L724.843 226.992V228ZM737.493 228.192C740.229 228.192 741.733 225.856 741.733 222.4C741.733 218.944 740.229 216.608 737.493 216.608C734.757 216.608 733.253 218.944 733.253 222.4C733.253 225.856 734.757 228.192 737.493 228.192ZM737.493 227.104C735.525 227.104 734.373 225.392 734.373 222.4C734.373 219.408 735.525 217.696 737.493 217.696C739.461 217.696 740.613 219.408 740.613 222.4C740.613 225.392 739.461 227.104 737.493 227.104Z" fill="#373943"/>
<path d="M683.344 257.376L685.616 254.368V252.8H678.736V254.528H683.424L681.008 257.712L681.744 258.816H682.16C683.424 258.816 684.24 259.488 684.24 260.608C684.24 261.728 683.424 262.416 682.16 262.416C681.04 262.416 680.288 261.92 679.968 260.976L678.4 261.888C679.024 263.456 680.512 264.208 682.16 264.208C684.224 264.208 686.08 262.96 686.08 260.608C686.08 258.864 684.88 257.744 683.344 257.376ZM689.736 262.08H687.816L687.176 266.24H688.616L689.736 262.08ZM691.059 264H698.435V262.224H693.795L696.323 259.696C697.395 258.608 698.227 257.44 698.227 256.048C698.227 253.824 696.483 252.592 694.643 252.592C693.155 252.592 691.747 253.328 691.027 254.864L692.579 255.776C693.011 254.88 693.731 254.384 694.659 254.384C695.619 254.384 696.387 254.992 696.387 256.112C696.387 256.96 695.763 257.776 694.963 258.576L691.059 262.56V264ZM703.165 256.56H702.957L705.517 252.8H703.421L699.869 258.128C699.437 258.752 699.197 259.52 699.197 260.384C699.197 262.64 700.829 264.208 703.165 264.208C705.485 264.208 707.117 262.64 707.117 260.384C707.117 258.128 705.485 256.56 703.165 256.56ZM703.165 262.464C701.933 262.464 701.037 261.664 701.037 260.384C701.037 259.104 701.933 258.304 703.165 258.304C704.381 258.304 705.277 259.104 705.277 260.384C705.277 261.648 704.381 262.464 703.165 262.464ZM710.455 257.712C711.959 257.712 713.063 256.56 713.063 255.152C713.063 253.712 711.943 252.592 710.455 252.592C708.951 252.592 707.831 253.728 707.831 255.152C707.831 256.56 708.951 257.712 710.455 257.712ZM710.439 256.304C709.767 256.304 709.303 255.792 709.303 255.152C709.303 254.496 709.767 253.984 710.439 253.984C711.127 253.984 711.591 254.496 711.591 255.152C711.591 255.776 711.127 256.304 710.439 256.304ZM708.775 262.352L709.639 262.864L717.015 254.64L716.151 254.144L708.775 262.352ZM715.575 264.192C717.063 264.192 718.183 263.04 718.183 261.632C718.183 260.208 717.063 259.072 715.575 259.072C714.071 259.072 712.951 260.208 712.951 261.632C712.951 263.04 714.071 264.192 715.575 264.192ZM715.559 262.784C714.887 262.784 714.423 262.272 714.423 261.632C714.423 260.976 714.887 260.464 715.559 260.464C716.247 260.464 716.711 260.976 716.711 261.632C716.711 262.256 716.247 262.784 715.559 262.784Z" fill="#199F27"/>
<path d="M681.152 282.8L678.208 283.84L678.656 285.408L680.912 284.768V294H682.752V282.8H681.152ZM687.361 292.08H685.441L684.801 296.24H686.241L687.361 292.08ZM692.588 287.024H691.18L691.372 284.528H695.916V282.8H689.676L689.243 288.816H692.508C693.724 288.816 694.556 289.488 694.556 290.608C694.556 291.728 693.724 292.416 692.476 292.416C691.308 292.416 690.539 291.888 690.252 290.896L688.668 291.808C689.26 293.424 690.78 294.208 692.476 294.208C694.54 294.208 696.396 292.96 696.396 290.608C696.396 288.272 694.62 287.024 692.588 287.024ZM703.674 288.176C704.442 287.68 704.954 286.88 704.954 285.808C704.954 283.648 703.258 282.592 701.402 282.592C699.53 282.592 697.85 283.648 697.85 285.808C697.85 286.88 698.362 287.68 699.114 288.176C698.09 288.752 697.466 289.728 697.466 290.896C697.466 292.976 699.066 294.208 701.402 294.208C703.738 294.208 705.322 292.976 705.322 290.896C705.322 289.712 704.714 288.752 703.674 288.176ZM701.402 284.336C702.33 284.336 703.114 284.848 703.114 285.888C703.114 286.88 702.33 287.44 701.402 287.44C700.458 287.44 699.69 286.88 699.69 285.888C699.69 284.848 700.458 284.336 701.402 284.336ZM701.402 292.464C700.186 292.464 699.306 291.856 699.306 290.72C699.306 289.568 700.186 288.976 701.402 288.976C702.602 288.976 703.482 289.568 703.482 290.72C703.482 291.856 702.602 292.464 701.402 292.464ZM708.987 287.712C710.491 287.712 711.595 286.56 711.595 285.152C711.595 283.712 710.475 282.592 708.987 282.592C707.483 282.592 706.363 283.728 706.363 285.152C706.363 286.56 707.483 287.712 708.987 287.712ZM708.971 286.304C708.299 286.304 707.835 285.792 707.835 285.152C707.835 284.496 708.299 283.984 708.971 283.984C709.659 283.984 710.123 284.496 710.123 285.152C710.123 285.776 709.659 286.304 708.971 286.304ZM707.307 292.352L708.171 292.864L715.547 284.64L714.683 284.144L707.307 292.352ZM714.107 294.192C715.595 294.192 716.715 293.04 716.715 291.632C716.715 290.208 715.595 289.072 714.107 289.072C712.603 289.072 711.483 290.208 711.483 291.632C711.483 293.04 712.603 294.192 714.107 294.192ZM714.091 292.784C713.419 292.784 712.955 292.272 712.955 291.632C712.955 290.976 713.419 290.464 714.091 290.464C714.779 290.464 715.243 290.976 715.243 291.632C715.243 292.256 714.779 292.784 714.091 292.784Z" fill="#199F27"/>
<path opacity="0.3" d="M868.88 220H865.632C864.176 220 862.96 221.008 862.96 222.48C862.96 223.792 863.92 224.704 865.168 224.896L862.64 228H863.984L866.448 224.928H867.824V228H868.88V220ZM865.632 223.936C864.768 223.936 864.016 223.392 864.016 222.48C864.016 221.568 864.768 221.024 865.632 221.024H867.824V223.936H865.632ZM876.784 220V223.488H872.176V220H871.12V228H872.176V224.512H876.784V228H877.84V220H876.784ZM885.161 223.888C885.785 223.52 886.089 222.912 886.089 222.144C886.089 220.928 885.241 220 883.641 220H880.073V228H883.961C885.657 228 886.473 226.992 886.473 225.76C886.473 224.896 886.025 224.208 885.161 223.888ZM883.641 221.024C884.553 221.024 885.033 221.472 885.033 222.208C885.033 223.008 884.569 223.456 883.641 223.456H881.129V221.024H883.641ZM883.961 226.976H881.129V224.48H883.961C884.905 224.48 885.417 224.96 885.417 225.696C885.417 226.496 884.921 226.976 883.961 226.976ZM894.953 220V221.568C894.281 220.496 893.145 219.808 891.721 219.808C889.465 219.808 887.593 221.632 887.593 224C887.593 226.368 889.465 228.192 891.721 228.192C893.145 228.192 894.281 227.504 894.953 226.432V228H896.009V220H894.953ZM891.801 227.168C890.025 227.168 888.649 225.776 888.649 224C888.649 222.224 890.025 220.832 891.801 220.832C893.577 220.832 894.953 222.224 894.953 224C894.953 225.776 893.577 227.168 891.801 227.168ZM902.533 219.808C901.109 219.808 899.973 220.496 899.301 221.568V220H898.245V231.2H899.301V226.432C899.973 227.504 901.109 228.192 902.533 228.192C904.789 228.192 906.661 226.368 906.661 224C906.661 221.632 904.789 219.808 902.533 219.808ZM902.453 227.168C900.677 227.168 899.301 225.776 899.301 224C899.301 222.224 900.677 220.832 902.453 220.832C904.229 220.832 905.605 222.224 905.605 224C905.605 225.776 904.229 227.168 902.453 227.168ZM911.665 223.04H909.473V220H908.417V228H911.665C913.121 228 914.337 226.992 914.337 225.52C914.337 224.048 913.121 223.04 911.665 223.04ZM911.665 226.976H909.473V224.064H911.665C912.529 224.064 913.281 224.608 913.281 225.52C913.281 226.432 912.529 226.976 911.665 226.976ZM917.536 226.64H916.256L915.616 230.24H916.576L917.536 226.64ZM923.14 228H930.26V226.912H924.74L927.94 223.728C929.076 222.592 930.02 221.392 930.02 219.968C930.02 217.776 928.308 216.608 926.644 216.608C925.22 216.608 923.908 217.296 923.188 218.72L924.132 219.28C924.676 218.176 925.556 217.696 926.644 217.696C927.796 217.696 928.9 218.448 928.9 219.968C928.9 221.008 928.116 221.984 927.172 222.928L923.14 226.992V228ZM934.106 216.8L931.146 217.824L931.434 218.784L933.946 218.032V228H935.066V216.8H934.106Z" fill="#373943"/>
<path d="M876.12 259.968H882.04V258.304H876.12V259.968ZM886.308 252.8L883.364 253.84L883.812 255.408L886.068 254.768V264H887.908V252.8H886.308ZM892.517 262.08H890.597L889.957 266.24H891.397L892.517 262.08ZM897.899 264.208C900.715 264.208 902.299 261.856 902.299 258.4C902.299 254.944 900.715 252.592 897.899 252.592C895.083 252.592 893.499 254.944 893.499 258.4C893.499 261.856 895.083 264.208 897.899 264.208ZM897.899 262.416C896.251 262.416 895.339 260.976 895.339 258.4C895.339 255.824 896.251 254.384 897.899 254.384C899.563 254.384 900.459 255.824 900.459 258.4C900.459 260.976 899.563 262.416 897.899 262.416ZM907.978 264.208C910.794 264.208 912.378 261.856 912.378 258.4C912.378 254.944 910.794 252.592 907.978 252.592C905.162 252.592 903.578 254.944 903.578 258.4C903.578 261.856 905.162 264.208 907.978 264.208ZM907.978 262.416C906.33 262.416 905.418 260.976 905.418 258.4C905.418 255.824 906.33 254.384 907.978 254.384C909.642 254.384 910.538 255.824 910.538 258.4C910.538 260.976 909.642 262.416 907.978 262.416ZM916.127 257.712C917.631 257.712 918.735 256.56 918.735 255.152C918.735 253.712 917.615 252.592 916.127 252.592C914.623 252.592 913.503 253.728 913.503 255.152C913.503 256.56 914.623 257.712 916.127 257.712ZM916.111 256.304C915.439 256.304 914.975 255.792 914.975 255.152C914.975 254.496 915.439 253.984 916.111 253.984C916.799 253.984 917.263 254.496 917.263 255.152C917.263 255.776 916.799 256.304 916.111 256.304ZM914.447 262.352L915.311 262.864L922.687 254.64L921.823 254.144L914.447 262.352ZM921.247 264.192C922.735 264.192 923.855 263.04 923.855 261.632C923.855 260.208 922.735 259.072 921.247 259.072C919.743 259.072 918.623 260.208 918.623 261.632C918.623 263.04 919.743 264.192 921.247 264.192ZM921.231 262.784C920.559 262.784 920.095 262.272 920.095 261.632C920.095 260.976 920.559 260.464 921.231 260.464C921.919 260.464 922.383 260.976 922.383 261.632C922.383 262.256 921.919 262.784 921.231 262.784Z" fill="#ED6373"/>
<path d="M885.04 294.208C887.856 294.208 889.44 291.856 889.44 288.4C889.44 284.944 887.856 282.592 885.04 282.592C882.224 282.592 880.64 284.944 880.64 288.4C880.64 291.856 882.224 294.208 885.04 294.208ZM885.04 292.416C883.392 292.416 882.48 290.976 882.48 288.4C882.48 285.824 883.392 284.384 885.04 284.384C886.704 284.384 887.6 285.824 887.6 288.4C887.6 290.976 886.704 292.416 885.04 292.416ZM893.002 292.08H891.082L890.442 296.24H891.882L893.002 292.08ZM899.172 287.376L901.444 284.368V282.8H894.564V284.528H899.252L896.836 287.712L897.572 288.816H897.988C899.252 288.816 900.068 289.488 900.068 290.608C900.068 291.728 899.252 292.416 897.988 292.416C896.868 292.416 896.116 291.92 895.796 290.976L894.228 291.888C894.852 293.456 896.34 294.208 897.988 294.208C900.052 294.208 901.908 292.96 901.908 290.608C901.908 288.864 900.708 287.744 899.172 287.376ZM907.509 294.208C910.325 294.208 911.909 291.856 911.909 288.4C911.909 284.944 910.325 282.592 907.509 282.592C904.693 282.592 903.109 284.944 903.109 288.4C903.109 291.856 904.693 294.208 907.509 294.208ZM907.509 292.416C905.861 292.416 904.949 290.976 904.949 288.4C904.949 285.824 905.861 284.384 907.509 284.384C909.173 284.384 910.069 285.824 910.069 288.4C910.069 290.976 909.173 292.416 907.509 292.416ZM915.658 287.712C917.162 287.712 918.266 286.56 918.266 285.152C918.266 283.712 917.146 282.592 915.658 282.592C914.154 282.592 913.034 283.728 913.034 285.152C913.034 286.56 914.154 287.712 915.658 287.712ZM915.642 286.304C914.97 286.304 914.506 285.792 914.506 285.152C914.506 284.496 914.97 283.984 915.642 283.984C916.33 283.984 916.794 284.496 916.794 285.152C916.794 285.776 916.33 286.304 915.642 286.304ZM913.978 292.352L914.842 292.864L922.218 284.64L921.354 284.144L913.978 292.352ZM920.778 294.192C922.266 294.192 923.386 293.04 923.386 291.632C923.386 290.208 922.266 289.072 920.778 289.072C919.274 289.072 918.154 290.208 918.154 291.632C918.154 293.04 919.274 294.192 920.778 294.192ZM920.762 292.784C920.09 292.784 919.626 292.272 919.626 291.632C919.626 290.976 920.09 290.464 920.762 290.464C921.45 290.464 921.914 290.976 921.914 291.632C921.914 292.256 921.45 292.784 920.762 292.784Z" fill="#199F27"/>
<path opacity="0.3" d="M1109.08 223C1109.08 220.776 1107.43 219.048 1104.89 218.824V215.8H1103.83V218.824C1101.29 219.048 1099.64 220.776 1099.64 223C1099.64 225.224 1101.29 226.952 1103.83 227.176V230.2H1104.89V227.176C1107.43 226.952 1109.08 225.224 1109.08 223ZM1100.7 223C1100.7 221.368 1101.86 220.056 1103.83 219.864V226.136C1101.86 225.944 1100.7 224.632 1100.7 223ZM1104.89 226.136V219.864C1106.86 220.056 1108.02 221.368 1108.02 223C1108.02 224.632 1106.86 225.944 1104.89 226.136ZM1114.53 218.808C1112.05 218.808 1110.36 220.648 1110.36 223C1110.36 225.416 1112.09 227.192 1114.61 227.192C1116.23 227.192 1117.46 226.44 1118.13 225.352L1117.21 224.808C1116.77 225.576 1115.89 226.168 1114.63 226.168C1112.93 226.168 1111.67 225.16 1111.45 223.528H1118.47C1118.49 223.368 1118.5 223.192 1118.5 223.032C1118.5 220.84 1116.98 218.808 1114.53 218.808ZM1114.53 219.832C1115.91 219.832 1117.19 220.744 1117.41 222.504H1111.45C1111.65 220.936 1112.85 219.832 1114.53 219.832ZM1125.27 222.888C1125.89 222.52 1126.2 221.912 1126.2 221.144C1126.2 219.928 1125.35 219 1123.75 219H1120.18V227H1124.07C1125.77 227 1126.58 225.992 1126.58 224.76C1126.58 223.896 1126.13 223.208 1125.27 222.888ZM1123.75 220.024C1124.66 220.024 1125.14 220.472 1125.14 221.208C1125.14 222.008 1124.68 222.456 1123.75 222.456H1121.24V220.024H1123.75ZM1124.07 225.976H1121.24V223.48H1124.07C1125.01 223.48 1125.53 223.96 1125.53 224.696C1125.53 225.496 1125.03 225.976 1124.07 225.976ZM1132.47 218.808C1131.05 218.808 1129.91 219.496 1129.24 220.568V219H1128.18V230.2H1129.24V225.432C1129.91 226.504 1131.05 227.192 1132.47 227.192C1134.73 227.192 1136.6 225.368 1136.6 223C1136.6 220.632 1134.73 218.808 1132.47 218.808ZM1132.39 226.168C1130.61 226.168 1129.24 224.776 1129.24 223C1129.24 221.224 1130.61 219.832 1132.39 219.832C1134.17 219.832 1135.54 221.224 1135.54 223C1135.54 224.776 1134.17 226.168 1132.39 226.168ZM1145.23 219V220.568C1144.56 219.496 1143.43 218.808 1142 218.808C1139.75 218.808 1137.87 220.632 1137.87 223C1137.87 225.368 1139.75 227.192 1142 227.192C1143.43 227.192 1144.56 226.504 1145.23 225.432V227H1146.29V219H1145.23ZM1142.08 226.168C1140.31 226.168 1138.93 224.776 1138.93 223C1138.93 221.224 1140.31 219.832 1142.08 219.832C1143.86 219.832 1145.23 221.224 1145.23 223C1145.23 224.776 1143.86 226.168 1142.08 226.168ZM1155.09 219H1149.36V223.592C1149.36 225.624 1148.7 226.12 1147.57 226.008V227C1149.17 227.112 1150.41 226.44 1150.41 223.592V220.024H1154.03V227H1155.09V219ZM1160.57 222.04H1158.38V219H1157.32V227H1160.57C1162.03 227 1163.24 225.992 1163.24 224.52C1163.24 223.048 1162.03 222.04 1160.57 222.04ZM1160.57 225.976H1158.38V223.064H1160.57C1161.44 223.064 1162.19 223.608 1162.19 224.52C1162.19 225.432 1161.44 225.976 1160.57 225.976ZM1166.44 225.64H1165.16L1164.52 229.24H1165.48L1166.44 225.64ZM1172.05 227H1179.17V225.912H1173.65L1176.85 222.728C1177.98 221.592 1178.93 220.392 1178.93 218.968C1178.93 216.776 1177.21 215.608 1175.55 215.608C1174.13 215.608 1172.81 216.296 1172.09 217.72L1173.04 218.28C1173.58 217.176 1174.46 216.696 1175.55 216.696C1176.7 216.696 1177.81 217.448 1177.81 218.968C1177.81 220.008 1177.02 220.984 1176.08 221.928L1172.05 225.992V227ZM1183.01 215.8L1180.05 216.824L1180.34 217.784L1182.85 217.032V227H1183.97V215.8H1183.01Z" fill="#373943"/>
<path d="M1118.5 263H1125.87V261.224H1121.23L1123.76 258.696C1124.83 257.608 1125.66 256.44 1125.66 255.048C1125.66 252.824 1123.92 251.592 1122.08 251.592C1120.59 251.592 1119.18 252.328 1118.46 253.864L1120.02 254.776C1120.45 253.88 1121.17 253.384 1122.1 253.384C1123.06 253.384 1123.82 253.992 1123.82 255.112C1123.82 255.96 1123.2 256.776 1122.4 257.576L1118.5 261.56V263ZM1129.88 261.08H1127.96L1127.32 265.24H1128.76L1129.88 261.08ZM1137.47 257.176C1138.24 256.68 1138.75 255.88 1138.75 254.808C1138.75 252.648 1137.06 251.592 1135.2 251.592C1133.33 251.592 1131.65 252.648 1131.65 254.808C1131.65 255.88 1132.16 256.68 1132.91 257.176C1131.89 257.752 1131.26 258.728 1131.26 259.896C1131.26 261.976 1132.86 263.208 1135.2 263.208C1137.54 263.208 1139.12 261.976 1139.12 259.896C1139.12 258.712 1138.51 257.752 1137.47 257.176ZM1135.2 253.336C1136.13 253.336 1136.91 253.848 1136.91 254.888C1136.91 255.88 1136.13 256.44 1135.2 256.44C1134.26 256.44 1133.49 255.88 1133.49 254.888C1133.49 253.848 1134.26 253.336 1135.2 253.336ZM1135.2 261.464C1133.98 261.464 1133.1 260.856 1133.1 259.72C1133.1 258.568 1133.98 257.976 1135.2 257.976C1136.4 257.976 1137.28 258.568 1137.28 259.72C1137.28 260.856 1136.4 261.464 1135.2 261.464ZM1144.71 263.208C1147.53 263.208 1149.11 260.856 1149.11 257.4C1149.11 253.944 1147.53 251.592 1144.71 251.592C1141.9 251.592 1140.31 253.944 1140.31 257.4C1140.31 260.856 1141.9 263.208 1144.71 263.208ZM1144.71 261.416C1143.06 261.416 1142.15 259.976 1142.15 257.4C1142.15 254.824 1143.06 253.384 1144.71 253.384C1146.38 253.384 1147.27 254.824 1147.27 257.4C1147.27 259.976 1146.38 261.416 1144.71 261.416ZM1152.86 256.712C1154.37 256.712 1155.47 255.56 1155.47 254.152C1155.47 252.712 1154.35 251.592 1152.86 251.592C1151.36 251.592 1150.24 252.728 1150.24 254.152C1150.24 255.56 1151.36 256.712 1152.86 256.712ZM1152.85 255.304C1152.17 255.304 1151.71 254.792 1151.71 254.152C1151.71 253.496 1152.17 252.984 1152.85 252.984C1153.53 252.984 1154 253.496 1154 254.152C1154 254.776 1153.53 255.304 1152.85 255.304ZM1151.18 261.352L1152.05 261.864L1159.42 253.64L1158.56 253.144L1151.18 261.352ZM1157.98 263.192C1159.47 263.192 1160.59 262.04 1160.59 260.632C1160.59 259.208 1159.47 258.072 1157.98 258.072C1156.48 258.072 1155.36 259.208 1155.36 260.632C1155.36 262.04 1156.48 263.192 1157.98 263.192ZM1157.97 261.784C1157.29 261.784 1156.83 261.272 1156.83 260.632C1156.83 259.976 1157.29 259.464 1157.97 259.464C1158.65 259.464 1159.12 259.976 1159.12 260.632C1159.12 261.256 1158.65 261.784 1157.97 261.784Z" fill="#199F27"/>
<path d="M1122.4 286.024H1120.99L1121.18 283.528H1125.73V281.8H1119.49L1119.06 287.816H1122.32C1123.54 287.816 1124.37 288.488 1124.37 289.608C1124.37 290.728 1123.54 291.416 1122.29 291.416C1121.12 291.416 1120.35 290.888 1120.06 289.896L1118.48 290.808C1119.07 292.424 1120.59 293.208 1122.29 293.208C1124.35 293.208 1126.21 291.96 1126.21 289.608C1126.21 287.272 1124.43 286.024 1122.4 286.024ZM1129.81 291.08H1127.89L1127.25 295.24H1128.69L1129.81 291.08ZM1135.01 285.56H1134.8L1137.36 281.8H1135.26L1131.71 287.128C1131.28 287.752 1131.04 288.52 1131.04 289.384C1131.04 291.64 1132.67 293.208 1135.01 293.208C1137.33 293.208 1138.96 291.64 1138.96 289.384C1138.96 287.128 1137.33 285.56 1135.01 285.56ZM1135.01 291.464C1133.78 291.464 1132.88 290.664 1132.88 289.384C1132.88 288.104 1133.78 287.304 1135.01 287.304C1136.22 287.304 1137.12 288.104 1137.12 289.384C1137.12 290.648 1136.22 291.464 1135.01 291.464ZM1144.4 293.208C1147.22 293.208 1148.8 290.856 1148.8 287.4C1148.8 283.944 1147.22 281.592 1144.4 281.592C1141.58 281.592 1140 283.944 1140 287.4C1140 290.856 1141.58 293.208 1144.4 293.208ZM1144.4 291.416C1142.75 291.416 1141.84 289.976 1141.84 287.4C1141.84 284.824 1142.75 283.384 1144.4 283.384C1146.06 283.384 1146.96 284.824 1146.96 287.4C1146.96 289.976 1146.06 291.416 1144.4 291.416ZM1152.55 286.712C1154.05 286.712 1155.16 285.56 1155.16 284.152C1155.16 282.712 1154.04 281.592 1152.55 281.592C1151.05 281.592 1149.93 282.728 1149.93 284.152C1149.93 285.56 1151.05 286.712 1152.55 286.712ZM1152.53 285.304C1151.86 285.304 1151.4 284.792 1151.4 284.152C1151.4 283.496 1151.86 282.984 1152.53 282.984C1153.22 282.984 1153.69 283.496 1153.69 284.152C1153.69 284.776 1153.22 285.304 1152.53 285.304ZM1150.87 291.352L1151.73 291.864L1159.11 283.64L1158.25 283.144L1150.87 291.352ZM1157.67 293.192C1159.16 293.192 1160.28 292.04 1160.28 290.632C1160.28 289.208 1159.16 288.072 1157.67 288.072C1156.17 288.072 1155.05 289.208 1155.05 290.632C1155.05 292.04 1156.17 293.192 1157.67 293.192ZM1157.65 291.784C1156.98 291.784 1156.52 291.272 1156.52 290.632C1156.52 289.976 1156.98 289.464 1157.65 289.464C1158.34 289.464 1158.81 289.976 1158.81 290.632C1158.81 291.256 1158.34 291.784 1157.65 291.784Z" fill="#199F27"/>
<path d="M478.56 771H473.4V785H475.7V780.2H478.56C481.2 780.2 483.2 778.18 483.2 775.6C483.2 773 481.2 771 478.56 771ZM478.56 778.04H475.7V773.16H478.56C479.92 773.16 480.9 774.18 480.9 775.6C480.9 777 479.92 778.04 478.56 778.04ZM489.074 785.26C492.014 785.26 494.354 782.96 494.354 780C494.354 777.02 492.014 774.74 489.074 774.74C486.154 774.74 483.794 777.02 483.794 780C483.794 782.96 486.154 785.26 489.074 785.26ZM489.074 783.16C487.314 783.16 485.954 781.82 485.954 780C485.954 778.18 487.314 776.84 489.074 776.84C490.834 776.84 492.194 778.18 492.194 780C492.194 781.82 490.834 783.16 489.074 783.16ZM498.467 776.68V775H496.307V785H498.467V779.96C498.467 777.72 500.127 777.06 501.547 777.16V774.82C500.287 774.82 499.067 775.32 498.467 776.68ZM508.977 777.08V775H506.497V772.2L504.337 772.84V775H502.497V777.08H504.337V781.88C504.337 784.48 505.657 785.4 508.977 785V783.06C507.337 783.14 506.497 783.16 506.497 781.88V777.08H508.977ZM515.648 772.82V770.74C512.648 770.54 511.128 772.1 511.128 774.8V775H509.608V777.08H511.128V785H513.288V777.08H515.648V775H513.288V774.8C513.288 773.26 514.128 772.68 515.648 772.82ZM521.164 785.26C524.104 785.26 526.444 782.96 526.444 780C526.444 777.02 524.104 774.74 521.164 774.74C518.244 774.74 515.884 777.02 515.884 780C515.884 782.96 518.244 785.26 521.164 785.26ZM521.164 783.16C519.404 783.16 518.044 781.82 518.044 780C518.044 778.18 519.404 776.84 521.164 776.84C522.924 776.84 524.284 778.18 524.284 780C524.284 781.82 522.924 783.16 521.164 783.16ZM528.397 785H530.557V770.4H528.397V785ZM534.145 773.5C534.905 773.5 535.525 772.86 535.525 772.12C535.525 771.36 534.905 770.74 534.145 770.74C533.385 770.74 532.765 771.36 532.765 772.12C532.765 772.86 533.385 773.5 534.145 773.5ZM533.065 785H535.225V775H533.065V785ZM542.453 785.26C545.393 785.26 547.733 782.96 547.733 780C547.733 777.02 545.393 774.74 542.453 774.74C539.533 774.74 537.173 777.02 537.173 780C537.173 782.96 539.533 785.26 542.453 785.26ZM542.453 783.16C540.693 783.16 539.333 781.82 539.333 780C539.333 778.18 540.693 776.84 542.453 776.84C544.213 776.84 545.573 778.18 545.573 780C545.573 781.82 544.213 783.16 542.453 783.16Z" fill="#373943"/>
<circle cx="166.5" cy="153.5" r="6.5" fill="white"/>
<circle opacity="0.3" cx="190.5" cy="153.5" r="6.5" fill="white"/>
<circle opacity="0.3" cx="215.5" cy="153.5" r="6.5" fill="white"/>
<line x1="216" y1="729.5" x2="1234" y2="729.5" stroke="#EAF1FE"/>
<line x1="283.5" y1="730" x2="283.5" y2="323" stroke="#EAF1FE"/>
<line x1="454.5" y1="730" x2="454.5" y2="323" stroke="#EAF1FE"/>
<line x1="643.5" y1="730" x2="643.5" y2="323" stroke="#EAF1FE"/>
<line x1="826.5" y1="730" x2="826.5" y2="323" stroke="#EAF1FE"/>
<line x1="1004.5" y1="730" x2="1004.5" y2="323" stroke="#EAF1FE"/>
<line x1="1185.5" y1="730" x2="1185.5" y2="323" stroke="#EAF1FE"/>
<line x1="216" y1="601.5" x2="1234" y2="601.5" stroke="#EAF1FE"/>
<line x1="216" y1="474.5" x2="1234" y2="474.5" stroke="#EAF1FE"/>
<line x1="218" y1="347.5" x2="1236" y2="347.5" stroke="#EAF1FE"/>
<circle cx="245" cy="778" r="9" fill="#ED6373"/>
<circle cx="449" cy="778" r="9" fill="#3E54D8"/>
<path d="M245 728L375.565 675.269L497.626 689.537L623.189 533.204L748.751 485.435H876.815L1115.93 404.167L1247 393" stroke="#3E54D8" stroke-width="3"/>
<path d="M247 728L373.5 682.167L495.5 679.689L623 547.764L747.5 492.64L877.5 499.453L1003.5 480.872L1121 479.014L1247 453" stroke="#ED6373" stroke-width="3"/>
<circle cx="1121" cy="479" r="10" fill="#ED6373"/>
<circle cx="1121" cy="403" r="10" fill="#3E54D8"/>
<g filter="url(#filter1_bd)">
<rect x="762" y="432" width="338" height="151" rx="23" fill="white" fill-opacity="0.78"/>
<rect x="762.5" y="432.5" width="337" height="150" rx="22.5" stroke="#EAF1FE"/>
</g>
<path d="M829.06 551.26C831.98 551.26 834.02 549.7 834.02 547.14C834.02 544.36 831.68 543.64 829.36 542.9C827.32 542.26 826.54 541.8 826.54 540.72C826.54 539.66 827.4 538.98 828.74 538.98C830.3 538.98 831.18 539.82 831.68 540.94L833.62 539.82C832.74 537.96 831.04 536.74 828.74 536.74C826.38 536.74 824.24 538.2 824.24 540.78C824.24 543.42 826.36 544.22 828.54 544.88C830.62 545.52 831.72 545.94 831.72 547.18C831.72 548.2 830.94 549.02 829.12 549.02C827.22 549.02 826.14 548.08 825.64 546.66L823.66 547.82C824.4 549.9 826.3 551.26 829.06 551.26ZM847.326 550.3L845.506 548.32C846.066 547.42 846.446 546.38 846.666 545.36L844.706 544.24C844.566 545.18 844.326 546 843.986 546.68L840.586 543C839.926 542.28 839.386 541.66 839.386 540.76C839.386 539.68 840.266 538.98 841.366 538.98C842.466 538.98 843.326 539.66 843.706 540.78L845.666 539.66C844.906 537.76 843.226 536.74 841.346 536.74C838.986 536.74 837.086 538.3 837.086 540.7C837.086 541.72 837.406 542.48 837.886 543.14C836.266 544.02 835.426 545.52 835.426 547.16C835.426 549.72 837.426 551.26 840.226 551.26C841.846 551.26 843.126 550.74 844.126 549.94L845.466 551.38L847.326 550.3ZM840.346 549.12C838.666 549.12 837.746 548.26 837.746 546.98C837.746 546.14 838.146 545.22 839.226 544.68L842.666 548.38C842.026 548.86 841.266 549.12 840.346 549.12ZM854.345 537H849.185V551H851.485V546.2H854.345C856.985 546.2 858.985 544.18 858.985 541.6C858.985 539 856.985 537 854.345 537ZM854.345 544.04H851.485V539.16H854.345C855.705 539.16 856.685 540.18 856.685 541.6C856.685 543 855.705 544.04 854.345 544.04ZM865.082 542.28H863.322L863.562 539.16H869.242V537H861.442L860.902 544.52H864.982C866.502 544.52 867.542 545.36 867.542 546.76C867.542 548.16 866.502 549.02 864.942 549.02C863.482 549.02 862.522 548.36 862.162 547.12L860.182 548.26C860.922 550.28 862.822 551.26 864.942 551.26C867.522 551.26 869.842 549.7 869.842 546.76C869.842 543.84 867.622 542.28 865.082 542.28ZM876.624 551.26C880.144 551.26 882.124 548.32 882.124 544C882.124 539.68 880.144 536.74 876.624 536.74C873.104 536.74 871.124 539.68 871.124 544C871.124 548.32 873.104 551.26 876.624 551.26ZM876.624 549.02C874.564 549.02 873.424 547.22 873.424 544C873.424 540.78 874.564 538.98 876.624 538.98C878.704 538.98 879.824 540.78 879.824 544C879.824 547.22 878.704 549.02 876.624 549.02ZM889.222 551.26C892.742 551.26 894.722 548.32 894.722 544C894.722 539.68 892.742 536.74 889.222 536.74C885.702 536.74 883.722 539.68 883.722 544C883.722 548.32 885.702 551.26 889.222 551.26ZM889.222 549.02C887.162 549.02 886.022 547.22 886.022 544C886.022 540.78 887.162 538.98 889.222 538.98C891.302 538.98 892.422 540.78 892.422 544C892.422 547.22 891.302 549.02 889.222 549.02Z" fill="#373943"/>
<path d="M974.185 545.8H972.785V542.8H969.545V545.8H966.625L971.085 537H967.645L963.185 545.8V548.76H969.545V551H972.785V548.76H974.185V545.8ZM980.917 541.42L983.957 537H980.277L975.997 543.5C975.477 544.28 975.177 545.26 975.177 546.34C975.177 549.24 977.277 551.28 980.377 551.28C983.457 551.28 985.577 549.24 985.577 546.34C985.577 543.62 983.697 541.64 980.917 541.42ZM980.377 548.28C979.297 548.28 978.377 547.58 978.377 546.34C978.377 545.1 979.297 544.4 980.377 544.4C981.437 544.4 982.377 545.12 982.377 546.34C982.377 547.56 981.437 548.28 980.377 548.28ZM990.478 547.9H987.278L986.478 553.8H988.878L990.478 547.9ZM991.579 537V540.08H997.219L992.819 551H996.219L1000.78 539.68V537H991.579ZM1007.09 551.28C1010.71 551.28 1012.79 548.32 1012.79 544C1012.79 539.68 1010.71 536.72 1007.09 536.72C1003.47 536.72 1001.39 539.68 1001.39 544C1001.39 548.32 1003.47 551.28 1007.09 551.28ZM1007.09 548.16C1005.41 548.16 1004.59 546.7 1004.59 544C1004.59 541.3 1005.41 539.84 1007.09 539.84C1008.77 539.84 1009.59 541.3 1009.59 544C1009.59 546.7 1008.77 548.16 1007.09 548.16ZM1018.9 541.92H1017.76L1017.9 540H1023V537H1014.9L1014.32 545.04H1018.7C1019.92 545.04 1020.5 545.74 1020.5 546.6C1020.5 547.46 1019.92 548.16 1018.6 548.16C1017.28 548.16 1016.68 547.6 1016.36 546.68L1013.6 548.28C1014.46 550.34 1016.38 551.28 1018.6 551.28C1021.3 551.28 1023.7 549.68 1023.7 546.6C1023.7 543.52 1021.5 541.92 1018.9 541.92ZM1035.69 551.28C1038.77 551.28 1041.09 549.48 1041.09 546.48V537H1037.89V546.2C1037.89 547.26 1037.39 548.16 1035.69 548.16C1033.99 548.16 1033.49 547.26 1033.49 546.2V537H1030.29V546.48C1030.29 549.48 1032.61 551.28 1035.69 551.28ZM1048.3 551.28C1051.34 551.28 1053.5 549.68 1053.5 546.98C1053.5 544.02 1051.12 543.28 1049 542.64C1046.82 541.98 1046.48 541.54 1046.48 540.9C1046.48 540.34 1046.98 539.84 1047.98 539.84C1049.26 539.84 1049.92 540.46 1050.4 541.46L1053.1 539.88C1052.08 537.82 1050.28 536.72 1047.98 536.72C1045.56 536.72 1043.28 538.28 1043.28 540.98C1043.28 543.66 1045.32 544.66 1047.4 545.24C1049.5 545.82 1050.3 546.16 1050.3 547.02C1050.3 547.56 1049.92 548.16 1048.4 548.16C1046.82 548.16 1045.96 547.38 1045.46 546.22L1042.7 547.82C1043.48 549.88 1045.36 551.28 1048.3 551.28ZM1060.6 537H1055V551H1060.6C1064.46 551 1067.4 547.96 1067.4 544C1067.4 540.04 1064.46 537 1060.6 537ZM1060.6 547.92H1058.2V540.08H1060.6C1062.8 540.08 1064.32 541.6 1064.32 544C1064.32 546.4 1062.8 547.92 1060.6 547.92Z" fill="#373943"/>
<path d="M829.56 501H824.4V515H826.7V510.2H829.56C832.2 510.2 834.2 508.18 834.2 505.6C834.2 503 832.2 501 829.56 501ZM829.56 508.04H826.7V503.16H829.56C830.92 503.16 831.9 504.18 831.9 505.6C831.9 507 830.92 508.04 829.56 508.04ZM840.074 515.26C843.014 515.26 845.354 512.96 845.354 510C845.354 507.02 843.014 504.74 840.074 504.74C837.154 504.74 834.794 507.02 834.794 510C834.794 512.96 837.154 515.26 840.074 515.26ZM840.074 513.16C838.314 513.16 836.954 511.82 836.954 510C836.954 508.18 838.314 506.84 840.074 506.84C841.834 506.84 843.194 508.18 843.194 510C843.194 511.82 841.834 513.16 840.074 513.16ZM849.467 506.68V505H847.307V515H849.467V509.96C849.467 507.72 851.127 507.06 852.547 507.16V504.82C851.287 504.82 850.067 505.32 849.467 506.68ZM859.977 507.08V505H857.497V502.2L855.337 502.84V505H853.497V507.08H855.337V511.88C855.337 514.48 856.657 515.4 859.977 515V513.06C858.337 513.14 857.497 513.16 857.497 511.88V507.08H859.977ZM866.648 502.82V500.74C863.648 500.54 862.128 502.1 862.128 504.8V505H860.608V507.08H862.128V515H864.288V507.08H866.648V505H864.288V504.8C864.288 503.26 865.128 502.68 866.648 502.82ZM872.164 515.26C875.104 515.26 877.444 512.96 877.444 510C877.444 507.02 875.104 504.74 872.164 504.74C869.244 504.74 866.884 507.02 866.884 510C866.884 512.96 869.244 515.26 872.164 515.26ZM872.164 513.16C870.404 513.16 869.044 511.82 869.044 510C869.044 508.18 870.404 506.84 872.164 506.84C873.924 506.84 875.284 508.18 875.284 510C875.284 511.82 873.924 513.16 872.164 513.16ZM879.397 515H881.557V500.4H879.397V515ZM885.145 503.5C885.905 503.5 886.525 502.86 886.525 502.12C886.525 501.36 885.905 500.74 885.145 500.74C884.385 500.74 883.765 501.36 883.765 502.12C883.765 502.86 884.385 503.5 885.145 503.5ZM884.065 515H886.225V505H884.065V515ZM893.453 515.26C896.393 515.26 898.733 512.96 898.733 510C898.733 507.02 896.393 504.74 893.453 504.74C890.533 504.74 888.173 507.02 888.173 510C888.173 512.96 890.533 515.26 893.453 515.26ZM893.453 513.16C891.693 513.16 890.333 511.82 890.333 510C890.333 508.18 891.693 506.84 893.453 506.84C895.213 506.84 896.573 508.18 896.573 510C896.573 511.82 895.213 513.16 893.453 513.16Z" fill="#373943"/>
<path d="M975.634 505.92H974.494L974.634 504H979.734V501H971.634L971.054 509.04H975.434C976.654 509.04 977.234 509.74 977.234 510.6C977.234 511.46 976.654 512.16 975.334 512.16C974.014 512.16 973.414 511.6 973.094 510.68L970.334 512.28C971.194 514.34 973.114 515.28 975.334 515.28C978.034 515.28 980.434 513.68 980.434 510.6C980.434 507.52 978.234 505.92 975.634 505.92ZM984.399 501L980.739 502.32L981.519 505.06L983.999 504.38V515H987.199V501H984.399ZM993.505 511.9H990.305L989.505 517.8H991.905L993.505 511.9ZM1003.8 505.66C1003.8 502.76 1001.7 500.72 998.6 500.72C995.52 500.72 993.4 502.76 993.4 505.66C993.4 508.38 995.28 510.36 998.06 510.58L995.02 515H998.7L1002.98 508.5C1003.5 507.72 1003.8 506.74 1003.8 505.66ZM996.6 505.66C996.6 504.44 997.54 503.72 998.6 503.72C999.68 503.72 1000.6 504.42 1000.6 505.66C1000.6 506.9 999.68 507.6 998.6 507.6C997.54 507.6 996.6 506.88 996.6 505.66ZM1004.2 501V504.08H1009.84L1005.44 515H1008.84L1013.4 503.68V501H1004.2ZM1018.9 505.92H1017.76L1017.9 504H1023V501H1014.9L1014.32 509.04H1018.7C1019.92 509.04 1020.5 509.74 1020.5 510.6C1020.5 511.46 1019.92 512.16 1018.6 512.16C1017.28 512.16 1016.68 511.6 1016.36 510.68L1013.6 512.28C1014.46 514.34 1016.38 515.28 1018.6 515.28C1021.3 515.28 1023.7 513.68 1023.7 510.6C1023.7 507.52 1021.5 505.92 1018.9 505.92ZM1035.69 515.28C1038.77 515.28 1041.09 513.48 1041.09 510.48V501H1037.89V510.2C1037.89 511.26 1037.39 512.16 1035.69 512.16C1033.99 512.16 1033.49 511.26 1033.49 510.2V501H1030.29V510.48C1030.29 513.48 1032.61 515.28 1035.69 515.28ZM1048.3 515.28C1051.34 515.28 1053.5 513.68 1053.5 510.98C1053.5 508.02 1051.12 507.28 1049 506.64C1046.82 505.98 1046.48 505.54 1046.48 504.9C1046.48 504.34 1046.98 503.84 1047.98 503.84C1049.26 503.84 1049.92 504.46 1050.4 505.46L1053.1 503.88C1052.08 501.82 1050.28 500.72 1047.98 500.72C1045.56 500.72 1043.28 502.28 1043.28 504.98C1043.28 507.66 1045.32 508.66 1047.4 509.24C1049.5 509.82 1050.3 510.16 1050.3 511.02C1050.3 511.56 1049.92 512.16 1048.4 512.16C1046.82 512.16 1045.96 511.38 1045.46 510.22L1042.7 511.82C1043.48 513.88 1045.36 515.28 1048.3 515.28ZM1060.6 501H1055V515H1060.6C1064.46 515 1067.4 511.96 1067.4 508C1067.4 504.04 1064.46 501 1060.6 501ZM1060.6 511.92H1058.2V504.08H1060.6C1062.8 504.08 1064.32 505.6 1064.32 508C1064.32 510.4 1062.8 511.92 1060.6 511.92Z" fill="#373943"/>
<path d="M805.915 460H802.715L798.915 466.22L795.115 460H791.915V474H795.115V465.86L798.735 471.8H799.095L802.715 465.86V474H805.915V460ZM815.481 464V464.94C814.821 464.18 813.841 463.72 812.501 463.72C809.881 463.72 807.721 466.02 807.721 469C807.721 471.98 809.881 474.28 812.501 474.28C813.841 474.28 814.821 473.82 815.481 473.06V474H818.481V464H815.481ZM813.101 471.44C811.721 471.44 810.721 470.5 810.721 469C810.721 467.5 811.721 466.56 813.101 466.56C814.481 466.56 815.481 467.5 815.481 469C815.481 470.5 814.481 471.44 813.101 471.44ZM823.682 465.78V464H820.682V474H823.682V469.48C823.682 467.5 825.442 467 826.682 467.2V463.8C825.422 463.8 824.082 464.44 823.682 465.78ZM832.424 474H841.944V470.92H837.244L839.564 468.58C840.844 467.3 841.744 465.86 841.744 464.18C841.744 461.36 839.504 459.72 837.004 459.72C835.064 459.72 833.184 460.7 832.284 462.78L834.984 464.36C835.364 463.48 836.064 462.84 837.044 462.84C837.984 462.84 838.544 463.44 838.544 464.32C838.544 465.14 837.944 465.96 837.124 466.8L832.424 471.68V474ZM848.753 474.28C852.373 474.28 854.453 471.32 854.453 467C854.453 462.68 852.373 459.72 848.753 459.72C845.133 459.72 843.053 462.68 843.053 467C843.053 471.32 845.133 474.28 848.753 474.28ZM848.753 471.16C847.073 471.16 846.253 469.7 846.253 467C846.253 464.3 847.073 462.84 848.753 462.84C850.433 462.84 851.253 464.3 851.253 467C851.253 469.7 850.433 471.16 848.753 471.16ZM855.1 474H864.62V470.92H859.92L862.24 468.58C863.52 467.3 864.42 465.86 864.42 464.18C864.42 461.36 862.18 459.72 859.68 459.72C857.74 459.72 855.86 460.7 854.96 462.78L857.66 464.36C858.04 463.48 858.74 462.84 859.72 462.84C860.66 462.84 861.22 463.44 861.22 464.32C861.22 465.14 860.62 465.96 859.8 466.8L855.1 471.68V474ZM868.794 460L865.134 461.32L865.914 464.06L868.394 463.38V474H871.594V460H868.794Z" fill="#373943"/>
<circle cx="800" cy="544" r="9" fill="#ED6373"/>
<circle cx="800" cy="508" r="9" fill="#3E54D8"/>
<defs>
<filter id="filter0_d" x="52" y="93" width="1314" height="863" filterUnits="userSpaceOnUse" color-interpolation-filters="sRGB">
<feFlood flood-opacity="0" result="BackgroundImageFix"/>
<feColorMatrix in="SourceAlpha" type="matrix" values="0 0 0 0 0 0 0 0 0 0 0 0 0 0 0 0 0 0 127 0"/>
<feMorphology radius="17" operator="erode" in="SourceAlpha" result="effect1_dropShadow"/>
<feOffset dy="44"/>
<feGaussianBlur stdDeviation="44.5"/>
<feColorMatrix type="matrix" values="0 0 0 0 0.243137 0 0 0 0 0.329412 0 0 0 0 0.847059 0 0 0 0.06 0"/>
<feBlend mode="normal" in2="BackgroundImageFix" result="effect1_dropShadow"/>
<feBlend mode="normal" in="SourceGraphic" in2="effect1_dropShadow" result="shape"/>
</filter>
<filter id="filter1_bd" x="748" y="424" width="366" height="185" filterUnits="userSpaceOnUse" color-interpolation-filters="sRGB">
<feFlood flood-opacity="0" result="BackgroundImageFix"/>
<feGaussianBlur in="BackgroundImage" stdDeviation="4"/>
<feComposite in2="SourceAlpha" operator="in" result="effect1_backgroundBlur"/>
<feColorMatrix in="SourceAlpha" type="matrix" values="0 0 0 0 0 0 0 0 0 0 0 0 0 0 0 0 0 0 127 0"/>
<feMorphology radius="9" operator="erode" in="SourceAlpha" result="effect2_dropShadow"/>
<feOffset dy="12"/>
<feGaussianBlur stdDeviation="11.5"/>
<feColorMatrix type="matrix" values="0 0 0 0 0.596875 0 0 0 0 0.66651 0 0 0 0 0.795833 0 0 0 0.3 0"/>
<feBlend mode="normal" in2="effect1_backgroundBlur" result="effect2_dropShadow"/>
<feBlend mode="normal" in="SourceGraphic" in2="effect2_dropShadow" result="shape"/>
</filter>
</defs>
</svg>
